<?xml version="1.0" standalone="no"?>
<!DOCTYPE svg PUBLIC "-//W3C//DTD SVG 1.1//EN" "http://www.w3.org/Graphics/SVG/1.1/DTD/svg11.dtd" >
<svg xmlns="http://www.w3.org/2000/svg" xmlns:xlink="http://www.w3.org/1999/xlink" version="1.1">
<metadata>
Created by FontForge 20170731 at Thu Dec  9 08:01:49 2021
 By Aleksey,,,
</metadata>
<defs>
<font id="SilveraRegular" horiz-adv-x="1626" >
  <font-face 
    font-family="Silvera"
    font-weight="400"
    font-stretch="normal"
    units-per-em="2048"
    panose-1="0 0 0 0 0 0 0 0 0 0"
    ascent="1638"
    descent="-410"
    x-height="1432"
    cap-height="1761"
    bbox="-772 -1072.75 2728.28 2244"
    underline-thickness="102"
    underline-position="-307"
    unicode-range="U+000A-F022"
  />
<missing-glyph horiz-adv-x="1079" 
d="M102 1434h875v-1434h-875v1434zM160 1393l379 -633l381 633h-760zM514 717l-369 614v-1231zM541 674l-379 -631h758zM565 717l371 -621v1239z" />
    <glyph glyph-name=".notdef" horiz-adv-x="1079" 
d="M102 1434h875v-1434h-875v1434zM160 1393l379 -633l381 633h-760zM514 717l-369 614v-1231zM541 674l-379 -631h758zM565 717l371 -621v1239z" />
    <glyph glyph-name=".null" horiz-adv-x="0" 
 />
    <glyph glyph-name=".null" horiz-adv-x="0" 
 />
    <glyph glyph-name="nonmarkingreturn" horiz-adv-x="682" 
 />
    <glyph glyph-name="controlLF" unicode="&#xa;" horiz-adv-x="0" 
 />
    <glyph glyph-name="controlCR" unicode="&#xd;" horiz-adv-x="0" 
 />
    <glyph glyph-name="space" unicode=" " horiz-adv-x="772" 
 />
    <glyph glyph-name="exclam" unicode="!" horiz-adv-x="532" 
d="M267 156q39 2 68 -24t31 -66q-2 -39 -31 -65.5t-68 -25.5q-40 -2 -69.5 24.5t-31.5 66.5q2 39 32 66t69 24zM308 300h-80l-27 1128h134z" />
    <glyph glyph-name="quotedbl" unicode="&#x22;" horiz-adv-x="811" 
d="M514 1418h148l-1 -6l-33 -662h-78zM183 750l-36 668h146v-6l-32 -662h-78z" />
    <glyph glyph-name="numbersign" unicode="#" 
d="M1485 983h-339l-101 -403h301v-73h-319l-128 -513h-90l128 513h-394l-128 -513h-90l128 513h-312v73h331l100 403h-292v72h309l112 447h90l-112 -447h393l113 447h90l-113 -447h323v-72zM1056 983h-394l-100 -403h393z" />
    <glyph glyph-name="dollar" unicode="$" horiz-adv-x="1267" 
d="M1094 382q33 -126 -32 -239q-4 -7 -13 -19.5t-38.5 -38.5t-68.5 -47t-108 -39.5t-151 -22.5v-243h-98v243q-70 4 -136.5 16t-110.5 25.5t-79 28.5t-50 23t-17 10l-3 2v394h30v-6q0 -107 8.5 -177t30.5 -127t63.5 -88.5t105 -49.5t158.5 -21v684l-134 83q-3 2 -13 8.5
t-16 10.5q-35 23 -57 39t-60.5 48.5t-61 60t-46 68.5t-29 80t4 88t39.5 99q2 3 14.5 17t44 38.5t72.5 47t105.5 39.5t136.5 19v247h98v-247q184 -12 354 -93l4 -2v-346h-35v6q0 74 -3.5 122t-15 96.5t-33 77.5t-57.5 53.5t-88.5 37t-125.5 16.5v-636l165 -97
q204 -122 246 -289zM992 213q22 88 -20 178t-131 145l-158 95v-625q67 5 121 23t86 40.5t55 51.5t32.5 50t14.5 42zM584 1406q-101 -4 -189.5 -68t-110.5 -148q-20 -77 25 -151.5t150 -136.5l125 -75v579z" />
    <glyph glyph-name="percent" unicode="%" horiz-adv-x="1789" 
d="M738 991q0 -47 -5.5 -90t-24.5 -94t-49.5 -88.5t-85.5 -62.5t-128 -25q-72 0 -127 25t-85 62.5t-49 88.5t-24.5 94.5t-5.5 89.5q0 49 5.5 93.5t24.5 98t49 92.5t85 65t127 26q75 0 131.5 -29t86.5 -69.5t48 -96.5t22.5 -97t4.5 -83zM445 1336q-193 0 -193 -345
q0 -85 12.5 -147.5t31 -96.5t46 -54t51 -25.5t52.5 -5.5q31 0 55.5 6t51.5 26.5t45 55t30 96t12 145.5q0 345 -194 345zM1341 776q75 0 131.5 -29t86.5 -69.5t48 -96.5t22.5 -97t4.5 -83q0 -47 -5.5 -89.5t-24.5 -94t-49.5 -88.5t-85.5 -62t-128 -25q-72 0 -127 25t-85 62
t-49 88.5t-24.5 94.5t-5.5 89q0 49 5.5 93.5t24.5 98t49 92.5t85 65t127 26zM1536 401q0 345 -195 345q-192 0 -192 -345q0 -85 12.5 -147.5t31 -96.5t45.5 -54t50.5 -25.5t52.5 -5.5q31 0 55.5 6t52 26.5t45.5 55t30 96t12 145.5zM1347 1418h106l-1016 -1424h-106z" />
    <glyph glyph-name="ampersand" unicode="&#x26;" horiz-adv-x="2029" 
d="M1902 5l-363 -2q0 -92 -29 -181q-66 -194 -281 -265q-311 -101 -635 51q-323 151 -409 437q-35 112 -21 229q13 111 73 207q1 2 3.5 7.5t4.5 7.5l9 12q1 1 2.5 4l2.5 5q4 6 6 8q25 37 69 90q60 72 138 169q-100 145 -145 227q-45 77 -74 163q-43 123 7 247q23 54 67 92
t100 55q67 23 138.5 14t131.5 -48q65 -38 111.5 -98.5t66.5 -133.5q12 -44 11 -87q-3 -49 -18 -95q-14 -34 -23 -50q-14 -28 -23 -43q-24 -39 -57 -84q-3 -4 -8.5 -11.5t-8.5 -10.5q-4 -5 -10 -14.5t-9 -12.5q-7 -9 -23 -25l-42 -46q-39 -46 -77 -88q0 -1 -1.5 -3t-2.5 -2
l-9 -11l-6 -6l-1 -1q112 -145 160 -321q33 -129 32 -260h649q-13 80 -34 148q-12 42 -33 100q-17 49 -44 116l-42 104l-44 106l-19 49h334v-21h-21h-9t-21 -4.5t-27.5 -13t-24.5 -27t-16.5 -44.5t1.5 -69t24 -97l12 -33q7 -18 8 -23q22 -61 36 -109q9 -29 18 -66
q15 -58 24 -119h9l35 -1q78 -1 129 14t69 36.5t24.5 44t1.5 38.5l-4 15l-6 20l20 7zM384 989q46 -84 112 -175q7 8 32 37t36 41q7 9 24 28q25 29 50 64q1 2 3 4q1 1 3 4q8 12 12 17q2 2 6 8t7 9q17 23 27 37q1 1 2.5 4l2.5 5q6 9 16 25q44 66 59 146q12 68 -8 134
q-26 93 -114 139q-83 48 -175 18q-53 -17 -94.5 -55.5t-61.5 -90.5q-48 -119 -6 -241q26 -86 67 -158zM1391 -147q25 73 26 150l-844 -4v15q6 4 16 12.5t35 37t43 60t29.5 81t5.5 101.5q-4 36 -14 77q-40 165 -143 304l-1 -1q-66 -73 -127 -154q-53 -68 -92 -138
q-53 -92 -70 -200q-12 -97 16 -188q45 -151 163 -253q124 -107 282 -142q57 -12 102 -17q33 -4 102 -6q65 0 116 8q49 7 105 25q190 62 250 232z" />
    <glyph glyph-name="quotesingle" unicode="'" horiz-adv-x="442" 
d="M147 1418h146v-6l-32 -662h-78z" />
    <glyph glyph-name="quotesingle" unicode="&#x2018;" horiz-adv-x="442" 
d="M147 1418h146v-6l-32 -662h-78z" />
    <glyph glyph-name="parenleft" unicode="(" horiz-adv-x="761" 
d="M683 1477l-5 -5q-181 -199 -280 -449.5t-102 -519.5q0 -275 104 -519q97 -227 271 -369l5 -4l-28 -33l-4 3q-216 172 -346 412q-136 250 -136 516q0 116 27 234t68 211t95 182.5t102 151t95.5 113.5t69.5 72t29 26l3 3z" />
    <glyph glyph-name="parenright" unicode=")" horiz-adv-x="759" 
d="M111 1501q7 -6 29 -26t69.5 -72t95.5 -113.5t102 -151t95 -182.5t68 -211t27 -234t-26.5 -230t-68 -203t-94 -170.5t-101.5 -137.5t-94.5 -101t-69 -64t-28.5 -22l-5 -3l-27 33l4 4q79 65 142.5 148.5t101.5 161t66 165.5t40.5 151.5t18.5 130.5t6.5 89.5t0.5 40.5v1
q-3 269 -102 519.5t-281 449.5l-4 5l31 25z" />
    <glyph glyph-name="asterisk" unicode="*" horiz-adv-x="1183" 
d="M1048 1072l-409 -87l276 -286l-106 -72l-217 327l-217 -327l-106 72l275 286l-409 87l42 115l386 -151l-38 382h133l-37 -382l387 151z" />
    <glyph glyph-name="plus" unicode="+" horiz-adv-x="1603" 
d="M855 672h616v-99h-616v-579h-106v579h-618v99h618v576h106v-576z" />
    <glyph glyph-name="comma" unicode="," horiz-adv-x="391" 
d="M246 110q38 -32 39 -102t-35 -132l-7 -10q-47 -78 -131 -111l-4 -2l-12 16l6 3q42 25 69 53t35 49t12 40.5t-1 27.5q-2 29 -29 42q-2 0 -5.5 1t-5.5 1q-24 3 -44 17q-25 17 -27 47q-2 34 24 60q25 22 58 22t58 -22z" />
    <glyph glyph-name="hyphen" unicode="-" horiz-adv-x="905" 
d="M806 461h-708v99h708v-99z" />
    <glyph glyph-name="period" unicode="." horiz-adv-x="370" 
d="M183 132q47 3 71 -35q24 -39 0 -78q-24 -38 -71 -35q-32 -2 -54 19q-23 22 -25 53q0 33 24 55t55 21z" />
    <glyph glyph-name="slash" unicode="/" horiz-adv-x="1026" 
d="M790 1460h126l-685 -1509h-127z" />
    <glyph glyph-name="zero" unicode="0" horiz-adv-x="1490" 
d="M1220 1181q104 -187 104 -481q0 -64 -5.5 -124.5t-21.5 -134.5t-42 -136.5t-70.5 -123.5t-103.5 -104t-145 -69t-190 -26q-105 0 -191 26t-145 69t-104 104t-71 123.5t-42 136.5t-21.5 134.5t-5.5 124.5q0 294 105 481q146 261 475 261q328 0 474 -261zM746 12
q66 0 123 16.5t117 62.5t102 120t69 199.5t27 289.5q0 133 -17.5 241.5t-45.5 181t-68 127.5t-79 85t-84 48t-78 23.5t-66 5.5q-82 0 -149 -29t-112 -74.5t-79 -110t-52.5 -128t-29.5 -136.5t-14.5 -126.5t-3.5 -107.5q0 -61 4 -119.5t16.5 -129t32 -130.5t53.5 -118.5
t79 -99.5t110.5 -66t144.5 -25z" />
    <glyph glyph-name="one" unicode="1" horiz-adv-x="862" 
d="M554 59q52 -27 184 -39v-20h-599v20q93 4 184 40q51 26 54 82q1 11 1 35v1034q0 62 -19 72q-17 9 -58.5 -13t-115.5 -76l-5 -3l-18 23l255 216h82v-1253v-14q3 -78 55 -104z" />
    <glyph glyph-name="two" unicode="2" horiz-adv-x="1204" 
d="M1025 377h28l-112 -377h-794l478 675q67 85 108 163.5t55 135t11.5 107t-13.5 81.5t-29 57q-52 76 -152 106t-202 0q-92 -25 -148.5 -100.5t-55.5 -169.5l-1 -7l-40 6v5q-2 181 102 280q108 103 297 103q162 0 274 -99t112 -242q0 -82 -46 -160t-169 -233q-8 -9 -54 -68
q-60 -78 -386 -534h483q28 0 58.5 12t66.5 39.5t70.5 84t58.5 135.5z" />
    <glyph glyph-name="three" unicode="3" horiz-adv-x="1288" 
d="M1025 627q101 -100 103 -242q0 -41 -7 -80t-24 -85.5t-51 -85.5t-83 -72.5t-126 -54.5t-174 -25h-22h-9h-13q-216 0 -416 85l-53 310h22q63 -202 191 -288q38 -25 87 -45q1 0 2.5 -1t2.5 -1q99 -35 204 -29q3 0 8 0.5t7 0.5q163 10 238 91q82 88 69 274q-6 72 -31 129
t-63.5 91.5t-80.5 58.5t-91.5 35t-85.5 15t-72 4h-6v36h6q109 -2 199.5 59.5t128.5 163.5q31 89 3 175.5t-108 150.5q-50 40 -115.5 54t-124 4.5t-109.5 -35.5q-68 -35 -105.5 -90t-34.5 -118l1 -7h-42v6q0 160 110 245.5t316 85.5q137 2 239.5 -88.5t115.5 -226.5
q4 -42 -1.5 -84t-25 -86t-50.5 -81t-81.5 -68.5t-115.5 -49.5q157 -22 268 -131z" />
    <glyph glyph-name="four" unicode="4" horiz-adv-x="1306" 
d="M983 59q52 -27 184 -39v-20h-609v20q93 4 184 40q52 27 54 87v2q1 2 1 3v15h1v24v232h-667v32l1 2l722 967h73v-918h197v-83h-197v-223q0 -5 3 -53q2 -59 53 -88zM798 506v781l-550 -733q-31 -41 -29 -44q26 -7 55 -4h524z" />
    <glyph glyph-name="five" unicode="5" horiz-adv-x="1376" 
d="M1209 543q40 -220 -81 -366q-78 -93 -203.5 -141t-256.5 -54h-2h-21h-9h-13q-216 0 -416 85l-53 310h22q63 -202 191 -288q38 -25 87 -45q1 0 2.5 -1t2.5 -1q99 -35 204 -29h6q111 8 210 58t155 128q100 140 40 321q-63 179 -283 233t-525 -35l-9 -2l104 708h777
l-25 -120h-726l-71 -457q193 59 378.5 47t320.5 -93q163 -98 194 -258z" />
    <glyph glyph-name="six" unicode="6" horiz-adv-x="1269" 
d="M1011 729q93 -127 90 -286q0 -236 -110.5 -348.5t-343.5 -112.5q-253 0 -367 157t-114 505q0 153 33.5 295t94.5 249q144 251 395 254q55 0 141 -13.5t144 -27.5l59 -14l54 -310h-23q-16 52 -28.5 85.5t-39 82t-56 78.5t-78 55.5t-107.5 31.5q-70 7 -136 -15t-117 -70
q-198 -183 -206 -711q19 51 45 91.5t69.5 80.5t113 62.5t158.5 22.5q217 0 329 -142zM647 12q61 0 111 16t83 42t58.5 62t39 72t22 77t11 71.5t2.5 60.5q0 391 -298 391q-95 0 -166.5 -28t-114 -76.5t-65.5 -99t-35 -110.5q0 -244 86 -361t266 -117z" />
    <glyph glyph-name="seven" unicode="7" horiz-adv-x="1292" 
d="M166 1424h1013l-69 -100q-231 -373 -341 -695t-110 -623v-6h-161l1 7q42 343 173 646t397 669h-734q-35 0 -62.5 -17t-45 -48t-28.5 -59t-22 -66.5t-17 -53.5l-23 1z" />
    <glyph glyph-name="eight" unicode="8" horiz-adv-x="1310" 
d="M738 783q53 -24 86 -40t82 -43t79.5 -49.5t65.5 -55.5t55 -66.5t33.5 -76.5t13.5 -91q0 -178 -128 -278.5t-355 -100.5q-512 0 -512 359q0 121 104.5 229.5t285.5 174.5q-118 61 -176.5 107t-86.5 107.5t-28 155.5q0 103 58.5 179t146 112t188.5 36q186 0 288 -88.5
t102 -250.5q0 -84 -95.5 -184.5t-206.5 -135.5zM349 1181q0 -56 11 -101.5t34.5 -81t51 -62t71 -51t82 -41.5t96.5 -39q28 5 69.5 29t84.5 61.5t72 94.5t27 117q-8 305 -298 305q-133 0 -217 -71t-84 -160zM966 121q83 88 75 208q-2 71 -31.5 121t-112.5 107.5t-246 134.5
q-6 3 -14 7.5t-11 5.5q-32 15 -45 22q-26 -10 -43 -17.5t-53 -27t-61 -38.5t-56.5 -51t-51 -66.5t-33.5 -82.5t-14 -101q0 -82 28 -144.5t69.5 -97t98.5 -55.5t105 -27.5t100 -6.5q20 0 47 3t73 12.5t93.5 33.5t82.5 60z" />
    <glyph glyph-name="nine" unicode="9" horiz-adv-x="1269" 
d="M622 1442q253 0 367 -157t114 -505q0 -153 -33.5 -295t-94.5 -249q-144 -251 -394 -254q-55 0 -141.5 13.5t-145.5 27.5l-58 14l-53 310h22q16 -52 28.5 -86t39 -82t56.5 -78.5t78.5 -55.5t107.5 -31q70 -7 135.5 15t116.5 70q199 184 207 712q-95 -258 -387 -258
q-217 0 -329 142q-93 127 -90 286q0 236 110.5 348.5t343.5 112.5zM594 620q95 0 166.5 28t113.5 76.5t65 99t35 110.5q0 245 -85.5 361.5t-265.5 116.5q-71 0 -126.5 -20.5t-90 -57t-58 -77t-34.5 -89.5t-15 -85t-4 -72q0 -391 299 -391z" />
    <glyph glyph-name="colon" unicode=":" horiz-adv-x="411" 
d="M204 630q-33 -2 -55 19t-24 53q0 34 23 55q24 23 56 21q32 1 56 -21.5t25 -54.5q-2 -32 -26 -53t-55 -19zM204 289q32 1 56 -22t25 -55q-2 -32 -25.5 -53t-55.5 -19q-32 -2 -55 20q-22 21 -24 52q0 34 23 55q25 23 56 22z" />
    <glyph glyph-name="semicolon" unicode=";" horiz-adv-x="448" 
d="M214 630q-33 -2 -55 19t-24 53q0 34 23 55q24 23 56 21q32 1 56 -21.5t25 -54.5q-2 -32 -26 -53t-55 -19zM273 269q37 -32 38 -102.5t-35 -131.5l-7 -11q-47 -78 -130 -110l-5 -2l-11 15l6 4q42 25 69 53t35 48.5t12 40t-1 27.5q-2 29 -29 42q-2 0 -5.5 1t-5.5 1
q-25 3 -45 17q-24 17 -26 48q-2 35 23 60q25 23 58.5 23t58.5 -23z" />
    <glyph glyph-name="less" unicode="&#x3c;" horiz-adv-x="1400" 
d="M1263 1001l-4 -2l-1001 -466l1005 -473v-102l-1132 527v94l1132 528v-106z" />
    <glyph glyph-name="equal" unicode="=" horiz-adv-x="1372" 
d="M1255 260h-1140v99h1140v-99zM1255 712h-1140v98h1140v-98z" />
    <glyph glyph-name="greater" unicode="&#x3e;" horiz-adv-x="1400" 
d="M137 1107l1132 -528v-94l-1132 -527v102l4 1l1002 472l-1006 470v104z" />
    <glyph glyph-name="question" unicode="?" horiz-adv-x="1239" 
d="M514 156q40 2 69.5 -24t31.5 -66q-2 -40 -31 -66q-31 -28 -70 -25q-38 -2 -68 25q-29 26 -31 66q1 39 30.5 65.5t68.5 24.5zM1080 1088q16 -42 18 -87q1 -34 -19 -62t-53 -38q-73 -29 -247 -29h-23l-103 2h-26l-53 -2q-175 0 -241 -47q-68 -47 -68 -167q0 -107 40 -206
t115 -175q47 -52 106 -91l-50 2q-61 32 -113 87q-101 93 -156 219.5t-53 264.5q-2 77 38 139q43 61 114 86q3 0 4 1t4 1q30 11 59 14q33 3 95 3h86q7 0 79 -2v1l84 -1q168 0 215 16q24 7 37.5 28t10.5 46q0 17 -3 34q-5 25 -7 34q-16 49 -50 92q-38 49 -85 84q-21 16 -56 37
q-26 15 -62 31q-46 21 -80 31q-1 0 -14 4.5t-22.5 7.5t-27 6.5t-32 3.5t-33 -3t-34 -11t-31.5 -23t-29 -36q-26 -39 -38.5 -91.5t-11.5 -85.5l1 -34h-21l-4 387v1l28 -5q147 -25 275 -68q99 -36 189 -99q4 -2 20 -13q3 -2 8.5 -6t8.5 -6q48 -39 88 -85q44 -51 73 -93
q32 -49 50 -97z" />
    <glyph glyph-name="at" unicode="@" horiz-adv-x="2002" 
d="M1729 949q157 -195 105 -481q-20 -111 -63 -200t-94.5 -142t-112.5 -88.5t-113 -48.5t-100 -13q-91 0 -120 33q-20 24 -18 58q-91 -96 -227 -91q-123 -3 -209 84q-86 95 -75 223q9 197 140 332t313 135h4q150 -2 209 -64l16 46l103 2l-2 -8q0 -2 -34.5 -136t-73 -283
t-45.5 -180q-12 -58 8 -82q23 -24 59 -21q16 0 34.5 2t52.5 12.5t65.5 27.5t70 51t70.5 79.5t61 116.5t47 159q7 36 9.5 78t-1.5 102.5t-29 127.5t-69 124q-146 191 -468 215q-249 18 -449.5 -67.5t-326 -262.5t-156.5 -421q-2 -5 -4.5 -32.5t-1 -84t11 -117.5t39.5 -136
t78 -136q172 -223 554 -255q110 -10 221 10.5t177.5 48.5t102.5 56l5 3l19 -21l-5 -4l-1 -1q-92 -69 -258 -105q-125 -28 -268 -28q-104 0 -216.5 24.5t-236.5 87.5t-209 156q-187 203 -161 511q34 412 353 639q142 101 326 151t387 43q158 -6 290.5 -66t215.5 -163z
M1327 535q11 72 -30 130q-47 58 -121 53q-119 0 -205.5 -92.5t-112.5 -247.5q-30 -177 34 -261q59 -72 153 -75q53 -5 100.5 17.5t75.5 66.5q70 265 106 409z" />
    <glyph glyph-name="A" unicode="A" horiz-adv-x="1603" 
d="M1697 548q46 -128 39 -263.5t-65 -258.5q-2 -4 -5.5 -12.5t-5.5 -12.5q-6 -14 -14 -28q-150 -292 -437 -370q-113 -32 -228 -20q-110 12 -208 67q-7 3 -14 7q-2 1 -6.5 4t-6.5 4q-3 1 -9 5q-1 1 -4 2.5t-4 2.5q-47 30 -90 62q-113 84 -119 88l-4 4l-99 75
q-57 -74 -139 -137q-90 -69 -197 -102q-127 -39 -247 5q-52 19 -91 59t-57 93q-23 61 -13.5 127t48.5 118q84 125 231 161q42 12 88 10q50 -3 94 -16q31 -12 51 -21q4 -2 42 -22q39 -21 84 -51q14 -10 22 -15l27 -18q9 -6 25 -20l46 -38l12 -9q81 139 133 301l81 244h-2
l-106 -41l-106 -38q-12 -5 -42 -14q-32 -10 -48 -16l-14 -4t-15 -4.5t-13 -3.5q-6 -2 -19 -6t-20 -6q-44 -12 -77 -18q-1 0 -5 -1t-5 -1v297h21v-21v-8.5t3.5 -20.5t10 -27t23 -25t39 -18.5t60.5 -3t86 16.5l2 1q14 5 44 15l14 5l68 25l79 27l66 24l186 562q-35 85 -89 106
q-37 14 -295 37v20h801v-20q-238 -24 -261 -38q-42 -26 -15 -99l160 -448q128 11 245 -23q94 -27 164 -95t100 -161zM914 1188l-156 -461q17 6 51 16q4 1 11.5 3.5t11.5 3.5q60 20 109 33q37 10 66 17q7 1 14.5 2.5t16.5 3.5t14 3zM128 -271q133 46 252 204h-1l-45 35
q-39 29 -64 45q-2 1 -4 3q-1 0 -2 1l-2 1q-3 2 -8 6t-8 5l-18 12q-22 15 -37 24q-7 5 -8 5q-3 2 -12.5 7.5t-13.5 7.5q-67 40 -145 54q-67 10 -134 -8q-90 -22 -139 -103q-49 -74 -18 -159q18 -50 56 -87.5t89 -53.5q108 -40 223 -10h3h1q1 0 1 0.5t1 0.5l12 3l19 6q1 0 2 1
zM1501 -171q74 77 114 172h-503v21q122 12 163 37q42 26 15 100l-51 137l-35 95l-26 72l-77 213l-11 30q-59 -10 -114 -25q-48 -13 -101 -30q-49 -16 -116 -41l-46 -17l-52 -153l-30 -85h-1l-15 -46q-19 -74 -50 -148v-1q-33 -82 -83 -163q6 -5 18.5 -14.5t19.5 -15.5l4 -4
l11 -8l7 -6l4 -3l23 -18q85 -69 153 -116q64 -45 138 -82q93 -49 201 -64q98 -11 187 14q147 38 253 149zM1520 58q56 -19 107 -26q12 34 16 52q12 52 17 93q5 40 7 92q0 53 -9 105q-8 49 -24 95q-26 82 -87.5 141.5t-144.5 84.5q-86 27 -176 24l201 -562q26 -71 93 -99z
" />
    <glyph glyph-name="B" unicode="B" horiz-adv-x="1951" 
d="M1874 691q100 -321 -52 -658t-436 -425q-111 -36 -229 -22q-112 14 -208 76q-3 1 -7 3.5t-7 4.5q-2 2 -6.5 5t-6.5 4l-9 6q-3 2 -7 6q-44 31 -91 72q-91 78 -169 143q-138 -98 -227 -150q-78 -48 -162 -77q-125 -45 -247 6q-54 25 -93 71t-55 104q-22 71 -13 143.5
t48 135.5q79 140 231 185q39 13 88 11q47 -3 94 -18q31 -13 51 -24v971q0 80 -53 107q-56 28 -186 40v20h735q8 0 21 -0.5t51 -6.5t72.5 -16t76.5 -32t72.5 -52t52 -78.5t22.5 -108.5q3 -86 -41 -157l-1 -1q254 66 426 5q194 -69 265 -293zM487 1395v-676q23 7 65 23l101 39
l80 33l78 31l77 33q19 8 53.5 20.5t43.5 15.5q16 11 35 30q75 81 70 189q0 5 -0.5 14.5t-5.5 36t-15 51t-32.5 54.5t-53.5 51.5t-82.5 37.5t-115.5 17h-298zM441 -185q99 57 176 116q-50 45 -79 70q-15 13 -28 25q-48 42 -63 53q-4 2 -5 3l-1 1q-1 1 -2 1q-3 2 -8.5 6.5
t-8.5 6.5q-9 6 -17 14q-16 13 -38 27q-1 1 -3.5 3t-4.5 3q-5 4 -14.5 9.5t-11.5 6.5q-67 45 -145 62q-69 12 -134 -9q-94 -31 -139.5 -118t-17.5 -182q16 -55 54.5 -97t91.5 -64q120 -50 240 -7q86 28 158 70zM1836 266q5 46 7 105q0 60 -9 120q-8 56 -24 110
q-61 196 -232 259q-170 63 -426 -17q-41 -12 -101 -35q-71 -27 -116 -46l-104 -43l-105 -46l-107 -44q-26 -10 -42 -16q-41 -15 -47 -18q-4 -1 -43 -15v-370q4 -3 11.5 -9t11.5 -9q2 -1 11.5 -8.5t14.5 -11.5q13 -11 26 -23l45 -44q74 -65 89 -80l4 -4l12 -9l6 -7l4 -4
l23 -20q83 -76 154 -133q66 -53 137 -94q97 -58 201 -74q95 -12 187 17q152 48 253 170q107 126 142 292q11 57 17 107z" />
    <glyph glyph-name="C" unicode="C" horiz-adv-x="1591" 
d="M1456 482l20 1l-30 -343q-182 -166 -498 -180q-141 -9 -273.5 39.5t-235.5 146.5q-214 197 -229 539v2q-12 305 141 507q-41 34 -101 79q-73 55 -152 98q-102 58 -220 78q-104 15 -205 -12q-160 -41 -275 -165q-78 -84 -121 -193l-49 1q2 5 14 29q162 333 473 416
q122 35 249 18q122 -17 229 -81l15 -9q10 -6 14 -9q4 -2 10 -6q3 -2 8 -7q31 -20 100 -73q10 -8 92 -73q91 87 208.5 135.5t244.5 51.5q315 13 510 -138l6 -195q0 -99 -53 -179q-43 -68 -108.5 -114.5t-143.5 -65.5q-47 -12 -95 -9q-52 3 -103 20q-53 21 -103 50
q-61 37 -117 79q-5 4 -15 11t-14 10q-13 9 -28 24l-51 45q-73 61 -102 86l-12 10l-7 6l-14 12q-100 -203 -86 -432q1 -25 5 -68q0 -2 0.5 -4t0.5 -4q23 -241 174 -427q77 -98 190.5 -149t237.5 -43q179 8 311 133q139 127 188 352zM896 1436q-118 -2 -222 -56.5t-173 -149.5
l94 -76l5 -4q55 -47 76 -63q43 -35 70 -54q1 -1 2.5 -2t2.5 -1q2 -2 4 -3l18 -12q3 -2 9.5 -7.5t9.5 -7.5q8 -6 22.5 -15.5t18.5 -12.5q8 -5 38 -23q75 -47 159 -65q74 -14 147 6q99 23 150 115q53 88 18 182q-17 48 -43 79t-78 68l-18 12q-7 6 -15 11q-134 85 -295 79z" />
    <glyph glyph-name="D" unicode="D" horiz-adv-x="1734" 
d="M1575 992q45 -137 44 -279q0 -305 -183 -508t-534 -203h-658v21q123 12 176 39q49 25 49 102v469v470q0 1 -0.5 2.5t-0.5 2.5h1v61l3 1q-47 2 -101 6q-1 -6 -5 -11q-5 -7 -6 -12q-15 -27 -19 -37q-3 -8 -12.5 -27t-13.5 -29q-79 -165 -126 -254q-37 -73 -91 -153l-4 -6
l-5 -8q-56 -80 -138.5 -132t-178.5 -68q-195 -34 -313 90l-4 5l-3 3q-75 83 -70 191q6 124 80 224q29 42 69 82q32 33 84 68q66 45 148 73q83 29 176 40l15 3l15 1l23 2l22 2q45 3 112 1q49 -1 154 -8q4 8 12 22q8 15 11 18l17 24q54 78 128 115t201 37h241q169 3 326 -56
q134 -49 229 -156q89 -104 130 -228zM256 1175l3 5q-5 0 -11 0.5t-7 0.5q-5 0 -8 1q-13 0 -19 1q-4 0 -21.5 1t-31.5 2q-10 0 -29 0.5t-28 0.5h-53q-11 0 -39 -2l-41 -3q-3 0 -6 -0.5t-6.5 -1.5t-5.5 -1q-3 -1 -8.5 -1t-8.5 -1q-39 -6 -79 -15q-36 -7 -73 -21
q-76 -26 -145 -74q-63 -43 -105 -103q-72 -98 -74 -224q-2 -114 75 -198q83 -94 218 -61q136 33 230 171l2 3q35 52 74 123q25 46 107 218q12 23 28.5 57t21.5 45q18 36 38 71q0 2 2 6zM1324 224q158 183 158 485q1 134 -37 268q-36 120 -113 216q-84 102 -207 149
q-147 56 -305 53l-187 2q-57 -1 -99 -22.5t-59.5 -41t-49.5 -67.5q-7 -9 -10 -14l-4 -6l-4 -6q-4 -10 -7 -14q-5 -7 -8 -14q5 -1 13 -1h8q16 0 118.5 -1t197.5 -2t105 -2v-21q-134 -12 -186 -39q-49 -26 -52 -101v-1006h230q339 0 498 185z" />
    <glyph glyph-name="E" unicode="E" horiz-adv-x="1849" 
d="M1746 98q39 -57 48.5 -126t-13.5 -134q-16 -55 -55.5 -97.5t-92.5 -64.5q-122 -48 -247 -6q-107 36 -197 109l15 16q62 -33 135 -57q1 -1 2 -1l19 -6l12 -3h1l1 -1h1h3v-1q114 -31 223 12q52 19 90 58t55 92q30 89 -18 169q-47 84 -139 109q-64 19 -134 8
q-79 -15 -145 -57q-8 -4 -26 -16q-1 -1 -4 -2.5t-4 -2.5q-4 -2 -17.5 -11t-20.5 -14q-10 -8 -17 -13q-3 -2 -8.5 -6t-8.5 -6l-1 -1q-1 -1 -2 -1q-1 -1 -5 -3q-8 -6 -63 -49l-45 -36l-1 -1l-37 -30l-99 -80l-4 -4q-20 -16 -62 -49t-57 -45q-45 -35 -91 -66q-4 -4 -7 -6
q-6 -4 -9 -5q-2 -2 -6.5 -4.5t-6.5 -3.5q-12 -7 -14 -8q-95 -57 -208 -71q-114 -13 -229 21q-285 82 -436 394q-10 20 -14 30l-12 27q-58 131 -65 275t39 280q71 208 265 272q122 37 245 25q64 -4 135 -20q2 0 19.5 -3.5t26.5 -5.5q3 -1 9.5 -2.5t9.5 -2.5v2l143 400l1 1v2
q26 71 -16 96q-23 14 -261 38v20h1262v-457h-20q-12 218 -77 319t-223 101h-316q-66 -5 -120 -20q-54 -21 -89 -106l-27 -81l-127 -349l-2 -4l2 -1q4 -1 12.5 -4t13.5 -5q13 -3 23 -7l51 -18q36 -12 46 -16l10 -5l67 -26l78 -28l69 -27l14 -6q30 -10 44 -15l4 -2h1
q68 -20 111.5 -18t65.5 19.5t31.5 37.5t9.5 36l1 17v22h21v-185v-130v0q-2 0 -5 1t-5 1q-37 7 -77 19q-18 5 -39 12q-6 2 -20.5 7t-22.5 7q-8 3 -47 16q-10 4 -43 16l-106 40l-105 43l-2 1l-56 21l-46 18q-46 18 -116 43q-3 1 -10 3.5t-11 3.5q-31 11 -80 25q-16 5 -48 13
q-17 5 -66 14q-62 12 -137 14q-92 3 -175 -25q-84 -28 -145.5 -92t-86.5 -149q-16 -49 -24 -101q-9 -56 -9 -112q2 -54 7 -98t17 -99q6 -27 15 -55l12 -33q40 -100 115 -183q105 -116 253 -158q94 -28 187 -16q105 15 201 69q68 37 137 87q78 57 154 123l23 19l4 4l6 6l12 9
q1 1 4 3q15 14 38 33q21 18 39 33l12 9l45 41q11 11 26 21q3 2 12 8.5t14 10.5q5 3 13 8.5t10 7.5q53 37 84 55q30 16 42 22q25 13 51 23q49 14 94 17q44 1 88 -11q151 -41 231 -171z" />
    <glyph glyph-name="F" unicode="F" horiz-adv-x="1372" 
d="M170 1429h1144v-458h-20q-12 219 -77 320t-223 101h-458v-598l42 -10l72 -17l15 -4q24 -5 45 -9l4 -1h1q70 -11 113 -3t62.5 28t26 41t5.5 37l-2 17l-3 22l21 3l25 -183l17 -130q-2 0 -5 0.5t-5 0.5q-32 1 -79 9q-30 5 -40 7h-1q-19 4 -43 7q-34 8 -50 11q-27 5 -44 9
l-110 26l-67 17v-506q0 -8 0.5 -22.5t-1.5 -58.5t-7.5 -86t-19.5 -98.5t-34.5 -103t-56 -92.5t-80.5 -75t-111.5 -42t-145.5 -1q-293 44 -485 333q-3 5 -8.5 14t-8.5 13t-8.5 12.5t-7.5 12.5q-75 123 -100.5 264.5t1.5 282.5q42 214 226 304q115 54 239 58q72 5 137 -1
q32 -2 47 -4q4 0 9.5 -1t9.5 -1q7 -1 23 -3.5t25 -3.5q62 -9 86 -14l27 -6q14 -2 23 -4q17 -3 53 -11q7 -1 20.5 -3.5t20.5 -4.5v437q0 80 -56 107q-90 36 -183 40v21zM31 -336q69 -13 122 -5t92.5 34.5t67.5 63.5t46.5 82t29 90t15 88t6 76t0.5 53v20v537l-26 6
q-66 16 -121 27q-3 1 -10 2.5t-11 1.5q-22 4 -82 14q-9 1 -26 3.5t-24 3.5q-23 3 -67 5q-71 5 -137 -4q-88 -9 -171 -49q-80 -39 -132.5 -110t-65.5 -159q-8 -48 -10 -104q-1 -57 6 -112q7 -43 20 -96q12 -49 30 -95q14 -36 22 -53q5 -11 17 -31q56 -98 138 -167
q121 -97 271 -122z" />
    <glyph glyph-name="G" unicode="G" horiz-adv-x="1892" 
d="M1843 649q100 -310 -51 -634q-152 -324 -437 -410q-112 -35 -229 -21q-110 13 -208 74l-7 3.5t-7 4.5t-6 4.5t-6 3.5t-5 3t-5 3q-3 2 -7 6q-43 29 -91 69q-24 20 -169 137q-138 -94 -227 -144q-78 -46 -162 -74q-125 -44 -247 6q-54 23 -92 67t-55 101q-23 67 -14 138.5
t48 131.5q80 136 231 178q41 12 88 10q44 -3 86 -15q-126 191 -121 422q0 341 207 548q102 103 237 157.5t279 50.5q305 0 498 -160l21 -261h-21q-35 108 -68 157t-107 110q-137 119 -321 117q-272 0 -429 -209t-157 -512q-2 -179 63 -343q28 -70 128.5 -178.5t200.5 -194.5
l6 -7q145 111 322 160q129 33 260 32v649q-80 -13 -148 -34q-42 -12 -100 -33q-49 -17 -116 -44l-105 -42l-105 -44l-49 -20l-1 335h22v-22v-9t4.5 -21t13 -27t27 -24t44.5 -16.5t69 1.5t97 24l33 12q12 5 22 7q72 26 110 37q32 10 65 18q253 63 426 4q194 -66 265 -282z
M411 -195q84 46 175 112q-10 9 -78 67q-7 5 -29 25q-37 31 -63 50q-2 1 -4 3l-2 1q-2 1 -2 2q-2 1 -8 5l-9 6q-5 4 -17 14q-6 5 -38 26q-1 1 -4 2.5t-4 2.5q-3 2 -11.5 8t-13.5 9q-66 44 -146 59q-66 12 -134 -9q-93 -26 -139 -113q-48 -83 -18 -175q17 -53 55.5 -94.5
t90.5 -61.5q119 -48 241 -6q86 26 158 67zM1805 239q5 45 7 102q0 59 -9 116q-7 54 -24 105q-62 190 -232 250q-70 24 -151 26l5 -844h-15q-4 6 -12.5 16t-37 34.5t-60 42.5t-81 29.5t-101.5 5.5q-36 -4 -77 -14q-167 -41 -304 -142l1 -1q79 -72 154 -128q66 -51 137 -91
q94 -54 201 -71q96 -12 187 16q150 44 253 164q107 124 142 282q12 57 17 102z" />
    <glyph glyph-name="H" unicode="H" horiz-adv-x="1992" 
d="M1854 549q100 -256 -29 -522l-1 -1q0 -2 -1 -2q-8 -18 -10 -22l-1 -1l-15 -27q-166 -293 -479 -371q-122 -31 -251 -19q-122 12 -228 66q-3 1 -8.5 4t-7.5 4q-3 1 -8 4t-6 4q-6 2 -10 4q-2 1 -4 3t-4 3q-57 33 -100 62q-82 57 -130 88l-5 3l-95 67l-14 9l-16 12l-17 12
q-112 -141 -274 -222q-160 -81 -333 -36q-56 18 -98.5 58t-63.5 94q-49 124 38 244q96 128 254 161q45 12 96 10q60 -3 104 -15q13 -4 55 -22q25 -10 47 -21q39 -19 92 -51q4 -2 12.5 -7t12.5 -8q20 -12 29 -18l21 -15q59 171 61 356v55q-9 -3 -37 -11q-34 -10 -52 -16
q-9 -2 -25 -6.5t-22 -6.5q-6 -1 -21 -5t-22 -6q-53 -13 -84 -18q-2 0 -5.5 -1t-5.5 -1h-1v123h1v174h23v-21v-8.5t3.5 -20t11 -27t25 -25t42.5 -18.5t66 -4t93 16l5 2l5 1v648q-1 29 -7.5 50t-20 35.5t-25.5 23t-37 14.5t-41.5 9t-51 7.5t-54.5 7.5v21h599v-21
q-18 -3 -47.5 -7t-45 -6t-38 -7t-35 -10.5t-27 -15.5t-22 -23.5t-13.5 -33t-7 -44.5v-607l7 3l86 26l2 1l71 24l12 4l51 15q38 12 56 17q4 1 12 3.5t12 3.5q65 19 120 33q25 6 73 16q9 2 26 5.5t24 4.5q74 14 148 18q44 2 64 2v434q0 80 -53 107q-55 28 -184 40v20h599v-20
q-91 -4 -181 -40q-54 -27 -54 -107v-443q35 -5 78 -17q4 -1 11.5 -3.5t11.5 -3.5q92 -27 163 -92.5t105 -155.5zM86 -271q177 69 270 240q-39 27 -69 45q-4 2 -5 3q0 1 -2 1t-2 1q-3 1 -9 5l-9 6q-7 4 -19 12q-18 12 -41 24q-6 4 -9 5q-3 2 -9 5t-10.5 5t-8.5 4
q-75 40 -160 54q-74 11 -148 -8q-96 -20 -152 -102q-54 -73 -20 -159q38 -97 160 -141q122 -40 243 0zM1813 177q7 50 8 92q0 48 -10 106q-9 48 -27 95q-26 70 -78 123t-120 82q-28 12 -57 21q-26 7 -44 11v-538q0 -81 54 -108q54 -24 118 -32q28 -4 44 -5q-1 -3 -5 -11
t-5 -11v-1h-570v20q129 12 184 40q53 27 53 108v551h-21q-79 -2 -150 -13q-55 -8 -126 -26q-44 -11 -110 -30q-75 -22 -128 -40l-50 -17l-62 -20l-2 -1l-20 -7l-95 -32v-55q3 -243 -114 -453q4 -3 39 -28l17 -13q4 -3 12.5 -9t12.5 -9q2 -2 4 -3l13 -8l7 -6l4 -3l25 -18
q97 -71 169 -116q72 -46 151 -82q110 -52 221 -65q104 -11 205 15q159 37 278 148q78 74 125 172l1 1q1 3 4 8.5t5 10t3 8.5l1 4q8 19 17 52q14 55 19 92z" />
    <glyph glyph-name="I" unicode="I" horiz-adv-x="886" 
d="M431 1432q151 138 206 180q177 138 338 149q141 10 300 -68v-32q-47 19 -95 25.5t-89.5 5.5t-90 -16.5t-84.5 -30t-84 -45.5t-78 -52t-78 -62t-72 -62.5t-71 -64.5q-8 -7 -12.5 -11t-11 -10t-11.5 -11q36 -53 59 -131t32.5 -177t12 -180t1.5 -192v-480q0 -80 54 -107
q90 -36 181 -40v-20h-598v20q128 12 183 40q53 27 53 107v480q1 155 0 238t-12.5 201.5t-34.5 178.5q-53 -49 -89 -80t-89.5 -69t-107 -58t-107.5 -24q-67 -1 -132.5 27.5t-113.5 76t-82.5 109.5t-40 128.5t14.5 133.5q36 103 110 153.5t161 46t178 -40.5t170 -99.5
t130 -136.5zM-265 1274q47 -80 114.5 -110t134.5 -18.5t143.5 52t135.5 86.5t116 102q-48 134 -189 203q-128 63 -264 41q-133 -21 -187 -114q-57 -97 -4 -242z" />
    <glyph glyph-name="J" unicode="J" horiz-adv-x="1484" 
d="M842 1431h596v-20q-90 -4 -180 -40q-54 -27 -54 -107v-495l2 -464q-2 -152 -12 -268t-34.5 -233t-65 -207t-106 -173t-155.5 -148q-192 -141 -441 -74q-208 56 -385 235t-243 396q-78 258 39 461q147 255 572 353q-70 383 53 577q78 124 209 136q120 11 223 -72
q114 -93 137 -249q10 -72 -2 -150q-16 -58 -52.5 -104.5t-78 -76.5t-103 -57.5t-110 -42.5t-117.5 -36.5t-108 -36.5l-35 -11q-415 -102 -545 -345q-98 -183 -16 -403q69 -182 233 -321q172 -145 363 -167q176 -21 314 76q65 43 116 101.5t85 119t59 137.5t38 142t20 147.5
t9 140t2 131.5l8 577v404q0 81 -52 108q-53 27 -183 39v20zM547 705q298 103 376 259q55 109 -9 210q-53 81 -151 111q-118 36 -213 -28q-138 -91 -152 -345q-6 -114 14 -253q35 12 81 27.5t54 18.5z" />
    <glyph glyph-name="K" unicode="K" horiz-adv-x="1642" 
d="M2153 -401h18v-19h-243q-123 6 -209 91q-13 10 -230 209t-495 453.5t-396 360.5v-525q0 -81 55 -109q87 -36 180 -41v-20h-599v20q128 12 183 40q52 27 52 110v575q-101 -79 -182 -132q-76 -52 -158 -84q-121 -51 -247 -5q-56 23 -96.5 66.5t-59.5 100.5q-26 69 -20 143
t42 138q71 142 222 195q45 16 86 16q48 0 96 -14q44 -16 95 -44q56 -31 110 -71q10 -7 28 -19q18 -14 26 -22l48 -41q6 -6 10 -9v300q0 81 -51 108t-184 39v20h599v-20q-91 -4 -181 -40q-54 -27 -54 -107v-399l568 417q98 72 92 96q-6 25 -114 35v20h518v-20
q-264 -24 -435 -135l-269 -202l-109 -82l-222 -161q56 -49 383 -337.5t598 -526.5t291 -253l21 -18q21 -17 25 -20t24.5 -18t30 -19t30.5 -14.5t37 -14t39 -7.5t47 -4zM307 673q83 53 162 119v11q-88 71 -104 84q-51 39 -66 49q-2 1 -4 3t-4 3q-3 2 -8.5 5.5t-8.5 5.5
q-12 8 -18 13q-6 4 -13 8.5t-14.5 9.5t-11.5 8q-16 10 -35 21q-67 42 -148 54q-68 9 -133 -15q-92 -35 -133.5 -124.5t-9.5 -182.5q19 -54 59 -94.5t94 -59.5q121 -43 241 5q80 30 155 77z" />
    <glyph glyph-name="L" unicode="L" horiz-adv-x="1212" 
d="M1582 3h43q-150 -309 -422 -395q-110 -36 -228 -22q-115 16 -208 76q-10 6 -14 9q-2 1 -6.5 4t-6.5 5l-9 6q-6 4 -8 6q-37 26 -90 71q-14 12 -60 50.5t-79 66.5l-2 2l-63 55q-65 -87 -156 -155q-21 -17 -57 -38l-3 -2q-20 -13 -46 -24l-6 -3l-1 -1q-37 -19 -85 -34
q-125 -45 -247 6q-55 25 -93.5 70.5t-54.5 103.5q-47 147 35 280q37 67 97 114.5t134 69.5q42 14 87 12q45 -3 95 -19q48 -19 93 -48q56 -35 106 -76l27 -21q9 -7 25 -23l46 -43l1 -1q49 167 46 337v824q0 81 -54 108q-83 34 -183 39v21h918v-21q-23 -2 -145.5 -4.5
t-225 -10t-129.5 -24.5q-28 -17 -42.5 -46.5t-11.5 -61.5v-782q5 -236 -103 -442q14 -14 22 -21l11 -9l7 -7l27 -24q81 -75 153 -132q68 -54 138 -95q95 -57 201 -73q97 -12 187 16q152 48 253 170q51 60 87 136zM260 -170q74 68 117 154q-10 9 -26.5 23t-22.5 19
q-42 37 -64 53q0 1 -2 2l-2 1q-2 2 -4 3q-10 8 -16 12t-18 14q-23 17 -37 27q-4 3 -16 11l-18 12q-64 44 -145 61q-69 12 -134 -9q-93 -31 -139 -118t-18 -181q16 -55 54 -97t91 -64q119 -49 241 -7q26 8 39 13l2 1q14 6 22 9q52 24 96 61z" />
    <glyph glyph-name="M" unicode="M" horiz-adv-x="1986" 
d="M1990 556q46 -129 39 -264t-65 -258q0 -2 -1 -3q-1 -3 -5 -11t-5 -11l-1 -1q-2 -5 -6.5 -14l-6.5 -13q-151 -293 -437 -371q-110 -31 -228 -19q-110 12 -208 67q-5 2 -15 7q-2 1 -6 4t-6 4q-3 1 -9 5q-1 1 -4 2.5t-4 2.5q-34 20 -90 62q-104 77 -119 88l-5 4l-83 63l-3 3
l-12 9l-14 11l-2 1l-22 17l-1 1l-1 1q-86 -116 -187 -201q-104 -89 -241 -87q-59 1 -116 23q-52 19 -90.5 59t-56.5 93q-23 61 -13.5 126.5t48.5 117.5q84 126 231 162q38 11 87 9q34 -1 69 -9v1030q0 81 -53 108q-54 27 -186 39v21h337l412 -749l54 -98l12 -22l16 32
l72 142l352 695h367v-21q-96 -5 -184 -39q-53 -27 -53 -108v-429q41 0 73 -4q61 -7 105 -21q3 -1 10 -4t11 -4q34 -12 59 -25q21 -11 38 -24q105 -75 147 -199zM159 -264q234 -57 479 231l-11 8q-47 35 -64 46q-2 1 -4 3q-1 0 -2 1t-2 1q-3 2 -8.5 6t-8.5 5q-3 2 -8.5 6
t-8.5 6q-22 15 -37 24q-7 5 -8 5q-3 2 -12.5 7.5t-13.5 7.5q-67 40 -145 54q-67 10 -135 -8q-88 -21 -138 -103q-49 -75 -19 -159q18 -50 56.5 -87t89.5 -54zM709 57q116 162 204 344l-75 138l-55 101l-345 634v-1049q26 -10 39 -16q9 -4 43 -22q39 -21 84 -51
q14 -10 22 -15q3 -2 8.5 -5.5t10 -6.5t8.5 -6q9 -6 25 -20zM1953 185q5 40 7 91q0 53 -9 106q-7 44 -25 95q-25 76 -83 137q-24 24 -38 34q-20 15 -59 35q-19 9 -52 20q-36 12 -74 18q-36 6 -73 6v-556q0 -82 53 -108q88 -34 184 -39v-20h-594v20q88 4 172 41q55 29 55 106
v1167l-291 -579l-70 -139l-126 -251q-86 -175 -193 -334q5 -4 14 -11.5t13 -10.5l11 -8l15 -12q1 -1 4 -3q3 -3 9.5 -8.5t9.5 -7.5q1 -1 4 -3l11 -8l6 -6l5 -3l22 -18q80 -65 154 -116q64 -45 138 -82q93 -49 200 -64q98 -11 188 14q147 38 253 149q75 78 114 171v1
q8 18 11 27l1 4q12 34 16 52q12 52 17 93z" />
    <glyph glyph-name="N" unicode="N" horiz-adv-x="1839" 
d="M1785 551q46 -128 39.5 -264t-64.5 -259q0 -1 -2 -3q-2 -4 -5 -11t-5 -11l-1 -1q-2 -5 -6.5 -14l-6.5 -13q-150 -292 -436 -370q-113 -32 -229 -20q-110 12 -208 67q-7 3 -14 7q-2 1 -6.5 4t-6.5 4q-3 1 -9 5t-7 5q-54 35 -91 62q-113 84 -119 88l-4 4l-84 63
q-105 -114 -246 -184l-1 -1q-1 -1 -2 -1q-45 -23 -102 -41q-127 -39 -247 5q-52 19 -91 59t-57 93q-23 61 -13.5 126.5t48.5 117.5q84 126 231 162q42 12 88 10q50 -3 94 -16q31 -12 51 -21q4 -2 42 -22q39 -21 84 -51q7 -5 23 -15q18 -12 26 -18q9 -6 25 -20l46 -38l1 -1
q1 -1 3 -2.5t4.5 -3t3.5 -2.5q9 -7 29 -23q110 175 120 431v113l-43 -17l-39 -14l-67 -24q-12 -5 -42 -14q-32 -10 -48 -16l-14 -4t-15 -4.5t-13 -3.5q-6 -2 -19 -6t-20 -6q-44 -12 -77 -18q-1 0 -5 -1t-5 -1v123v174h21v-21v-8.5t3.5 -20t10 -27t22.5 -25t38.5 -18.5t60 -4
t84.5 16l1 1l4 1q14 5 44 15l14 5l22 8l47 17l35 12v592q-1 25 -7 44.5t-13.5 33t-22.5 23.5t-27.5 16t-34.5 11t-38.5 7t-45.5 6t-48 7v20h517v-20q-20 -3 -50.5 -7t-53 -7.5t-39.5 -8.5q-1 0 -1 -1l-2 -1l349 -570q32 6 47 8q32 4 66 6q67 6 139 -2q47 -5 86 -16v452
q0 80 -55 107q-90 36 -182 40v20h515v-20q-133 -12 -186 -39t-53 -108v-464h2q26 -9 58 -26q25 -13 39 -24q104 -74 146 -198zM1282 720q-20 -1 -57 -5l276 -451v429q-2 1 -5.5 2t-5.5 2q-35 12 -75 18q-50 8 -101 6q-6 0 -16 -0.5t-16 -0.5zM725 1263v-577l64 24l11 4
q7 3 22.5 8t23.5 7q17 6 51 16q4 1 11.5 4t11.5 4q46 15 109 32l2 1l-293 481h-13v-4zM218 -269q158 59 273 186l-2 1l-22 17l-1 1l-44 34q-39 29 -64 45q-2 1 -4 3l-2 1q-2 1 -2 2q-3 1 -8 4.5t-8 5.5l-18 12q-31 22 -37 25q-4 3 -8 4q-3 2 -12.5 7.5t-13.5 7.5
q-67 40 -145 54q-67 10 -134 -8q-90 -22 -139 -103q-49 -74 -18 -159q18 -50 56 -87.5t89 -53.5q108 -40 223 -10h1l2 1h1h2l12 3l18 6q2 0 3 1h2zM1748 179q5 40 7 92q0 53 -9 105q-8 49 -24 95q-25 76 -83 137q-21 22 -39 34q-22 17 -58 35h-2v-707h-10l-440 719
q-4 -1 -13 -3t-13 -3q-48 -13 -101 -30q-49 -16 -116 -41l-46 -16l-56 -21h-2l-18 -7v-88q-6 -295 -136 -496q3 -2 9.5 -7t9.5 -8l4 -4l11 -8l7 -6l4 -3l23 -18q77 -63 153 -115q68 -48 138 -83q93 -49 201 -64q98 -11 187 14q147 38 253 149q75 78 114 171v1q7 15 11 28
l1 3q12 34 16 52q12 52 17 93z" />
    <glyph glyph-name="O" unicode="O" horiz-adv-x="1634" 
d="M1318 1241q100 -110 152 -248.5t48 -286.5q0 -316 -199 -525q-96 -103 -226.5 -158t-271.5 -52h-2q-297 2 -496 236q-200 238 -200 591q0 354 201 602t495 249q74 0 128.5 -19.5t79.5 -47.5t39.5 -55.5t15.5 -46.5l2 -20q0 -8 -0.5 -23.5t-0.5 -22.5q135 -61 235 -173z
M1225 195q152 188 152 511q0 332 -153 526q-61 78 -144 129q-13 -111 -77.5 -190t-216.5 -173q-109 -67 -181.5 -120.5t-115.5 -95.5t-64 -85t-25.5 -78.5t-1.5 -85.5l1 -18l-14 -1l-17 243v9q-29 378 133 564q60 68 143 104t174 34h2q120 0 228 -40l3 30q2 46 -21 78
t-57.5 45t-69.5 20t-59 7l-25 -1q-251 0 -404 -217q-153 -218 -153 -589q0 -363 153 -576q157 -217 404 -218h2q118 -4 224.5 46t179.5 142zM413 896q65 71 286 204q76 45 110 66t83 54t71 54.5t43.5 50t31.5 59.5q-97 46 -208 48q-185 -3 -286 -118q-73 -83 -105 -179.5
t-26 -238.5z" />
    <glyph glyph-name="P" unicode="P" horiz-adv-x="1595" 
d="M1412 1400q152 -274 52 -534q-32 -88 -102.5 -151t-162.5 -86q-195 -56 -491 19q-1 0 -3.5 1t-3.5 1v-481q0 -81 54 -108q87 -34 181 -39v-21h-599v21q132 12 184 39q53 27 53 108v1095q0 80 -53 107q-55 28 -184 40v20h599v-20q-91 -4 -181 -40q-54 -27 -54 -107v-509
q28 -8 41 -11q256 -65 426 -14q80 21 142 76.5t90 133.5q17 44 24 88q9 48 9 98q-2 48 -7 85q-6 42 -17 87q-38 138 -142 237q-108 102 -253 137q-93 24 -187 14q-107 -14 -201 -60q-66 -31 -137 -76q-79 -51 -154 -108l-27 -19l-6 -6l-12 -7q-65 -50 -92 -69l-46 -35
q-11 -10 -25 -19q-3 -2 -12.5 -7.5t-14.5 -8.5q-55 -37 -106 -62q-43 -21 -94 -39q-47 -12 -94 -15q-44 -2 -88 9q-143 31 -231 150q-38 48 -47.5 108.5t12.5 117.5q19 50 58 87.5t90 54.5q123 42 247 5q89 -25 162 -62q89 -43 228 -122q46 31 104 71.5t64 44.5q51 35 91 58
q4 4 7 5q5 3 10 5q4 3 12 7q1 1 4 2.5t5.5 2.5t4.5 2q98 51 208 62q117 12 229 -18q284 -72 436 -345zM100 1406q9 6 44.5 31.5t62.5 44.5q-84 53 -175 95q-78 35 -158 56q-123 34 -241 -5q-50 -14 -88.5 -48.5t-57.5 -82.5q-31 -79 18 -147q51 -77 139 -96q65 -16 134 -7
q78 12 146 50q10 4 33 18q2 1 16 9t22 13q2 1 8 5.5t9 6.5q3 1 9 4t8 5q1 0 2 1l2 2l4 2q21 13 63 43z" />
    <glyph glyph-name="Q" unicode="Q" horiz-adv-x="1767" 
d="M1481 -109q50 65 81 139l43 2q-135 -316 -403 -414q-112 -42 -227 -33q-114 9 -211 66q-3 1 -8 4t-7 4t-6 4t-6 4t-10 6q-1 1 -4 2.5t-4 2.5q-38 23 -94 67q-12 10 -154 119l-8 6q-62 -30 -123 -74q-62 -46 -110 -77q-76 -52 -158 -84q-121 -51 -247 -5
q-56 23 -96.5 66.5t-59.5 100.5q-26 69 -20.5 143t41.5 138q71 142 222 195q45 16 87 16q47 0 95 -14q47 -17 96 -44q52 -29 109 -71q10 -7 28 -19q22 -17 27 -22l47 -41q52 -41 97 -80l12 -9l7 -6l28 -23q2 -1 5.5 -4.5l5.5 -5.5q92 32 194 46q84 10 168 12h2
q130 0 243 47.5t187 139.5q153 187 153 511q0 331 -154 526q-74 92 -180 142.5t-224 50.5t-224.5 -51t-180.5 -142q-153 -194 -153 -524q0 -272 108 -447q-10 11 -26.5 29.5t-59.5 74t-75.5 107.5t-59 117.5t-26.5 116.5q-4 148 48 286.5t153 248.5q95 106 225 163.5
t272 57.5t272 -57.5t225 -163.5q100 -110 152 -248.5t48 -286.5q0 -316 -199 -525q-96 -103 -226 -158t-271 -52q-184 0 -356 -49q55 -45 113 -87q62 -46 142 -88q96 -52 204 -64q97 -8 187 26q149 55 244 182zM-146 -302q121 -43 241 5q69 26 131 63q4 3 22.5 14.5
t37.5 24.5t32 22q14 12 22 17h1l2 2q41 29 84 49l2 1l-10 8l-11 9q-77 63 -100 81q-51 39 -66 49q-1 1 -4 3q-2 2 -4 3t-8 5l-9 6q-12 8 -18 13l-39 26q-13 8 -35 20q-69 43 -148 55q-72 8 -134 -15q-92 -35 -133 -124.5t-9 -182.5q19 -54 59 -94.5t94 -59.5z" />
    <glyph glyph-name="R" unicode="R" horiz-adv-x="1695" 
d="M1606 651q-23 -38 -67 -94q-66 -85 -135 -175q98 -124 161 -220q52 -76 84 -158q51 -122 6 -247q-22 -55 -66.5 -96t-101.5 -60q-69 -26 -142.5 -20.5t-137.5 41.5q-143 72 -196 222q-15 42 -15 87q0 50 13 95q17 47 44 96q29 52 71 109q7 10 19 28q17 22 22 27l41 47
q41 52 80 97l9 12l6 6q-273 278 -649 380l-18 1v29h19l80 2h18.5t45 5.5t63 16.5t64.5 35t58 58q13 17 20 35q25 57 25 124v14.5t-5.5 36t-15 51t-32 54.5t-53.5 51.5t-82.5 37.5t-115.5 17h-298v-1226q0 -80 55 -107q87 -35 184 -40v-21h-605v21q129 12 185 40
q54 27 54 107v1095q0 80 -53 107q-55 28 -186 40v20h736q8 0 21 -0.5t50.5 -6.5t72 -16t77 -32t73 -52t51.5 -78.5t22 -108.5q3 -70 -28 -135q-12 -25 -27 -43q-89 -114 -295 -135h-1l-37 -2h-4q314 -112 550 -351l4 5q73 86 125 159q46 62 88 142q52 96 64 204
q8 97 -26 187q-55 149 -182 244q-65 50 -139 81l-2 43q316 -135 414 -403q42 -112 33 -227q-9 -114 -66 -211q-1 -3 -4 -8t-4 -7t-4 -6.5t-4 -6.5l-6 -9q-1 -1 -2.5 -4t-2.5 -4zM1582 27q-27 74 -78 154q-55 89 -124 170q-82 -100 -90 -111q-39 -51 -49 -66q-1 -2 -3 -4
q-1 -1 -3 -5q-2 -3 -5.5 -8.5t-5.5 -8.5q-8 -12 -13 -18q-18 -26 -26 -38q-5 -8 -20 -35q-43 -69 -55 -148q-9 -67 16 -134q35 -92 124 -133t182 -9q54 19 94.5 59t59.5 94q44 122 -4 241z" />
    <glyph glyph-name="S" unicode="S" horiz-adv-x="1964" 
d="M1902 689q100 -322 -51 -658q-152 -336 -437 -425q-110 -36 -228 -22q-115 16 -208 76l-7 3.5t-7 4.5q-2 1 -6.5 4t-6.5 5l-9 6q-3 2 -7 6q-51 37 -91 71q-16 13 -39 33t-62.5 53t-67.5 57q-138 -98 -227 -150q-79 -48 -163 -76q-125 -45 -247 6q-54 25 -92.5 71
t-54.5 104q-22 71 -13 143.5t48 135.5q79 140 231 185q39 13 87 11q49 -3 95 -18q51 -22 93 -49q47 -29 106 -76q3 -3 12.5 -9.5t14.5 -10.5q9 -7 25 -23l46 -44q42 -36 93 -84l11 -10l7 -6l27 -24q88 -82 153 -133q64 -51 138 -94q97 -58 200 -74q96 -12 188 17
q152 48 253 170q107 126 142 292q10 44 17 106q5 48 7 105q0 61 -9 121q-7 49 -25 109q-62 197 -231 259q-170 63 -426 -17q-54 -16 -101 -34q-71 -27 -116 -46l-104 -43l-106 -46q-23 -9 -62 -23t-141.5 -34t-183.5 -14q-28 2 -41 5q-1 0 -3.5 0.5t-3.5 0.5q-29 4 -54 18
q-33 16 -57 41q-17 19 -26 42q-19 48 -24 100q-11 100 24 205.5t101 194t160 159t195 107.5t212 32.5t205 -58.5q40 -25 72 -62q1 -3 3 -8.5t3 -8.5l-3 -280h-22q0 79 -30 149.5t-79.5 120t-118.5 75.5t-143 23t-156.5 -45t-155.5 -122q-66 -69 -110 -166.5t-48 -198.5
t60 -173q12 -14 32 -22q94 -40 239 17q39 15 84 33l79 33l79 31l77 33q61 24 120 45q49 18 109 37q296 93 491 24q194 -69 265 -293zM312 -257q86 28 158 70q99 57 176 116q-66 59 -107 95q-35 31 -64 52q-2 1 -4 3t-4 3l-16 13q-12 8 -18 14q-23 17 -37 27q-12 8 -34 22
q-67 45 -145 62q-69 12 -135 -9q-93 -31 -138.5 -118t-17.5 -182q16 -55 54 -97t91 -64q119 -49 241 -7z" />
    <glyph glyph-name="T" unicode="T" horiz-adv-x="1720" 
d="M912 1086l-4 -9q0 1 2 4t2 5zM80 1432h1556v-457h-20q-12 218 -77 319t-225 101h-137q-180 -20 -331 -108q-168 -100 -205 -221q-38 -123 68 -232l5 -5l5 -6q10 -6 13 -9q6 -6 13 -10q2 3 4 8t3 7q0 1 2 4t2 5q36 81 51 113q11 23 29 68q2 2 1 3l15 36q15 36 19 45
q30 73 46 117q5 14 15.5 42.5t15.5 42.5q0 4 1 6q24 9 50 12q-10 -31 -48.5 -125.5t-42.5 -110.5q-19 -50 -51 -127q-36 -86 -79 -174q8 -4 11 -7q5 -5 11 -8q7 -6 35 -25q24 -17 55 -36q161 -108 243 -169q65 -47 140 -120l6 -6l6 -7q139 -158 90 -387q-23 -112 -90 -205.5
t-165 -152.5l-7 -4l-6 -3q-121 -76 -260 -65q-136 14 -229 115q-39 39 -66 87q-27 46 -41 104q-23 89 -18 179q6 107 36 209q2 14 4 19l5 17l9 26q2 4 4.5 13t3.5 14q20 57 51 130q32 76 81 179q-8 6 -20 16q-3 3 -8.5 7t-7.5 7l-11 11q-2 2 -5 5.5t-5 5.5q-62 59 -80 141.5
t15 161.5q62 173 284 304q61 37 133 63h-581q-159 0 -224 -101t-77 -319h-20v457zM706 615q-7 -18 -9 -22q-9 -16 -30 -61q-5 -12 -14 -34t-13 -32q-3 -7 -25 -62q-6 -15 -16 -47q-2 -8 -7 -23.5t-8 -23.5q-1 -2 -2.5 -6.5t-2.5 -8t-1 -6.5q-1 -5 -5 -20q-14 -55 -20 -94
q-7 -43 -9 -87q-5 -89 20 -176q22 -76 74 -131q95 -99 232 -107q149 -8 271 69q71 38 117 103.5t58 145.5q12 78 -13.5 154t-82.5 130l-3 2q-56 56 -112 98q-81 61 -208 145q-88 60 -99 68q-57 41 -67 49l-6 3l-4 4q-4 -10 -9 -20q-1 -2 -3 -5t-3 -5z" />
    <glyph glyph-name="U" unicode="U" horiz-adv-x="1845" 
d="M1602 1373q-53 -27 -53 -108v-1095q0 -82 53 -109q50 -26 186 -38v-21h-21q-39 -1 -77.5 -5.5t-89 -25t-67.5 -54.5q-50 -100 -137 -184.5t-176 -112.5q-322 -100 -658 51q-337 152 -425 436q-37 113 -23 229q15 113 77 208l3.5 7t4.5 7t5 6.5t4 6.5l6 9q2 3 6 7
q29 42 71 91l143 169q-98 138 -150 227q-49 80 -76 162q-45 125 6 247q25 54 71 93t104 55q71 22 143.5 13t135.5 -48q140 -79 185 -231q13 -39 11 -88q-3 -47 -18 -94q-22 -51 -49 -93q-29 -47 -76 -106q-3 -3 -9.5 -12.5t-10.5 -14.5q-11 -14 -23 -26l-44 -45
q-36 -42 -84 -93l-10 -11l-6 -7l-24 -27q-82 -88 -133 -153q-51 -64 -94 -138q-58 -97 -74 -201q-12 -95 17 -187q48 -152 170 -253q126 -107 292 -142q44 -10 106 -17q48 -5 105 -7q61 0 121 9q55 7 109 24q103 32 194 129t95 190l120 -2v2h-120l4 166v1097q0 80 -56 107
q-90 36 -183 40v20h604v-20q-132 -12 -185 -39zM344 1052q57 -99 116 -176q59 66 95 107q35 40 52 63q2 4 3 5q2 2 3 4l12 16q4 6 14 18q25 33 28 37q8 12 22 34q45 67 62 145q12 67 -10 134q-31 93 -118 139t-181 18q-55 -16 -97 -54t-64 -91q-49 -119 -7 -241
q28 -86 70 -158z" />
    <glyph glyph-name="V" unicode="V" horiz-adv-x="1478" 
d="M2069 1926q3 -109 -29.5 -189t-90.5 -123.5t-138.5 -63.5t-167.5 -16.5t-183 24.5q-17 2 -115 17l-542 -1605h-10l-474 1305q-25 70 -95 99q-95 32 -193 38v20h378l97 -270q-23 185 20.5 314.5t188.5 206.5q56 27 115.5 40.5t124.5 12.5t117 -6t130.5 -15.5t127.5 -14.5
q15 36 38 97t39 100.5t40 92t49 88t58 71t75.5 58t92.5 33.5q130 22 236.5 -77t110.5 -237zM842 227l457 1355q-255 39 -390 29q-96 -1 -168.5 -37.5t-114 -96.5t-62 -140.5t-18.5 -168t22 -179.5zM1874 1695q150 85 161 213q8 100 -68 180q-77 80 -185 84q-142 5 -251 -132
l-2 -2q-27 -34 -50.5 -81t-34 -74.5t-33.5 -99.5t-29 -89q30 -3 125.5 -16t133.5 -15t106 4t127 28z" />
    <glyph glyph-name="W" unicode="W" horiz-adv-x="2304" 
d="M1870 1432h492v-20q-92 -6 -184 -40q-69 -30 -94 -101l-168 -522q0 -1 1 -1t2 -1q105 -75 147 -199q46 -129 39 -264t-65 -258q0 -1 -2 -3q-2 -3 -5 -11t-4 -11l-1 -1l-6.5 -13t-6.5 -14q-151 -293 -437 -371q-110 -31 -229 -19q-109 12 -207 67q-10 4 -15 7q-2 1 -6 4
t-6 4q-3 1 -9 5q-1 1 -4 2.5t-4 2.5q-47 30 -90 62q-113 84 -119 88l-5 4l-83 63l-3 3l-13 9l-13 11l-2 1l-22 17l-2 1v1q-13 -17 -17 -22q-4 -4 -4 -5v-1q-73 -93 -166 -173q-104 -89 -241 -87q-63 2 -116 23q-52 19 -90.5 59t-56.5 93q-23 61 -14 126.5t48 117.5
q84 126 232 162q42 12 87 10q51 -3 95 -16q26 -10 50 -21q9 -4 43 -22q39 -21 84 -51q14 -10 22 -15l27 -18q9 -6 25 -20l7 -6l1 -1l-425 1207q-25 70 -92 99q-91 32 -188 38v20h589v-20q-117 -12 -159 -39q-41 -27 -13 -98l368 -1030l388 1186l284 1v-20q-116 -12 -158 -39
q-41 -27 -13 -98l161 -453q37 4 52 5q68 6 140 -2q61 -7 105 -21q4 -1 11 -4t10 -4q35 -12 58 -25l163 502q29 76 -11 101q-42 26 -162 38v20zM235 -272q234 -57 479 231l-11 9q-39 29 -64 45q-2 1 -4 3q-1 0 -2 1l-2 1q-3 2 -8.5 6t-8.5 5q-3 2 -8.5 6t-8.5 6
q-22 15 -37 24q-6 4 -9 5q-4 2 -12.5 7.5t-12.5 7.5q-67 40 -146 54q-67 10 -134 -8q-90 -22 -139 -103q-49 -74 -18 -159q18 -50 56.5 -87t89.5 -54zM1562 718q-14 0 -21 -1l167 -472l136 418q-14 8 -22 12q-19 9 -52 20q-36 12 -74 18q-50 8 -101 6q-5 0 -16 -0.5
t-17 -0.5zM1212 1252l-181 -559l110 38q6 2 18.5 6t18.5 6q4 1 11.5 3.5t11.5 3.5l1 1q42 14 108 32l33 9q5 1 14.5 3.5t14.5 3.5zM1919 606q-21 20 -38 33l-216 -670l-257 727q-4 -1 -27.5 -6t-36.5 -9q-42 -11 -100 -30q-23 -7 -112 -39q-2 -2 -4 -2l-140 -50l-105 -324
q-33 -105 -81 -200l13 -10v-1q4 -3 12.5 -10t12.5 -10l28 -22l1 -1q2 -1 5 -3.5t4 -3.5t4.5 -3.5t5.5 -4.5q0 -1 2 -2t3 -2l11 -8l6 -6l5 -3l22 -18q80 -65 154 -116q64 -45 138 -82q93 -49 200 -64q98 -11 188 14q147 38 253 149q73 76 113 171l1 1q7 15 11 28l1 3
q12 34 16 52q12 52 17 93q4 30 6 92q0 58 -8 105q-7 44 -25 95q-25 76 -83 137z" />
    <glyph glyph-name="X" unicode="X" horiz-adv-x="1585" 
d="M1133 1433h511v-20q-107 -8 -205 -39q-80 -27 -130 -98l-317 -503q-6 -9 -1 -20l341 -597q2 -2 2 -3q11 -22 16 -48t3 -63t-29 -76t-77 -69q-102 -69 -222 -90q-112 -18 -221 15q-10 2 -16 4q-2 0 -4.5 1t-5.5 2.5l-5 2.5q-2 0 -5 0.5t-5 1.5q-6 2 -9 4q-50 17 -107 43
q-169 76 -202 91q-96 -123 -176 -208q-59 -64 -135 -119q-107 -78 -239 -62q-124 19 -190 126q-86 128 -45 278q17 75 61.5 138t109.5 104q39 25 80 35q47 11 96 9q57 -7 103 -20q59 -17 123 -44q22 -8 32 -12q15 -6 31 -15l56 -29q15 -7 32.5 -16t41 -21t38.5 -19l13 -5
l380 604q6 9 1 20l-325 565q0 1 -1 2q-46 67 -124 94q-103 28 -211 36v20h626v-20q-60 -5 -113 -19q-34 -8 -52 -39q-16 -28 22 -73l268 -452q4 -9 16 -9q9 0 16 9l93 147l2 2l5 9l4 8l6 9h1l171 269q21 28 30 63q5 25 -16 40q-25 17 -53 23q-40 8 -90 13v20zM273 -173
q74 76 137 161q-60 29 -129 61q-53 25 -76 33q-1 0 -5 2q-2 1 -5 1l-19 7q-3 1 -10.5 4.5t-9.5 4.5q-7 3 -44 16q-21 7 -39 12q-73 24 -157 18q-67 -7 -126 -46q-81 -56 -100.5 -152t33.5 -179q65 -101 185 -114q128 -14 233 60q68 45 132 111zM1182 157l-281 481
q-5 10 -16 10q-10 0 -16 -9l-359 -564l8 -4q97 -48 185 -84q7 -3 19 -9t49.5 -21t74 -27.5t87.5 -26t95.5 -19.5t92 -3.5t82.5 16.5q40 15 49 54q8 71 -70 206z" />
    <glyph glyph-name="Y" unicode="Y" horiz-adv-x="1789" 
d="M1874 555q46 -128 39 -263.5t-65 -258.5q0 -1 -2 -3q-1 -4 -5 -11t-5 -11l-1 -1l-6.5 -13t-6.5 -14q-151 -293 -436 -371q-110 -31 -229 -19q-110 12 -208 67q-7 3 -14 7q-2 1 -6.5 4t-6.5 4q-6 2 -9 4t-7 6q-54 35 -91 62q-104 77 -119 88l-4 3l-84 64l-3 3l-12 9
l-14 10l-2 2l-21 17h-1l-1 1h-1q-84 -113 -187 -200q-104 -89 -240 -87q-63 2 -116 23q-52 19 -91 59t-57 93q-23 61 -13.5 126.5t48.5 117.5q84 125 231 161q42 12 88 10q54 -3 94 -15q21 -8 51 -22q13 -6 42 -21q39 -21 84 -51q7 -5 23 -15q18 -12 26 -18q13 -9 26 -20
l31 -26q113 158 203 344l-75 138l-35 -13l-67 -24q-12 -5 -42 -14q-26 -8 -47 -16q-8 -2 -22.5 -6.5t-20.5 -6.5q-35 -10 -39 -11q-44 -12 -77 -18q-1 0 -5 -1t-5 -1v123v174h21v-22v-8.5t3.5 -20t10 -26.5t22.5 -25t38.5 -18.5t60 -3.5t84.5 16h1l4 2q8 3 23 7.5t21 6.5
l14 6l3 1l-345 634q-33 62 -90 100q-9 5 -11 5t-4 2q-24 8 -36 11h-1q-75 17 -134 21v20h337l412 -748l54 -98l12 -22l16 32l72 142l351 694h368v-20q-14 -1 -52.5 -2.5t-70.5 -3t-75.5 -9t-77.5 -19t-66 -34.5t-50 -55q-2 -4 -6 -14l-260 -517q46 16 107 32l33 9q11 3 33 7
q9 2 24 5.5t22 4.5q26 5 69 11t66 7q67 6 139 -2q58 -6 106 -22q3 -1 10 -3.5t11 -3.5q26 -9 58 -26q30 -16 39 -23q105 -75 147 -199zM43 -265q233 -57 478 231l-11 8q-52 39 -63 46q-2 1 -4 3q-1 1 -2 1q-2 0 -2 1q-3 1 -8.5 5t-8.5 6t-8.5 6t-8.5 6q-17 12 -38 24
q-7 5 -8 5q-18 10 -26 14q-67 40 -145 54q-67 10 -134 -8q-90 -22 -139 -102q-49 -74 -18 -159q18 -50 56.5 -87t89.5 -54zM1819 91q12 53 17 92q5 40 7 92q0 53 -9 106q-8 49 -24 95q-25 75 -83 136q-22 22 -39 34q-22 17 -58 35q-27 13 -52 21q-29 10 -75 17q-55 8 -100 7
q-5 0 -16 -0.5t-17 -0.5q-53 -3 -104 -12q-37 -7 -50 -10q-42 -10 -64 -16q-48 -13 -101 -30q-35 -11 -111 -38l-126 -251q-83 -169 -194 -334q18 -14 28 -22l10 -8l16 -13l3 -3q3 -3 9.5 -8t9.5 -7q0 -1 2 -2l2 -1l12 -8l6 -6l4 -4l23 -17q80 -65 154 -116q66 -46 137 -82
q95 -50 201 -65q95 -11 187 15q148 39 253 148q74 77 114 172l1 1q4 9 10 27l2 4q9 26 15 52z" />
    <glyph glyph-name="Z" unicode="Z" horiz-adv-x="2013" 
d="M1870 653q47 -146 38.5 -299.5t-71.5 -293.5q-2 -5 -6.5 -14.5t-6.5 -14.5q-152 -337 -436 -425q-111 -36 -229 -22q-115 16 -208 76l-7 3.5t-7 4.5l-12 9q-1 1 -4.5 3t-5.5 3q-3 2 -7 6q-42 29 -91 71q-115 100 -189 163q-139 -164 -338 -235q-27 -10 -31 -11
q-83 -27 -168 -17l-2 1q-44 7 -77 22q-54 25 -93 71t-55 104q-22 71 -13 143.5t48 135.5q79 140 231 185q39 13 88 11q47 -3 94 -18q51 -21 94 -48q56 -35 106 -76q3 -2 8.5 -6.5t10 -8t8.5 -6.5q9 -7 25 -23l43 -41l36 52l864 1237h-1107q-136 -1 -195 -105
q-58 -101 -76 -316h-21l8 457h1553v-34l-300 -429q64 7 115 -1.5t121 -32.5q194 -66 265 -281zM-101 -89q16 -55 54.5 -97t91.5 -64q36 -16 76 -17.5t76.5 8.5t75.5 31t73 47t69 59t63 63.5t55 64.5q-12 10 -21 18q-40 35 -63 52q-1 1 -4 3l-4 4l-9 6t-8 5q-1 1 -17 14
q-26 20 -38 28l-33 22q-66 45 -146 62q-69 12 -134 -9q-93 -31 -139 -118.5t-18 -181.5zM901 -154q66 -53 137 -94q97 -58 201 -74q21 -3 42 -3q73 -2 139 19q150 44 253 164q9 10 20 25q1 2 5 6t5 6q10 13 16 23l7 10.5t8 11.5q3 6 10 18.5t11 18.5q1 3 3.5 8t4.5 8
q10 20 15 31v1q23 54 37 115q12 57 17 102t7 102q0 59 -9 116q-8 54 -24 105q-62 190 -232 250q-149 47 -303 13l-552 -790q-3 -3 -8 -10t-7 -10l10 -8l6 -7l27 -24q83 -76 154 -133z" />
    <glyph glyph-name="bracketleft" unicode="[" horiz-adv-x="532" 
d="M529 1448q-33 0 -50 -0.5t-45.5 -3.5t-44 -9t-35 -17.5t-29.5 -29t-17 -44t-7 -60.5v-1405q0 -39 12.5 -67t31 -43t51 -23.5t61 -10.5t72.5 -2h6v-32h-355v1779h355v-32h-6z" />
    <glyph glyph-name="backslash" unicode="\" horiz-adv-x="1017" 
d="M227 1459l685 -1506h-118l-1 4l-684 1505h117z" />
    <glyph glyph-name="bracketright" unicode="]" horiz-adv-x="532" 
d="M-4 1480h354v-1779h-354v32h6q44 0 72.5 2t61 10.5t51 23.5t31 43t12.5 67v1405q0 34 -7 60.5t-17 44t-29.5 29t-35 17.5t-44 9t-45.5 3.5t-50 0.5h-6v32z" />
    <glyph glyph-name="asciicircum" unicode="^" horiz-adv-x="1077" 
d="M568 1415l392 -667h-47l-377 509l-370 -509h-47l389 670h58z" />
    <glyph glyph-name="underscore" unicode="_" horiz-adv-x="1609" 
d="M1429 -237h-1249v74h1249v-74z" />
    <glyph glyph-name="grave" unicode="`" horiz-adv-x="763" 
d="M234 1443l425 -334h-37l-2 1l-511 300z" />
    <glyph glyph-name="a" unicode="a" horiz-adv-x="1447" 
d="M1278 58q94 -31 197 -37v-20h-605v20q120 12 163 38q42 25 15 99l-52 138l-34 95l-26 71l-77 213h-360l-80 -235l-30 -86h-1l-15 -46l-50 -148q-27 -75 14 -101t166 -38v-20h-511v20l14 2q95 8 178 37q70 29 94 100l367 1108q-35 87 -89 107q-33 13 -296 36v21h802v-21
q-8 -1 -53 -5t-67.5 -6.5t-57.5 -7t-55 -9t-28 -9.5q-42 -25 -16 -98l400 -1120q25 -70 93 -98zM845 712l-173 476l-161 -476h334z" />
    <glyph glyph-name="b" unicode="b" horiz-adv-x="1380" 
d="M932 847q42 -8 81 -22.5t86 -45.5t81.5 -73t58.5 -110.5t25 -152.5q1 -71 -13.5 -131.5t-39.5 -103t-57.5 -77t-69 -55.5t-73 -36.5t-70 -23t-59 -11.5t-40.5 -5h-15h-770v20q129 12 185 40q54 27 54 107v1095q0 81 -53 108q-55 28 -186 40v20h736q8 0 21 -0.5t50.5 -6.5
t72 -16t77 -32t73 -52t51.5 -78.5t22 -108.5q1 -63 -18.5 -114t-54.5 -84.5t-72.5 -55t-82.5 -35.5zM423 1393v-536h308h16.5t41 5t58 13.5t61.5 29t58.5 48.5t41.5 74.5t18 104.5q0 5 -0.5 14.5t-5.5 36t-15 50.5t-32.5 54t-53.5 51.5t-82.5 37.5t-115.5 17h-298zM1112 444
q0 8 -0.5 21t-6 51t-17 73t-36.5 78t-60 74t-93 53.5t-130 24.5h-346v-783h308q143 0 215 49q163 112 166 359z" />
    <glyph glyph-name="c" unicode="c" horiz-adv-x="1507" 
d="M1363 475l21 1l-31 -343q-182 -167 -497 -180q-141 -9 -274 39.5t-236 146.5q-213 197 -228 539v2q-15 340 182 557q94 106 222 165.5t270 62.5q316 13 511 -138l59 -339l-20 -1q-69 223 -217 336q-142 114 -321 106q-125 -2 -234 -62.5t-177 -164.5q-148 -215 -136 -517
q1 -25 5 -68q0 -1 0.5 -4t0.5 -4q23 -243 173 -427q76 -98 190 -149t239 -43q179 8 311 133q138 126 187 352z" />
    <glyph glyph-name="d" unicode="d" horiz-adv-x="1552" 
d="M1392 992q46 -137 44 -279q0 -307 -183 -509t-534 -202h-658v20q127 12 176 39t49 102v1108q0 78 -49 103q-51 26 -176 38v20h646q170 3 327 -56q134 -49 229 -156q86 -101 129 -228zM1141 224q158 185 158 485q1 137 -36 267q-36 119 -114 217q-84 102 -207 149
q-147 56 -305 53h-224v-1356h231q338 0 497 185z" />
    <glyph glyph-name="e" unicode="e" horiz-adv-x="1349" 
d="M423 1023v-214h258q81 0 108 52q27 53 39 186h20v-514h-20q-4 91 -40 181q-27 56 -107 56v-1h-258v-730h492q137 0 196 105q60 107 70 316h20v-458h-1144v20q93 4 183 40q56 27 56 108v1094q0 81 -56 108q-90 36 -183 40v20h1144v-458h-20q-12 219 -77 320t-223 101h-458
v-372z" />
    <glyph glyph-name="f" unicode="f" horiz-adv-x="1282" 
d="M57 1431h1144v-458h-20q-12 219 -77 320t-223 101h-458v-580h310q80 0 107 55q36 90 40 182h21v-514h-21q-12 132 -39 185q-28 54 -108 54v-1h-310v-607q0 -80 56 -107q90 -36 183 -40v-20h-605v20q93 4 183 40q56 27 56 107v1095q0 81 -56 108q-90 36 -183 40v20z" />
    <glyph glyph-name="g" unicode="g" horiz-adv-x="1693" 
d="M1038 609v20h605v-20q-131 -12 -186 -40q-53 -27 -53 -107v-492h-17l-110 151q-163 -151 -453 -151q-143 -3 -275 52.5t-230 159.5q-204 212 -204 524q0 341 207 548q102 103 237 157.5t279 50.5q305 0 498 -160l45 -335h-20q-61 224 -200 340q-138 120 -321 118
q-272 0 -429 -210q-157 -209 -157 -511q-2 -179 63 -343q64 -158 198 -255q144 -104 319 -99q285 0 443 170v285q0 80 -56 107q-90 36 -183 40z" />
    <glyph glyph-name="h" unicode="h" horiz-adv-x="1660" 
d="M1416 1372q-53 -27 -53 -109v-1092q0 -83 54 -110t185 -39v-21h-605v21q98 5 183 40q56 29 56 109v546h-813v-546q0 -80 56 -109q85 -35 183 -40v-21h-605v21q136 15 186 41q53 27 53 108v1092q0 83 -54 110q-55 28 -185 38v20h605v-20q-94 -3 -184 -38q-55 -27 -55 -110
v-509h813v509q0 81 -55 108q-91 36 -184 40v20h605v-20q-134 -12 -186 -39z" />
    <glyph glyph-name="i" unicode="i" horiz-adv-x="714" 
d="M475 1372q-54 -27 -54 -108v-1095q0 -80 54 -107q90 -36 181 -40v-20h-599v20q129 12 184 40q53 27 53 107v1095q0 81 -53 108q-55 28 -184 40v20h599v-20q-91 -4 -181 -40z" />
    <glyph glyph-name="j" unicode="j" horiz-adv-x="811" 
d="M169 1432h597v-20q-96 -5 -181 -40q-55 -28 -55 -108v-1242v-20q0 -167 -142 -303q-111 -108 -300 -108q-177 2 -326 98l-36 311h15q43 -202 132 -288q99 -92 230 -86q62 0 118.5 26.5t96.5 73.5q86 96 86 276v1v11v1250q0 82 -52 109t-183 39v20z" />
    <glyph glyph-name="k" unicode="k" horiz-adv-x="1611" 
d="M1550 19h18v-19h-243q-79 3 -131 64q-68 88 -189 391q-27 70 -44.5 112.5t-39 93t-37 79.5t-35.5 62.5t-37.5 51t-39.5 37t-46.5 29t-52.5 17t-62 10.5l-188 -136v-642q0 -80 55 -108q87 -36 180 -41v-20h-599v20q128 12 183 40q52 27 52 109v1093q0 82 -51 109
q-49 26 -184 38v21h599v-21q-94 -5 -181 -39q-54 -27 -54 -108v-398l118 87l40 29l410 301q98 71 92 96q-6 24 -115 35v20h519v-20q-264 -24 -435 -135l-270 -203l-108 -81l-19 -14h17q162 -6 252 -92.5t189 -329.5q59 -146 108 -243.5t88 -156.5t80 -89.5t76 -39.5t85 -9z
" />
    <glyph glyph-name="l" unicode="l" horiz-adv-x="1320" 
d="M1218 460h20v-458h-1181v20q92 4 182 40q55 27 55 108v1095q0 80 -54 107q-85 35 -183 40v20h599v-20q-91 -4 -181 -40q-54 -27 -54 -107v-1226h535q140 7 195 111q57 106 67 310z" />
    <glyph glyph-name="m" unicode="m" horiz-adv-x="1738" 
d="M1496 1373q-54 -28 -54 -109v-1095q0 -81 53 -108q52 -27 184 -39v-20h-594v20q88 4 172 41q55 29 55 106v1167l-487 -968l-492 905v-1104q0 -80 56 -107q90 -36 183 -40v-20h-505v20q90 5 175 40q52 27 54 107v1095q0 82 -53 109t-186 39v20h337l478 -868l440 868h367
v-20q-131 -12 -183 -39z" />
    <glyph glyph-name="n" unicode="n" horiz-adv-x="1519" 
d="M958 1432h515v-20q-134 -12 -186 -39q-53 -27 -53 -108v-1294h-10l-891 1298v-1099q0 -80 56 -109q88 -36 183 -41v-20h-515v20q129 12 185 40q54 27 54 109v1102q-1 77 -55 103q-90 34 -184 38v20h325l813 -1166v998q0 81 -55 108q-90 36 -182 40v20z" />
    <glyph glyph-name="o" unicode="o" 
d="M1310 1237q100 -110 152 -249t48 -287q0 -316 -199 -525q-98 -101 -227.5 -155.5t-270.5 -54.5t-270.5 54.5t-227.5 155.5q-200 211 -200 525q-4 149 48.5 288t152.5 248q95 105 225 162.5t272 57.5t272 -57.5t225 -162.5zM1217 191q152 188 152 510q0 333 -153 526
q-74 92 -180 142.5t-224 50.5t-224.5 -51t-180.5 -142q-153 -193 -153 -524q0 -322 153 -511q75 -90 181.5 -139.5t223.5 -49.5t223 49.5t182 138.5zM824 1053q2 -1 -0.5 -18.5t2.5 -47t10 -64.5t21.5 -70.5t38 -64t59 -47t85.5 -18.5v-23q-48 0 -85 -18t-59 -47t-37 -64
t-21 -70.5t-8.5 -64.5t-1.5 -47v-18h-26q-2 1 0 18t-2.5 47t-9.5 64.5t-21.5 69.5t-38.5 64t-59.5 47t-85.5 18v25q65 0 111 34t65.5 82t29 96.5t9.5 82.5l-1 34h25z" />
    <glyph glyph-name="p" unicode="p" horiz-adv-x="1234" 
d="M793 1432q8 0 21 -0.5t50.5 -6.5t72 -16t77 -32t73 -52t51.5 -78.5t22 -108.5q1 -64 -20 -116t-55 -84t-75.5 -55.5t-83.5 -34.5t-76.5 -17.5t-55.5 -6.5l-22 -1h-349v-654q0 -80 55 -107q91 -36 184 -40v-20h-605v20q129 12 185 40q54 27 54 107v1095q0 81 -53 108
q-55 28 -186 40v20h736zM1026 1134q0 5 -0.5 14.5t-5.5 36t-15 50.5t-32.5 54t-53.5 51.5t-82.5 37.5t-115.5 17h-298v-535h308h16.5t41 4.5t58 13.5t61.5 29t58.5 48t41.5 74.5t18 104.5z" />
    <glyph glyph-name="q" unicode="q" 
d="M1310 1242q100 -110 152 -248.5t48 -286.5q0 -316 -199 -525q-154 -168 -382 -202q40 -73 75.5 -118.5t72 -68.5t69 -30.5t77.5 -7.5h18v-18h-243q-79 3 -131 64q-56 79 -96 172q-131 5 -249.5 59t-206.5 150q-200 211 -200 525q-4 148 48 286.5t153 248.5
q95 105 225 163t272 58t272 -58t225 -163zM407 197q63 -81 154 -129.5t193 -56.5q-54 125 -76 181q-27 70 -44.5 112.5t-39 93t-37 79.5t-35.5 62.5t-37.5 51t-39.5 37t-46.5 29t-52.5 17t-62 10.5l-30 3q5 -309 153 -490zM1217 196q152 188 152 511q0 333 -153 526
q-74 92 -180 142.5t-224 50.5t-224.5 -51t-180.5 -142q-151 -191 -153 -516l75 -1h16q162 -6 252 -92.5t189 -329.5q70 -173 124 -278q189 30 307 180z" />
    <glyph glyph-name="r" unicode="r" horiz-adv-x="1431" 
d="M1378 19h18v-18h-243q-79 3 -131 64q-68 88 -189 391q-60 154 -96.5 235t-73.5 133h-240v-653q0 -81 55 -108q87 -35 184 -40v-20h-605v20q129 12 185 40q54 27 54 108v1095q0 80 -53 107q-55 28 -186 40v20h736q8 0 21 -0.5t50.5 -6.5t72 -16t77 -32t73 -52t51.5 -78.5
t22 -108.5q1 -73 -27.5 -130.5t-68.5 -89.5t-94.5 -53.5t-91.5 -29t-74 -10.5q84 -128 136 -268q59 -146 108 -243.5t88 -156.5t80.5 -89.5t76.5 -40t85 -9.5zM423 861h308q30 0 44 2q29 4 57 11.5t64.5 27t63 47.5t45.5 76.5t20 109.5v14.5t-5.5 36t-15 50.5t-32 54
t-53.5 51.5t-82.5 37.5t-115.5 17h-298v-535z" />
    <glyph glyph-name="s" unicode="s" horiz-adv-x="1153" 
d="M988 452q88 -142 49 -249.5t-160.5 -171t-273.5 -62.5q-346 2 -464 139l-2 388h21q4 -121 44.5 -220.5t108 -162.5t152.5 -94t184.5 -19t197.5 67q67 37 87 94t-0.5 116t-65 121t-98.5 112t-109 87q-42 34 -122 87.5t-137 95t-117.5 97.5t-95.5 122t-40 141t24 134
t82.5 95t123 58t148 25.5t155 -5t146.5 -32t120 -56.5l-2 -327h-21q3 78 -21 147t-66.5 118t-101.5 81.5t-123.5 43t-134 -3.5t-131.5 -53q-68 -46 -83 -117.5t14.5 -142.5t79 -134.5t107.5 -103.5q60 -51 173 -123.5t204 -142.5t148 -149z" />
    <glyph glyph-name="t" unicode="t" horiz-adv-x="1421" 
d="M80 1432h1261v-458h-21q-12 220 -76 320q-65 101 -226 101h-221v-1225q0 -81 55 -108q91 -36 184 -40v-20h-604v20q92 4 182 40q57 28 57 108v1225h-270q-159 0 -224 -101t-77 -320h-20v458z" />
    <glyph glyph-name="u" unicode="u" horiz-adv-x="1613" 
d="M1051 1431l521 1v-21q-130 -12 -184 -39q-55 -28 -55 -108v-770q0 -287 -135 -404q-137 -119 -371 -119q-3 0 -10 0.5t-10 0.5t-10 -0.5t-10 -0.5q-234 0 -371 119q-136 118 -136 404v770q0 81 -54 108t-185 39v21h605v-21q-96 -5 -184 -39q-55 -27 -55 -108v-792
q0 -284 155 -394q2 -1 5.5 -3.5t5.5 -3.5q1 -1 2.5 -2t2.5 -1q29 -16 66 -31q80 -27 163 -27q6 -1 17.5 -1.5t46 1t67.5 6.5t77.5 19t82.5 35t76.5 58.5t64.5 85.5t40.5 119t10.5 156v775q0 80 -55 107q-91 36 -184 40v20z" />
    <glyph glyph-name="v" unicode="v" horiz-adv-x="1462" 
d="M974 1434h507v-20q-96 -7 -189 -41q-70 -28 -97 -100l-441 -1302h-10l-474 1306q-25 70 -95 99q-95 32 -193 38v20h602v-20q-118 -12 -162 -39q-43 -27 -13 -98l384 -1048l361 1046q28 73 -13 100q-42 27 -167 39v20z" />
    <glyph glyph-name="w" unicode="w" horiz-adv-x="2234" 
d="M1781 1434h493v-20q-97 -8 -184 -40q-69 -30 -94 -101l-419 -1302l-453 1283l-415 -1283l-460 1306q-25 69 -93 99q-92 32 -187 38v20h589v-20q-117 -12 -159 -39q-41 -27 -13 -98l368 -1030l347 1067q-38 52 -96 70q-83 24 -168 30v20h589v-20q-117 -12 -159 -39
q-41 -27 -13 -98l366 -1030l335 1028q29 76 -11 101q-42 26 -163 38v20z" />
    <glyph glyph-name="x" unicode="x" horiz-adv-x="1566" 
d="M1322 58q98 -28 198 -36v-20h-615v20q40 4 90 14q29 6 55 21q23 11 21 38q-6 31 -25 60l-296 509l-325 -509q-21 -29 -28 -60q-3 -24 19 -38q26 -16 53 -22q41 -10 87 -13v-20h-511v20q75 6 135 18q55 12 104 39q56 28 96 80l347 546l-331 576q-46 69 -124 95
q-103 28 -211 36v20h626v-20q-55 -4 -113 -20q-34 -8 -52 -39q-15 -27 22 -72l284 -478l298 470q21 29 30 63q5 25 -16 40q-23 16 -53 22q-50 10 -90 14v20h511v-20q-105 -8 -204 -39q-81 -27 -131 -98l-323 -513l347 -609q46 -67 125 -95z" />
    <glyph glyph-name="y" unicode="y" horiz-adv-x="1388" 
d="M927 1432h501v-20q-103 -8 -195 -40q-76 -30 -118 -99l-339 -628v-475q1 -81 55 -109q52 -27 184 -39v-20h-605v20q93 4 184 40q56 27 56 107v470l-372 644q-47 65 -125 93q-93 30 -192 36v20h607v-20q-55 -6 -91 -14q-30 -6 -55 -22q-22 -13 -20 -39q6 -32 29 -60
l333 -572l310 578q40 66 4 92q-37 26 -151 37v20z" />
    <glyph glyph-name="z" unicode="z" horiz-adv-x="1337" 
d="M1210 460h20l-8 -458h-1110v35l951 1358h-664q-136 -1 -195 -104t-77 -317h-21l9 458h1109v-35l-950 -1358h664q138 2 196 105q60 106 76 316z" />
    <glyph glyph-name="braceleft" unicode="{" horiz-adv-x="702" 
d="M613 -315l6 -2l-6 -19l-5 1q-151 19 -220.5 101t-69.5 240v234q0 55 -4 98t-9.5 72.5t-17.5 51.5t-21.5 34.5t-27.5 22.5t-29 13.5l-33 10.5q-5 2 -14 5t-14 4l-5 1v17l5 1q21 7 25 8q31 9 46 15.5t38 27.5t33.5 52t19 89.5t8.5 140.5v235q0 158 69.5 240t220.5 101l5 1
l6 -19l-6 -2q-172 -57 -172 -321v-289q0 -65 -18 -119t-47 -87t-56.5 -53t-55.5 -29q22 -6 43.5 -16.5t46.5 -32t43.5 -50t31 -72t12.5 -96.5v-289q0 -82 17 -144.5t45.5 -97t54.5 -52.5t55 -27z" />
    <glyph glyph-name="verticalbar" unicode="|" horiz-adv-x="462" 
d="M281 -335h-101v1815h101v-1815z" />
    <glyph glyph-name="braceright" unicode="}" horiz-adv-x="704" 
d="M555 569l4 -1v-17l-4 -1q-4 -2 -14 -5t-14 -4l-33 -10.5t-29 -13.5t-27.5 -22.5t-21.5 -34.5t-17.5 -51.5t-9.5 -72.5t-4 -98v-234q0 -158 -70 -240t-221 -101l-5 -1l-5 19l6 2q29 9 55 27t54.5 52.5t45.5 97t17 144.5v289q0 65 18 116t47 80.5t56 46t55 24.5
q-28 9 -55.5 29t-56 53t-46.5 87t-18 119v289q0 264 -172 321l-6 2l5 19l5 -1q151 -19 221 -101t70 -240v-234q0 -69 4.5 -120.5t16 -85t22 -54.5t31 -34.5t33 -18.5t38.5 -13q4 -1 25 -8z" />
    <glyph glyph-name="asciitilde" unicode="~" horiz-adv-x="1198" 
d="M1067 625l21 -5l-3 -7q-70 -168 -240 -188q-14 -2 -42 -2q-60 0 -114 16l-241 87q-81 23 -163 11q-117 -18 -156 -95l-2 -4l-18 5l2 6q28 77 92.5 128t146.5 59q77 9 155 -13l243 -86q27 -10 72 -12t93.5 4.5t91.5 30t60 60.5z" />
    <glyph glyph-name="nonbreakingspace" unicode="&#xa0;" horiz-adv-x="772" 
 />
    <glyph glyph-name="sterling" unicode="&#xa3;" horiz-adv-x="1482" 
d="M1346 245l1 -6q6 -107 -68 -188q-80 -75 -188 -75q-52 0 -105.5 30t-146.5 100l-64 48q-39 -56 -88.5 -94t-104.5 -55t-101 -23t-101 -6q-8 0 -21 1t-47 9.5t-63 23t-59.5 46t-45.5 74.5q-12 34 4.5 86t60.5 96q24 24 55.5 41.5t81 31.5t120 6.5t152.5 -38.5l1 -1
q78 -34 139 -73q13 70 -7 130.5t-85 152.5q-4 6 -11 16t-11 16q-42 61 -93 128h-221v32h200q-59 97 -90 186t-36 153t7 121t30 91.5t43 63.5q72 84 189.5 116t234.5 -1q93 -19 219 -112l2 -2v-274h-32v6q0 189 -94 282q-83 77 -195 80q-75 2 -137 -23.5t-100 -75.5
q-73 -97 -40 -256.5t166 -354.5h389v-32h-365l72 -97q58 -86 67 -188.5t-33 -197.5q116 -71 242 -129q46 -18 107.5 -14t97.5 29q59 40 56 113v6zM378 6q119 0 211 46.5t138 129.5q-97 70 -206 113q-60 24 -125 24q-100 2 -172 -64q-30 -29 -43.5 -62t-6.5 -59
q17 -62 70 -95t134 -33z" />
    <glyph glyph-name="softhyphen" unicode="&#xad;" horiz-adv-x="0" 
 />
    <glyph glyph-name="Agrave" unicode="&#xc0;" horiz-adv-x="1828" 
d="M1697 544q46 -128 39 -263.5t-65 -258.5q-2 -4 -5.5 -12.5t-5.5 -12.5q-6 -14 -14 -28q-151 -293 -437 -371q-113 -32 -228 -20q-110 12 -208 67q-2 1 -14 8q-2 1 -6.5 3.5t-6.5 3.5q-3 1 -9 5t-8 6q-47 30 -90 62q-113 84 -119 88l-4 3l-99 76q-59 -76 -139 -138
q-90 -69 -197 -102q-125 -39 -247 6q-52 19 -91 59t-57 93q-23 61 -13.5 126.5t48.5 117.5q83 125 231 161q42 12 88 10q50 -3 94 -16q31 -12 51 -21q13 -6 42 -21q39 -21 84 -51q1 -1 9 -7t13 -9l27 -18q9 -6 25 -20l46 -38l12 -9q81 139 133 301l81 245l-2 -1l-106 -40
l-106 -38q-26 -10 -42 -15l-48 -15q-8 -2 -22 -6.5t-20 -6.5t-19 -6t-20 -6q-44 -12 -77 -18q-1 0 -5 -0.5t-5 -0.5v296h21v-21v-8.5t3.5 -20t10 -27t23 -25t39 -18t60.5 -3t86 16.5l2 1q8 3 23 7.5t21 6.5l14 5l68 25l79 27l66 25l186 561q-35 85 -89 106q-37 14 -295 37
v21h801v-21q-238 -24 -261 -38q-42 -25 -15 -98v-1l160 -447q125 11 244 -24q94 -27 164.5 -94.5t100.5 -160.5zM128 -276q133 46 252 204h-1l-45 35q-52 39 -63 46q-1 0 -2.5 0.5t-2.5 1.5t-4 3t-8 5.5t-8 4.5q-3 2 -9 6.5t-9 6.5q-22 15 -37 24q-4 3 -8 4q-3 2 -12.5 7.5
t-13.5 7.5q-67 40 -145 54q-67 10 -134 -8q-90 -22 -139 -103q-48 -73 -18 -158q18 -50 56 -87.5t89 -53.5q110 -40 223 -11q1 0 3 1h1h2q2 0 6 2t6 2l19 5q1 0 2 1zM914 1183l-156 -461q34 12 51 17q4 1 11.5 3.5t11.5 3.5q60 20 109 33q8 2 66 16q7 1 14.5 2.5t16.5 3.5
t14 3zM1501 -176q73 76 114 173h-503v20q120 12 163 38q42 25 15 99l-51 137l-35 96l-26 71l-77 213l-11 30q-59 -10 -114 -25q-48 -13 -101 -30q-69 -22 -116 -40l-46 -17l-52 -154l-30 -85h-1l-15 -46q-19 -72 -50 -147v-1q-33 -82 -83 -163q5 -4 18 -14.5t20 -16.5l4 -4
l11 -8l7 -6l4 -3l23 -18q77 -63 153 -115q68 -48 138 -83q93 -49 201 -64q95 -11 187 15q148 39 253 148zM1660 172q5 40 7 92q0 52 -9 105q-8 49 -24 95q-26 82 -87.5 142t-144.5 85q-86 27 -176 24l201 -563q25 -70 93 -98q56 -19 107 -26q13 36 16 51q12 52 17 93z
M1174 1608h-32l-495 304l139 41z" />
    <glyph glyph-name="Aacute" unicode="&#xc1;" horiz-adv-x="1771" 
d="M1640 544q46 -128 39 -263.5t-65 -258.5q-2 -4 -5.5 -12.5t-5.5 -12.5q-6 -14 -14 -28q-151 -293 -437 -371q-113 -32 -229 -20q-109 12 -207 67q-5 2 -15 8q-2 1 -6 3.5t-6 3.5q-3 1 -9 5t-8 6q-47 30 -90 62q-113 84 -119 88l-5 3l-99 76q-60 -78 -138 -138
q-90 -68 -198 -102q-125 -39 -247 6q-52 19 -90.5 59t-56.5 93q-23 61 -14 126.5t48 117.5q40 60 100.5 102t131.5 59q42 12 87 10q51 -3 95 -16q26 -10 50 -21q18 -8 43 -21q39 -21 84 -51q1 -1 9 -7t13 -9l27 -18q9 -6 25 -20l46 -38q2 -1 5.5 -4t5.5 -5q83 143 134 301
l81 245l-2 -1l-106 -40l-106 -38q-26 -10 -42 -15l-48 -15q-7 -2 -21 -6.5t-21 -6.5h-1q-6 -2 -19 -6t-19 -6q-44 -12 -77 -18q-2 0 -6 -0.5t-5 -0.5v296h22v-21q2 0 0 -8.5t3 -20.5t10.5 -26t22.5 -25.5t39 -18t60 -3.5t86 17l3 1q8 3 23 7.5t20 6.5l14 5h1l68 25l78 27
l67 25l186 561q-35 85 -89 106q-37 14 -296 37v21h802v-21q-238 -24 -261 -38q-42 -25 -15 -98v-1l160 -447q125 11 244 -24q94 -27 164.5 -94.5t100.5 -160.5zM71 -276q131 45 251 204l-45 35q-47 35 -64 46l-4 2q-1 1 -4 3q-3 1 -8.5 4.5t-8.5 5.5t-8.5 6.5t-8.5 6.5
q-22 15 -37 24q-4 3 -8 4q-3 2 -12 7.5t-14 7.5q-67 40 -146 54q-67 10 -134 -8q-88 -21 -138 -103q-49 -74 -19 -158q18 -50 56.5 -87t89.5 -54q110 -40 223 -11l1 1h1h1h2q2 0 6.5 2t6.5 2l18 5q2 0 3 1zM857 1183l-156 -461q34 12 51 17q4 1 11.5 3.5t11.5 3.5
q60 20 109 33q8 2 66 16q7 1 14.5 2.5t16.5 3.5t14 3zM1191 -324q148 39 253 148q73 76 114 173h-503v20q119 12 162 38t16 99l-52 137l-34 96l-26 71l-78 213l-11 30q-59 -10 -114 -25q-42 -11 -100 -30q-69 -22 -116 -40l-46 -17l-52 -154l-30 -85h-1l-15 -46
q-19 -72 -50 -147v-1q-33 -82 -83 -163q5 -4 18 -14.5t20 -16.5l4 -4l11 -8l6 -6l5 -3l22 -18q72 -58 154 -115q68 -48 138 -83q93 -49 200 -64q96 -11 188 15zM1603 172q4 30 6 92q0 58 -8 105q-7 44 -25 95q-26 82 -87.5 142t-144.5 85q-86 27 -175 24l201 -563
q25 -70 93 -98q56 -19 107 -26q13 36 16 51q12 52 17 93zM1123 1912l-495 -304h-32l388 345z" />
    <glyph glyph-name="Acircumflex" unicode="&#xc2;" horiz-adv-x="1828" 
d="M1697 544q46 -128 39 -263.5t-65 -258.5q-2 -4 -5.5 -12.5t-5.5 -12.5q-6 -14 -14 -28q-151 -293 -437 -371q-113 -32 -228 -20q-110 12 -208 67q-5 2 -15 8q-2 1 -6 3.5t-6 3.5q-3 1 -9 5t-8 6q-47 30 -90 62q-113 84 -119 88l-4 3l-99 76q-59 -76 -139 -138
q-90 -69 -197 -102q-125 -39 -247 6q-52 19 -91 59t-57 93q-23 61 -13.5 126.5t48.5 117.5q83 125 231 161q42 12 88 10q50 -3 94 -16q31 -12 51 -21q13 -6 42 -21q39 -21 84 -51q1 -1 9 -7t13 -9l27 -18q9 -6 25 -20l46 -38l12 -9q81 139 133 301l81 245l-2 -1l-106 -40
l-106 -38q-26 -10 -42 -15l-48 -15q-8 -2 -22 -6.5t-20 -6.5t-19 -6t-20 -6q-44 -12 -77 -18q-1 0 -5 -0.5t-5 -0.5v296h21v-21v-8.5t3.5 -20t10 -27t23 -25t39 -18t60.5 -3t86 16.5l2 1q8 3 23 7.5t21 6.5l14 5l68 25l79 27l66 25l186 561q-35 85 -89 106q-37 14 -295 37
v21h801v-21q-238 -24 -261 -38q-42 -25 -15 -98v-1l160 -447q125 11 244 -24q94 -27 164.5 -94.5t100.5 -160.5zM128 -276q131 45 251 204l-45 35q-47 35 -64 46l-4 2q-1 1 -4 3t-8 5.5t-8 4.5q-3 2 -9 6.5t-9 6.5q-22 15 -37 24q-4 3 -8 4q-3 2 -12.5 7.5t-13.5 7.5
q-67 40 -145 54q-67 10 -134 -8q-90 -22 -139 -103q-48 -73 -18 -158q18 -50 56 -87.5t89 -53.5q110 -40 223 -11q1 0 3 1h1h2q2 0 6 2t6 2l19 5q1 0 2 1zM914 1183l-156 -461q34 12 51 17q4 1 11.5 3.5t11.5 3.5q60 20 109 33q8 2 66 16q7 1 14.5 2.5t16.5 3.5t14 3z
M1501 -176q73 76 114 173h-503v20q120 12 163 38q42 25 15 99l-51 137l-35 96l-26 71l-77 213l-11 30q-61 -10 -115 -25q-42 -11 -100 -30q-69 -22 -116 -40l-46 -17l-52 -154l-30 -85h-1l-15 -46q-19 -72 -50 -147v-1q-33 -82 -83 -163q5 -4 18 -14.5t20 -16.5l4 -4l11 -8
l7 -6l4 -3l23 -18q77 -63 153 -115q68 -48 138 -83q93 -49 201 -64q95 -11 187 15q148 39 253 148zM1643 79q12 52 17 93q5 40 7 92q0 52 -9 105q-8 49 -24 95q-26 82 -87.5 142t-144.5 85q-86 27 -176 24l201 -563q25 -70 93 -98q56 -19 107 -26q13 36 16 51zM899 1856
l-255 -246h-36l291 403l292 -403h-37z" />
    <glyph glyph-name="Atilde" unicode="&#xc3;" horiz-adv-x="1857" 
d="M1726 544q46 -129 39 -264t-65 -258q-2 -4 -5.5 -12.5t-5.5 -12.5q-6 -14 -14 -28q-151 -293 -437 -371q-113 -32 -229 -20q-109 12 -207 67q-5 2 -15 8q-2 1 -6 3.5t-6 3.5q-3 1 -9 5t-8 6q-47 30 -90 62q-113 84 -119 88l-5 3l-99 76q-60 -78 -138 -138
q-90 -68 -198 -102q-125 -39 -247 6q-52 19 -90.5 59t-56.5 93q-23 61 -14 126.5t48 117.5q40 60 100.5 102t131.5 59q42 12 87 10q51 -3 95 -16q26 -10 50 -21q18 -8 43 -21q39 -21 84 -51q1 -1 9 -7t13 -9q3 -2 8.5 -5.5t10 -6.5t8.5 -6q9 -6 25 -20l46 -38q2 -1 5.5 -4
t5.5 -5q83 143 134 301l81 245l-2 -1l-106 -40l-106 -38q-26 -10 -42 -15l-48 -15q-8 -2 -22 -6.5t-20 -6.5h-1q-6 -2 -19 -6t-19 -6q-44 -12 -77 -18q-2 0 -6 -0.5t-5 -0.5v296h22v-21q2 0 0 -8.5t3 -20.5t10.5 -26t22.5 -25.5t39 -18t60 -3.5t86 17l3 1q8 3 23 7.5t20 6.5
l14 5h1l68 25l78 27l67 25l186 561q-35 85 -89 106q-37 14 -296 37v21h802v-21q-238 -24 -261 -38q-42 -25 -15 -98v-1l160 -447q125 11 244 -24q94 -27 164.5 -94.5t100.5 -160.5zM157 -276q131 45 251 204l-45 35q-47 35 -64 46l-4 2l-2 2t-2 1q-3 1 -8.5 4.5t-8.5 5.5
t-8.5 6.5t-8.5 6.5q-22 15 -37 24q-7 5 -8 5q-18 10 -26 14q-67 40 -145 54q-67 10 -135 -8q-88 -21 -138 -103q-49 -74 -19 -158q18 -50 56.5 -87t89.5 -54q110 -40 223 -11l1 1h2h2q2 0 6.5 2t6.5 2l18 5q2 0 3 1zM943 1183l-156 -461q34 12 51 17q4 1 11.5 3.5t11.5 3.5
q60 20 109 33q8 2 66 16l45 9zM1277 -324q148 39 253 148q73 76 114 173h-503v20q120 12 163 38q42 25 15 99l-52 137l-34 96l-26 71l-78 213l-11 30q-59 -10 -114 -25q-42 -11 -100 -30q-69 -22 -116 -40l-46 -17l-52 -154l-30 -85h-1l-15 -46q-19 -72 -50 -147v-1
q-33 -82 -83 -163q5 -4 18 -14.5t20 -16.5l4 -4l11 -8l6 -6l5 -3l22 -18q72 -58 154 -115q68 -48 138 -83q93 -49 200 -64q96 -11 188 15zM1689 172q5 40 7 92q0 52 -9 105q-7 44 -25 95q-26 82 -87.5 142t-144.5 85q-86 27 -175 24l201 -563q25 -70 93 -98q56 -19 107 -26
q13 36 16 51q12 52 17 93zM782 1790q-40 15 -99.5 16.5t-125 -26t-92.5 -86.5l-13 4q24 62 58 107t69 67.5t72.5 35.5t70 13.5t58.5 -2t41 -7.5l15 -4l240 -92q27 -11 72 -13t93.5 6t91.5 34.5t60 68.5l15 -6q-33 -86 -85 -139t-102.5 -68t-96 -17t-74.5 6l-28 8z" />
    <glyph glyph-name="Adieresis" unicode="&#xc4;" horiz-adv-x="1857" 
d="M1726 544q46 -128 39 -263.5t-65 -258.5q-2 -4 -5.5 -12.5t-5.5 -12.5q-6 -14 -14 -28q-151 -293 -437 -371q-113 -32 -229 -20q-109 12 -207 67q-5 2 -15 8q-2 1 -6 3.5t-6 3.5q-3 1 -9 5t-8 6q-47 30 -90 62q-113 84 -119 88l-5 3l-99 76q-60 -78 -138 -138
q-90 -68 -198 -102q-125 -39 -247 6q-52 19 -90.5 59t-56.5 93q-23 61 -14 126.5t48 117.5q40 60 100.5 102t131.5 59q42 12 87 10q51 -3 95 -16q26 -10 50 -21q18 -8 43 -21q39 -21 84 -51q1 -1 9 -7t13 -9q3 -2 8.5 -5.5t10 -6.5t8.5 -6q9 -6 25 -20l46 -38q2 -1 5.5 -4
t5.5 -5q83 143 134 301l81 245l-2 -1l-106 -40l-106 -38q-26 -10 -42 -15l-48 -15q-8 -2 -22 -6.5t-20 -6.5h-1q-6 -2 -19 -6t-19 -6q-44 -12 -77 -18q-2 0 -6 -0.5t-5 -0.5v296h22v-21q2 0 0 -8.5t3 -20.5t10.5 -26t22.5 -25.5t39 -18t60 -3.5t86 17l3 1q8 3 23 7.5t20 6.5
l14 5h1l68 25l78 27l67 25l186 561q-35 85 -89 106q-37 14 -296 37v21h802v-21q-238 -24 -261 -38q-42 -25 -15 -98v-1l159 -447q126 11 245 -24q94 -27 164.5 -94.5t100.5 -160.5zM157 -276q131 45 251 204l-45 35q-47 35 -64 46l-4 2l-2 2t-2 1q-3 1 -8.5 4.5t-8.5 5.5
t-8.5 6.5t-8.5 6.5q-22 15 -37 24q-4 3 -8 4q-3 2 -12.5 7.5t-13.5 7.5q-67 40 -145 54q-67 10 -135 -8q-88 -21 -138 -103q-49 -74 -19 -158q18 -50 56.5 -87t89.5 -54q110 -40 223 -11l1 1h1h1h2q2 0 6.5 2t6.5 2l18 5q2 0 3 1zM943 1183l-156 -461q34 12 51 17
q4 1 11.5 3.5t11.5 3.5q60 20 109 33q8 2 66 16l45 9zM1530 -176q73 76 114 173h-503v20q119 12 162 38t16 99l-52 137l-34 96l-26 71l-78 213l-11 30q-59 -10 -114 -25q-42 -11 -100 -30q-69 -22 -116 -40l-46 -17l-52 -154l-30 -85h-1l-15 -46q-19 -72 -50 -147v-1
q-33 -82 -83 -163q5 -4 18 -14.5t20 -16.5l4 -4l11 -8l6 -6l5 -3l22 -18q72 -58 154 -115q68 -48 138 -83q93 -49 200 -64q96 -11 188 15q148 39 253 148zM1689 172q5 40 7 92q0 52 -9 105q-7 44 -25 95q-26 82 -87.5 142t-144.5 85q-86 27 -175 24l201 -563q25 -70 93 -98
q56 -19 107 -26q13 36 16 51q12 52 17 93zM788 1715q-35 0 -60.5 25.5t-25.5 60.5q0 27 14 49t39 32t51 5t45 -24q41 -41 18 -95q-10 -25 -32 -39t-49 -14zM1099 1715q-35 2 -59.5 27t-24.5 60t24.5 60t59.5 27q50 2 76 -43q26 -44 0 -88q-26 -45 -76 -43z" />
    <glyph glyph-name="Aring" unicode="&#xc5;" horiz-adv-x="1828" 
d="M1697 544q46 -128 39 -263.5t-65 -258.5q-2 -4 -5.5 -12.5t-5.5 -12.5q-6 -14 -14 -28q-151 -293 -437 -371q-113 -32 -228 -20q-110 12 -208 67q-2 1 -14 8q-2 1 -6.5 3.5t-6.5 3.5q-3 1 -9 5t-8 6q-47 30 -90 62q-113 84 -119 88l-4 3l-99 76q-59 -76 -139 -138
q-90 -69 -197 -102q-125 -39 -247 6q-52 19 -91 59t-57 93q-23 61 -13.5 126.5t48.5 117.5q83 125 231 161q42 12 88 10q50 -3 94 -16q31 -12 51 -21q13 -6 42 -21q39 -21 84 -51q1 -1 9 -7t13 -9l27 -18q9 -6 25 -20l46 -38l12 -9q81 139 133 301l81 245l-2 -1l-106 -40
l-106 -38q-26 -10 -42 -15l-48 -15q-8 -2 -22 -6.5t-20 -6.5t-19 -6t-20 -6q-44 -12 -77 -18q-1 0 -5 -0.5t-5 -0.5v296h21v-21v-8.5t3.5 -20t10 -27t23 -25t39 -18t60.5 -3t86 16.5l2 1q8 3 23 7.5t21 6.5l14 5l68 25l79 27l66 25l186 561q-35 85 -89 106q-37 14 -295 37
v21h801v-21q-238 -24 -261 -38q-42 -25 -15 -98v-1l160 -447q126 11 245 -24q94 -27 164 -94.5t100 -160.5zM128 -276q133 46 252 204h-1l-45 35q-52 39 -63 46q-1 0 -2.5 0.5t-2.5 1.5t-4 3t-8 5.5t-8 4.5q-3 2 -9 6.5t-9 6.5q-22 15 -37 24q-4 3 -8 4q-3 2 -12.5 7.5
t-13.5 7.5q-67 40 -145 54q-67 10 -134 -8q-90 -22 -139 -103q-48 -73 -18 -158q18 -50 56 -87.5t89 -53.5q110 -40 223 -11q1 0 3 1h1h2q2 0 6 2t6 2l19 5q1 0 2 1zM914 1183l-156 -461q34 12 51 17q4 1 11.5 3.5t11.5 3.5q60 20 109 33q8 2 66 16q7 1 14.5 2.5t16.5 3.5
t14 3zM1501 -176q73 76 114 173h-503v20q120 12 163 38q42 25 15 99l-51 137l-35 96l-26 71l-77 213l-11 30q-59 -10 -114 -25q-48 -13 -101 -30q-69 -22 -116 -40l-46 -17l-52 -154l-30 -85h-1l-15 -46q-19 -72 -50 -147v-1q-33 -82 -83 -163q5 -4 18 -14.5t20 -16.5l4 -4
l11 -8l7 -6l4 -3l23 -18q77 -63 153 -115q68 -48 138 -83q93 -49 201 -64q95 -11 187 15q148 39 253 148zM1660 172q5 40 7 92q0 52 -9 105q-8 49 -24 95q-26 82 -87.5 142t-144.5 85q-86 27 -175 24l200 -563q25 -70 93 -98q56 -19 107 -26q13 36 16 51q12 52 17 93z
M905 1557q-89 0 -152.5 63.5t-63.5 152.5q0 66 36.5 121.5t97.5 80.5t125.5 12.5t111.5 -59.5t59.5 -111.5t-12.5 -125.5t-80.5 -97.5t-121.5 -36.5zM905 1967q-79 -1 -135 -57.5t-56 -136.5q1 -80 58 -136t136 -55q80 1 136 57.5t55 135.5q-1 80 -58 136.5t-136 55.5z" />
    <glyph glyph-name="AE" unicode="&#xc6;" horiz-adv-x="2115" 
d="M1646 1391h-458v-586h258q81 0 108 52q27 53 39 186h20v-515h-20q-4 92 -40 182q-27 55 -107 55h-258v-731h492q138 0 196 105q60 107 70 316h20v-457h-1144v20q93 4 183 40q56 27 56 107v600h-517l-15 -43l-45 -133l-52 -154l-30 -85h-1l-15 -46q-19 -72 -50 -147v-1
q-35 -85 -83 -163q24 -20 37 -31l2 -2q2 -1 3 -2l11 -8l6 -6l5 -3l22 -18q72 -58 154 -115q77 -53 138 -83q93 -49 200 -64q96 -11 188 15q148 39 253 148q52 54 89 121h43q-152 -274 -424 -347q-113 -32 -229 -20q-109 12 -207 67q-10 4 -15 7q-2 1 -6 4t-6 4q-3 1 -9 5
t-8 6q-47 30 -90 62q-104 77 -119 88l-5 3l-99 76q-60 -78 -138 -138q-90 -68 -198 -102q-126 -39 -247 5q-52 19 -90.5 59.5t-56.5 93.5q-23 61 -14 126.5t48 117.5q83 125 232 161q42 12 87 10q51 -3 95 -16q26 -10 50 -21q18 -8 43 -21q39 -21 84 -51q1 -1 9 -7t13 -9
q3 -2 8.5 -5.5t10 -6.5t8.5 -6q9 -6 25 -20l46 -38q2 -2 5.5 -5t5.5 -4q83 143 134 301l79 244l46 135l186 561q-35 85 -89 106q-37 14 -296 37v21h1693v-458h-20q-12 219 -77 320t-223 101zM-101 -276q131 45 251 204l-45 35q-47 35 -64 46q-1 1 -2 1q-2 0 -2 1l-2 2t-2 1
q-3 1 -8.5 4.5t-8.5 5.5t-8.5 6.5t-8.5 6.5q-22 15 -37 24q-3 2 -9 4q-4 2 -12.5 7.5t-12.5 7.5q-67 40 -146 54q-67 10 -134 -8q-91 -23 -139 -103q-48 -73 -18 -158q18 -50 56.5 -87t89.5 -54q110 -40 223 -11l1 1h1h1h2q2 0 6.5 2t6.5 2l18 5l1 1h2zM557 805h504v455
q0 80 -56 107q-46 18 -79 25q-55 -3 -112 -22q-2 -2 -5 -4q-1 0 -1 -1l-2 -1l-3 -3q-22 -19 -44.5 -46.5t-56 -93.5t-53.5 -145z" />
    <glyph glyph-name="Ccedilla" unicode="&#xc7;" horiz-adv-x="1591" 
d="M948 -45h-10l-34 -97q74 16 128.5 7.5t88.5 -35.5t48.5 -64.5t8.5 -79.5q-21 -169 -217 -169q-97 0 -135 47l54 -11q-4 0 3 -5.5t28 -11t50 -6.5q60 0 98.5 34.5t38.5 98.5q0 22 -6 44.5t-21 48.5t-41.5 41t-67 22t-97.5 -8l47 143q-132 -1 -254.5 47.5t-218.5 139.5
q-214 197 -229 540v2q-12 305 141 507q-41 34 -101 79q-68 51 -152 97q-104 60 -220 79q-101 15 -205 -13q-160 -41 -275 -165q-78 -84 -121 -193l-49 1q2 5 14 29q163 335 473 417q120 34 249 17q122 -17 229 -81l15 -9q10 -6 14 -9q4 -2 10 -6t8 -6q23 -15 100 -74
q10 -8 92 -73q91 88 208.5 136.5t244.5 51.5q315 13 510 -138l6 -196v1q0 -100 -53 -180q-43 -68 -108 -114.5t-143 -65.5q-47 -12 -96 -9q-52 3 -103 20q-47 19 -103 51q-67 40 -117 78q-6 4 -15.5 11.5t-13.5 10.5q-17 12 -28 23l-51 45q-45 37 -102 87l-12 9l-7 7l-14 11
q-100 -203 -86 -431q1 -27 5 -69q0 -1 0.5 -4t0.5 -4q23 -241 174 -427q77 -98 190.5 -149t237.5 -43q179 8 311 133q138 126 188 353h20l-30 -342q-183 -168 -498 -181zM896 1431q-118 -2 -222 -56t-173 -149l94 -77l5 -4q55 -47 76 -63q32 -26 70 -53q1 -1 2.5 -2t2.5 -2
q2 -2 4 -3l18 -12q3 -2 9.5 -7.5t9.5 -7.5q8 -6 22.5 -15.5t18.5 -12.5q8 -5 38 -23q75 -47 159 -65q74 -14 147 6q100 25 150 115q53 88 18 182q-17 48 -43 79t-78 68q-3 2 -8.5 6.5t-8.5 6.5t-16 11q-132 84 -295 78z" />
    <glyph glyph-name="Egrave" unicode="&#xc8;" horiz-adv-x="1818" 
d="M1715 93q39 -57 48.5 -126t-13.5 -134q-17 -55 -55.5 -97.5t-91.5 -64.5q-122 -48 -248 -6q-107 36 -197 109l16 16q64 -34 134 -57q1 -1 3 -1l18 -5q2 -1 6 -2t6 -2q1 0 3 -1h3q116 -31 223 11q52 19 90.5 58.5t55.5 91.5q30 88 -19 169q-47 84 -138 109q-67 20 -135 9
q-77 -15 -145 -58q-14 -7 -26 -15q-2 -1 -4 -2.5t-4 -2.5q-7 -5 -19.5 -14t-17.5 -12q-10 -8 -17 -13q-3 -2 -8.5 -5.5t-8.5 -5.5l-2 -1q-2 -1 -2 -2q-2 -2 -4 -3q-25 -17 -64 -48l-45 -37l-38 -31l-98 -80l-5 -4q-42 -33 -119 -93q-53 -41 -90 -66q-2 -2 -8 -6l-9 -6
q-2 -2 -6 -4.5t-6 -3.5q-5 -3 -15 -7q-95 -57 -208 -71q-115 -13 -228 20q-285 83 -437 395q-12 24 -14 29t-5.5 14t-5.5 13q-58 131 -65 275t39 280q71 208 265 272q122 37 244 25q71 -5 136 -19q25 -5 45 -10q3 -1 9.5 -2.5t9.5 -2.5l1 2l142 400l1 2v1q26 71 -16 96
q-23 14 -261 38v21h1263v-458h-21q-12 220 -76 320q-65 101 -224 101h-315q-63 -5 -121 -21q-54 -21 -89 -106l-27 -81l-127 -349l-1 -4h1q5 -2 13.5 -5t12.5 -5q13 -3 23 -7l51 -18q36 -12 46 -16l11 -4l66 -27l79 -28l68 -27h1l14 -5q8 -3 23 -8.5t20 -7.5l4 -1h1
q68 -20 111.5 -18t65.5 19.5t31.5 37t10.5 36.5v16v23h21v-185h1v-131h-1q-1 1 -5 1t-5 1q-37 7 -77 19q-9 2 -39 13q-6 2 -20 6.5t-22 6.5q-24 9 -48 17q-23 7 -42 15l-106 41l-106 42l-2 1l-56 21l-46 18q-46 18 -116 43q-3 1 -9.5 3.5t-10.5 3.5q-26 9 -81 25
q-16 5 -48 13q-17 5 -66 14q-62 12 -136 14q-93 3 -176 -25q-84 -28 -145 -92t-86 -149q-18 -54 -25 -101q-9 -55 -9 -112q2 -54 7 -98t17 -99q3 -16 16 -54l12 -33q41 -104 114 -184q105 -116 253 -158q92 -27 188 -15q106 15 200 68q67 36 138 88q78 57 154 123l22 19l4 3
l7 6l11 9l4 4q4 3 38 32q21 18 39 33q2 2 6 5t6 5l46 40q13 13 25 21q3 3 12.5 9t14.5 10q3 3 10.5 8.5t11.5 8.5q45 31 84 54q2 1 18.5 10t24.5 13q21 11 50 22q49 14 95 17q43 1 87 -11q151 -41 231 -171zM1181 1608h-32l-496 304l140 41z" />
    <glyph glyph-name="Eacute" unicode="&#xc9;" horiz-adv-x="1738" 
d="M1190 1912l-495 -304h-32l388 345zM1629 120q39 -57 48.5 -126t-13.5 -134q-17 -55 -55.5 -97.5t-91.5 -64.5q-122 -48 -248 -6q-107 36 -197 109l15 16q62 -33 135 -57q1 -1 3 -1l18 -5q2 -1 6 -2.5t6 -1.5h3h1q1 -1 2 -1q116 -31 223 11q52 19 90.5 58.5t55.5 91.5
q30 88 -19 169q-47 84 -139 109q-66 20 -134 9q-77 -15 -145 -58q-14 -7 -26 -15q-1 -1 -3.5 -2.5t-4.5 -2.5q-7 -4 -19.5 -13.5t-17.5 -12.5q-6 -5 -18 -13q-3 -2 -8 -5.5t-8 -5.5q-1 -1 -4 -3q-2 -2 -4 -3q-25 -17 -64 -48l-45 -37l-38 -31l-99 -80l-4 -4
q-42 -33 -119 -93q-53 -40 -90 -66q-2 -2 -8 -6t-9 -5l-12 -9q-5 -3 -15 -7q-95 -57 -208 -71q-115 -13 -228 20q-285 83 -437 395q-12 24 -14 29t-5.5 14t-5.5 13q-58 131 -65 275t39 280q71 208 265 272q122 37 244 25q71 -5 136 -19q25 -5 45 -10q3 -1 9.5 -2.5t9.5 -2.5
l1 2l142 400l1 1v2q26 71 -16 96q-23 14 -261 38v20h1263v-457h-21q-12 220 -76 320q-65 101 -224 101h-315q-63 -5 -121 -21q-54 -21 -89 -106l-27 -81l-127 -349l-1 -4h1q4 -1 13 -4.5t13 -5.5q13 -3 23 -7l51 -18q36 -12 46 -16l11 -4l66 -27l79 -28l68 -27h1l14 -5
q8 -3 23 -8.5t20 -7.5l4 -1l1 -1q68 -20 111.5 -18t65.5 19.5t31.5 37.5t10.5 36v17v23h21v-316q-2 0 -5 1t-5 1q-37 7 -77 19q-9 2 -39 13q-7 2 -21 6.5t-21 6.5q-24 9 -48 17q-23 8 -42 15l-106 40l-106 43l-2 1l-56 21l-46 18q-46 18 -116 43q-3 1 -9.5 3.5t-10.5 3.5
q-26 9 -81 25q-16 5 -48 13q-17 5 -66 14q-62 12 -136 14q-93 3 -176 -25q-84 -28 -145 -92t-86 -149q-18 -54 -25 -101q-9 -56 -9 -112q2 -54 7 -98t17 -99q4 -19 16 -55l12 -33q41 -102 114 -183q104 -115 253 -158q92 -27 188 -15q106 15 200 68q67 36 138 88
q78 57 154 123l22 19l4 3l7 6l11 9l4 4q4 3 38 32q21 18 39 33l12 9l46 41q13 13 25 21q3 3 12.5 9t14.5 10q3 3 10.5 8.5t11.5 8.5q45 32 84 54q2 1 18.5 10t24.5 13q21 11 50 22q49 14 95 17q43 1 87 -11q151 -41 231 -171z" />
    <glyph glyph-name="Ecircumflex" unicode="&#xca;" horiz-adv-x="1761" 
d="M1658 93q39 -57 48.5 -126t-13.5 -134q-16 -55 -55.5 -97.5t-92.5 -64.5q-122 -48 -247 -6q-107 36 -197 109l15 16q62 -33 135 -57q1 -1 2 -1l19 -5q2 -1 6 -2t6 -2l1 -1h1h1h3q115 -31 222 11q52 19 90.5 58.5t55.5 91.5q30 89 -18 169q-47 84 -139 109q-66 20 -134 9
q-77 -15 -145 -58q-14 -7 -26 -15q-1 -1 -3.5 -2.5t-4.5 -2.5q-12 -8 -38 -26q-10 -8 -17 -13q-3 -2 -8.5 -5.5t-8.5 -5.5l-2 -1q-2 -1 -2 -2q-2 -2 -4 -3q-17 -12 -63 -48l-45 -37h-1l-37 -31l-99 -80l-4 -4q-42 -33 -119 -93q-45 -35 -91 -66q-4 -4 -7 -6l-9 -6
q-2 -2 -6.5 -4.5t-6.5 -3.5q-7 -4 -14 -7q-95 -57 -208 -71q-116 -14 -229 20q-284 82 -436 395q-12 24 -14 29l-12 27q-58 131 -65 275t39 280q71 208 265 272q122 37 245 25q70 -5 135 -19q30 -6 46 -10q3 -1 9.5 -2.5t9.5 -2.5v2l143 400l1 2v1q26 71 -16 96
q-23 14 -261 38v21h1262v-458h-20q-12 219 -77 320t-223 101h-316q-62 -5 -120 -21q-54 -21 -89 -106l-27 -81l-127 -349l-2 -4h2q5 -2 13.5 -5t12.5 -5q10 -3 22 -7l51 -18q36 -12 46 -16l11 -4l67 -27l78 -28l69 -26v-1l14 -5q9 -3 24.5 -9t19.5 -7l4 -1h1
q68 -20 111.5 -18t65.5 19.5t31.5 37t9.5 36.5l1 16v23h21v-316q-2 1 -5.5 1t-4.5 1q-37 7 -77 19q-9 2 -39 13q-7 2 -21.5 6.5t-21.5 6.5q-24 9 -48 17q-23 7 -42 15l-106 41l-105 42l-2 1l-56 21l-46 18q-39 16 -117 43q-3 1 -10 3.5t-10 3.5q-31 11 -80 25q-16 5 -48 13
q-17 5 -66 14q-62 12 -137 14q-92 3 -175 -25q-84 -28 -145.5 -92t-86.5 -149q-16 -49 -24 -101q-9 -55 -9 -112q2 -54 7 -98t17 -99q5 -24 15 -54l12 -33q40 -102 115 -184q105 -116 253 -158q92 -27 187 -15q108 15 201 68q63 34 137 88q78 57 154 123l23 19l4 3l6 6l12 9
l4 4q4 3 38 32q21 18 39 33q2 2 5.5 5t5.5 5l46 40q11 11 26 21q3 2 12 8.5t14 10.5q16 12 23 17q45 31 84 54q6 3 20 11t22 12q19 10 51 22q49 14 94 17q44 1 88 -11q151 -41 231 -171zM917 1856l-255 -246h-36l291 403l292 -403h-37z" />
    <glyph glyph-name="Edieresis" unicode="&#xcb;" horiz-adv-x="1761" 
d="M1658 93q39 -57 48.5 -126t-13.5 -134q-16 -55 -55.5 -97.5t-92.5 -64.5q-122 -48 -247 -6q-107 36 -197 109l15 16q62 -33 135 -57q1 -1 2 -1l19 -5q2 -1 6 -2t6 -2l1 -1h1h1h3q115 -31 222 11q52 19 90.5 58.5t55.5 91.5q30 89 -18 169q-47 84 -139 109q-66 20 -134 9
q-77 -15 -145 -58q-14 -7 -26 -15q-1 -1 -3.5 -2.5t-4.5 -2.5q-12 -8 -38 -26q-10 -8 -17 -13q-3 -2 -8.5 -5.5t-8.5 -5.5l-2 -1q-2 -1 -2 -2q-2 -2 -4 -3q-17 -12 -63 -48l-45 -37h-1l-37 -31l-99 -80l-4 -4q-42 -33 -119 -93q-45 -35 -91 -66q-4 -4 -7 -6q-6 -4 -9 -5
q-2 -2 -6.5 -5t-6.5 -4q-7 -4 -14 -7q-95 -57 -208 -71q-116 -14 -229 20q-284 82 -436 395q-12 24 -14 29l-12 27q-58 131 -65 275t39 280q71 208 265 272q122 37 245 25q70 -5 135 -19q30 -6 46 -10q3 -1 9.5 -2.5t9.5 -2.5v2l143 400l1 2v1q26 71 -16 96q-23 14 -261 38
v21h1262v-458h-20q-12 219 -77 320t-223 101h-316q-62 -5 -120 -21q-54 -21 -89 -106l-27 -81l-127 -349l-2 -4h2q5 -2 13.5 -5t12.5 -5q10 -3 22 -7l51 -18q36 -12 46 -16l11 -4l67 -27l78 -28l69 -26v-1l14 -5q9 -3 24.5 -9t19.5 -7l4 -1h1q68 -20 111.5 -18t65.5 19.5
t31.5 37t9.5 36.5l1 16v23h21v-316q-2 1 -5.5 1t-4.5 1q-37 7 -77 19q-9 2 -39 13q-6 2 -20.5 6.5t-22.5 6.5q-32 12 -47 17q-30 10 -43 15l-106 41l-105 42l-2 1l-56 21l-46 18q-39 16 -117 43q-3 1 -10 3.5t-10 3.5q-31 11 -80 25q-23 7 -48 13q-17 5 -66 14
q-62 12 -137 14q-92 3 -175 -25q-84 -28 -145.5 -92t-86.5 -149q-16 -49 -24 -101q-9 -55 -9 -112q2 -54 7 -98q5 -42 17 -98q6 -27 15 -55l12 -33q40 -102 115 -184q105 -116 253 -158q92 -27 187 -15q108 15 201 68q63 34 137 88q78 57 154 123l23 19l4 3l6 6l12 9l4 4
q4 3 38 32q21 18 39 33q2 2 5.5 5t5.5 5l46 40q11 11 26 21q3 2 12 8.5t14 10.5q16 12 23 17q45 31 84 54q6 3 20 11t22 12q19 10 51 22q49 14 94 17q44 1 88 -11q151 -41 231 -171zM812 1715q-35 1 -59 26.5t-24 60.5t24 60.5t59 26.5q23 1 44 -11t33 -32q26 -44 0 -88
q-12 -20 -33 -32t-44 -11zM1125 1715q-35 1 -60 26.5t-25 60.5t25 60.5t60 26.5q35 -1 60.5 -26.5t25.5 -60.5t-25.5 -60.5t-60.5 -26.5z" />
    <glyph glyph-name="Igrave" unicode="&#xcc;" horiz-adv-x="942" 
d="M489 1432q151 138 204 179q176 138 336 150q143 11 303 -68v-31q-47 19 -94.5 26t-90 5t-89.5 -16.5t-84 -30t-83.5 -45t-78.5 -52.5t-77 -61t-72 -62.5t-71 -64.5l-36 -33q36 -53 59 -131t32 -177.5t11.5 -180t1.5 -192.5v-479q0 -80 55 -108q90 -36 180 -40v-20h-598
v20q129 12 184 40q53 27 53 108v479q1 151 -0.5 237.5t-13 203.5t-34.5 177q-53 -49 -89 -80t-89.5 -69t-107 -58t-107.5 -24q-67 -1 -132.5 27.5t-113.5 76t-82 109.5t-39.5 128.5t14.5 133.5q36 103 110 153.5t161 46t178 -40.5t170 -99.5t130 -136.5zM436 1386
q-48 134 -189 203q-128 63 -264 41q-133 -21 -187 -114q-57 -97 -4 -242q47 -80 114.5 -110t134.5 -18.5t143.5 52t135.5 86.5t116 102zM582 1608h-32l-496 304l140 41z" />
    <glyph glyph-name="Iacute" unicode="&#xcd;" horiz-adv-x="913" 
d="M898 1912l-496 -304h-32l388 345zM460 1432q151 138 204 179q176 138 336 150q143 11 303 -68v-31q-47 19 -94.5 26t-90 5t-89.5 -16.5t-84 -30t-83.5 -45t-78.5 -52.5t-77 -61t-72 -62.5t-71 -64.5l-36 -33q36 -53 59 -131t32.5 -177t12 -180.5t1.5 -192.5v-479
q0 -81 54 -108q90 -36 181 -40v-20h-599v20q129 12 184 40q53 27 53 108v479q1 151 -0.5 237.5t-13 203.5t-34.5 177q-53 -49 -89 -80t-89.5 -69t-107 -58t-107.5 -24q-67 -1 -132.5 27.5t-113.5 76t-82 109.5t-39.5 128.5t14.5 133.5q36 103 110 153.5t161 46t178 -40.5
t170 -99.5t130 -136.5zM-236 1274q47 -79 114 -109.5t134.5 -19t144 52t135.5 87t116 101.5q-48 134 -189 203q-128 63 -264 41q-133 -21 -187 -114q-57 -97 -4 -242z" />
    <glyph glyph-name="Icircumflex" unicode="&#xce;" horiz-adv-x="854" 
d="M401 1432q151 138 204 179q176 138 336 150q143 11 303 -68v-31q-47 19 -94.5 26t-90 5t-89.5 -16.5t-84 -30t-83.5 -45t-78.5 -52.5t-77 -61t-72 -62.5t-71 -64.5l-36 -33q36 -53 59 -131t32 -177.5t11.5 -180t1.5 -192.5v-479q0 -80 55 -108q90 -36 180 -40v-20h-598
v20q129 12 184 40q53 27 53 108v479q1 151 -0.5 237.5t-13 203.5t-34.5 177q-53 -49 -89 -80t-89.5 -69t-107 -58t-107.5 -24q-67 -1 -132.5 27.5t-113.5 76t-82 109.5t-39.5 128.5t14.5 133.5q36 103 110 153.5t161 46t178 -40.5t170 -99.5t130 -136.5zM-296 1274
q47 -80 114.5 -110t134.5 -18.5t143.5 52t135.5 86.5t116 102q-48 134 -189 203q-128 63 -264 41q-133 -21 -187 -114q-57 -97 -4 -242zM440 2004l-255 -246h-37l292 403l291 -403h-36z" />
    <glyph glyph-name="Idieresis" unicode="&#xcf;" horiz-adv-x="942" 
d="M489 1428q151 138 206 180q177 138 338 148q141 10 299 -68v-31q-47 19 -94.5 26t-90 5t-89.5 -16.5t-84 -30t-83.5 -45t-78.5 -52.5t-77 -61t-72 -62.5t-71 -64.5l-36 -33q36 -53 59 -131t32 -177.5t11.5 -180t1.5 -192.5v-479q0 -81 55 -108q87 -35 180 -39v-21h-598
v21q132 12 184 39q53 27 53 108v480q1 151 -0.5 237t-13 203t-34.5 177q-53 -49 -89 -80t-89.5 -69t-107 -58t-107.5 -24q-67 -1 -132.5 27.5t-113.5 76t-82 110t-39.5 129t14.5 133.5q36 103 110 153.5t161 46t178 -40.5t170 -99.5t130 -136.5zM-208 1269
q47 -80 114.5 -110t134.5 -18.5t143.5 52t135.5 86.5t116 102q-48 134 -189 203q-128 63 -264 41q-133 -21 -187 -114q-57 -97 -4 -242zM352 1717q-35 -2 -61 24q-25 25 -25 60q-2 35 24 62q24 26 62 26q36 -1 61 -26.5t25 -61.5q-1 -35 -26 -59.5t-60 -24.5zM663 1717
q-37 0 -61 24q-25 25 -25 60q-2 50 42 76q43 26 87 0t42 -76q0 -35 -25 -60q-24 -24 -60 -24z" />
    <glyph glyph-name="Ntilde" unicode="&#xd1;" horiz-adv-x="1871" 
d="M913 1790q-40 15 -99.5 16.5t-125 -26t-92.5 -86.5l-13 4q24 62 58 107t69 67.5t72 35.5t69.5 13.5t58.5 -2t41 -7.5l15 -4l240 -92q27 -11 72 -13t93.5 6t91.5 34.5t61 68.5l15 -6q-34 -86 -86 -139t-102.5 -68t-96 -17t-73.5 6l-28 8zM1726 534q46 -129 39 -264
t-65 -258q0 -1 -2 -3q-2 -3 -5 -11t-4 -11l-1 -1q-2 -5 -6.5 -14l-6.5 -13q-151 -293 -437 -371q-110 -31 -229 -19q-109 12 -207 67q-10 4 -15 7q-2 1 -6 4t-6 4q-6 2 -9 4q-6 4 -8 6q-47 30 -90 62q-113 84 -119 88l-5 3l-83 64q-105 -114 -246 -184q-1 0 -2 -1l-2 -1
q-49 -26 -102 -42q-125 -39 -247 6q-52 19 -90.5 59t-56.5 93q-23 61 -13.5 126.5t48.5 117.5q83 125 231 161q42 12 87 10q51 -3 95 -16q26 -10 50 -21q18 -8 43 -21q39 -21 84 -51q14 -10 22 -15q3 -2 8.5 -5.5t10 -6.5t8.5 -6q9 -6 25 -20l46 -38l1 -1q2 -2 10 -8
q9 -7 29 -23q111 177 121 431v112l-43 -16l-39 -14l-67 -24q-12 -5 -42 -14q-32 -10 -48 -16q-8 -2 -22 -6.5t-20 -6.5q-35 -10 -39 -11q-44 -12 -77 -18q-2 0 -5 -1t-5 -1h-1v123h1v173h21v-21q1 0 -0.5 -5t1 -13.5t4.5 -19t10 -20.5t17 -19.5t26.5 -16t38.5 -9t52.5 1.5
t68.5 15h1l5 2q8 3 23 7.5t20 6.5l14 6h1l22 8l46 17l36 12v592q-1 29 -7.5 50t-20 35.5t-25.5 23t-37 14.5t-41.5 9t-51 7.5t-54.5 7.5v21h516v-21q-19 -3 -50 -7t-53 -7.5t-39 -8.5h-1q-1 -1 -2 -1l349 -570q14 3 47 7q44 6 65 7q76 5 140 -2q42 -4 86 -17v452
q0 81 -55 108q-87 34 -182 39v21h515v-20q-134 -12 -186 -39q-53 -27 -53 -109v-463l1 -1q26 -9 58 -26q30 -16 39 -23q105 -75 147 -199zM157 -286l1 1q161 60 274 185l-2 2l-22 17l-2 1l-43 33q-47 35 -64 46q-2 1 -4 3q-1 0 -2 1t-2 1q-3 2 -8.5 6t-8.5 5q-3 2 -8.5 6
t-8.5 6q-22 15 -37 24l-5 2.5t-4 2.5q-4 2 -12.5 7.5t-12.5 7.5q-64 39 -146 53q-69 11 -134 -7q-90 -22 -139 -103q-49 -74 -18 -159q18 -50 56.5 -87t89.5 -54q108 -40 223 -10h2h1q1 0 1 0.5t1 0.5q2 1 6.5 2t6.5 1l18 5l1 1h2zM1255 705q-5 0 -16 -0.5t-17 -0.5
q-20 -1 -57 -5l277 -452v430q-2 1 -6 2t-6 2q-30 10 -74 17q-55 8 -101 7zM666 1246v-577l64 24l11 4q8 3 23.5 8t22.5 7q34 12 51 17q4 1 11 3.5t11 3.5q57 19 110 33l2 1l-294 481h-12v-5zM1672 70q12 52 17 93q4 30 6 91q0 59 -8 106q-7 44 -25 95q-25 76 -83 137
q-21 22 -39 34q-18 14 -58 34l-1 1v-708h-10l-440 720q-4 -1 -13 -3.5t-14 -3.5q-42 -11 -100 -30q-69 -22 -116 -40l-46 -17l-56 -20l-2 -1l-18 -7v-87q-6 -295 -136 -496q3 -2 9 -8t9 -8l2 -1q2 -1 3 -2l11 -8l6 -6l5 -3l22 -18q80 -65 154 -116q71 -49 138 -82
q93 -49 200 -64q98 -11 188 14q147 38 253 149q75 78 114 171v1q8 18 11 27l1 4q12 34 16 52z" />
    <glyph glyph-name="Ograve" unicode="&#xd2;" horiz-adv-x="1634" 
d="M1318 1237q100 -110 152 -249t48 -287q0 -316 -199 -525q-96 -103 -226.5 -158t-271.5 -52h-2q-296 1 -496 237q-200 238 -200 590q0 355 201 603q200 247 495 248q74 0 128.5 -19.5t79.5 -47t39.5 -55.5t15.5 -48l2 -19v-46q135 -61 234 -172zM1225 191q152 188 152 510
q0 333 -153 527q-61 78 -144 129q-13 -112 -77.5 -191t-216.5 -173q-109 -67 -181.5 -120.5t-115.5 -95.5t-64 -85t-25.5 -78.5t-1.5 -85.5l1 -17l-14 -1l-17 242v10q-29 377 133 563q60 68 143 104t174 34h2q120 0 228 -40l3 30q2 46 -21 78t-57.5 45.5t-69 20.5t-59.5 7
l-24 -1q-252 0 -405 -217q-153 -218 -153 -590q0 -363 153 -576q156 -216 405 -217h2q118 -4 224 46t179 142zM1038 1379q-97 46 -208 48q-185 -3 -286 -118q-73 -83 -104.5 -179.5t-25.5 -238.5q67 73 286 205q77 46 110.5 66t82.5 53t70.5 54.5t43 50t31.5 59.5z
M1169 1608h-33l-495 304l140 41z" />
    <glyph glyph-name="Oacute" unicode="&#xd3;" horiz-adv-x="1634" 
d="M1318 1237q100 -110 152 -249t48 -287q0 -316 -199 -525q-96 -103 -226.5 -158t-271.5 -52h-2q-296 1 -496 237q-200 238 -200 590q0 355 201 603q200 247 495 248q74 0 128.5 -19.5t79.5 -47t39.5 -55.5t15.5 -48l2 -19q0 -8 -0.5 -23.5t-0.5 -22.5q136 -61 235 -172z
M1225 191q152 188 152 510q0 333 -153 527q-61 78 -144 129q-13 -112 -77.5 -191t-216.5 -173q-109 -67 -181.5 -120.5t-115.5 -95.5t-64 -85t-25.5 -78.5t-1.5 -85.5l1 -17l-14 -1l-17 242v10q-29 377 133 563q60 68 143 104t174 34h2q120 0 228 -40l3 30q2 46 -21 78
t-57.5 45.5t-69.5 20.5t-59 7l-25 -1q-251 0 -404 -217q-153 -218 -153 -590q0 -363 153 -576q156 -216 404 -217h2q118 -4 224.5 46t179.5 142zM1038 1379q-97 46 -208 48q-185 -3 -286 -118q-73 -83 -105 -179.5t-26 -238.5q67 73 286 205q67 40 93.5 56t73 45.5t66 46
t45.5 41t39 46.5t22 48zM908 1912l-496 -304h-32l388 345z" />
    <glyph glyph-name="Ocircumflex" unicode="&#xd4;" horiz-adv-x="1634" 
d="M1318 1237q100 -110 152 -249t48 -287q0 -316 -199 -525q-96 -103 -226.5 -158t-271.5 -52h-2q-296 1 -496 237q-200 238 -200 590q0 355 201 603q200 247 495 248q74 0 128.5 -19.5t79.5 -47t39.5 -55.5t15.5 -48l2 -19q0 -8 -0.5 -23.5t-0.5 -22.5q136 -61 235 -172z
M1225 191q152 188 152 510q0 333 -153 527q-61 78 -144 129q-13 -112 -77.5 -191t-216.5 -173q-109 -67 -181.5 -120.5t-115.5 -95.5t-64 -85t-25.5 -78.5t-1.5 -85.5l1 -17l-14 -1l-17 242v10q-29 377 133 563q60 68 143 104t174 34h2q120 0 228 -40l3 30q2 46 -21 78
t-57.5 45.5t-69.5 20.5t-59 7l-25 -1q-251 0 -404 -217q-153 -218 -153 -590q0 -363 153 -576q156 -216 404 -217h2q118 -4 224.5 46t179.5 142zM1038 1379q-97 46 -208 48q-185 -3 -286 -118q-73 -83 -105 -179.5t-26 -238.5q67 73 286 205q67 40 93.5 56t73 45.5t66 46
t45.5 41t39 46.5t22 48zM822 1906l-255 -247h-36l291 403l292 -403h-36z" />
    <glyph glyph-name="Otilde" unicode="&#xd5;" horiz-adv-x="1634" 
d="M1318 1237q100 -110 152 -249t48 -287q0 -316 -199 -525q-96 -103 -226.5 -158t-271.5 -52h-2q-296 1 -496 237q-200 238 -200 590q0 355 201 603q200 247 495 248q74 0 128.5 -19.5t79.5 -47t39.5 -55.5t15.5 -48l2 -19q0 -8 -0.5 -23.5t-0.5 -22.5q136 -61 235 -172z
M1225 191q152 188 152 510q0 333 -153 527q-61 78 -144 129q-13 -112 -77.5 -191t-216.5 -173q-109 -67 -181.5 -120.5t-115.5 -95.5t-64 -85t-25.5 -78.5t-1.5 -85.5l1 -17l-14 -1l-17 242v10q-29 377 133 563q60 68 143 104t174 34h2q120 0 228 -40l3 30q2 46 -21 78
t-57.5 45.5t-69.5 20.5t-59 7l-25 -1q-251 0 -404 -217q-153 -218 -153 -590q0 -363 153 -576q156 -216 404 -217h2q118 -4 224.5 46t179.5 142zM1038 1379q-97 46 -208 48q-185 -3 -286 -118q-73 -83 -105 -179.5t-26 -238.5q67 73 286 205q67 40 93.5 56t73 45.5t66 46
t45.5 41t39 46.5t22 48zM644 1812q-41 16 -100.5 18t-125 -25.5t-93.5 -86.5l-13 4q24 62 58 107t69.5 68t73 35.5t70 13t58 -1.5t40.5 -6l15 -5l242 -95q27 -10 71.5 -11.5t93 6.5t91.5 35t61 69l13 -7q-33 -86 -85 -139t-102.5 -68t-96 -17t-74.5 6l-28 8z" />
    <glyph glyph-name="Odieresis" unicode="&#xd6;" horiz-adv-x="1634" 
d="M1318 1237q100 -110 152 -249t48 -287q0 -316 -199 -525q-96 -103 -226.5 -158t-271.5 -52h-2q-296 1 -496 237q-200 238 -200 590q0 355 201 603q200 247 495 248q74 0 128.5 -19.5t79.5 -47t39.5 -55.5t15.5 -48l2 -19q0 -8 -0.5 -23.5t-0.5 -22.5q136 -61 235 -172z
M1225 191q152 188 152 510q0 333 -153 527q-61 78 -144 129q-13 -112 -77.5 -191t-216.5 -173q-109 -67 -181.5 -120.5t-115.5 -95.5t-64 -85t-25.5 -78.5t-1.5 -85.5l1 -17l-14 -1l-17 242v10q-29 377 133 563q60 68 143 104t174 34h2q120 0 228 -40l3 30q2 46 -21 78
t-57.5 45.5t-69.5 20.5t-59 7l-25 -1q-251 0 -404 -217q-153 -218 -153 -590q0 -363 153 -576q156 -216 404 -217h2q118 -4 224.5 46t179.5 142zM1038 1379q-97 46 -208 48q-185 -3 -286 -118q-73 -83 -105 -179.5t-26 -238.5q67 73 286 205q67 40 93.5 56t73 45.5t66 46
t45.5 41t39 46.5t22 48zM684 1740q-35 2 -59.5 26.5t-24.5 59.5t24.5 60t59.5 27q35 -1 60 -26.5t25 -60.5t-25 -60t-60 -26zM995 1740q-35 2 -59.5 26.5t-24.5 59.5t24.5 60t59.5 27q50 2 76 -43q26 -44 0 -87q-26 -45 -76 -43z" />
    <glyph glyph-name="Oslash" unicode="&#xd8;" horiz-adv-x="1710" 
d="M1609 1346l-205 -172q155 -210 149 -473q0 -316 -199 -525q-96 -103 -226 -158t-271 -52h-2q-298 2 -497 237q-11 12 -41 54l-197 -166l-7 10l196 166q-151 218 -151 526q0 355 201 603q200 246 496 248q74 0 128.5 -19.5t79 -47t39 -55.5t16.5 -48l1 -19v-46
q135 -61 234 -172q16 -17 44 -53l204 172zM450 1386q-153 -218 -153 -590q0 -275 89 -465l939 793q-32 62 -66 104q-61 78 -144 129q-13 -112 -77.5 -191t-216.5 -173q-109 -67 -181.5 -120.5t-115.5 -95.5t-64 -85t-25.5 -78.5t-1.5 -85.5l1 -17l-14 -1l-17 242v10
q-29 377 133 563q60 68 143 104t174 34h2q120 0 228 -40l3 30q2 46 -21 78t-57.5 45.5t-69 20.5t-58.5 7l-25 -1q-252 0 -405 -217zM1073 1379q-97 46 -208 48q-185 -3 -286 -118q-73 -83 -104.5 -179.5t-25.5 -238.5q66 72 285 204q76 45 110 66t83 54t71 54.5t43.5 50
t31.5 59.5zM1412 701q0 243 -81 411l-940 -792q23 -48 59 -100q156 -216 405 -217h2q118 -4 224 45.5t179 141.5q152 188 152 511z" />
    <glyph glyph-name="Ugrave" unicode="&#xd9;" horiz-adv-x="1847" 
d="M1602 57q52 -27 186 -39v-20h-21q-39 -1 -77.5 -5.5t-89 -25t-67.5 -54.5q-50 -100 -137 -185t-176 -113q-323 -101 -659 51q-335 151 -424 437q-36 113 -23 228q15 113 77 208q1 2 3.5 7.5t4.5 7.5l9 12l6 9q4 6 6 8q32 45 71 90l143 169q-98 138 -150 227
q-48 79 -76 163q-45 125 6 247q25 54 71 92.5t104 54.5q71 22 143.5 13t135.5 -48q140 -79 185 -231q13 -39 11 -87q-3 -49 -18 -95q-22 -51 -49 -93q-35 -56 -76 -106q-3 -3 -9.5 -12.5t-10.5 -14.5q-7 -9 -23 -25l-44 -46q-36 -42 -84 -93l-10 -11l-6 -7l-24 -26
q-76 -83 -133 -154q-51 -64 -94 -138q-58 -97 -74 -200q-12 -96 17 -188q48 -152 170 -253q126 -107 292 -142q44 -10 106 -17q47 -5 105 -7q61 0 121 9q49 7 109 25q103 32 194 129t95 190l120 -2v2h-120l4 165v1097q0 80 -56 107q-90 36 -183 40v21h604v-21
q-132 -12 -185 -39t-53 -108v-1095q0 -81 53 -108zM274 1205q28 -86 70 -158q54 -95 116 -175q16 18 37.5 41.5t35 38.5t22.5 26q31 35 52 64q1 2 3 4t3 4l12 17q1 1 14 17q25 33 28 37q8 12 22 34q45 66 62 146q12 67 -10 134q-31 93 -118 139t-181 18q-55 -16 -97 -54.5
t-64 -91.5q-50 -121 -7 -241zM1233 1608h-33l-495 304l140 41z" />
    <glyph glyph-name="Uacute" unicode="&#xda;" horiz-adv-x="1847" 
d="M1602 57q52 -27 186 -39v-20h-21q-39 -1 -77.5 -5.5t-89 -25t-67.5 -54.5q-50 -100 -137 -185t-176 -113q-322 -100 -658 51q-336 152 -425 437q-36 113 -23 228q15 113 77 208q1 2 3.5 7.5t4.5 7.5l9 12l6 9q4 6 6 8q32 45 71 90l143 169q-98 138 -150 227
q-48 79 -76 163q-45 125 6 247q25 54 71 92.5t104 54.5q71 22 143.5 13t135.5 -48q140 -79 185 -231q13 -39 11 -87q-3 -49 -18 -95q-22 -51 -49 -93q-29 -47 -76 -106q-3 -3 -9.5 -12.5t-10.5 -14.5q-7 -9 -23 -25l-44 -46q-36 -42 -84 -93l-10 -11l-6 -7l-24 -26
q-76 -83 -133 -154q-51 -64 -94 -138q-58 -97 -74 -200q-12 -96 17 -188q48 -152 170 -253q126 -107 292 -142q44 -10 106 -17q48 -5 105 -7q61 0 121 9q49 7 109 25q103 32 194 129t95 190l120 -2v2h-120l4 165v1097q0 80 -56 107q-90 36 -183 40v21h604v-21
q-132 -12 -185 -39t-53 -108v-1095q0 -81 53 -108zM344 1047q54 -95 116 -175q16 18 37.5 41.5t35 38.5t22.5 26q31 35 52 64q1 2 3 4t3 4l12 17q1 1 14 17q25 33 28 37q8 12 22 34q45 66 62 146q12 67 -10 134q-31 93 -118 139t-181 18q-55 -16 -97 -54.5t-64 -91.5
q-49 -119 -7 -241q28 -86 70 -158zM1259 1912l-495 -304h-32l388 345z" />
    <glyph glyph-name="Ucircumflex" unicode="&#xdb;" horiz-adv-x="1847" 
d="M1602 57q52 -27 186 -39v-20h-21q-39 -1 -77.5 -5.5t-89 -25t-67.5 -54.5q-50 -100 -137 -185t-176 -113q-322 -100 -658 51q-336 152 -425 437q-36 113 -23 228q15 113 77 208q1 2 3.5 7.5t4.5 7.5l9 12l6 9q4 6 6 8q32 45 71 90l143 169q-98 138 -150 227
q-48 79 -76 163q-45 125 6 247q25 54 71 92.5t104 54.5q71 22 143.5 13t135.5 -48q140 -79 185 -231q13 -39 11 -87q-3 -49 -18 -95q-22 -51 -49 -93q-29 -47 -76 -106q-3 -3 -9.5 -12.5t-10.5 -14.5q-7 -9 -23 -25l-44 -46q-36 -42 -84 -93l-10 -11l-6 -7l-24 -26
q-76 -83 -133 -154q-51 -64 -94 -138q-58 -97 -74 -200q-12 -96 17 -188q48 -152 170 -253q126 -107 292 -142q44 -10 106 -17q48 -5 105 -7q61 0 121 9q49 7 109 25q103 32 194 129t95 190l120 -2v2h-120l4 165v1097q0 80 -56 107q-90 36 -183 40v21h604v-21
q-132 -12 -185 -39t-53 -108v-1095q0 -81 53 -108zM344 1047q54 -95 116 -175q16 18 37.5 41.5t35 38.5t22.5 26q31 35 52 64q1 2 3 4t3 4l12 17q1 1 14 17q25 33 28 37q8 12 22 34q45 66 62 146q12 67 -10 134q-31 93 -118 139t-181 18q-55 -16 -97 -54.5t-64 -91.5
q-49 -119 -7 -241q28 -86 70 -158zM985 1856l-255 -246h-36l291 403l292 -403h-37z" />
    <glyph glyph-name="Udieresis" unicode="&#xdc;" horiz-adv-x="1847" 
d="M1602 57q52 -27 186 -39v-20h-21q-39 -1 -77.5 -5.5t-89 -25t-67.5 -54.5q-50 -100 -137 -185t-176 -113q-322 -100 -658 51q-336 152 -425 437q-36 113 -23 228q15 113 77 208q1 2 3.5 7.5t4.5 7.5l9 12l6 9q4 6 6 8q32 45 71 90l143 169q-98 138 -150 227
q-48 79 -76 163q-45 125 6 247q25 54 71 92.5t104 54.5q71 22 143.5 13t135.5 -48q140 -79 185 -231q13 -39 11 -87q-3 -49 -18 -95q-22 -51 -49 -93q-29 -47 -76 -106q-3 -3 -9.5 -12.5t-10.5 -14.5q-7 -9 -23 -25l-44 -46q-36 -42 -84 -93l-10 -11l-6 -7l-24 -26
q-76 -83 -133 -154q-51 -64 -94 -138q-58 -97 -74 -200q-12 -96 17 -188q48 -152 170 -253q126 -107 292 -142q44 -10 106 -17q48 -5 105 -7q61 0 121 9q49 7 109 25q103 32 194 129t95 190l120 -2v2h-120l4 165v1097q0 80 -56 107q-90 36 -183 40v21h604v-21
q-132 -12 -185 -39t-53 -108v-1095q0 -81 53 -108zM344 1047q54 -95 116 -175q16 18 37.5 41.5t35 38.5t22.5 26q31 35 52 64q1 2 3 4t3 4l12 17q1 1 14 17q25 33 28 37q8 12 22 34q45 66 62 146q12 67 -10 134q-31 93 -118 139t-181 18q-55 -16 -97 -54.5t-64 -91.5
q-49 -119 -7 -241q28 -86 70 -158zM838 1715q-35 2 -59.5 27t-24.5 60t24.5 60t59.5 27q35 -1 60 -26.5t25 -60.5t-25 -60.5t-60 -26.5zM1149 1715q-35 2 -59.5 27t-24.5 60t24.5 60t59.5 27q50 2 76 -43q26 -44 0 -88q-26 -45 -76 -43z" />
    <glyph glyph-name="Yacute" unicode="&#xdd;" horiz-adv-x="1759" 
d="M1845 550q46 -129 39 -264t-65 -258q0 -1 -2 -3q-1 -4 -4.5 -11l-5.5 -11v-1q-2 -5 -6.5 -13t-6.5 -13q-151 -293 -437 -371q-113 -32 -229 -20q-109 12 -207 67q-10 4 -15 7q-2 1 -6 4t-6 4q-5 2 -10 5q-6 4 -7 5q-54 35 -91 62q-113 84 -119 88l-4 4l-83 64l-4 2l-12 9
l-13 11l-2 1l-22 17h-1l-1 1v1q-85 -114 -188 -201q-104 -89 -240 -87q-63 2 -116 23q-52 19 -90.5 59t-56.5 93q-23 61 -14 127t48 118q83 125 231 161q42 12 88 10q51 -3 95 -16q26 -10 50 -21q18 -8 43 -21q26 -14 83 -52q7 -5 23 -15q18 -12 26 -18q13 -9 26 -20l31 -26
q115 160 204 345l-75 137l-35 -13l-67 -24q-12 -5 -42 -14q-32 -10 -48 -16l-42 -12h-1q-6 -2 -19 -6t-20 -6q-46 -12 -76 -18q-1 0 -5 -1t-6 -1v123v174h22v-21q1 0 -0.5 -5t1 -13.5t4.5 -19t10 -20.5t17 -19.5t26.5 -16t38.5 -9t52.5 1.5t68.5 15h1l5 1q28 10 43 15l14 5
h1l2 1l-345 634q-33 62 -90 100q-9 4 -11 5q-2 0 -4 2q-24 8 -36 11h-1q-75 17 -134 21v21h337l412 -749l54 -98l12 -22l16 32l72 142l352 695h367v-21q-13 -1 -64 -2.5t-90 -6t-89 -15.5t-88.5 -36t-59.5 -63l-7 -14l-260 -517q42 14 108 32l33 9q22 6 33 8l45 9
q37 8 70 12t65 6q76 5 140 -2q61 -7 105 -21q4 -1 11 -4t10 -4q31 -11 58 -25q25 -13 39 -24q105 -75 147 -199zM14 -270q234 -57 479 231l-11 9q-39 29 -64 45q-2 1 -4 3l-2 1l-2 1q-2 1 -17 11q-3 2 -8.5 6t-8.5 6q-22 15 -37 24q-6 4 -9 5q-4 2 -12.5 7.5t-12.5 7.5
q-67 40 -146 54q-67 10 -134 -8q-90 -22 -139 -103q-49 -74 -18 -159q18 -50 56.5 -87t89.5 -54zM1808 179q4 30 6 92q0 58 -8 105q-7 44 -25 95q-25 76 -83 137q-22 22 -39 34q-22 17 -58 35q-19 9 -52 20q-36 12 -74 18q-50 8 -101 6q-6 0 -17 -0.5t-16 -0.5
q-53 -3 -104 -12q-30 -5 -50 -10q-4 -1 -27.5 -6t-36.5 -9q-42 -11 -100 -30q-23 -7 -112 -39l-126 -251q-86 -175 -193 -334q5 -4 14 -11.5t13 -10.5l10 -8l16 -12l3 -3q3 -2 9.5 -7t9.5 -8q1 -1 3 -2.5l2 -1.5l11 -8l6 -6l4 -3l23 -18q80 -65 154 -116q64 -45 138 -82
q93 -49 200 -64q98 -11 187 14q147 38 253 149q75 78 114 171l1 1q7 15 11 28l1 3q9 26 15 52q14 62 18 93zM1058 1912l-495 -304h-32l388 345z" />
    <glyph glyph-name="agrave" unicode="&#xe0;" horiz-adv-x="1546" 
d="M1317 58q94 -31 197 -37v-21h-605v21q120 12 163 38q42 25 15 99l-52 137l-34 96l-26 71l-77 213h-360l-80 -236l-30 -85h-1l-15 -46l-50 -148q-27 -75 14 -101t165 -38v-20h-510v20l14 1q91 7 178 38q70 29 94 100l367 1108q-35 85 -89 106q-37 14 -296 37v21h802v-21
q-237 -23 -261 -38q-42 -25 -16 -98l400 -1119q25 -70 93 -98zM550 712h334l-173 475zM971 1556h-32l-495 305l139 40z" />
    <glyph glyph-name="aacute" unicode="&#xe1;" horiz-adv-x="1546" 
d="M1317 58q94 -31 197 -37v-21h-605v21q120 12 163 38q42 25 15 99l-52 137l-34 96l-26 71l-77 213h-360l-80 -236l-30 -85h-1l-15 -46l-50 -148q-27 -75 14 -101t165 -38v-20h-510v20l14 1q91 7 178 38q70 29 94 100l367 1108q-35 85 -89 106q-37 14 -296 37v21h802v-21
q-237 -23 -261 -38q-42 -25 -16 -98l400 -1119q25 -70 93 -98zM550 712h334l-173 475zM957 1861l-495 -305h-33l388 345z" />
    <glyph glyph-name="acircumflex" unicode="&#xe2;" horiz-adv-x="1546" 
d="M1317 58q94 -31 197 -37v-21h-605v21q120 12 163 38q42 25 15 99l-52 137l-34 96l-26 71l-77 213h-360l-80 -236l-30 -85h-1l-15 -46l-50 -148q-27 -75 14 -101t165 -38v-20h-510v20l14 1q91 7 178 38q70 29 94 100l367 1108q-35 85 -89 106q-37 14 -296 37v21h802v-21
q-237 -23 -261 -38q-42 -25 -16 -98l400 -1119q25 -70 93 -98zM550 712h334l-173 475zM698 1805l-255 -247h-37l292 403l292 -403h-37z" />
    <glyph glyph-name="atilde" unicode="&#xe3;" horiz-adv-x="1546" 
d="M1317 58q94 -31 197 -37v-21h-605v21q120 12 163 38q42 25 15 99l-52 137l-34 96l-26 71l-77 213h-360l-80 -236l-30 -85h-1l-15 -46l-50 -148q-27 -75 14 -101t165 -38v-20h-510v20l14 1q91 7 178 38q70 29 94 100l367 1108q-35 85 -89 106q-37 14 -296 37v21h802v-21
q-237 -23 -261 -38q-42 -25 -16 -98l400 -1119q25 -70 93 -98zM550 712h334l-173 475zM544 1618q-40 15 -100 16.5t-125.5 -26t-92.5 -86.5l-12 4q24 62 58 107t69 67.5t72 35.5t69.5 13.5t58.5 -2t41 -7.5l15 -4l240 -92q27 -11 72 -13t94 6.5t92 35t60 68.5l15 -7
q-33 -86 -85 -139t-102.5 -68t-96 -17t-74.5 6l-28 8z" />
    <glyph glyph-name="adieresis" unicode="&#xe4;" horiz-adv-x="1546" 
d="M1317 58q94 -31 197 -37v-21h-605v21q120 12 163 38q42 25 15 99l-52 137l-34 96l-26 71l-77 213h-360l-80 -236l-30 -85h-1l-15 -46l-50 -148q-27 -75 14 -101t166 -38v-20h-511v20l14 1q91 7 178 38q70 29 94 100l367 1108q-35 85 -89 106q-37 14 -296 37v21h802v-21
q-237 -23 -261 -38q-42 -25 -16 -98l400 -1119q25 -70 93 -98zM550 712h334l-173 475zM554 1664q-35 0 -60.5 25t-25.5 60q0 27 14 49t39 32q54 23 95 -18q19 -19 24 -44.5t-5 -50.5t-32 -39t-49 -14zM865 1664q-35 2 -59.5 26.5t-24.5 59.5t24.5 60t59.5 27
q36 0 61.5 -25.5t25.5 -61.5t-25.5 -61t-61.5 -25z" />
    <glyph glyph-name="aring" unicode="&#xe5;" horiz-adv-x="1546" 
d="M1317 58q94 -31 197 -37v-21h-605v21q120 12 163 38q42 25 15 99l-52 137l-34 96l-26 71l-77 213h-360l-80 -236l-30 -85h-1l-15 -46l-50 -148q-27 -75 14 -101t165 -38v-20h-510v20l14 1q91 7 178 38q70 29 94 100l367 1108q-35 85 -89 106q-37 14 -296 37v21h802v-21
q-237 -23 -261 -38q-42 -25 -16 -98l400 -1119q25 -70 93 -98zM550 712h334l-173 475zM717 1481q-89 0 -152.5 63.5t-63.5 152.5q0 66 36.5 121.5t97.5 80.5t125.5 12.5t111.5 -59.5q46 -46 59 -111t-13 -126t-80.5 -97.5t-120.5 -36.5zM717 1891q-79 -1 -135 -57.5
t-56 -136.5q1 -80 57.5 -136t135.5 -55q80 1 136.5 57.5t55.5 135.5q-1 80 -58 136.5t-136 55.5z" />
    <glyph glyph-name="ae" unicode="&#xe6;" horiz-adv-x="2050" 
d="M1583 1394h-458v-586h258q81 0 108 52t39 186h20v-515h-20q-4 92 -40 182q-27 55 -107 55h-258v-731h492q138 0 196 105q60 107 70 316h20v-458h-1144v21q93 4 183 40q56 27 56 107v600h-429l-19 -57l-12 -37l-80 -236l-30 -85h-1l-15 -46l-50 -148q-27 -75 14 -101
t165 -38v-20h-510v20l14 2q95 8 178 37q70 29 94 100l367 1108q-35 87 -89 107q-37 14 -296 37v20h516h-1h1089v-458h-20q-12 219 -77 320t-223 101zM998 808v455q0 80 -56 107l-1 1q-55 21 -109.5 -2t-76.5 -78l-44 -104l-128 -379h415z" />
    <glyph glyph-name="ccedilla" unicode="&#xe7;" horiz-adv-x="1507" 
d="M856 -48q-12 -1 -35 -1l-32 -89q75 16 129.5 7.5t88.5 -35.5t48.5 -64t8.5 -79q-21 -170 -217 -170q-97 0 -135 47l54 -10q-4 0 3 -5.5t28 -11.5t50 -7q60 0 98.5 34.5t38.5 98.5q0 22 -6 44.5t-21 48.5t-41.5 41t-67 22t-97.5 -8l45 137q-127 4 -243 51.5t-207 134.5
q-213 196 -228 540v2q-15 339 182 556q94 106 222.5 166t269.5 63q316 13 511 -138l59 -339l-20 -1q-69 221 -217 335q-143 115 -321 107q-125 -2 -234 -62.5t-177 -164.5q-148 -215 -136 -517q1 -25 5 -68q0 -1 0.5 -4t0.5 -5q23 -243 173 -427q76 -98 190 -148.5
t239 -42.5q181 8 311 132q137 125 187 353l21 1l-31 -343q-183 -168 -497 -181z" />
    <glyph glyph-name="egrave" unicode="&#xe8;" horiz-adv-x="1349" 
d="M981 1543h-33l-495 304l140 41zM881 1393h-458v-586h258q81 0 108 53t39 185h20v-514h-20q-4 91 -40 181q-27 56 -107 56v-1h-258v-730h492q139 0 197 105t69 316h20v-458h-1144v20q93 4 183 40q56 27 56 108v1095q0 80 -56 107q-90 36 -183 40v20h1144v-458h-20
q-12 219 -77 320t-223 101z" />
    <glyph glyph-name="eacute" unicode="&#xe9;" horiz-adv-x="1349" 
d="M913 1861l-496 -305h-32l388 345zM881 1395h-458v-586h258q81 0 108 52q27 53 39 186h20v-515h-20q-4 92 -40 182q-27 55 -107 55h-258v-731h492q137 0 196 106q60 107 70 315h20v-457h-1144v20q93 4 183 40q56 27 56 107v1095q0 80 -56 107q-90 36 -183 40v21h1144v-458
h-20q-12 219 -77 320t-223 101z" />
    <glyph glyph-name="ecircumflex" unicode="&#xea;" horiz-adv-x="1349" 
d="M654 1805l-255 -247h-37l292 404l291 -404h-36zM881 1395h-458v-586h258q81 0 108 52q27 53 39 186h20v-515h-20q-4 92 -40 182q-27 55 -107 55h-258v-731h492q137 0 196 106q60 107 70 315h20v-457h-1144v20q93 4 183 40q56 27 56 107v1095q0 80 -56 107q-90 36 -183 40
v21h1144v-458h-20q-12 219 -77 320t-223 101z" />
    <glyph glyph-name="edieresis" unicode="&#xeb;" horiz-adv-x="1349" 
d="M489 1650q-35 2 -59.5 27t-24.5 60t24.5 60t59.5 27q50 2 76 -43q26 -44 0 -88q-26 -45 -76 -43zM802 1650q-35 1 -60.5 26.5t-25.5 60.5t25.5 60.5t60.5 26.5q35 -1 60 -26.5t25 -60.5t-25 -60.5t-60 -26.5zM881 1393h-458v-586h258q81 0 108 53t39 185h20v-514h-20
q-4 91 -40 181q-27 56 -107 56v-1h-258v-730h492q137 0 196 105q60 107 70 316h20v-458h-1144v20q93 4 183 40q56 27 56 108v1095q0 80 -56 107q-90 36 -183 40v20h1145v-458h-21q-12 219 -77 320t-223 101z" />
    <glyph glyph-name="igrave" unicode="&#xec;" horiz-adv-x="714" 
d="M475 1371q-54 -27 -54 -107v-1095q0 -80 54 -107q90 -36 181 -40v-20h-599v20q129 12 184 40q53 27 53 107v1095q0 80 -53 107q-55 28 -184 40v21h599v-21q-91 -4 -181 -40zM645 1579h-32l-495 304l139 41z" />
    <glyph glyph-name="iacute" unicode="&#xed;" horiz-adv-x="714" 
d="M475 1371q-54 -27 -54 -107v-1095q0 -80 54 -107q90 -36 181 -40v-20h-599v20q129 12 184 40q53 27 53 107v1095q0 80 -53 107q-55 28 -184 40v21h599v-21q-91 -4 -181 -40zM612 1861l-495 -305h-32l388 345z" />
    <glyph glyph-name="icircumflex" unicode="&#xee;" horiz-adv-x="714" 
d="M475 1371q-54 -27 -54 -107v-1095q0 -80 54 -107q90 -36 181 -40v-20h-599v20q129 12 184 40q53 27 53 107v1095q0 80 -53 107q-55 28 -184 40v21h599v-21q-91 -4 -181 -40zM359 1796l-255 -246h-36l291 403l292 -403h-37z" />
    <glyph glyph-name="idieresis" unicode="&#xef;" horiz-adv-x="714" 
d="M475 1371q-54 -27 -54 -107v-1095q0 -80 54 -107q90 -36 181 -40v-20h-599v20q129 12 184 40q53 27 53 107v1095q0 80 -53 107q-55 28 -184 40v21h599v-21q-91 -4 -181 -40zM217 1666q-36 -2 -61 23t-25 60q-2 36 24 63q24 25 62 25q36 -1 60.5 -26.5t24.5 -61.5
q-1 -35 -25.5 -59t-59.5 -24zM527 1666q-36 0 -60 24q-25 25 -25 59q-2 51 42 77t87 0q44 -26 42 -77q0 -34 -25 -59q-24 -24 -61 -24z" />
    <glyph glyph-name="ntilde" unicode="&#xf1;" horiz-adv-x="1519" 
d="M958 1432h515v-21q-136 -12 -186 -38q-53 -27 -53 -109v-1293h-10l-891 1297v-1099q0 -80 56 -108q88 -36 183 -41v-20h-515v20q129 12 185 40q54 27 54 109v1101q-1 77 -55 103q-90 34 -184 38v21h325l813 -1167v999q0 80 -55 107q-90 36 -182 40v21zM604 1739
q-28 11 -71 14t-91 -4t-91.5 -34.5t-63.5 -72.5l-13 4q24 62 58 107t69 67.5t72 35.5t69.5 13.5t58.5 -2t41 -7.5l15 -4l241 -92q27 -11 72 -13t93 6.5t91 35t61 68.5l15 -7q-34 -86 -86 -139t-102.5 -68t-96 -17t-73.5 6l-28 8z" />
    <glyph glyph-name="ograve" unicode="&#xf2;" 
d="M824 1052q2 -1 -0.5 -18t2.5 -47t10 -64.5t21.5 -70t38 -64.5t59 -47t85.5 -18v-24q-48 0 -85 -18t-59 -47t-37 -64.5t-21 -70.5t-8.5 -64t-1.5 -47v-18h-26q-2 1 0 18t-2.5 47t-9.5 64.5t-21.5 69.5t-38.5 64t-59.5 47t-85.5 18v26q65 0 111 34t65.5 82t29 96t9.5 82
l-1 34h25zM1310 1236q100 -110 152 -248.5t48 -286.5q0 -316 -199 -525q-98 -101 -227.5 -156t-270.5 -55t-270.5 55t-227.5 156q-200 211 -200 525q-4 148 48 286.5t153 248.5q95 105 225 163t272 58t272 -58t225 -163zM1217 190q152 188 152 511q0 333 -153 526
q-74 92 -180 142.5t-224 50.5t-224.5 -51t-180.5 -142q-153 -193 -153 -524q0 -323 153 -512q75 -90 181.5 -139.5t223.5 -49.5t223 49.5t182 138.5zM1035 1556h-32l-495 305l139 40z" />
    <glyph glyph-name="oacute" unicode="&#xf3;" 
d="M824 1052q2 -1 -0.5 -18t2.5 -47t10 -64.5t21.5 -70t38 -64.5t59 -47t85.5 -18v-24q-48 0 -85 -18t-59 -47t-37 -64.5t-21 -70.5t-8.5 -64t-1.5 -47v-18h-26q-2 1 0 18t-2.5 47t-9.5 64.5t-21.5 69.5t-38.5 64t-59.5 47t-85.5 18v26q65 0 111 34t65.5 82t29 96t9.5 82
l-1 34h25zM1310 1236q100 -110 152 -248.5t48 -286.5q0 -316 -199 -525q-98 -101 -227.5 -156t-270.5 -55t-270.5 55t-227.5 156q-200 211 -200 525q-4 148 48 286.5t153 248.5q95 105 225 163t272 58t272 -58t225 -163zM1217 190q152 188 152 511q0 333 -153 526
q-74 92 -180 142.5t-224 50.5t-224.5 -51t-180.5 -142q-153 -193 -153 -524q0 -323 153 -512q75 -90 181.5 -139.5t223.5 -49.5t223 49.5t182 138.5zM1027 1861l-495 -305h-33l388 345z" />
    <glyph glyph-name="ocircumflex" unicode="&#xf4;" 
d="M824 1052q2 -1 -0.5 -18t2.5 -47t10 -64.5t21.5 -70t38 -64.5t59 -47t85.5 -18v-24q-48 0 -85 -18t-59 -47t-37 -64.5t-21 -70.5t-8.5 -64t-1.5 -47v-18h-26q-2 1 0 18t-2.5 47t-9.5 64.5t-21.5 69.5t-38.5 64t-59.5 47t-85.5 18v26q65 0 111 34t65.5 82t29 96t9.5 82
l-1 34h25zM1310 1236q100 -110 152 -248.5t48 -286.5q0 -316 -199 -525q-98 -101 -227.5 -156t-270.5 -55t-270.5 55t-227.5 156q-200 211 -200 525q-4 148 48 286.5t153 248.5q95 105 225 163t272 58t272 -58t225 -163zM1217 190q152 188 152 511q0 333 -153 526
q-74 92 -180 142.5t-224 50.5t-224.5 -51t-180.5 -142q-153 -193 -153 -524q0 -323 153 -512q75 -90 181.5 -139.5t223.5 -49.5t223 49.5t182 138.5zM778 1805l-255 -247h-36l291 404l292 -404h-36z" />
    <glyph glyph-name="otilde" unicode="&#xf5;" 
d="M824 1052q2 -1 -0.5 -18t2.5 -47t10 -64.5t21.5 -70t38 -64.5t59 -47t85.5 -18v-24q-48 0 -85 -18t-59 -47t-37 -64.5t-21 -70.5t-8.5 -64t-1.5 -47v-18h-26q-2 1 0 18t-2.5 47t-9.5 64.5t-21.5 69.5t-38.5 64t-59.5 47t-85.5 18v26q65 0 111 34t65.5 82t29 96t9.5 82
l-1 34h25zM1310 1236q100 -110 152 -248.5t48 -286.5q0 -316 -199 -525q-98 -101 -227.5 -156t-270.5 -55t-270.5 55t-227.5 156q-200 211 -200 525q-4 148 48 286.5t153 248.5q95 105 225 163t272 58t272 -58t225 -163zM1217 190q152 188 152 511q0 333 -153 526
q-74 92 -180 142.5t-224 50.5t-224.5 -51t-180.5 -142q-153 -193 -153 -524q0 -323 153 -512q75 -90 181.5 -139.5t223.5 -49.5t223 49.5t182 138.5zM677 1736q-41 16 -101 17.5t-125.5 -25.5t-93.5 -86l-13 4q24 62 58 107t69.5 68t73 35.5t70 13t58 -1.5t40.5 -6l15 -5
l242 -95q27 -10 72 -11.5t93.5 6.5t91.5 35t61 69l12 -7q-33 -86 -85 -139t-102 -68t-96 -17t-74 6l-28 8z" />
    <glyph glyph-name="odieresis" unicode="&#xf6;" 
d="M824 1052q2 -1 -0.5 -18t2.5 -47t10 -64.5t21.5 -70t38 -64.5t59 -47t85.5 -18v-24q-48 0 -85 -18t-59 -47t-37 -64.5t-21 -70.5t-8.5 -64t-1.5 -47v-18h-26q-2 1 0 18t-2.5 47t-9.5 64.5t-21.5 69.5t-38.5 64t-59.5 47t-85.5 18v26q65 0 111 34t65.5 82t29 96t9.5 82
l-1 34h25zM1310 1236q100 -110 152 -248.5t48 -286.5q0 -316 -199 -525q-98 -101 -227.5 -156t-270.5 -55t-270.5 55t-227.5 156q-200 211 -200 525q-4 148 48 286.5t153 248.5q95 105 225 163t272 58t272 -58t225 -163zM1217 190q152 188 152 511q0 333 -153 526
q-74 92 -180 142.5t-224 50.5t-224.5 -51t-180.5 -142q-153 -193 -153 -524q0 -323 153 -512q75 -90 181.5 -139.5t223.5 -49.5t223 49.5t182 138.5zM633 1664q-35 2 -59 26.5t-24 59.5t24 60.5t59 26.5q36 0 61.5 -25.5t25.5 -61.5t-25.5 -61t-61.5 -25zM944 1664
q-35 2 -59.5 26.5t-24.5 59.5t24.5 60t59.5 27q36 0 61.5 -25.5t25.5 -61.5t-25.5 -61t-61.5 -25z" />
    <glyph glyph-name="oslash" unicode="&#xf8;" horiz-adv-x="1701" 
d="M1599 1338l-198 -167q153 -210 147 -470q0 -316 -199 -525q-98 -101 -227.5 -155.5t-270.5 -54.5t-270.5 54.5t-227.5 155.5q-38 42 -55 65l-188 -159l-8 10l189 159q-144 203 -138 450q-4 148 48 286.5t153 248.5q95 105 225 163t272 58t272 -58t225 -163q32 -36 46 -55
l197 166zM292 703q-5 -205 76 -387l954 804q-28 57 -68 107q-74 91 -180.5 142t-224.5 51t-224 -50.5t-180 -142.5q-153 -193 -153 -524zM1407 701q0 238 -80 407l-954 -804q31 -61 72 -113q75 -90 181.5 -139.5t223.5 -49.5t223 49.5t182 138.5q152 188 152 511z" />
    <glyph glyph-name="ugrave" unicode="&#xf9;" horiz-adv-x="1613" 
d="M1051 1431l521 1v-21q-127 -12 -184 -40q-55 -27 -55 -107v-770q0 -288 -135 -405q-136 -118 -371 -118h-20h-20q-235 0 -371 118t-136 405v770q0 80 -54 107q-56 28 -185 40v21h605v-21q-93 -4 -184 -40q-55 -27 -55 -107v-793q0 -283 155 -393q2 -1 5.5 -3.5t5.5 -3.5
q1 -1 2.5 -2t2.5 -1q34 -20 66 -32q77 -26 163 -26q11 -1 29 -2t70 4t99 18t103.5 47t96.5 83.5t65 134t20 193.5v776q0 80 -55 107q-91 36 -184 40v20zM1125 1556h-32l-495 305l139 40z" />
    <glyph glyph-name="uacute" unicode="&#xfa;" horiz-adv-x="1613" 
d="M1051 1431l521 1v-21q-127 -12 -184 -40q-55 -27 -55 -107v-770q0 -288 -135 -405q-136 -118 -371 -118h-20h-20q-235 0 -371 118t-136 405v770q0 80 -54 107q-56 28 -185 40v21h605v-21q-93 -4 -184 -40q-55 -27 -55 -107v-793q0 -283 155 -393q2 -1 5.5 -3.5t5.5 -3.5
q1 -1 2.5 -2t2.5 -1q34 -20 66 -32q77 -26 163 -26q11 -1 29 -2t70 4t99 18t103.5 47t96.5 83.5t65 134t20 193.5v776q0 80 -55 107q-91 36 -184 40v20zM1102 1861l-495 -305h-33l388 345z" />
    <glyph glyph-name="ucircumflex" unicode="&#xfb;" horiz-adv-x="1613" 
d="M1051 1431l521 1v-21q-127 -12 -184 -40q-55 -27 -55 -107v-770q0 -288 -135 -405q-136 -118 -371 -118h-20h-20q-235 0 -371 118t-136 405v770q0 80 -54 107q-56 28 -185 40v21h605v-21q-93 -4 -184 -40q-55 -27 -55 -107v-793q0 -283 155 -393q2 -1 5.5 -3.5t5.5 -3.5
q1 -1 2.5 -2t2.5 -1q34 -20 66 -32q77 -26 163 -26q11 -1 29 -2t70 4t99 18t103.5 47t96.5 83.5t65 134t20 193.5v776q0 80 -55 107q-91 36 -184 40v20zM816 1805l-255 -247h-36l291 404l292 -404h-37z" />
    <glyph glyph-name="udieresis" unicode="&#xfc;" horiz-adv-x="1613" 
d="M1051 1431l521 1v-21q-127 -12 -184 -40q-55 -27 -55 -107v-770q0 -288 -135 -405q-136 -118 -371 -118h-20h-20q-235 0 -371 118t-136 405v770q0 80 -54 107q-56 28 -185 40v21h605v-21q-93 -4 -184 -40q-55 -27 -55 -107v-793q0 -283 155 -393q2 -1 5.5 -3.5t5.5 -3.5
q1 -1 2.5 -2t2.5 -1q34 -20 66 -32q77 -26 163 -26q11 -1 29 -2t70 4t99 18t103.5 47t96.5 83.5t65 134t20 193.5v776q0 80 -55 107q-91 36 -184 40v20zM669 1664q-35 2 -59 26.5t-24 59.5t24 60.5t59 26.5q36 0 61.5 -25.5t25.5 -61.5t-25.5 -61t-61.5 -25zM980 1664
q-35 2 -59 26.5t-24 59.5t24 60.5t59 26.5q36 0 61.5 -25.5t25.5 -61.5t-25.5 -61t-61.5 -25z" />
    <glyph glyph-name="yacute" unicode="&#xfd;" horiz-adv-x="1529" 
d="M997 1432h500v-21q-103 -8 -195 -40q-75 -29 -117 -99l-339 -627v-476q1 -80 55 -108q52 -27 184 -39v-20h-605v20q93 4 184 40q55 27 55 107v470l-372 643q-47 65 -124 93q-93 30 -192 36v21h606v-21q-61 -6 -90 -13q-30 -6 -56 -23q-21 -13 -19 -38q6 -35 29 -61
l333 -572l310 578q40 65 3 92q-37 26 -150 37v21zM1042 1861l-496 -305h-32l388 345z" />
    <glyph glyph-name="ydieresis" unicode="&#xff;" horiz-adv-x="1529" 
d="M613 1666q-36 0 -61.5 25t-25.5 61t25.5 61.5t61.5 25.5t61 -25.5t25 -61.5t-25 -61t-61 -25zM923 1666q-35 0 -60 25t-25 60q0 27 14 49t39 32q54 23 95 -18t18 -95q-10 -25 -32 -39t-49 -14zM997 1430h500v-20q-103 -8 -195 -40q-75 -29 -117 -99l-339 -627v-477
q1 -80 55 -108q52 -27 184 -39v-20h-605v20q93 4 184 40q55 27 55 108v469l-372 644q-47 65 -124 93q-93 30 -192 36v20h607v-20q-55 -6 -91 -14q-32 -6 -56 -22q-21 -13 -19 -39q6 -34 29 -60l333 -572l310 578q40 65 3 92q-37 26 -150 37v20z" />
    <glyph glyph-name="Aogonek" unicode="&#x104;" horiz-adv-x="1699" 
d="M1669 544q46 -129 39 -264t-65 -258q-2 -4 -6 -12.5t-6 -12.5q-6 -14 -14 -28q-151 -293 -436 -371q-20 -5 -34 -8q-10 -7 -26 -25q-19 -24 -30 -53q-12 -31 -12 -58q-6 -64 52 -96q136 -54 279 -5l8 -14q-101 -60 -143 -74q-41 -14 -79 -14q-48 0 -95 12q-39 11 -73 35
q-30 22 -47 55t-16 70q0 69 45 122q12 15 32 31q-52 -2 -90 2q-110 12 -208 67q-2 1 -14 8q-2 1 -6 3.5t-6 3.5q-5 2 -10 5q-3 2 -7 6q-54 35 -91 62q-113 84 -119 88l-4 3l-99 76q-59 -76 -139 -138q-90 -69 -197 -102q-125 -39 -247 6q-52 19 -91 59t-57 93
q-23 61 -13.5 126.5t48.5 117.5q83 125 231 161q42 12 88 10q50 -3 94 -16q31 -12 51 -21q13 -6 42 -21q39 -21 84 -51q18 -13 23 -16q18 -12 26 -18q13 -9 26 -20l46 -38q2 -1 5.5 -4t5.5 -5q81 139 133 301l81 245l-2 -1l-105 -40l-106 -38q-22 -8 -43 -15
q-42 -13 -47 -15q-8 -2 -22.5 -6.5t-20.5 -6.5t-19 -6t-20 -6q-44 -12 -77 -18q-2 0 -5 -0.5t-5 -0.5v296h21v-21v-8.5t3.5 -20t10 -27t23 -25t39 -18t60.5 -3t86 16.5l3 1q8 3 23 7.5t20 6.5l14 5l69 25l78 27l67 25l186 561q-35 85 -89 106q-37 14 -296 37v21h802v-21
q-238 -24 -261 -38q-43 -26 -16 -98v-1l160 -447q126 11 245 -24q94 -27 164.5 -94.5t100.5 -160.5zM100 -276q131 45 251 204h-1l-45 35q-52 39 -63 46l-4 2q-1 1 -4 3q-3 1 -8.5 4.5t-8.5 5.5t-8.5 6.5t-8.5 6.5q-17 12 -38 24q-4 3 -8 4q-4 2 -12.5 7.5t-12.5 7.5
q-67 40 -146 54q-67 10 -134 -8q-90 -22 -139 -103q-48 -73 -18 -158q18 -50 56.5 -87t89.5 -54q109 -40 222 -11l1 1h2h1h2q2 0 6 2t6 2l19 5q2 0 3 1zM886 1183l-156 -461q34 12 51 17q4 1 11 3.5t11 3.5q57 19 110 33q15 4 65 16q7 1 22.5 4t23.5 5zM1472 -176
q75 78 115 173h-503v20q119 12 162 38q42 25 15 99l-51 137l-34 96l-26 71l-78 213l-11 30q-59 -10 -114 -25q-48 -13 -101 -30q-69 -22 -116 -40l-46 -17l-52 -154l-29 -85h-1l-16 -46q-20 -78 -49 -147l-1 -1q-33 -82 -83 -163q5 -4 18 -14.5t20 -16.5l4 -4l12 -8l6 -6
l4 -3l23 -18q72 -58 154 -115q71 -50 137 -83q93 -49 201 -64q95 -11 187 15q148 39 253 148zM1631 172q5 40 7 92q0 52 -9 105q-8 49 -24 95q-26 82 -87.5 142t-144.5 85q-86 27 -175 24l201 -563q26 -70 92 -98q55 -19 108 -26q10 28 15 51q12 52 17 93z" />
    <glyph glyph-name="aogonek" unicode="&#x105;" horiz-adv-x="1546" 
d="M1704 -264l8 -15q-56 -33 -77.5 -45t-64 -27t-79.5 -15q-49 0 -96 12q-39 11 -73 35q-30 22 -47 55t-16 70q0 69 45 122q42 48 99 72h-494v20q120 12 163 38q42 26 15 99l-52 138l-34 95l-26 72l-77 212h-360l-80 -235l-30 -85h-1l-15 -47l-50 -148q-27 -75 14 -101
t166 -38v-20h-511v20l14 2q95 8 178 37q70 29 94 100l367 1108q-35 87 -89 107q-37 14 -296 37v20h802v-20q-237 -23 -261 -38q-41 -25 -15 -98l399 -1120q25 -70 93 -98q94 -31 197 -37v-20h-8q-25 -2 -47 -14q-26 -15 -44 -38q-19 -24 -30 -53q-12 -31 -12 -58
q-3 -30 11.5 -56t41.5 -40q136 -53 278 -5zM550 711h334l-173 476z" />
    <glyph glyph-name="Cacute" unicode="&#x106;" horiz-adv-x="1650" 
d="M1185 1912l-495 -304h-32l388 345zM1515 486l21 1l-31 -343q-183 -168 -497 -181q-141 -9 -274 39.5t-236 146.5q-213 196 -228 540v2q-12 305 141 507q-32 26 -102 79q-71 53 -151 97q-104 59 -221 79q-101 15 -204 -13q-160 -41 -275 -165q-80 -86 -122 -193l-49 1
q2 5 14 29q163 335 473 417q120 34 250 17q120 -16 228 -81l15 -9q10 -6 14 -9q8 -4 11 -6t7 -6q23 -15 100 -74q75 -59 93 -73q92 88 208.5 136.5t243.5 51.5q316 13 511 -138l6 -196l-1 1q0 -100 -53 -180q-43 -68 -108 -114.5t-143 -65.5q-47 -12 -96 -9q-52 3 -103 20
q-44 18 -102 51q-67 40 -117 78q-5 4 -15.5 11.5t-14.5 10.5q-13 9 -28 24l-50 44q-70 58 -103 87l-12 9l-7 7l-13 11q-101 -204 -87 -431q0 -6 6 -69v-8q23 -241 174 -427q76 -98 189.5 -148.5t238.5 -42.5q182 8 312 132q137 125 187 353zM956 1439q-118 -2 -222.5 -56
t-173.5 -149l95 -77l4 -4q55 -47 76 -63q32 -26 70 -53q1 -1 2.5 -2t2.5 -1l4 -4q3 -2 9.5 -6t9.5 -6t9.5 -7t9.5 -7q28 -20 41 -29t37 -23q74 -47 160 -65q74 -14 146 6q101 24 151 115q53 88 18 182q-17 48 -43.5 80t-77.5 68l-18 12q-2 2 -16 11q-132 84 -294 78z" />
    <glyph glyph-name="cacute" unicode="&#x107;" horiz-adv-x="1507" 
d="M1014 1861l-495 -305h-32l388 345zM1363 475l21 1l-31 -343q-183 -168 -497 -181q-141 -9 -274 39.5t-236 146.5q-213 196 -228 540v2q-15 339 182 556q94 106 222.5 166t269.5 63q316 13 511 -138l59 -339l-20 -1q-69 221 -217 335q-143 115 -321 107
q-125 -2 -234 -62.5t-177 -164.5q-148 -215 -136 -517q1 -25 5 -68q0 -1 0.5 -4t0.5 -5q23 -243 173 -427q76 -98 190 -148.5t239 -42.5q181 8 311 132q137 125 187 353z" />
    <glyph glyph-name="Eogonek" unicode="&#x118;" horiz-adv-x="1804" 
d="M1731 -483l6 -11q-107 -82 -246 -72q-113 8 -174 70q-67 68 -17 156q30 53 101 105q-41 5 -74 16q-108 36 -198 109l16 16q64 -34 134 -57q1 -1 3 -1l18 -5q2 -1 6.5 -2t6.5 -2h2h1l1 -1h1q116 -31 223 11q52 19 90.5 58.5t55.5 91.5q30 89 -18 169q-47 84 -139 109
q-66 20 -134 9q-79 -15 -146 -58q-10 -5 -25 -15q-1 -1 -4 -2.5l-5 -2.5q-7 -4 -19.5 -13.5t-17.5 -12.5q-10 -8 -17 -13q-3 -2 -8.5 -5.5t-8.5 -5.5q-1 -1 -4 -3q-2 -2 -4 -3q-25 -17 -64 -48l-45 -37l-37 -31l-99 -80l-5 -4q-42 -33 -119 -93q-52 -41 -90 -66q-4 -4 -7 -6
q-2 -1 -5.5 -2.5t-4.5 -2.5l-12 -9q-5 -3 -15 -7q-95 -57 -207 -71q-116 -14 -229 20q-285 83 -437 395q-7 14 -13 29l-12 27q-58 131 -65 275t39 280q71 208 265 272q122 37 245 25q70 -5 135 -19q30 -6 46 -10q3 -1 9 -2.5t9 -2.5l1 2l143 400v1l1 2q26 71 -16 96
q-23 14 -261 38v20h1262v-457h-20q-12 219 -77 320t-224 101h-315q-61 -5 -120 -21q-54 -21 -89 -106l-27 -81l-128 -349l-1 -4h1q4 -1 13 -4.5t14 -5.5q10 -2 22 -7l51 -18q36 -12 46 -16l11 -4l67 -27l78 -28l69 -27l14 -5q8 -3 23 -8.5t20 -7.5l5 -1v-1q68 -20 111.5 -18
t65.5 19.5t31.5 37.5t9.5 37l1 16v23h22v-185v-131v0q-1 1 -5 1t-6 1q-35 7 -76 19q-9 2 -39 13h-1q-7 2 -21 6.5t-21 6.5q-24 9 -48 17q-22 7 -42 15l-106 41l-105 42l-2 1l-57 21l-46 18q-46 18 -116 43q-4 1 -10 3.5t-10 3.5q-31 11 -80 25q-12 4 -49 13q-20 5 -65 14
q-62 12 -137 14q-92 3 -175 -25q-84 -28 -145.5 -92t-86.5 -149q-16 -49 -24 -101q-9 -56 -9 -112q2 -54 7 -98t17 -99q6 -27 15 -55l12 -33q40 -100 115 -183q105 -116 253 -158q92 -27 187 -15q106 15 200 68q67 36 138 88q78 57 154 123l23 19l4 3l6 6l11 9q1 1 3 2t2 2
q4 3 38 32q21 18 39 33q2 2 5.5 5t5.5 4l46 41q13 13 25 21q3 3 12.5 9t14.5 10q3 3 10.5 8.5t11.5 8.5q45 31 84 54q2 1 18.5 10t24.5 13q21 11 50 22q49 14 95 17q43 1 87 -11q73 -20 133 -64t99 -107q39 -57 48 -126t-14 -134q-17 -55 -55.5 -97.5t-91.5 -64.5
q-32 -12 -71 -19q-98 -49 -105 -126q-6 -67 58 -112q81 -59 208 -33q33 7 67 20z" />
    <glyph glyph-name="eogonek" unicode="&#x119;" horiz-adv-x="1351" 
d="M1322 -251l6 -11q-106 -81 -244 -72q-115 8 -176 70q-67 69 -18 157q32 55 108 109h-941v20q93 4 183 40q56 27 56 107v1095q0 80 -56 107q-90 36 -183 40v21h1144v-458h-20q-12 219 -77 320t-223 101h-458v-586h258q81 0 108 52q27 53 39 186h20v-515h-20q-4 92 -40 182
q-27 55 -107 55h-258v-731h492q137 0 196 106q60 107 70 315h20v-457h-104q-100 -49 -108 -126q-7 -66 55 -112q80 -60 206 -36q35 7 72 21z" />
    <glyph glyph-name="Lslash" unicode="&#x141;" horiz-adv-x="1445" 
d="M1957 -17l43 -1q-150 -308 -422 -394q-110 -36 -228 -22q-115 16 -208 76l-15 9l-12 9l-5 2.5t-4 2.5q-3 2 -8 7q-37 26 -90 71q-14 12 -60 50.5t-79 66.5l-2 2l-63 55q-65 -87 -156 -155q-21 -17 -57 -38l-3 -2q-20 -13 -46 -24l-6 -3l-2 -1q-37 -19 -85 -34
q-125 -45 -247 6q-54 25 -92.5 70.5t-54.5 103.5q-47 147 35 280q37 67 97 114.5t134 69.5q42 14 87 12q45 -3 95 -19q56 -24 93 -48q56 -35 106 -76q3 -2 8.5 -6.5t10 -8t8.5 -6.5q9 -7 25 -23l46 -43l1 -1q49 167 46 337v287l-176 -106l-9 16l185 112v515q0 81 -54 108
q-83 34 -183 39v21h918v-21q-23 -2 -145.5 -4.5t-225 -10t-129.5 -24.5q-28 -17 -43 -46.5t-12 -61.5v-439l174 105l9 -15l-183 -111v-322q5 -238 -102 -442l22 -21l11 -9l6 -7l27 -24q75 -70 154 -132q71 -57 137 -95q95 -57 201 -73q98 -12 188 16q152 48 253 170
q51 60 87 136zM635 -190q72 66 116 154q-11 9 -26.5 23t-21.5 19q-42 37 -64 53l-2 2t-2 1q-2 2 -4 3q-5 4 -17 12q-1 1 -17 14q-32 25 -37 28q-12 8 -34 22q-64 44 -145 61q-69 12 -135 -9q-93 -31 -139 -118t-18 -181q16 -55 54.5 -97t91.5 -64q119 -49 241 -7q26 8 39 13
l1 1q7 3 23 9q52 24 96 61z" />
    <glyph glyph-name="Nacute" unicode="&#x143;" horiz-adv-x="1871" 
d="M1351 1912l-495 -304h-32l388 345zM1726 534q46 -129 39 -264t-65 -258q0 -1 -2 -3q-2 -3 -5 -11t-4 -11l-1 -1q-2 -5 -6.5 -14l-6.5 -13q-151 -293 -437 -371q-110 -31 -229 -19q-109 12 -207 67q-10 4 -15 7q-2 1 -6 4t-6 4q-6 2 -9 4q-6 4 -8 6q-47 30 -90 62
q-113 84 -119 88l-5 3l-83 64q-105 -114 -246 -184q-1 0 -2 -1l-2 -1q-49 -26 -102 -42q-125 -39 -247 6q-52 19 -90.5 59t-56.5 93q-23 61 -14 126.5t48 117.5q83 125 232 161q42 12 87 10q51 -3 95 -16q26 -10 50 -21q18 -8 43 -21q39 -21 84 -51q14 -10 22 -15
q3 -2 8.5 -5.5t10 -6.5t8.5 -6q9 -6 25 -20l46 -38l1 -1q2 -2 10 -8q9 -7 29 -23q111 177 121 431v112l-43 -16l-39 -14l-67 -24q-12 -5 -42 -14q-32 -10 -48 -16q-8 -2 -22 -6.5t-20 -6.5q-35 -10 -39 -11q-44 -12 -77 -18q-2 0 -6 -1t-5 -1v123v173h22v-21q1 0 -0.5 -5
t1 -13.5t4.5 -19t10 -20.5t17 -19.5t26.5 -16t38.5 -9t52.5 1.5t68.5 15h1l5 2q8 3 23 7.5t20 6.5l14 6h1l22 8l46 17l36 12v592q-1 29 -7.5 50t-20 35.5t-25.5 23t-37 14.5t-41.5 9t-51 7.5t-54.5 7.5v21h516v-21q-19 -3 -50 -7t-53 -7.5t-39 -8.5h-1q-1 -1 -2 -1l349 -570
q14 3 47 7q44 6 65 7q76 5 140 -2q42 -4 86 -17v452q0 81 -55 108q-87 34 -182 39v21h515v-20q-134 -12 -186 -39q-53 -27 -53 -109v-463l1 -1q26 -9 58 -26q30 -16 39 -23q105 -75 147 -199zM158 -285q161 60 274 185l-2 2l-22 17l-2 1l-43 33q-47 35 -64 46q-2 1 -4 3
q-1 0 -2 1t-2 1q-3 2 -8.5 6t-8.5 5q-3 2 -8.5 6t-8.5 6q-22 15 -37 24l-5 2.5t-4 2.5q-4 2 -12.5 7.5t-12.5 7.5q-64 39 -146 53q-69 11 -134 -7q-90 -22 -139 -103q-49 -74 -18 -159q18 -50 56.5 -87t89.5 -54q108 -40 223 -10h2h1q1 0 1 0.5t1 0.5q2 1 6.5 2t6.5 1l18 5
l1 1h2zM1222 704q-20 -1 -57 -5l277 -452v430q-2 1 -6 2t-6 2q-30 10 -74 17q-55 8 -101 7q-5 0 -16 -0.5t-17 -0.5zM666 1246v-577l64 24l11 4q8 3 23.5 8t22.5 7q34 12 51 17q4 1 11 3.5t11 3.5q57 19 110 33l2 1l-294 481h-12v-5zM1672 70q12 52 17 93q4 30 6 91
q0 59 -8 106q-7 44 -25 95q-25 76 -83 137q-21 22 -39 34q-18 14 -58 34l-1 1v-708h-10l-440 720q-4 -1 -13 -3.5t-14 -3.5q-42 -11 -100 -30q-69 -22 -116 -40l-46 -17l-56 -20l-2 -1l-18 -7v-87q-6 -294 -137 -496q3 -2 9.5 -8t9.5 -8l2 -1q2 -1 3 -2l11 -8l6 -6l5 -3
l22 -18q80 -65 154 -116q71 -49 138 -82q93 -49 200 -64q98 -11 188 14q147 38 253 149q75 78 114 171v1q8 18 11 27l1 4q12 34 16 52z" />
    <glyph glyph-name="nacute" unicode="&#x144;" horiz-adv-x="1519" 
d="M1014 1861l-495 -305h-33l388 345zM958 1432h515v-21q-136 -12 -186 -38q-53 -27 -53 -109v-1293h-10l-891 1297v-1099q0 -80 56 -108q88 -36 183 -41v-20h-515v20q129 12 185 40q54 27 54 109v1101q-1 77 -55 103q-90 34 -184 38v21h325l813 -1167v999q0 80 -55 107
q-90 36 -182 40v21z" />
    <glyph glyph-name="OE" unicode="&#x152;" horiz-adv-x="2777" 
d="M2677 87q39 -57 48.5 -126t-13.5 -134q-17 -55 -55.5 -97.5t-91.5 -64.5q-122 -48 -248 -6q-107 36 -197 109l15 16q62 -33 135 -57l1 -1h2l18 -5q2 -1 6 -2t6 -2h3l1 -1h2q116 -31 223 11q52 19 90.5 58.5t55.5 91.5q30 88 -19 169q-47 84 -139 109q-63 19 -134 8
q-79 -15 -145 -57q-14 -7 -26 -15q-1 0 -8 -5q-24 -16 -37 -26q-3 -2 -8.5 -6.5t-8.5 -6.5q-15 -10 -17 -11l-2 -1q-2 -1 -2 -2q-2 -2 -4 -3q-25 -17 -64 -48l-45 -37h-1l-37 -31l-98 -80l-5 -4q-23 -18 -63.5 -49.5t-55.5 -43.5q-64 -49 -90 -66q-2 -2 -8 -6t-9 -5
q-5 -4 -27 -16q-97 -58 -208 -72q-113 -13 -228 21q-272 79 -424 370q-263 21 -442 234q-200 238 -200 591q0 354 201 602t495 248q74 0 128.5 -20.5t79.5 -45t39.5 -57t16 -45.5t1.5 -21v-46q135 -61 234 -172q91 -98 143 -226l92 259l1 2v1q25 71 -16 96q-23 14 -261 38
v20h1263v-457h-21q-12 220 -76 320q-65 101 -224 101h-316q-61 -5 -120 -21q-54 -21 -89 -106l-27 -81l-127 -349l-2 -4h2q4 -1 12.5 -4.5t13.5 -5.5q13 -3 23 -7l51 -18q8 -2 23 -7.5t23 -8.5l10 -4l67 -26l78 -29l69 -27h1l13 -5q9 -3 24.5 -9t19.5 -7l4 -1h1
q68 -20 111.5 -18t65.5 19.5t31.5 37t10.5 36.5v16v23h21v-316q-1 0 -5 1t-5 1q-37 7 -77 19q-9 2 -39 13q-6 2 -20.5 6.5t-22.5 6.5q-37 14 -47 17q-16 5 -42 15l-106 41l-106 42l-2 1l-56 22l-46 17q-46 18 -116 43q-1 0 -3 1l-2 1v-14q0 -316 -199 -525
q-96 -104 -226.5 -159.5t-271.5 -51.5h-2h-10q37 -70 88 -126q105 -116 253 -158q92 -27 187 -15q108 15 201 68q67 36 138 88q72 53 153 123l23 19l4 3l7 6l11 9l4 4q4 3 38 32q21 18 39 33q2 1 6 5t6 5l45 40q4 4 26 21q3 2 12 8.5t14 10.5q16 12 23 17q45 31 84 54
q6 3 20 11t22 12q11 6 51 22q43 14 94 17q44 1 88 -11q151 -41 231 -171zM745 3q29 -4 46 -5q9 -1 28 -1h2q118 -4 224.5 46t179.5 142q152 188 152 511q0 38 -1 56q-1 57 -11 121q-23 192 -141 349q-61 78 -144 129q-13 -111 -77.5 -190t-216.5 -173
q-109 -67 -181.5 -120.5t-115.5 -95.5t-64 -85t-25.5 -78.5t-1.5 -85.5l1 -18l-14 -1l-17 242v10q-29 377 133 563q60 68 143 104.5t174 34.5h2q120 0 228 -40q0 1 1.5 12t1.5 17q2 46 -21 78t-57.5 45.5t-69.5 20.5t-59 7l-25 -1q-251 0 -404 -217q-153 -218 -153 -590
q0 -363 153 -576q131 -183 330 -211zM1038 1374q-95 45 -208 47q-185 -3 -286 -118q-73 -84 -104.5 -180t-25.5 -238q68 74 285 205q62 36 93 55t74 46.5t65 46t46.5 42t38 46t22.5 48.5z" />
    <glyph glyph-name="oe" unicode="&#x153;" horiz-adv-x="2238" 
d="M1313 1393v-586h257q81 0 108 53t39 185h21v-514h-21q-4 91 -40 181q-27 56 -107 56v-1h-257v-730h492q136 0 196 105q58 102 69 316h21v-458h-1064q-188 -61 -381 -13t-331 190q-200 211 -200 525q-4 148 48 286.5t153 248.5q95 105 225 163t272 58q93 0 189 -28h1089
v-458h-21q-12 220 -76 320q-65 101 -224 101h-457zM407 192q76 -90 182 -139.5t223 -49.5q105 0 202 40t171 114q0 2 0.5 5t0.5 5v1095q-78 80 -181.5 121.5t-215.5 36.5q-112 -4 -211.5 -54.5t-170.5 -137.5q-153 -194 -153 -524q0 -323 153 -512z" />
    <glyph glyph-name="Sacute" unicode="&#x15a;" horiz-adv-x="1904" 
d="M1034 1912l-496 -304h-32l388 345zM1902 675q101 -323 -51 -659t-437 -425q-110 -36 -228 -22q-112 14 -208 76l-15 9l-12 9q-1 1 -4 2.5l-5 2.5q-3 2 -8 7q-45 32 -90 71q-16 13 -39 33t-62.5 53t-67.5 57q-138 -98 -227 -150q-79 -48 -163 -76q-125 -45 -247 6
q-54 25 -92.5 70.5t-54.5 103.5q-47 147 35 280q37 67 97 114.5t134 69.5q42 13 87 12q45 -3 95 -19q56 -24 93 -48q47 -29 106 -76l27 -21q9 -7 25 -23l46 -43q30 -26 93 -85l11 -9l7 -7l27 -24q81 -75 153 -132q68 -54 138 -95q95 -57 200 -73q98 -12 188 16
q151 47 253 171q107 126 142 292q10 44 17 106q5 48 7 105q0 61 -9 121q-7 49 -25 109q-62 197 -231 259q-170 63 -426 -17q-41 -12 -101 -35q-92 -35 -116 -45l-104 -44l-106 -46q-23 -9 -62 -22.5t-142 -33.5t-184 -14q-27 2 -40 5q-1 0 -3.5 0.5t-3.5 0.5q-29 4 -54 18
q-33 16 -57 41q-17 19 -26 42q-19 48 -24 100q-11 100 24 205.5t101 194t160 159t195 107.5t212 32.5t205 -58.5q38 -24 72 -63l6 -16l-3 -281h-22q0 79 -30 149.5t-79.5 120t-118.5 75.5t-143 23t-156.5 -45t-155.5 -122q-66 -69 -110 -166.5t-48 -198t60 -172.5
q14 -15 32 -23q93 -40 238 18q14 6 43 17t42 16l79 33l79 31l77 33q30 12 120 44q77 28 109 38q295 92 491 23t265 -292zM470 -201q99 57 176 116q-66 59 -107 95q-35 31 -64 52q-2 1 -4 3t-4 3l-16 12q-6 4 -18 14q-33 25 -37 28q-12 8 -34 22q-64 44 -145 61
q-69 12 -135 -9q-93 -31 -138.5 -118t-17.5 -181q34 -116 145 -162q119 -50 241 -6q86 28 158 70z" />
    <glyph glyph-name="sacute" unicode="&#x15b;" horiz-adv-x="1153" 
d="M834 1861l-495 -305h-32l388 345zM988 453q88 -142 48.5 -249.5t-160.5 -170.5t-273 -62q-346 2 -464 139l-2 388h21q4 -121 44.5 -220.5t108 -162.5t152.5 -94t184.5 -19t197.5 67q67 37 87 94t-0.5 115.5t-65 120.5t-98.5 112t-109 87q-42 33 -122 87t-137 96
t-117.5 98t-95.5 122t-40 141q-6 87 34 152t109.5 100t158.5 51t179.5 9t175 -31t142.5 -63l-2 -327h-21q3 78 -21 147t-66.5 118t-101.5 81.5t-123.5 43t-134 -3.5t-131.5 -53q-68 -46 -83 -117.5t14.5 -142.5t79 -134t107.5 -103q60 -51 173 -124t204 -143t148 -149z" />
    <glyph glyph-name="Scaron" unicode="&#x160;" horiz-adv-x="1875" 
d="M990 2011l-291 -403l-292 403h37l255 -247l255 247h36zM1843 678q100 -322 -51 -658q-152 -336 -437 -425q-110 -36 -228 -22q-115 16 -208 76q-2 1 -7.5 3.5t-7.5 4.5l-12 9l-9 6q-6 4 -8 6q-44 31 -91 72q-77 66 -168 143q-147 -104 -227 -151q-79 -48 -163 -76
q-125 -45 -247 6q-54 25 -92.5 71t-54.5 104q-47 148 34 279q38 67 98.5 115t133.5 70q39 13 87 11q49 -3 95 -18q56 -24 93 -48q47 -29 106 -76q3 -2 8.5 -6.5t10 -8t8.5 -6.5q9 -7 25 -23l46 -44q42 -36 93 -84l11 -9l6 -7l27 -24q83 -76 154 -133q66 -53 137 -94
q97 -58 201 -74q96 -12 188 17q151 47 252 170q107 126 142 292q12 52 18 107q4 36 6 105q0 67 -8 120q-7 51 -25 110q-61 196 -232 259q-170 63 -426 -17q-36 -11 -100 -35q-71 -27 -116 -46l-105 -43l-105 -46q-23 -9 -62 -23t-142 -34t-184 -14q-27 2 -41 5q-1 0 -3 0.5
t-3 0.5q-27 4 -55 19q-33 16 -56 40q-17 18 -26 43q-19 48 -24 99q-11 100 24 205.5t101 194t160 159t195 107.5t212 32.5t205 -58.5q40 -25 72 -62q1 -3 3 -8.5t3 -8.5l-3 -280h-23q0 79 -30 149.5t-79.5 120t-118 75.5t-142.5 23t-156.5 -45t-155.5 -122
q-66 -69 -110 -166.5t-48 -198.5t60 -173q12 -14 32 -22q93 -40 238 18q12 4 40 15t45 17l79 34l78 30l78 33q73 28 119 45q40 14 110 37q296 93 491 24q194 -69 265 -293zM411 -198q95 54 175 116q-18 16 -41.5 37.5t-38.5 35t-26 22.5q-42 37 -64 53q-2 1 -4 3t-4 3
l-17 12q-1 1 -17 14t-38 27q-5 4 -16 11.5t-17 11.5q-64 44 -146 61q-69 12 -134 -9q-93 -31 -139 -118t-18 -181q16 -55 54.5 -97.5t91.5 -64.5q119 -49 241 -7q86 28 158 70z" />
    <glyph glyph-name="scaron" unicode="&#x161;" horiz-adv-x="1155" 
d="M855 1959l-291 -403l-292 403h36l256 -246l255 246h36zM990 455q88 -142 48.5 -249.5t-160.5 -170.5t-273 -62q-346 2 -464 139l-2 388h21q4 -121 44.5 -220.5t108 -162.5t152.5 -94t184.5 -19t197.5 67q67 37 87 94t-0.5 115.5t-65 120.5t-98.5 112t-109 87
q-42 33 -122 87t-137 96t-117.5 98t-95.5 122t-40 141q-6 87 34 152t109.5 100t158.5 51t179.5 9t175 -31t142.5 -63l-2 -327h-21q3 78 -21 147t-66.5 118t-101.5 81.5t-123.5 43t-134 -3.5t-131.5 -53q-68 -46 -83 -117.5t14.5 -142.5t79 -134t107.5 -103q60 -51 173 -124
t204 -143t148 -149z" />
    <glyph glyph-name="Ydieresis" unicode="&#x178;" horiz-adv-x="1701" 
d="M1845 550q46 -128 39 -263.5t-65 -258.5q0 -1 -2 -3q-1 -4 -4.5 -11l-5.5 -11v-1q-2 -5 -6.5 -13t-6.5 -13q-151 -293 -437 -371q-113 -32 -229 -20q-110 12 -208 67q-7 3 -14 7q-2 1 -6 4t-6 4q-5 2 -10 5q-6 4 -7 5q-54 35 -91 62q-104 77 -119 88l-4 4l-83 64l-4 2
l-12 9l-13 11l-2 1l-22 17h-1l-1 1v1q-85 -114 -188 -201q-104 -89 -240 -87q-63 2 -116 23q-52 19 -90.5 59t-56.5 93q-23 61 -14 127t48 118q83 125 231 161q42 12 88 10q51 -3 95 -16q26 -10 50 -21q18 -8 43 -21q26 -14 83 -52q7 -5 23 -15q18 -12 26 -18q13 -9 26 -20
l31 -26q115 160 204 345l-75 137l-35 -13l-67 -24l-42 -14q-5 -2 -14.5 -5t-18 -5.5t-15.5 -5.5l-42 -12h-1q-6 -2 -19 -6t-20 -6q-46 -12 -76 -18q-1 0 -5 -1t-6 -1v123v174h22v-21q1 0 -0.5 -5t1 -13.5t4.5 -19t10 -20.5t17 -19.5t26.5 -16t38.5 -9t52.5 1.5t68.5 15h1
l5 1q28 10 43 15l14 5h1l2 1l-345 634q-33 62 -90 100q-9 4 -11 5q-2 0 -4 2q-24 8 -36 11h-1q-75 17 -134 21v21h337l412 -749l54 -98l12 -22l16 32l72 142l352 695h367v-21q-13 -1 -64 -2.5t-90 -6t-89 -15.5t-88.5 -36t-59.5 -63l-7 -14l-260 -517q42 14 108 32l33 9
q24 7 32 8q16 3 46 9q37 8 70 12t65 6q76 5 140 -2q61 -7 105 -21q4 -1 11 -4t10 -4q31 -11 58 -25q25 -13 39 -24q105 -75 147 -199zM14 -270q234 -57 479 231l-11 8q-47 35 -64 46q-2 1 -4 3l-2 1l-2 1q-3 2 -8.5 6t-8.5 5q-3 2 -8.5 6t-8.5 6q-22 15 -37 24q-6 4 -9 5
q-4 2 -12.5 7.5t-12.5 7.5q-67 40 -146 54q-67 10 -134 -8q-90 -22 -139 -103q-49 -74 -18 -159q18 -50 56.5 -87t89.5 -54zM1808 179q4 30 6 92q0 58 -8 105q-7 44 -25 95q-25 76 -83 137q-41 43 -97 69q-19 9 -52 20q-36 12 -74 18q-50 8 -101 6q-6 0 -17 -0.5t-16 -0.5
q-53 -3 -104 -12q-30 -5 -50 -10q-4 -1 -27.5 -6t-36.5 -9q-42 -11 -100 -30q-23 -7 -112 -39l-126 -251q-86 -175 -193 -334q5 -4 14 -11.5t13 -10.5l11 -8l15 -12l3 -3q3 -2 9.5 -7t9.5 -8q1 -1 3 -2.5l2 -1.5l11 -8l6 -6l4 -3l23 -18q80 -65 154 -116q64 -45 138 -82
q93 -49 200 -64q98 -11 187 14q147 38 253 149q75 78 114 171l1 1q7 15 11 28l1 3q12 34 16 52q12 52 17 93zM642 1717q-36 0 -61.5 25.5t-25.5 61.5t25.5 61.5t61.5 25.5t61 -25.5t25 -61.5t-25 -61.5t-61 -25.5zM952 1717q-35 0 -60 25.5t-25 60.5q0 27 14 49t39 32
t50.5 5t44.5 -24q41 -41 18 -95q-10 -25 -32 -39t-49 -14z" />
    <glyph glyph-name="Zacute" unicode="&#x179;" horiz-adv-x="1875" 
d="M1157 1912l-495 -304h-32l388 345zM1870 649q47 -146 38.5 -299t-71.5 -293q-2 -5 -6.5 -15t-6.5 -15q-152 -337 -436 -425q-111 -36 -229 -22q-115 16 -208 76q-10 6 -14 9l-12 9q-1 1 -4.5 3t-5.5 3q-3 2 -7 6q-42 29 -91 71q-68 60 -189 162q-138 -162 -338 -234
q-27 -10 -31 -11q-83 -28 -168 -17h-2q-40 6 -77 23q-55 25 -93.5 70.5t-54.5 103.5q-47 147 35 280q37 67 97 114.5t134 69.5q39 13 88 11q47 -3 94 -18q51 -21 94 -48q56 -35 106 -76q3 -2 8.5 -6.5t10 -8t8.5 -6.5q9 -7 25 -23l43 -40l36 52l864 1236h-1107
q-136 -1 -195 -104q-58 -101 -76 -317h-21l8 458h1553v-35l-300 -428q64 7 115 -1.5t121 -32.5q194 -66 265 -282zM-101 -92q16 -55 54.5 -97.5t91.5 -64.5q36 -16 76 -17.5t76.5 8.5t75.5 31t73 47t69 59t63 63.5t55 64.5q-12 10 -21 18q-48 42 -63 53q-1 1 -4 3q-2 2 -4 3
q-5 4 -17 12q-1 1 -17 14t-38 27q-5 4 -16 11.5t-17 11.5q-64 44 -146 61q-69 12 -134 -9q-93 -31 -139 -118t-18 -181zM901 -157q71 -57 137 -95q97 -58 201 -74q21 -3 42 -3q70 -1 139 20q150 44 253 164q14 16 20 24q1 2 4.5 6.5t5.5 6.5q10 13 16 23l7 10.5t8 11.5
l21 36q1 2 3.5 8t4.5 8q5 10 15 32q23 54 37 115q11 55 17 103q5 45 7 101q0 59 -9 116q-8 56 -24 106q-62 189 -232 249q-150 48 -303 14l-552 -791q-3 -4 -8 -10t-7 -10l10 -8l6 -7l27 -24q75 -70 154 -132z" />
    <glyph glyph-name="zacute" unicode="&#x17a;" horiz-adv-x="1339" 
d="M948 1861l-495 -305h-32l388 345zM1212 458h20l-8 -458h-1109v35l950 1358h-664q-136 -1 -195 -104t-77 -317h-20l8 458h1109v-35l-950 -1358h664q138 2 196 105q60 106 76 316z" />
    <glyph glyph-name="Zdot" unicode="&#x17b;" horiz-adv-x="1904" 
d="M837 1743q-44 0 -77 31q-32 30 -32 76q0 44 31 75.5t75 31.5t75.5 -31t32.5 -75t-30 -75.5t-75 -32.5zM1841 650q47 -146 38.5 -299.5t-71.5 -293.5h1q-2 -5 -6.5 -15t-6.5 -15q-151 -335 -437 -424q-113 -36 -228 -23q-113 15 -208 77q-2 1 -7.5 3.5t-7.5 4.5l-12 9
l-9 6q-6 4 -8 6q-37 26 -90 71q-75 66 -190 163q-139 -164 -337 -235q-22 -8 -32 -11q-83 -28 -168 -17l-2 1q-44 7 -77 22q-54 25 -92.5 71t-54.5 104q-22 71 -13 143.5t48 135.5q79 140 231 185q39 13 87 11q49 -3 95 -18q48 -20 93 -48q51 -32 106 -77q3 -3 12.5 -9.5
t14.5 -10.5q9 -7 25 -23l43 -41l36 52l865 1236h-1107q-136 -1 -195 -104t-77 -316h-20l8 457h1552v-35l-299 -428q64 7 114.5 -1.5t120.5 -32.5q194 -66 265 -281zM-129 -92q16 -55 54 -97t91 -64q36 -16 76 -17.5t77 8.5t76 31t73 47t69 59t63 63.5t55 64.5l-21 18
q-35 31 -64 52q-1 1 -4 3q-2 2 -4 3q-5 4 -17 12q-1 1 -17 14q-33 25 -37 28q-12 8 -34 22q-67 45 -145 62q-69 12 -134 -9q-93 -31 -139 -118.5t-18 -181.5zM872 -157q64 -51 138 -94q97 -58 200 -74q21 -3 42 -3q74 -2 140 19q150 44 253 164q7 8 19 24q1 2 5 6.5t5 6.5
q16 21 17 23q3 3 7 11t7 11q4 6 11 18.5t10 18.5q2 3 4.5 8t3.5 8q10 20 15 31v1q23 54 37 115q12 57 17 102t7 102q0 59 -9 116q-7 54 -24 105q-62 190 -232 250q-148 47 -302 13l-553 -790l-15 -21l10 -7l7 -7l26 -24q83 -76 154 -133z" />
    <glyph glyph-name="zdot" unicode="&#x17c;" horiz-adv-x="1339" 
d="M686 1691q-44 0 -77 31q-32 30 -32 77q0 44 31 75.5t75 31.5t75.5 -31t32.5 -75t-30 -76t-75 -33zM1212 458h20l-8 -458h-1109v35l950 1358h-664q-136 -1 -195 -104t-77 -317h-20l8 458h1109v-35l-950 -1358h664q138 2 196 105q60 106 76 316z" />
    <glyph glyph-name="quoteright" unicode="&#x2019;" horiz-adv-x="446" 
d="M277 1398q37 -32 38 -102.5t-35 -131.5l-7 -10q-47 -79 -130 -111l-5 -2l-11 16l6 3q129 78 113 167q-2 30 -29 43q-33 5 -54 23q-24 20 -26 51q0 33 23 54q25 22 58.5 22t58.5 -22z" />
    <glyph glyph-name="quotedblleft" unicode="&#x201c;" horiz-adv-x="761" 
d="M639 1433q-41 -25 -68 -52.5t-35 -47.5t-12 -39.5t1 -27.5q2 -29 30 -42q32 -5 54 -24q23 -19 25 -51q0 -33 -23 -54q-25 -23 -59 -23q-35 0 -58 23q-37 32 -38 102.5t35 131.5l7 10q46 77 130 111l5 2l11 -16zM302 1450l4 2l12 -16l-6 -3q-41 -25 -68 -52.5t-35 -47.5
t-12 -39.5t1 -27.5q2 -29 30 -42q32 -5 54 -24q23 -19 25 -51q0 -33 -23 -54q-25 -23 -59 -23q-35 0 -58 23q-37 32 -38 102.5t35 131.5l7 10q47 78 131 111z" />
    <glyph glyph-name="quotedblright" unicode="&#x201d;" horiz-adv-x="770" 
d="M158 1400q25 22 58.5 22t58.5 -22q37 -32 38 -102.5t-35 -131.5l-6 -10q-47 -78 -131 -111l-5 -2l-11 16l6 3q41 25 68 52.5t35 47.5t12 39.5t-1 27.5q-2 30 -30 43q-33 5 -54 23q-24 20 -26 51q0 33 23 54zM602 1400q37 -32 38 -102.5t-35 -131.5l-7 -10
q-47 -79 -130 -111l-5 -2l-11 16l6 3q129 78 113 167q-2 30 -30 43q-32 5 -53 23q-24 20 -26 51q0 33 23 54q25 22 58.5 22t58.5 -22z" />
    <glyph glyph-name="Euro" unicode="&#x20ac;" horiz-adv-x="1423" 
d="M1258 1037l-33 -1v7q0 188 -94 281q-87 85 -240 82h-6q-21 0 -43 -3.5t-56.5 -17.5t-65 -37.5t-64.5 -68t-59.5 -103t-45 -149t-26.5 -201.5h474l-22 -38h-455q0 -6 -0.5 -18t-0.5 -18q-1 -15 -1 -46q0 -29 1 -42q0 -6 0.5 -16t0.5 -16h443l-24 -37h-418q6 -110 24 -200
t42.5 -150t56.5 -105t63 -70t66 -40t60 -19.5t50 -4.5h5q152 -4 240 82q95 92 95 281v6h33v-272l-29 -18q-118 -71 -174 -90.5t-172 -19.5q-227 0 -354.5 158t-146.5 462h-247l27 37h218q0 6 -0.5 16t-0.5 16q-1 14 -1 42q0 31 1 46q0 6 0.5 18t0.5 18h-244l26 38h220
q19 299 147.5 454.5t355.5 155.5q125 0 196 -23.5t174 -99.5l3 -2v-274z" />
    <glyph glyph-name="S.alt1" unicode="&#xf001;" horiz-adv-x="1847" 
d="M1732 689q100 -322 -51 -658q-152 -336 -437 -425q-110 -36 -228 -22q-112 14 -208 76q-3 2 -7 4t-7 4q-2 1 -6.5 4t-6.5 5l-9 6q-3 2 -7 6q-42 29 -91 71q-15 13 -61 52t-76 64l-4 4l-84 73v18l2 164l1 117h23q0 -31 5.5 -60.5t18.5 -57.5t25 -51t34 -49t36.5 -43
t42 -41.5t40.5 -36.5t42 -36t38 -31q64 -51 138 -94q97 -58 201 -74q94 -12 187 17q152 48 253 170q107 126 142 292q10 44 17 106q7 61 7 105q0 61 -9 121q-7 55 -24 109q-61 196 -232 259q-170 63 -426 -17q-54 -16 -101 -34q-71 -27 -116 -46l-104 -44l-106 -45l-1 -1h-1
q-25 -11 -71.5 -26t-141.5 -32.5t-172 -11.5q-28 2 -41 5q-1 0 -3.5 0.5t-3.5 0.5q-29 4 -54 18q-58 25 -83 83q-19 48 -24 100q-11 100 24 205.5t101 194t160 159t195 107.5t212 32.5t205 -58.5q38 -24 72 -63q1 -3 3 -8t3 -8l-3 -281l-22 1q0 79 -30 149.5t-79.5 120
t-118.5 75.5t-143 23t-156.5 -45t-155.5 -122q-66 -69 -110 -166.5t-48 -198.5t60 -173q12 -14 32 -22q92 -40 234 15l8 4q13 5 81 31l80 33l78 31l77 33q61 24 120 45q49 18 109 37q296 93 492 23q193 -68 264 -292z" />
    <glyph glyph-name="G.alt1" unicode="&#xf003;" horiz-adv-x="1978" 
d="M1835 662q101 -311 -51 -635q-129 -274 -352 -377q-78 -37 -161 -50q1 0 1 0.5t1 0.5q-75 -13 -154 -4q-34 4 -50 8q1 -1 4 -1h4q-2 0 -6.5 1t-6.5 2q1 0 2.5 -1t2.5 -1q-6 1 -18 4.5t-14 4.5l-4 1h-1q-65 20 -121 55q-35 23 -64 57q1 -1 2 -3l1 -2q-4 4 -6 7q0 1 -1 2
l-2 2q-86 108 -64 246q-131 6 -250 60.5t-208 149.5q-204 212 -204 524q0 341 207 548q102 103 237 157.5t279 50.5q305 0 498 -160l45 -335h-20q-59 223 -200 340q-138 120 -321 118q-272 0 -429 -209t-157 -512q-3 -176 63 -343q64 -158 198 -255q120 -88 267 -97h1
q26 111 101.5 191.5t178 95.5t214.5 -74v614q-91 -13 -163 -35q-29 -9 -101 -34q-49 -17 -116 -44l-104 -42l-106 -44l-49 -19v133l57 22l78 30l77 32q10 4 44.5 16t52.5 19t23 8q61 22 109 36q29 9 66 18q253 63 426 4q193 -65 264 -281zM1111 -401l18 -3zM1156 -406h33
h-33zM1209 -406q7 0 23 2q-16 -2 -23 -2zM1391 -295l2 1q-6 228 -78 365l-29 47q-46 64 -108 93t-121 21.5t-111.5 -35.5t-87.5 -77t-42 -105q-2 -25 -1 -37q9 -147 212 -249q178 -86 364 -24zM1798 252q5 45 7 101q0 59 -9 116q-8 56 -24 106q-62 189 -232 249
q-68 23 -135 26l12 -1124q1 -2 1 -5.5t1 -5.5q2 1 5 2t5 1q122 48 210 150q107 122 142 281q11 55 17 103z" />
    <glyph glyph-name="F.alt1" unicode="&#xf005;" horiz-adv-x="1544" 
d="M1466 0h43q-149 -308 -423 -394q-110 -36 -228 -22q-115 16 -208 76l-7 3.5t-7 4.5q-2 1 -6.5 4t-6.5 5l-9 6q-3 2 -7 6q-42 29 -91 71q-3 2 -138 118l-3 2l-63 55q-65 -87 -156 -155q-27 -21 -57 -39l-2 -1q-24 -15 -47 -25l-6 -3h-1q-41 -21 -85 -35q-125 -45 -247 6
q-54 25 -93 71t-55 104q-22 71 -13 143.5t48 135.5q79 140 231 185q39 13 88 11q47 -3 94 -18q56 -24 93 -48q56 -35 106 -76l27 -21q13 -11 26 -23l45 -44l2 -1q48 164 45 338v824q0 80 -54 107q-85 35 -183 40v20h2v1h1144v-457h-20q-12 218 -77 319t-223 101h-332
q-41 -8 -76 -24q-42 -22 -50 -69v-315l-4 -323h291q80 0 107 55q36 90 40 182h20v-515h-20q-12 134 -39 186t-109 52h-290v-143q5 -236 -103 -442l22 -20l12 -9l6 -7l27 -24q88 -82 153 -133q64 -51 138 -94q97 -58 201 -74q95 -12 187 17q152 48 253 170q55 64 88 135z
M143 -172q75 69 117 153q-11 9 -27 23.5t-22 19.5q-40 35 -63 52l-2 1q-2 1 -2 2q-3 3 -5 4q-3 2 -16 11q-1 1 -17 14q-26 20 -38 28q-4 3 -11 7.5t-12 8t-10 6.5q-66 45 -146 62q-69 12 -134 -9q-93 -31 -139 -118.5t-18 -181.5q16 -55 54.5 -97t91.5 -64q118 -49 240 -7
q13 4 39 14h2q1 0 9.5 4t13.5 6q49 23 95 61z" />
    <glyph glyph-name="E.alt1" unicode="&#xf006;" horiz-adv-x="1464" 
d="M1203 1827q272 -86 422 -395h-43q-34 74 -87 135q-101 122 -253 170q-92 29 -187 17q-104 -16 -201 -74q-74 -43 -138 -94q-72 -57 -153 -132l-27 -25l-7 -6l-11 -9l-22 -21q108 -206 103 -442v-143h290q82 0 109 52t39 186h20v-515h-20q-4 92 -40 182q-27 55 -108 55
h-290l4 -323v-315q8 -47 50 -69q36 -17 75 -24h332q159 0 224 101t77 320h20v-458h-1144v1h-2v20q98 5 183 40q54 27 54 108v824q3 170 -46 337l-1 -1l-46 -43q-20 -20 -25 -24t-14.5 -10.5t-12.5 -9.5q-50 -41 -106 -76q-49 -31 -93 -49q-46 -15 -95 -18q-45 -1 -87 12
q-74 22 -134 69.5t-97 114.5q-39 63 -48 135.5t13 143.5q16 58 55 104t93 71q122 51 247 6q44 -14 85 -35h1l6 -3q20 -9 46 -25l3 -1q36 -21 57 -38q89 -67 156 -156l63 56l2 1q31 26 77.5 65.5t61.5 52.5q53 45 90 71q2 2 8 6l9 6q2 1 6.5 4t6.5 5t7 4.5l7 3.5
q95 62 208 77q118 14 228 -22zM328 1408q6 5 22 19.5t27 23.5q-43 86 -117 154q-42 34 -96 60q-5 2 -12.5 5.5t-9.5 4.5l-2 1q-13 5 -39 13q-122 42 -241 -7q-53 -22 -91 -64t-54 -97q-28 -94 18 -181t139 -118q67 -22 134 -10q78 17 145 62q22 14 34 22q5 3 37 28
q3 3 9.5 8t8.5 6q2 2 7.5 6t8.5 6q2 1 4 3q0 1 2 2l2 1q29 21 64 52z" />
    <glyph glyph-name="A.alt1" unicode="&#xf007;" horiz-adv-x="1570" 
d="M1317 58q90 -30 197 -36v-21h-605v21q2 0 6.5 0.5t6.5 0.5q80 16 164 49q79 31 139 83q1 1 4 3q109 97 117 243q11 112 -40 213q-21 44 -62 72t-90 31q-65 5 -122 -21q-25 -9 -46 -23q-33 -19 -70 -47q-51 -39 -92 -84q-73 -79 -160 -175q-44 -49 -161 -175
q-66 -70 -143 -117q6 -10 16 -16q40 -25 165 -37v-21h-510v21q27 2 70 8q64 9 122 30q70 29 94 101l14 44l417 1257h10l233 -652q63 26 135 20q64 -6 117 -40.5t84 -90.5q73 -121 55 -307q-7 -168 -99 -315q13 -10 34 -19zM704 590q79 88 169 152l-162 446l-253 -748
l-30 -85h-1l-15 -46l-18 -53q59 52 118 119q120 136 192 215z" />
    <glyph glyph-name="B.alt1" unicode="&#xf00a;" horiz-adv-x="1824" 
d="M1680 665q100 -322 -51 -658q-152 -336 -437 -425q-111 -36 -229 -22q-114 15 -207 76l-15 9l-12 9q-1 1 -5 2.5t-5 2.5l-7 7q-51 37 -91 71q-68 59 -130 111l-85 73l-10 8q-77 67 -286 72h-53v21q96 5 184 39l1 1q54 27 54 107v1095q0 80 -53 107q-56 28 -186 40v20h736
q8 0 21 -0.5t50.5 -6.5t72 -16t77 -32t73 -52t51.5 -78.5t22 -108.5q3 -86 -41 -157q153 25 296 -22q194 -69 265 -293zM423 1395v-654q7 3 20 8t17 6l79 34l78 30l78 33q73 28 119 45q40 14 110 37q5 2 15.5 5t16.5 5q74 80 69 189v14.5t-5.5 36t-15 51t-32 54.5
t-53.5 51.5t-82.5 37.5t-115.5 17h-298zM1642 240q5 46 7 105q0 68 -8 121q-7 49 -25 109q-61 196 -232 259q-170 63 -426 -17q-36 -11 -100 -35q-71 -27 -116 -46l-105 -43l-105 -46l-106 -44l-1 -1h-2v-433q0 -80 55 -107q87 -35 184 -40v-21q-126 2 -120 -31q1 -7 8 -14
l1 -1q75 -70 154 -132q68 -54 138 -95q97 -58 200 -74q95 -12 187 17q152 48 253 170q106 126 142 293q12 59 17 106z" />
    <glyph glyph-name="E.alt2" unicode="&#xf00b;" horiz-adv-x="1337" 
d="M1220 406h23l-54 -311q-223 -98 -469 -98q-272 0 -434 108q-161 107 -161 315q2 149 107 251q106 112 304 147q-152 29 -276 124q-49 36 -76.5 90t-27.5 115q0 136 142 224q143 89 360 89q232 2 431 -110l49 -340h-20q-63 215 -175 314q-124 103 -283 97q-145 5 -266 -79
q-51 -35 -80 -89.5t-28 -115.5q-1 -63 27.5 -119.5t80.5 -93.5q109 -83 299 -83h58q80 0 107 55q36 90 40 182h20v-515h-20q-12 133 -39 186q-28 55 -108 55h-52q-199 0 -319 -118q-57 -54 -88 -126.5t-30 -151.5q0 -179 125 -276q137 -103 310 -100q204 0 332 86t191 288z
" />
    <glyph glyph-name="R.alt1" unicode="&#xf00c;" horiz-adv-x="1302" 
d="M2229 -8h47q-87 -150 -191.5 -243t-213.5 -124t-225.5 -13t-230.5 84.5t-227 175t-215.5 251.5t-194.5 321t-166 378h-189v-653q0 -80 55 -107q91 -36 184 -40v-21h-605v21q129 12 185 40q54 27 54 107v1095q0 80 -53 107q-55 28 -186 40v20h736q8 0 21 -0.5t50.5 -6.5
t72 -16t77 -32t73 -52t51.5 -78.5t22 -108.5q1 -64 -20 -116t-55 -84t-75.5 -55.5t-83.5 -34.5t-76.5 -17.5t-55.5 -7.5h-22h-55q258 -551 494 -809l20 -21q154 -161 321.5 -228.5t363.5 -42.5q26 5 50 14.5t43 18.5t39.5 24.5t34.5 26t32 30.5t27 30.5t25 33.5t22 31.5
t21.5 32.5t18.5 29zM423 1395v-536h308h16.5t41 4.5t58 13.5t61.5 29t58.5 48t41.5 74.5t18 104.5q0 5 -0.5 14.5t-5.5 36t-15 51t-32.5 54.5t-53.5 51.5t-82.5 37.5t-115.5 17h-298z" />
    <glyph glyph-name="L.alt1" unicode="&#xf00d;" horiz-adv-x="1378" 
d="M1642 0h43q-150 -308 -422 -394q-111 -36 -229 -22q-115 16 -208 76l-7 3.5t-7 4.5l-12 9q-2 1 -5.5 3t-4.5 3q-3 2 -7 6q-42 29 -91 71q-3 2 -138 118l-2 2l-64 55q-65 -87 -156 -155q-27 -21 -57 -39l-2 -1q-26 -16 -46 -25q-1 -1 -3.5 -2t-3.5 -1h-1q-41 -21 -85 -35
q-125 -45 -247 6q-54 25 -93 71t-55 104q-22 71 -13 143.5t48 135.5q79 140 231 185q39 13 88 11q47 -3 94 -18q51 -21 94 -48q56 -35 106 -76q18 -14 26 -21q13 -11 26 -23l46 -44l1 -1q48 164 45 338v824q0 80 -54 107q-85 35 -183 40v20h599v-20q-97 -5 -181 -40
q-54 -27 -54 -107v-783q5 -236 -103 -442l22 -20l12 -9l6 -7l27 -24q88 -82 153 -133q64 -51 138 -94q97 -58 201 -74q95 -12 187 17q152 48 253 170q55 64 88 135zM319 -172q75 69 117 153q-11 9 -27 23.5t-22 19.5q-40 35 -63 52l-2 1q-2 1 -2 2q-3 3 -5 4q-3 2 -16 11
q-1 1 -17 14q-26 20 -38 28q-4 3 -11 7.5t-12 8t-10 6.5q-66 45 -146 62q-69 12 -134 -9q-93 -31 -139 -118.5t-18 -181.5q16 -55 54.5 -97t91.5 -64q118 -49 240 -7q13 4 39 14h2q1 0 9.5 4t13.5 6q49 23 95 61z" />
    <glyph glyph-name="R.alt2" unicode="&#xf00f;" horiz-adv-x="1384" 
d="M2201 689q100 -322 -51 -658q-152 -337 -436 -425q-111 -36 -229 -22q-112 14 -208 76q-3 2 -7 4t-7 4q-2 1 -6.5 4t-6.5 5l-9 6q-3 2 -7 6q-42 29 -91 71q-15 13 -61.5 52t-75.5 64l-4 4l-84 73l1 18h-1l2 164v1l1 116h23q0 -31 5.5 -60.5t18.5 -58t24.5 -50.5t34 -49
t36 -43t42.5 -42t40.5 -36t42.5 -35.5t38 -31.5q64 -51 138 -94q97 -58 201 -74q94 -12 187 17q152 48 253 170q107 126 142 292q10 44 17 106q7 61 7 105q0 61 -9 121q-7 55 -24 109q-61 196 -232 259q-170 63 -426 -17q-49 -15 -100 -34q-80 -30 -117 -46l-104 -43
l-106 -46q-2 -2 -6 -3q-1 0 -3 -1t-3 -1h-2q-37 -14 -85 -28.5t-133 -28.5t-155 -9h-5h-5q-1 0 -3 0.5t-3 0.5h-1q-1 0 -3 0.5t-3 0.5h-1q-16 3 -31.5 8.5t-36 21.5t-35 38.5t-23.5 62t-7 89.5q0 15 11 26t26 11h185h16.5t41 4.5t58 13.5t61.5 29t58.5 48t41.5 74.5
t18 104.5q0 88 -55.5 157.5t-142.5 89.5q-23 7 -52 10q-45 5 -55 5h-261q-15 0 -26 -11t-11 -26v-1189q0 -80 55 -107q87 -35 184 -40v-21h-605v21q129 12 185 40q54 27 54 107v1095q0 80 -53 107q-55 28 -186 40v20h736q23 0 45 -3q27 -3 58 -9q36 -8 69 -20t69.5 -35
t63 -52t44 -74.5t18.5 -100.5q1 -64 -20 -116t-55 -84t-75.5 -55.5t-83.5 -34.5t-76.5 -17.5t-55.5 -7.5h-22h-189h-14q-19 0 -30 -14t-6 -33q13 -40 45.5 -61t77.5 -21t88.5 6.5t90.5 22.5t70.5 25.5t41.5 17.5l4 2q3 1 9 3.5t11 4.5l10 4l80 33l78 31l77 33q62 24 120 45
q49 18 109 37q296 93 492 23q193 -68 264 -292z" />
    <glyph glyph-name="E.alt3" unicode="&#xf010;" horiz-adv-x="1349" 
d="M1104 1294q-65 101 -223 101h-458v-1356h492q137 0 196 105q60 107 70 316h20v-458h-1144v20q93 4 183 40q56 27 56 107v1095q0 81 -56 108q-90 36 -183 40v20h1144v-458h-20q-12 219 -77 320zM681 809q81 0 108 52q27 53 39 186h20v-514h-20q-4 91 -40 181
q-27 56 -107 56v39z" />
    <glyph glyph-name="O.alt1" unicode="&#xf011;" 
d="M1310 1237q100 -110 152 -249t48 -287q0 -316 -199 -525q-98 -101 -227.5 -155.5t-270.5 -54.5t-270.5 54.5t-227.5 155.5q-200 211 -200 525q-4 149 48.5 288t152.5 248q95 105 225 162.5t272 57.5t272 -57.5t225 -162.5zM1217 191q152 188 152 510q0 333 -153 526
q-74 92 -180 142.5t-224 50.5t-224.5 -51t-180.5 -142q-153 -193 -153 -524q0 -322 153 -511q75 -90 181.5 -139.5t223.5 -49.5t223 49.5t182 138.5zM824 1053q2 -1 -0.5 -18.5t2.5 -47t10 -64.5t21.5 -70.5t38 -64t59 -47t85.5 -18.5v-23q-48 0 -85 -18t-59 -47t-37 -64
t-21 -70.5t-8.5 -64.5t-1.5 -47v-18h-26q-2 1 0 18t-2.5 47t-9.5 64.5t-21.5 69.5t-38.5 64t-59.5 47t-85.5 18v25q65 0 111 34t65.5 82t29 96.5t9.5 82.5l-1 34h25z" />
    <glyph glyph-name="D.alt1" unicode="&#xf013;" horiz-adv-x="1923" 
d="M1062 1433q146 5 268.5 -44t207 -135.5t143 -204.5t86 -250t27.5 -272q0 -88 -10 -167q-3 -28 -11 -71q-21 -145 -70.5 -262t-108.5 -190.5t-133.5 -127t-137 -78.5t-127.5 -39h-1q-90 -17 -181 -3l-1 1h-2q-4 1 -12.5 3t-15 3.5t-11.5 2.5q-63 18 -123 52.5t-98.5 66.5
t-106.5 91t-113 95q-26 -17 -75.5 -51t-78.5 -53.5t-76 -48t-79.5 -43.5t-77.5 -30t-82.5 -18t-81.5 2t-86 22q-79 35 -122.5 114.5t-40 172t50.5 167.5q74 118 174 164.5t207.5 20t212.5 -117.5v1066q-1 28 -7 48t-18.5 34t-23.5 22t-34.5 14t-39.5 8.5t-49 7t-53 7.5v21
h911zM326 -187q90 51 175 117q-132 118 -170 147q-63 56 -132 92.5t-142.5 51.5t-142 -16t-114.5 -111q-33 -67 -27.5 -134t47.5 -125.5t107 -84.5q159 -72 399 63zM910 -297q268 -152 464 -11q157 111 230 376q75 269 35 571q-43 324 -200 527q-175 228 -446 231
q-181 5 -491 -1v-1301q48 -43 124.5 -128.5t148 -156t135.5 -107.5z" />
    <glyph glyph-name="Y.alt1" unicode="&#xf014;" horiz-adv-x="1716" 
d="M1490 1371q-75 -29 -117 -99l-329 -609l197 -349q74 -134 122.5 -239t85.5 -219t46.5 -212.5t-6 -202.5t-61.5 -206q-90 -204 -316 -275q-211 -66 -466 1q-244 63 -413 219q-193 177 -204 401q-14 306 319 615l2 2q-247 293 -241 520q4 149 113 227q98 70 229 49
q145 -23 242 -145q46 -59 75 -134q9 -35 9.5 -70.5t-5.5 -67t-19 -64.5t-29.5 -61t-39 -58.5t-44.5 -56t-48.5 -55t-49 -53t-48.5 -52t-45 -51.5l-24 -27q-316 -301 -301 -581q10 -199 183 -344q154 -129 372 -167q228 -39 406 44q151 70 219 215q35 69 50.5 145.5
t14.5 145.5t-17.5 148t-37.5 142t-55.5 138t-61.5 125.5t-64 115.5l-279 504l-319 552q-47 65 -125 93q-93 30 -192 36v20h607v-20q-63 -7 -91 -13t-55 -23q-21 -13 -19 -39q6 -33 28 -60l311 -533v-1l22 -38l311 578q40 65 3 92q-37 26 -150 37v20h500v-20
q-103 -8 -195 -40zM471 333q216 248 197 426q-12 111 -111 163q-92 47 -198 19q-111 -29 -160 -126q-78 -152 46 -389q50 -95 131 -199q93 104 95 106z" />
    <glyph glyph-name="E.alt4" unicode="&#xf015;" horiz-adv-x="1349" 
d="M423 1023v-214h258q81 0 108 52q27 53 39 186h20v-514h-20q-4 91 -40 181q-27 56 -107 56v-1h-258v-730h492q137 0 196 105q60 107 70 316h20v-458h-1144v20q93 4 183 40q56 27 56 108v1094q0 81 -56 108q-90 36 -183 40v20h1144v-458h-20q-12 219 -77 320t-223 101h-458
v-372z" />
    <glyph glyph-name="o.alt1" unicode="&#xf016;" 
d="M1510 708q0 -316 -199 -525q-98 -101 -227.5 -156t-270.5 -55t-270.5 55t-227.5 156q-200 211 -200 525q-4 148 48 286.5t153 248.5q95 105 225 163t272 58t272 -58t225 -163q100 -110 152 -248.5t48 -286.5zM814 9q118 -4 224 46t179 142q152 188 152 511
q0 332 -153 526q-74 92 -180 142.5t-224 50.5t-224.5 -51t-180.5 -142q-153 -194 -153 -524q0 -323 153 -512q73 -93 180.5 -143t226.5 -46z" />
    <glyph glyph-name="s.alt1" unicode="&#xf017;" horiz-adv-x="1615" 
d="M1675 738q101 -323 -51 -659q-151 -335 -437 -424q-113 -36 -228 -23q-110 13 -208 77q-3 1 -8 4t-7 4l-12 9l-9 6q-6 4 -8 6q-37 26 -90 71q-15 13 -61.5 52t-75.5 64l-4 4l-84 73v18l1 164l2 117h22q0 -35 9 -69.5t19.5 -61t33.5 -58.5t38 -50.5t47 -48.5t45 -41.5
t48.5 -41t42.5 -35.5q64 -51 138 -94q97 -58 200 -74q97 -12 188 16q151 47 253 171q107 126 142 292q10 44 17 106q6 52 6 105q0 68 -8 121q-7 49 -25 109q-62 197 -231 259q-170 63 -426 -17q-41 -12 -101 -35q-92 -35 -116 -45l-104 -44l-106 -45l-1 -1h-1
q-25 -11 -71.5 -26t-142 -32.5t-172.5 -11.5q-28 2 -41 5q-1 0 -3 0.5t-3 0.5q-28 5 -54 18q-58 25 -83 83q-19 48 -24 100q-11 100 24 205.5t101 194t160 159t195 107.5t212 32.5t205 -58.5q38 -24 72 -63q1 -3 3 -8t3 -8l-3 -281l-23 1q0 79 -30 149.5t-79.5 120
t-118 75.5t-142.5 23t-156.5 -45t-155.5 -122q-66 -69 -110 -166.5t-48 -198.5t60 -173q12 -14 32 -22q92 -40 234 15l8 4q13 5 81 31l79 33l78 31l78 33q62 24 120 45q49 18 109 37q295 92 491 23q195 -69 265 -292z" />
    <glyph glyph-name="t.alt1" unicode="&#xf018;" horiz-adv-x="1253" 
d="M-383 1430h1556v-458h-20q-12 219 -77 320t-226 101h-220v-1225q0 -81 55 -108q91 -36 184 -40v-20h-605v20q93 4 183 40q56 27 56 108v1225h-565q-159 0 -224 -101t-77 -320h-20v458z" />
    <glyph glyph-name="e.alt1" unicode="&#xf019;" horiz-adv-x="1337" 
d="M1220 406h23l-54 -311q-223 -98 -469 -98q-272 0 -434 108q-161 107 -161 315q2 149 107 251q106 112 304 147q-152 29 -276 124q-49 36 -76.5 90t-27.5 115q0 136 142 224q143 89 360 89q232 2 431 -110l49 -340h-20q-63 215 -175 314q-124 103 -283 97q-145 5 -266 -79
q-51 -35 -80 -89.5t-28 -115.5q-1 -63 27.5 -120t80.5 -94q107 -82 299 -82h58q80 0 107 55q36 90 40 182h20v-515h-20q-12 133 -39 186q-28 55 -108 55h-52q-199 0 -319 -118q-57 -54 -88 -126.5t-30 -151.5q0 -179 125 -276q137 -103 310 -100q204 0 332 86t191 288z" />
    <glyph glyph-name="r.alt1" unicode="&#xf01a;" horiz-adv-x="1370" 
d="M2229 -8h47q-87 -150 -191.5 -243t-213.5 -124t-225.5 -13t-230.5 84.5t-227 175t-215.5 252t-194.5 321.5t-166 378h-189v-653q0 -81 55 -108q88 -34 184 -39v-21h-605v21q131 12 185 39t54 108v1095q0 80 -53 107q-55 28 -186 40v20h736q8 0 21 -0.5t50.5 -6.5t72 -16
t77 -32t73 -52t51.5 -78.5t22 -108.5q1 -64 -20 -116t-55 -84t-75.5 -55.5t-83.5 -34.5t-76.5 -17.5t-55.5 -6.5l-22 -1h-54q260 -553 493 -809l20 -22q153 -161 321 -228t364 -42q26 5 50 14.5t43 18t40.5 24.5t34 25.5t31.5 31t27 30t25.5 33.5t21.5 31t21.5 33t18.5 29z
M423 1395v-535h308h16.5t41 4.5t58 13.5t61.5 29t58.5 48t41.5 74.5t18 104.5q0 5 -0.5 14.5t-5.5 36t-15 50.5t-32.5 54t-53.5 51.5t-82.5 37.5t-115.5 17h-298z" />
    <glyph glyph-name="k.alt1" unicode="&#xf01b;" horiz-adv-x="1519" 
d="M2257 -8h46q-87 -150 -195 -241.5t-222 -119.5t-237.5 -4.5t-243 96.5t-237.5 191t-222 271t-194.5 345t-157.5 405l-171 -124v-641q0 -81 55 -109q87 -36 180 -41v-20h-599v20q128 12 183 40q52 27 52 110v1093q0 81 -51 108t-184 39v20h599v-20q-91 -4 -181 -40
q-54 -27 -54 -107v-399l118 87l40 29l410 301q98 72 92 96t-115 35v20h519v-20q-264 -24 -435 -135l-270 -202l-108 -82q108 -284 268.5 -557.5t295.5 -421.5l20 -22q153 -161 321 -228t364 -42q58 12 106 38.5t85.5 67t59 69.5t51.5 76q3 4 4.5 6.5t3.5 6t4 6.5z" />
    <glyph glyph-name="e.alt2" unicode="&#xf01c;" horiz-adv-x="1349" 
d="M1104 1289q-65 101 -223 101h-458v-1356h492q139 0 197 105t69 316h20v-458h-1144v20q93 4 183 40q56 27 56 108v1095q0 80 -56 107q-90 36 -183 40v20h1144v-458h-20q-12 219 -77 320zM681 804q81 0 108 53t39 185h20v-514h-20q-4 91 -40 181q-27 56 -107 56v39z" />
    <glyph glyph-name="e.alt3" unicode="&#xf01d;" horiz-adv-x="1458" 
d="M533 1021v-214h257q82 0 109 53t39 185h20v-514h-20q-4 91 -40 181q-27 56 -107 56v-1h-258v-730h492q137 0 196 105q60 107 70 316h20v-458h-1144v20q93 4 183 40q56 27 56 108v1095q3 33 -12 61.5t-44 45.5q-30 17 -139.5 25t-237 10.5t-150.5 4.5v20h1488v-458h-20
q-12 219 -77 320t-224 101h-457v-372z" />
    <glyph glyph-name="u.alt1" unicode="&#xf01e;" horiz-adv-x="1753" 
d="M1191 1431l521 1v-21q-131 -12 -185 -39t-54 -108v-770q0 -286 -136 -404q-137 -119 -371 -119q-3 0 -9.5 0.5t-10.5 0.5t-10 -0.5t-10 -0.5q-234 0 -371 119q-136 118 -136 404v770q0 88 -58 124q-24 15 -167 19t-269 1.5t-188 2.5v21h1048v-21q-96 -5 -184 -39
q-55 -27 -55 -108v-792q0 -284 155 -394q2 -1 5.5 -3.5t5.5 -3.5q1 -1 2.5 -2t2.5 -1q29 -16 66 -31q79 -27 163 -27q6 -1 17.5 -1.5t46 1t67.5 6.5t78 19t83 35t76.5 58.5t64 85.5t40.5 119t11 156v775q0 80 -55 107q-91 36 -184 40v20z" />
    <glyph glyph-name="p.alt1" unicode="&#xf01f;" horiz-adv-x="1333" 
d="M892 1427q8 0 21 -0.5t50.5 -6.5t72 -16t77 -32t73 -52t51.5 -78.5t22 -108.5q1 -64 -20 -116t-55 -84t-75.5 -55.5t-83.5 -34.5t-76.5 -17.5t-56.5 -7.5h-21h-349v-653q0 -81 55 -108q91 -36 184 -40v-20h-605v20q129 12 185 40q54 27 54 108v1095q6 69 -53 107
q-27 17 -154.5 25t-276 10.5t-173.5 4.5v20h1154zM1124 1129v14.5t-5.5 36t-15 50.5t-32 54t-53.5 51.5t-82.5 37.5t-115.5 17h-298v-535h308h16.5t40.5 4.5t57.5 13.5t61.5 29t58.5 48t41.5 74.5t18 104.5z" />
    <glyph glyph-name="r.alt2" unicode="&#xf020;" horiz-adv-x="1613" 
d="M1557 17h18v-19h-243q-79 3 -131 64q-68 88 -189 391q-62 158 -97 237t-72 131h-234v-653q0 -81 55 -108q91 -36 184 -40v-20h-605v20q129 12 185 40q54 27 54 108v1095q6 69 -53 107q-27 17 -154.5 25t-276 10.5t-173.5 4.5v20h1154q8 0 21 -0.5t50.5 -6.5t72 -16
t77 -32t73 -52t51.5 -78.5t22 -108.5q1 -75 -29 -133.5t-71 -90t-97 -53t-92.5 -28t-72.5 -9.5q84 -126 136 -267q59 -146 108 -243.5t88 -156.5t80 -89.5t76 -39.5t85 -9zM609 1393v-535h205h-1h98q29 0 43 2l1 -1q29 3 57 10t65.5 26t65.5 47t48 77.5t21 112.5
q0 5 -0.5 14.5t-5.5 36t-15 50.5t-32.5 54t-53.5 51.5t-82.5 37.5t-115.5 17h-298z" />
    <glyph glyph-name="c.alt1" unicode="&#xf021;" horiz-adv-x="1507" 
d="M1339 1302l44 -335h-20q-58 222 -200 340q-138 120 -321 118q-272 0 -429 -210q-157 -209 -157 -511q-3 -177 63 -344q63 -157 198 -254q144 -104 319 -99q172 -5 324 76l23 -32q-144 -81 -357 -81q-143 -3 -275 52.5t-230 159.5q-204 212 -204 524q0 341 207 548
q102 103 237 157.5t279 50.5q306 0 499 -160z" />
    <glyph glyph-name="i.alt1" unicode="&#xf022;" horiz-adv-x="905" 
d="M724 0h-599v20q129 12 184 40q53 27 53 108v1095q3 68 -53 107q-21 16 -117 24t-214 10.5t-141 4.5l-7 1v20h894v-20q-91 -4 -181 -40q-54 -27 -54 -107v-1095q0 -81 54 -108q90 -36 181 -40v-20z" />
    </font>
</defs>
</svg>
