<?xml version="1.0" standalone="no"?>
<!DOCTYPE svg PUBLIC "-//W3C//DTD SVG 1.1//EN" "http://www.w3.org/Graphics/SVG/1.1/DTD/svg11.dtd" >
<svg xmlns="http://www.w3.org/2000/svg" xmlns:xlink="http://www.w3.org/1999/xlink" version="1.1">
<metadata>
Created by FontForge 20170731 at Wed Sep 29 05:29:06 2021
 By Aleksey,,,
</metadata>
<defs>
<font id="StonedYouthRegular" horiz-adv-x="1665" >
  <font-face 
    font-family="Stoned Youth"
    font-weight="400"
    font-stretch="normal"
    units-per-em="2048"
    panose-1="0 0 0 0 0 0 0 0 0 0"
    ascent="1638"
    descent="-410"
    cap-height="1433"
    bbox="-328 -1425 2765.12 2855"
    underline-thickness="102"
    underline-position="-307"
    unicode-range="U+000A-F07B"
  />
<missing-glyph horiz-adv-x="1079" 
d="M102 1434h875v-1434h-875v1434zM160 1393l379 -633l381 633h-760zM514 717l-369 614v-1231zM541 674l-379 -631h758zM565 717l371 -621v1239z" />
    <glyph glyph-name=".notdef" horiz-adv-x="1079" 
d="M102 1434h875v-1434h-875v1434zM160 1393l379 -633l381 633h-760zM514 717l-369 614v-1231zM541 674l-379 -631h758zM565 717l371 -621v1239z" />
    <glyph glyph-name=".null" horiz-adv-x="0" 
 />
    <glyph glyph-name=".null" horiz-adv-x="0" 
 />
    <glyph glyph-name="nonmarkingreturn" horiz-adv-x="682" 
 />
    <glyph glyph-name="LF" unicode="&#xa;" horiz-adv-x="0" 
 />
    <glyph glyph-name="controlCR" unicode="&#xd;" horiz-adv-x="0" 
 />
    <glyph glyph-name="space" unicode=" " horiz-adv-x="743" 
 />
    <glyph glyph-name="exclam" unicode="!" horiz-adv-x="600" 
d="M406 15h-218v215h218v-215zM188 1437h222v-470l-50 -617h-118l-54 616v471z" />
    <glyph glyph-name="quotedbl" unicode="&#x22;" horiz-adv-x="856" 
d="M186 858l-32 579h199l-30 -579h-137zM499 1437h202l-32 -579h-138z" />
    <glyph glyph-name="numbersign" unicode="#" horiz-adv-x="1495" 
d="M1296 881h-235l-89 -313h234l-36 -127h-235l-122 -426h-164l121 426h-207l-121 -426h-168l121 426h-233l34 127h235l89 313h-232l36 127h232l122 429h168l-122 -429h209l122 429h165l-123 -429h235zM896 881h-208l-89 -313h208z" />
    <glyph glyph-name="dollar" unicode="$" horiz-adv-x="1386" 
d="M1064 695q140 -92 140 -273q0 -259 -178 -368q-98 -60 -276 -79v-187h-113v187q-294 21 -398 200q-59 98 -59 265v8h195l1 -7q8 -130 42 -188q59 -102 219 -117v506q-216 39 -321 132q-107 93 -107 261q0 149 114 267q112 116 314 121v128h113v-126q200 -15 306 -114
q110 -101 115 -267v-8h-193l-1 7q-8 72 -40 122q-59 90 -187 98v-452q229 -61 314 -116zM1006 375q0 115 -90 176q-46 32 -166 65v-485q161 11 222 115q34 57 34 129zM407 1046q0 -90 64 -142q62 -50 166 -71v432q-122 -6 -175 -73q-55 -70 -55 -146z" />
    <glyph glyph-name="percent" unicode="%" horiz-adv-x="2035" 
d="M883 1018q0 -141 -106 -241t-255 -100t-255 100q-105 99 -105 241t105 242q104 100 255 100t255 -100q106 -101 106 -242zM723 1018q0 78 -59 134t-142 56q-82 0 -141 -56t-59 -134q0 -77 59 -133t141 -56q83 0 142 56t59 133zM1768 598q106 -100 106 -241
q0 -142 -106 -242t-254 -100q-150 0 -256 100q-105 99 -105 242q0 142 105 241q106 100 256 100q148 0 254 -100zM1714 357q0 77 -59 133t-141 56q-83 0 -142 -56t-59 -133q0 -79 59 -135q58 -55 142 -55q83 0 141 55q59 56 59 135zM1362 1396h132l-818 -1417h-132z" />
    <glyph glyph-name="ampersand" unicode="&#x26;" horiz-adv-x="1583" 
d="M1168 324l268 -309h-256l-135 157q-79 -80 -147 -119q-123 -70 -280 -70q-234 0 -341 121t-107 271q0 162 104 272q62 65 226 160q-90 101 -121 167q-32 68 -32 138q0 140 99 231q100 92 265 92q157 0 246 -86t89 -204q0 -139 -91 -242q-49 -56 -169 -133l254 -289
q25 74 32 100q13 46 22 105l1 7h189l-1 -9q-16 -132 -69 -261q-32 -78 -46 -99zM540 1133q0 -56 33 -107q32 -49 107 -132q87 59 123 98q57 63 57 139q0 59 -41 102q-41 42 -110 42q-108 0 -148 -66q-21 -35 -21 -76zM435 544q-64 -68 -64 -170q0 -109 82 -166
q83 -58 179 -58q111 0 187 47q75 45 118 102l-325 378q-129 -82 -177 -133z" />
    <glyph glyph-name="quotesingle" unicode="'" horiz-adv-x="505" 
d="M152 1437h201l-34 -579h-133z" />
    <glyph glyph-name="quotesingle" unicode="&#x2018;" horiz-adv-x="505" 
d="M152 1437h201l-34 -579h-133z" />
    <glyph glyph-name="parenleft" unicode="(" horiz-adv-x="806" 
d="M670 -373l6 -12h-140l-3 4q-139 206 -183 279q-32 54 -77 164q-58 144 -80 304q-11 88 -11 160q0 285 95 508q62 146 249 422l3 4h144l-6 -12q-161 -296 -206 -428q-71 -208 -71 -482q0 -277 81 -505q46 -132 199 -406z" />
    <glyph glyph-name="parenright" unicode=")" horiz-adv-x="808" 
d="M604 775q21 -117 21 -227q0 -285 -95 -508q-59 -139 -249 -421l-2 -4h-145l7 12q158 293 206 431q70 203 70 480q0 276 -81 504q-48 136 -198 406l-7 12h141l2 -4q161 -243 189 -291q33 -55 72 -153q48 -120 69 -237z" />
    <glyph glyph-name="asterisk" unicode="*" horiz-adv-x="946" 
d="M801 1177l-217 -67l134 -178l-113 -77l-130 184l-132 -184l-117 77l137 178l-220 67l47 122l214 -74v212h134v-210l218 71z" />
    <glyph glyph-name="plus" unicode="+" horiz-adv-x="1370" 
d="M779 611h441v-177h-441v-419h-189v419h-440v177h440v420h189v-420z" />
    <glyph glyph-name="comma" unicode="," horiz-adv-x="483" 
d="M125 240h233v-202q0 -115 -50 -203q-50 -90 -173 -111l-10 -1v106l7 1q64 10 91 88q15 42 15 81v11q0 1 -0.5 2.5t-0.5 2.5h-112v225z" />
    <glyph glyph-name="hyphen" unicode="-" horiz-adv-x="761" 
d="M643 473h-524v192h524v-192z" />
    <glyph glyph-name="period" unicode="." horiz-adv-x="475" 
d="M351 15h-228v225h228v-225z" />
    <glyph glyph-name="slash" unicode="/" horiz-adv-x="946" 
d="M626 1437h171l-476 -1422h-171z" />
    <glyph glyph-name="zero" unicode="0" horiz-adv-x="1382" 
d="M1099 1220q98 -181 98 -494q0 -300 -88 -492q-129 -281 -424 -281q-267 0 -396 230q-107 191 -107 512q0 250 64 426q121 335 440 335q284 0 413 -236zM985 719q0 242 -61 402q-58 154 -228 154q-156 0 -228 -146q-73 -147 -73 -442q0 -219 47 -352q72 -200 241 -200
q138 0 219 122q83 124 83 462z" />
    <glyph glyph-name="one" unicode="1" horiz-adv-x="901" 
d="M544 1450h159v-1458h-211v1025h-340v155l7 1q196 20 272 63q74 43 112 207z" />
    <glyph glyph-name="two" unicode="2" horiz-adv-x="1370" 
d="M519 361q-95 -83 -122 -181h787v-188h-1010l1 9q11 189 78 328q69 142 265 256l194 112q130 76 181 128q81 83 81 186q0 123 -74 195q-73 72 -196 72q-182 0 -251 -137q-37 -73 -42 -207v-8h-201v8q3 191 71 312q121 215 424 215q252 0 370 -138q116 -137 116 -304
q0 -179 -124 -303q-70 -71 -256 -175l-138 -77q-97 -54 -154 -103z" />
    <glyph glyph-name="three" unicode="3" horiz-adv-x="1384" 
d="M1138 652q66 -91 66 -223q0 -211 -139 -344q-138 -132 -393 -132q-261 0 -378 144q-118 144 -118 348v8h206l1 -7q12 -140 51 -201q68 -110 249 -110q140 0 224 75q85 74 85 191q0 145 -88 203t-250 58q-6 0 -18 -0.5t-18 -0.5q-25 0 -38 -1l-9 -1v179l9 -1q14 -1 47 -4
q13 -1 41 -1q100 0 164 32q111 56 111 194q0 104 -74 160q-73 57 -173 57q-178 0 -245 -117q-37 -64 -42 -186v-8h-196v8q0 167 65 279q113 207 399 207q223 0 347 -101q125 -102 125 -292q0 -135 -74 -221q-39 -45 -98 -74q100 -34 161 -118z" />
    <glyph glyph-name="four" unicode="4" horiz-adv-x="1368" 
d="M993 521h213v-175h-213v-354h-199v354h-634v189l667 925h166v-939zM352 521h439v623z" />
    <glyph glyph-name="five" unicode="5" horiz-adv-x="1368" 
d="M1049 814q141 -130 141 -332q0 -208 -129 -367t-411 -159q-179 0 -318 101q-138 102 -155 312l-1 9h205l1 -8q18 -152 140 -209q61 -29 146 -29q157 0 233 100q76 102 76 223q0 149 -90 228q-90 81 -216 81q-92 0 -157 -35q-66 -37 -112 -99l-3 -4l-171 10l113 795h767
v-192h-617l-57 -375q40 29 81 46q81 34 190 34q205 0 344 -130z" />
    <glyph glyph-name="six" unicode="6" horiz-adv-x="1374" 
d="M1053 817q138 -118 138 -353q0 -200 -130 -354q-131 -155 -372 -155q-207 0 -357 156q-150 158 -150 525q0 271 66 460q129 366 470 366q247 0 345 -129q97 -129 97 -265v-8h-195l-2 7q-17 87 -50 131q-63 87 -192 87q-148 0 -235 -137q-84 -131 -98 -372q61 77 145 118
q90 41 197 41q185 0 323 -118zM982 449q0 109 -62 207q-62 97 -224 97q-113 0 -200 -76q-86 -75 -86 -228q0 -135 78 -225q79 -91 217 -91q139 0 208 93q69 94 69 223z" />
    <glyph glyph-name="seven" unicode="7" horiz-adv-x="1318" 
d="M147 1431h1023v-170l-2 -3q-72 -70 -184 -234q-116 -170 -204 -360t-133 -344q-31 -108 -76 -321l-1 -7h-218l2 10q69 416 304 827q129 225 280 403h-791v199z" />
    <glyph glyph-name="eight" unicode="8" horiz-adv-x="1372" 
d="M1092 684q99 -103 99 -268q0 -194 -131 -330q-130 -135 -368 -135q-215 0 -363 116q-149 117 -149 340q0 130 64 226q59 89 172 139q-64 30 -103 69q-82 82 -82 216q0 165 119 284t338 119q211 0 332 -112t121 -262q0 -139 -71 -225q-38 -46 -108 -87q80 -39 130 -90z
M495 1212q-57 -66 -57 -153q0 -99 73 -154q74 -56 173 -56q117 0 182 65t65 155q0 78 -62 143t-191 65q-127 0 -183 -65zM476 602q-80 -72 -80 -199q0 -111 73 -190q72 -80 227 -80q123 0 204 66q80 66 80 197q0 137 -82 207q-83 71 -215 71q-127 0 -207 -72z" />
    <glyph glyph-name="nine" unicode="9" horiz-adv-x="1359" 
d="M1110 1168q67 -156 67 -395q0 -267 -80 -474q-134 -346 -457 -346q-215 0 -328 113t-113 285v8h201v-8q7 -145 112 -201q55 -29 121 -29q127 0 216 106q85 100 124 402q-59 -77 -134 -109q-92 -40 -196 -40q-213 0 -337 133t-124 341q0 199 122 351q123 153 361 153
q323 0 445 -290zM946 968q0 156 -78 231q-79 76 -198 76q-131 0 -206 -86q-76 -86 -76 -233q0 -137 67 -219q67 -81 213 -81q104 0 192 70q86 69 86 242z" />
    <glyph glyph-name="colon" unicode=":" horiz-adv-x="524" 
d="M375 15h-228v225h228v-225zM375 818h-228v224h228v-224z" />
    <glyph glyph-name="semicolon" unicode=";" horiz-adv-x="530" 
d="M258 15h-111v225h232v-202q0 -102 -32 -174q-54 -117 -190 -140l-10 -1v106l7 1q67 12 92 84q14 40 14 86q0 2 -0.5 4t-0.5 3l-1 3v5zM379 818h-232v224h232v-224z" />
    <glyph glyph-name="less" unicode="&#x3c;" horiz-adv-x="1497" 
d="M1332 863l-5 -2l-932 -337l937 -341v-190l-1180 445v171l1180 444v-190z" />
    <glyph glyph-name="equal" unicode="=" horiz-adv-x="1345" 
d="M1208 228h-1071v179h1071v-179zM1208 641h-1071v177h1071v-177z" />
    <glyph glyph-name="greater" unicode="&#x3e;" horiz-adv-x="1497" 
d="M164 1053l1180 -444v-173l-1180 -443v190l936 341l-936 339v190z" />
    <glyph glyph-name="question" unicode="?" horiz-adv-x="1245" 
d="M716 15h-218v215h218v-215zM958 1345q124 -110 124 -281q0 -103 -46 -169q-48 -67 -181 -187q-98 -88 -127 -148q-29 -61 -29 -179v-8h-197v8q0 138 35 223q34 85 155 195l82 76q37 33 59 66q41 61 41 125q0 93 -58 158q-57 66 -194 66q-167 0 -231 -115
q-36 -65 -41 -187v-7h-196v8q0 209 127 338q126 128 348 128q205 0 329 -110z" />
    <glyph glyph-name="at" unicode="@" horiz-adv-x="2009" 
d="M1614 285l7 5l76 -99l-6 -5q-93 -78 -274 -145q-180 -67 -401 -67q-428 0 -657 252q-185 202 -185 468q0 316 225 536q248 245 668 245q364 0 571 -174q196 -166 196 -428q0 -221 -140 -378t-315 -157q-106 0 -154 47q-50 48 -50 116q-48 -80 -115 -117q-83 -46 -173 -46
q-128 0 -208 88t-80 224q0 193 134 341t290 148q108 0 176 -58q53 -44 68 -105l42 132h166l-138 -430q-9 -30 -22 -78q-7 -27 -7 -51q0 -37 25 -56q25 -18 58 -18q110 0 200 111t90 293q0 217 -161 342t-435 125q-380 0 -581 -210q-172 -180 -172 -449q0 -235 164 -396
q192 -190 546 -190q166 0 310 50q143 50 262 134zM1168 979q-40 45 -109 45q-111 0 -192 -125q-83 -127 -83 -252q0 -93 41 -138q42 -46 103 -46q131 0 205 146q75 149 75 269q0 55 -40 101z" />
    <glyph glyph-name="A" unicode="A" horiz-adv-x="1669" 
d="M1006 1433l604 -1433h-234l-186 455h-713l-186 -455h-232l605 1433h342zM543 612h583l-291 737z" />
    <glyph glyph-name="A" unicode="a" horiz-adv-x="1669" 
d="M1006 1433l604 -1433h-234l-186 455h-713l-186 -455h-232l605 1433h342zM543 612h583l-291 737z" />
    <glyph glyph-name="B" unicode="B" horiz-adv-x="1509" 
d="M893 733q2 0 40 -5t65 -9.5t76 -17t84.5 -26.5t78 -39.5t69.5 -56t45.5 -75.5t18.5 -97q0 -205 -143 -306.5t-443 -101.5h-587v1434h553q584 0 586 -350q0 -57 -21.5 -105.5t-54 -82t-79 -60.5t-86.5 -42.5t-86.5 -27.5t-70 -16t-45.5 -7v-9zM415 1277v-464h335
q80 0 141 11t111.5 36t77 72t26.5 114t-26.5 113.5t-77 71.5t-111 35.5t-141.5 10.5h-335zM784 156q81 0 141.5 11t111 38t77 77.5t26.5 124.5q0 59 -18 103.5t-49 72t-77.5 44t-97 23t-114.5 6.5h-369v-500h369z" />
    <glyph glyph-name="B" unicode="b" horiz-adv-x="1509" 
d="M893 733q2 0 40 -5t65 -9.5t76 -17t84.5 -26.5t78 -39.5t69.5 -56t45.5 -75.5t18.5 -97q0 -205 -143 -306.5t-443 -101.5h-587v1434h553q584 0 586 -350q0 -57 -21.5 -105.5t-54 -82t-79 -60.5t-86.5 -42.5t-86.5 -27.5t-70 -16t-45.5 -7v-9zM415 1277v-464h335
q80 0 141 11t111.5 36t77 72t26.5 114t-26.5 113.5t-77 71.5t-111 35.5t-141.5 10.5h-335zM784 156q81 0 141.5 11t111 38t77 77.5t26.5 124.5q0 59 -18 103.5t-49 72t-77.5 44t-97 23t-114.5 6.5h-369v-500h369z" />
    <glyph glyph-name="C" unicode="C" horiz-adv-x="1683" 
d="M1345 530h235q-3 -18 -7.5 -39.5t-17 -61t-29.5 -77.5t-46.5 -85t-66 -86.5t-91 -79t-117.5 -66.5t-148.5 -44t-182.5 -17q-171 0 -311 55.5t-234.5 154t-146 235t-51.5 297.5q0 162 49 298.5t140.5 235t229.5 154t308 55.5q121 0 223.5 -29.5t170 -74t122 -107
t84 -116.5t50.5 -114h-244q-119 259 -406 259q-154 0 -268 -74.5t-171.5 -200.5t-57.5 -286q0 -118 36.5 -220.5t101.5 -178t162 -118.5t213 -43q98 0 178 27t128.5 66t85 93.5t53 98t26.5 89.5z" />
    <glyph glyph-name="C" unicode="c" horiz-adv-x="1683" 
d="M1345 530h235q-3 -18 -7.5 -39.5t-17 -61t-29.5 -77.5t-46.5 -85t-66 -86.5t-91 -79t-117.5 -66.5t-148.5 -44t-182.5 -17q-171 0 -311 55.5t-234.5 154t-146 235t-51.5 297.5q0 162 49 298.5t140.5 235t229.5 154t308 55.5q121 0 223.5 -29.5t170 -74t122 -107
t84 -116.5t50.5 -114h-244q-119 259 -406 259q-154 0 -268 -74.5t-171.5 -200.5t-57.5 -286q0 -118 36.5 -220.5t101.5 -178t162 -118.5t213 -43q98 0 178 27t128.5 66t85 93.5t53 98t26.5 89.5z" />
    <glyph glyph-name="D" unicode="D" horiz-adv-x="1624" 
d="M784 1433q328 0 519 -192t191 -525q0 -332 -191 -524t-519 -192h-587v1433h587zM683 156q279 0 430 143t151 417t-151 417.5t-430 143.5h-268v-1121h268z" />
    <glyph glyph-name="D" unicode="d" horiz-adv-x="1624" 
d="M784 1433q328 0 519 -192t191 -525q0 -332 -191 -524t-519 -192h-587v1433h587zM683 156q279 0 430 143t151 417t-151 417.5t-430 143.5h-268v-1121h268z" />
    <glyph glyph-name="E" unicode="E" horiz-adv-x="1325" 
d="M415 156h814v-156h-1032v1433h983v-156h-765v-480h629v-157h-629v-484z" />
    <glyph glyph-name="E" unicode="e" horiz-adv-x="1325" 
d="M415 156h814v-156h-1032v1433h983v-156h-765v-480h629v-157h-629v-484z" />
    <glyph glyph-name="F" unicode="F" horiz-adv-x="1257" 
d="M1180 1277h-765v-480h629v-157h-629v-640h-218v1433h983v-156z" />
    <glyph glyph-name="F" unicode="f" horiz-adv-x="1257" 
d="M1180 1277h-765v-480h629v-157h-629v-640h-218v1433h983v-156z" />
    <glyph glyph-name="G" unicode="G" horiz-adv-x="1689" 
d="M920 570v157h599v-728h-218v3v-2v156q-162 -182 -494 -182q-203 0 -357.5 96t-236.5 264t-82 382q0 162 49 298.5t140.5 235t229.5 154t308 55.5q103 0 193 -21t153.5 -54t117.5 -80t87.5 -91t60.5 -95t39.5 -85.5t21.5 -68.5h-243q-15 43 -35 82t-56.5 82.5t-81 75
t-111.5 52.5t-146 21q-154 0 -268 -74.5t-171.5 -200.5t-57.5 -286q0 -159 57 -285t167 -200.5t256 -74.5q86 0 157.5 22t117.5 54.5t82 78t54 84t30.5 81.5t15 61t3.5 31v2h-381z" />
    <glyph glyph-name="G" unicode="g" horiz-adv-x="1689" 
d="M920 570v157h599v-728h-218v3v-2v156q-162 -182 -494 -182q-203 0 -357.5 96t-236.5 264t-82 382q0 162 49 298.5t140.5 235t229.5 154t308 55.5q103 0 193 -21t153.5 -54t117.5 -80t87.5 -91t60.5 -95t39.5 -85.5t21.5 -68.5h-243q-15 43 -35 82t-56.5 82.5t-81 75
t-111.5 52.5t-146 21q-154 0 -268 -74.5t-171.5 -200.5t-57.5 -286q0 -159 57 -285t167 -200.5t256 -74.5q86 0 157.5 22t117.5 54.5t82 78t54 84t30.5 81.5t15 61t3.5 31v2h-381z" />
    <glyph glyph-name="H" unicode="H" horiz-adv-x="1630" 
d="M1215 1433h218v-1433h-218v640h-800v-640h-218v1433h218v-636h800v636z" />
    <glyph glyph-name="H" unicode="h" horiz-adv-x="1630" 
d="M1215 1433h218v-1433h-218v640h-800v-640h-218v1433h218v-636h800v636z" />
    <glyph glyph-name="I" unicode="I" horiz-adv-x="612" 
d="M415 0h-218v1433h218v-1433z" />
    <glyph glyph-name="I" unicode="i" horiz-adv-x="612" 
d="M415 0h-218v1433h218v-1433z" />
    <glyph glyph-name="J" unicode="J" horiz-adv-x="1292" 
d="M894 1433h218v-882q0 -289 -138 -433t-385 -144q-220 0 -355 115t-162 345h221q23 -128 97.5 -203t198.5 -75q151 0 228 108.5t77 286.5v882z" />
    <glyph glyph-name="J" unicode="j" horiz-adv-x="1292" 
d="M894 1433h218v-882q0 -289 -138 -433t-385 -144q-220 0 -355 115t-162 345h221q23 -128 97.5 -203t198.5 -75q151 0 228 108.5t77 286.5v882z" />
    <glyph glyph-name="K" unicode="K" horiz-adv-x="1515" 
d="M770 861l688 -861h-251l-579 725l-213 -209v-516h-218v1433h218v-679l674 679h269z" />
    <glyph glyph-name="K" unicode="k" horiz-adv-x="1515" 
d="M770 861l688 -861h-251l-579 725l-213 -209v-516h-218v1433h218v-679l674 679h269z" />
    <glyph glyph-name="L" unicode="L" horiz-adv-x="1218" 
d="M415 156h746v-156h-964v1433h218v-1277z" />
    <glyph glyph-name="L" unicode="l" horiz-adv-x="1218" 
d="M415 156h746v-156h-964v1433h218v-1277z" />
    <glyph glyph-name="M" unicode="M" horiz-adv-x="2142" 
d="M1610 1433h335v-1433h-218v1184l-514 -1184h-285l-513 1184v-1184h-218v1433h335l539 -1277z" />
    <glyph glyph-name="M" unicode="m" horiz-adv-x="2142" 
d="M1610 1433h335v-1433h-218v1184l-514 -1184h-285l-513 1184v-1184h-218v1433h335l539 -1277z" />
    <glyph glyph-name="N" unicode="N" horiz-adv-x="1654" 
d="M1239 1433h218v-1433h-269l-773 1184v-1184h-218v1433h268l774 -1184v1184z" />
    <glyph glyph-name="N" unicode="n" horiz-adv-x="1654" 
d="M1239 1433h218v-1433h-269l-773 1184v-1184h-218v1433h268l774 -1184v1184z" />
    <glyph glyph-name="O" unicode="O" horiz-adv-x="1777" 
d="M887 1459q171 0 314 -55.5t241 -154t152.5 -235.5t54.5 -298q0 -160 -54.5 -297t-152.5 -235.5t-241 -154t-314 -55.5t-313.5 55.5t-240.5 154t-152 235.5t-54 297q0 161 54 298t152 235.5t240.5 154t313.5 55.5zM887 156q155 0 277.5 74t188.5 201.5t66 284.5
q0 118 -39 221t-108 178t-168.5 118t-216.5 43q-116 0 -215.5 -43t-168 -118t-107.5 -178t-39 -221q0 -240 148.5 -400t381.5 -160z" />
    <glyph glyph-name="O" unicode="o" horiz-adv-x="1777" 
d="M887 1459q171 0 314 -55.5t241 -154t152.5 -235.5t54.5 -298q0 -160 -54.5 -297t-152.5 -235.5t-241 -154t-314 -55.5t-313.5 55.5t-240.5 154t-152 235.5t-54 297q0 161 54 298t152 235.5t240.5 154t313.5 55.5zM887 156q155 0 277.5 74t188.5 201.5t66 284.5
q0 118 -39 221t-108 178t-168.5 118t-216.5 43q-116 0 -215.5 -43t-168 -118t-107.5 -178t-39 -221q0 -240 148.5 -400t381.5 -160z" />
    <glyph glyph-name="P" unicode="P" horiz-adv-x="1411" 
d="M728 1433q586 0 586 -409q0 -412 -586 -412h-313v-612h-218v1433h531zM728 769q78 0 141 14t112 43.5t76 80t27 117.5q0 131 -97 192t-259 61h-313v-508h313z" />
    <glyph glyph-name="P" unicode="p" horiz-adv-x="1411" 
d="M728 1433q586 0 586 -409q0 -412 -586 -412h-313v-612h-218v1433h531zM728 769q78 0 141 14t112 43.5t76 80t27 117.5q0 131 -97 192t-259 61h-313v-508h313z" />
    <glyph glyph-name="Q" unicode="Q" horiz-adv-x="1777" 
d="M1649 716q0 -234 -112.5 -413.5t-311.5 -263.5l203 -250l-223 4l-153 196l-19 -4q-74 -11 -146 -11q-171 0 -313.5 55.5t-240.5 154t-152 235.5t-54 297q0 161 54 298t152 235.5t240.5 154t313.5 55.5t314 -55.5t241 -154t152.5 -235.5t54.5 -298zM1097 196
q149 61 235.5 200.5t86.5 319.5q0 158 -66 285.5t-188.5 201.5t-277.5 74t-276.5 -74t-187.5 -201.5t-66 -285.5q0 -157 66 -284.5t187.5 -201.5t276.5 -74q5 0 14 0.5t14 0.5l-145 178l1 1h212z" />
    <glyph glyph-name="Q" unicode="q" horiz-adv-x="1777" 
d="M1649 716q0 -234 -112.5 -413.5t-311.5 -263.5l203 -250l-223 4l-153 196l-19 -4q-74 -11 -146 -11q-171 0 -313.5 55.5t-240.5 154t-152 235.5t-54 297q0 161 54 298t152 235.5t240.5 154t313.5 55.5t314 -55.5t241 -154t152.5 -235.5t54.5 -298zM1097 196
q149 61 235.5 200.5t86.5 319.5q0 158 -66 285.5t-188.5 201.5t-277.5 74t-276.5 -74t-187.5 -201.5t-66 -285.5q0 -157 66 -284.5t187.5 -201.5t276.5 -74q5 0 14 0.5t14 0.5l-145 178l1 1h212z" />
    <glyph glyph-name="R" unicode="R" horiz-adv-x="1513" 
d="M1240 476q19 -119 41 -207t43 -135t36.5 -71.5t33 -41.5t20.5 -22h-249q-1 1 -16.5 19.5t-24 37.5t-25 63t-33 123.5t-34.5 192.5q-18 84 -58.5 130.5t-121 68.5t-219.5 22h-218v-656h-218v1433h553q302 0 444 -94.5t142 -292.5q0 -77 -42.5 -140t-112.5 -101t-152 -59
t-168 -22q-2 0 -2 -9.5t-2 -9.5q340 -47 383 -229zM415 813h335q80 0 141 11t111.5 36t77 72t26.5 114t-26.5 113.5t-77 71.5t-111 35.5t-141.5 10.5h-335v-464z" />
    <glyph glyph-name="R" unicode="r" horiz-adv-x="1513" 
d="M1240 476q19 -119 41 -207t43 -135t36.5 -71.5t33 -41.5t20.5 -22h-249q-1 1 -16.5 19.5t-24 37.5t-25 63t-33 123.5t-34.5 192.5q-18 84 -58.5 130.5t-121 68.5t-219.5 22h-218v-656h-218v1433h553q302 0 444 -94.5t142 -292.5q0 -77 -42.5 -140t-112.5 -101t-152 -59
t-168 -22q-2 0 -2 -9.5t-2 -9.5q340 -47 383 -229zM415 813h335q80 0 141 11t111.5 36t77 72t26.5 114t-26.5 113.5t-77 71.5t-111 35.5t-141.5 10.5h-335v-464z" />
    <glyph glyph-name="S" unicode="S" horiz-adv-x="1480" 
d="M970 797q382 -94 382 -414q0 -131 -74.5 -225t-199 -139t-285.5 -45q-122 0 -224.5 24t-173 65t-124 92t-84.5 109.5t-47 112t-19 105.5h227q5 -41 17.5 -79t44 -85t77 -81t124 -57.5t178.5 -23.5q154 0 245.5 62t91.5 154q0 51 -18 86.5t-60 61.5t-89.5 43t-128.5 38
l-317 81q-163 42 -247.5 138t-84.5 228q0 83 31.5 155.5t93 130.5t164.5 91.5t236 33.5q104 0 191.5 -19.5t145.5 -49.5t103.5 -71.5t70.5 -79.5t42 -80.5t22.5 -67t7.5 -46.5h-232q-7 32 -20.5 60.5t-41 61t-65.5 56t-98.5 39t-135.5 15.5q-131 0 -209.5 -57.5
t-78.5 -149.5q0 -77 57 -120.5t173 -71.5z" />
    <glyph glyph-name="S" unicode="s" horiz-adv-x="1480" 
d="M970 797q382 -94 382 -414q0 -131 -74.5 -225t-199 -139t-285.5 -45q-122 0 -224.5 24t-173 65t-124 92t-84.5 109.5t-47 112t-19 105.5h227q5 -41 17.5 -79t44 -85t77 -81t124 -57.5t178.5 -23.5q154 0 245.5 62t91.5 154q0 51 -18 86.5t-60 61.5t-89.5 43t-128.5 38
l-317 81q-163 42 -247.5 138t-84.5 228q0 83 31.5 155.5t93 130.5t164.5 91.5t236 33.5q104 0 191.5 -19.5t145.5 -49.5t103.5 -71.5t70.5 -79.5t42 -80.5t22.5 -67t7.5 -46.5h-232q-7 32 -20.5 60.5t-41 61t-65.5 56t-98.5 39t-135.5 15.5q-131 0 -209.5 -57.5
t-78.5 -149.5q0 -77 57 -120.5t173 -71.5z" />
    <glyph glyph-name="T" unicode="T" horiz-adv-x="1384" 
d="M53 1433h1276v-156h-531v-1277h-213v1277h-532v156z" />
    <glyph glyph-name="T" unicode="t" horiz-adv-x="1384" 
d="M53 1433h1276v-156h-531v-1277h-213v1277h-532v156z" />
    <glyph glyph-name="U" unicode="U" horiz-adv-x="1585" 
d="M1191 1433h218v-841q0 -618 -617 -618q-618 0 -618 618v841h218v-841q0 -110 18.5 -188.5t50.5 -126t84.5 -75t109.5 -37t137 -9.5t137 9.5t109.5 37t84 75t50 126t18.5 188.5v841z" />
    <glyph glyph-name="U" unicode="u" horiz-adv-x="1585" 
d="M1191 1433h218v-841q0 -618 -617 -618q-618 0 -618 618v841h218v-841q0 -110 18.5 -188.5t50.5 -126t84.5 -75t109.5 -37t137 -9.5t137 9.5t109.5 37t84 75t50 126t18.5 188.5v841z" />
    <glyph glyph-name="V" unicode="V" horiz-adv-x="1626" 
d="M1335 1434h233l-578 -1434h-354l-579 1434h234l522 -1348z" />
    <glyph glyph-name="V" unicode="v" horiz-adv-x="1626" 
d="M1335 1434h233l-578 -1434h-354l-579 1434h234l522 -1348z" />
    <glyph glyph-name="W" unicode="W" horiz-adv-x="2275" 
d="M1975 1434h230l-439 -1434h-305l-325 1185l-323 -1185h-304l-439 1434h230l361 -1277l345 1277h263l345 -1277z" />
    <glyph glyph-name="W" unicode="w" horiz-adv-x="2275" 
d="M1975 1434h230l-439 -1434h-305l-325 1185l-323 -1185h-304l-439 1434h230l361 -1277l345 1277h263l345 -1277z" />
    <glyph glyph-name="X" unicode="X" horiz-adv-x="1523" 
d="M1460 1434l-573 -716l573 -718h-252l-446 560l-447 -560h-252l573 718l-573 716h252l447 -559l446 559h252z" />
    <glyph glyph-name="X" unicode="x" horiz-adv-x="1523" 
d="M1460 1434l-573 -716l573 -718h-252l-446 560l-447 -560h-252l573 718l-573 716h252l447 -559l446 559h252z" />
    <glyph glyph-name="Y" unicode="Y" horiz-adv-x="1474" 
d="M1183 1434h252l-589 -782v-652h-218v652l-589 782h252l446 -603z" />
    <glyph glyph-name="Y" unicode="y" horiz-adv-x="1474" 
d="M1183 1434h252l-589 -782v-652h-218v652l-589 782h252l446 -603z" />
    <glyph glyph-name="Z" unicode="Z" horiz-adv-x="1378" 
d="M1278 1434v-175l-903 -1102h903v-157h-1180v176l903 1101h-903v157h1180z" />
    <glyph glyph-name="Z" unicode="z" horiz-adv-x="1378" 
d="M1278 1434v-175l-903 -1102h903v-157h-1180v176l903 1101h-903v157h1180z" />
    <glyph glyph-name="bracketleft" unicode="[" horiz-adv-x="759" 
d="M601 1290h-216v-1504h216v-157h-404v1817h404v-156z" />
    <glyph glyph-name="backslash" unicode="\" horiz-adv-x="1071" 
d="M318 1437l607 -1422h-176l-608 1422h177z" />
    <glyph glyph-name="bracketright" unicode="]" horiz-adv-x="759" 
d="M158 1446h404v-1817h-404v157h215v1504h-215v156z" />
    <glyph glyph-name="asciicircum" unicode="^" horiz-adv-x="1171" 
d="M667 1437l364 -842h-183l-263 620l-262 -620h-184l362 842h166z" />
    <glyph glyph-name="underscore" unicode="_" horiz-adv-x="1562" 
d="M1364 -230h-1167v113h1167v-113z" />
    <glyph glyph-name="grave" unicode="`" horiz-adv-x="632" 
d="M323 1468l194 -292h-157l-286 292h249z" />
    <glyph glyph-name="braceleft" unicode="{" horiz-adv-x="999" 
d="M567 693q-58 -121 -214 -153q154 -32 214 -157q38 -82 38 -220v-145q0 -143 76 -204q75 -60 168 -71l7 -1v-128l-9 1q-184 18 -302 102q-121 85 -121 278v197q0 102 -33 161q-60 106 -234 124l-7 1v124l7 1q173 19 234 121q33 57 33 164v156q0 182 84 289q84 108 339 129
h9v-125h-7q-158 -14 -214 -131q-30 -64 -30 -183v-107q0 -144 -38 -223z" />
    <glyph glyph-name="verticalbar" unicode="|" horiz-adv-x="583" 
d="M386 15h-189v1442h189v-1442z" />
    <glyph glyph-name="braceright" unicode="}" horiz-adv-x="999" 
d="M841 603l7 -1v-124l-7 -1q-173 -17 -235 -125q-34 -60 -34 -160v-197q0 -197 -121 -280q-120 -82 -300 -100l-10 -1v128l8 1q107 14 175 79q69 66 69 196v145q0 138 38 219q60 127 213 158q-154 32 -213 152q-38 79 -38 224v107q0 123 -31 188q-54 112 -213 126h-8v125h9
q265 -21 360 -157q62 -88 62 -261v-156q0 -104 34 -163q60 -104 235 -122z" />
    <glyph glyph-name="asciitilde" unicode="~" horiz-adv-x="1486" 
d="M1222 725h134l-2 -10q-26 -137 -101 -250q-77 -116 -232 -116q-48 0 -111 18q-46 13 -109 36l-206 75q-37 14 -78 21q-43 8 -66 8q-81 0 -127 -59q-29 -37 -57 -121l-1 -6h-135l2 10q16 79 38 136q21 57 72 129q43 49 94 73q75 35 182 19q61 -8 113 -28l225 -83
q56 -21 84 -29q54 -14 92 -14q69 0 119 53t68 131z" />
    <glyph glyph-name="nonbreakingspace" unicode="&#xa0;" horiz-adv-x="743" 
 />
    <glyph glyph-name="sterling" unicode="&#xa3;" horiz-adv-x="1406" 
d="M1150 227l92 -143l-6 -4q-59 -45 -102 -65q-74 -34 -160 -34q-65 0 -207 44q-143 44 -223 44q-72 0 -142 -25q-42 -16 -103 -51l-7 -4l-109 149l7 4q112 75 182 166q68 89 68 193q0 26 -13 70q-9 29 -25 65h-226v115h152q-9 15 -26 49q-34 65 -46 95q-8 23 -17 66
q-7 35 -7 80q0 153 131 273q132 121 373 121q230 0 347 -119q118 -120 121 -336v-8h-203v8q0 141 -70 214t-210 73q-137 0 -208 -68t-71 -165q0 -50 22 -100q22 -49 94 -183h335v-115h-284q7 -30 13 -59q4 -23 4 -54q0 -98 -62 -193q-49 -75 -138 -146q45 17 76 26
q71 20 135 20q77 0 195 -34q122 -34 155 -34q47 0 83 16q22 10 72 44z" />
    <glyph glyph-name="softhyphen" unicode="&#xad;" horiz-adv-x="0" 
 />
    <glyph glyph-name="Agrave" unicode="&#xc0;" 
d="M1002 1437l604 -1432h-233l-186 455h-712l-186 -455h-232l604 1432h341zM540 617h583l-291 736zM971 1558h-123l-242 261h201z" />
    <glyph glyph-name="Agrave" unicode="&#xe0;" 
d="M1002 1437l604 -1432h-233l-186 455h-712l-186 -455h-232l604 1432h341zM540 617h583l-291 736zM971 1558h-123l-242 261h201z" />
    <glyph glyph-name="Aacute" unicode="&#xc1;" 
d="M1002 1437l604 -1432h-233l-186 455h-712l-186 -455h-232l604 1432h341zM540 617h583l-291 736zM1043 1819l-241 -261h-124l164 261h201z" />
    <glyph glyph-name="Aacute" unicode="&#xe1;" 
d="M1002 1437l604 -1432h-233l-186 455h-712l-186 -455h-232l604 1432h341zM540 617h583l-291 736zM1043 1819l-241 -261h-124l164 261h201z" />
    <glyph glyph-name="Acircumflex" unicode="&#xc2;" 
d="M1002 1437l604 -1432h-233l-186 455h-712l-186 -455h-232l604 1432h341zM540 617h583l-291 736zM814 1731l-122 -173h-147l183 261h171l184 -261h-147z" />
    <glyph glyph-name="Acircumflex" unicode="&#xe2;" 
d="M1002 1437l604 -1432h-233l-186 455h-712l-186 -455h-232l604 1432h341zM540 617h583l-291 736zM814 1731l-122 -173h-147l183 261h171l184 -261h-147z" />
    <glyph glyph-name="Atilde" unicode="&#xc3;" 
d="M1002 1437l604 -1432h-233l-186 455h-712l-186 -455h-232l604 1432h341zM540 617h583l-291 736zM622 1638q-20 -21 -27 -63h-88q13 74 38 116q51 83 153 83q30 0 68 -9q36 -9 100 -36q31 -13 46 -17q21 -6 43 -6q51 0 72 31q11 15 16 52h94q-20 -116 -72 -158
q-53 -43 -118 -43q-22 0 -50 7q-34 8 -54 16l-48 17q-48 17 -69 23q-29 8 -52 8q-31 0 -52 -21z" />
    <glyph glyph-name="Atilde" unicode="&#xe3;" 
d="M1002 1437l604 -1432h-233l-186 455h-712l-186 -455h-232l604 1432h341zM540 617h583l-291 736zM622 1638q-20 -21 -27 -63h-88q13 74 38 116q51 83 153 83q30 0 68 -9q36 -9 100 -36q31 -13 46 -17q21 -6 43 -6q51 0 72 31q11 15 16 52h94q-20 -116 -72 -158
q-53 -43 -118 -43q-22 0 -50 7q-34 8 -54 16l-48 17q-48 17 -69 23q-29 8 -52 8q-31 0 -52 -21z" />
    <glyph glyph-name="Adieresis" unicode="&#xc4;" 
d="M1002 1437l604 -1432h-233l-186 455h-712l-186 -455h-232l604 1432h341zM540 617h583l-291 736zM750 1580h-169v187h169v-187zM1047 1580h-168v187h168v-187z" />
    <glyph glyph-name="Adieresis" unicode="&#xe4;" 
d="M1002 1437l604 -1432h-233l-186 455h-712l-186 -455h-232l604 1432h341zM540 617h583l-291 736zM750 1580h-169v187h169v-187zM1047 1580h-168v187h168v-187z" />
    <glyph glyph-name="Aring" unicode="&#xc5;" 
d="M1002 1437l604 -1432h-233l-186 455h-712l-186 -455h-232l604 1432h341zM540 617h583l-291 736zM824 1507q-77 0 -132 55t-55 133t55 133t132 55q78 0 133 -55q56 -56 56 -133t-56 -133q-55 -55 -133 -55zM745 1775q-34 -34 -34 -80t34 -80q33 -33 79 -33q47 0 80 33
q34 34 34 80t-34 80t-80 34q-45 0 -79 -34z" />
    <glyph glyph-name="Aring" unicode="&#xe5;" 
d="M1002 1437l604 -1432h-233l-186 455h-712l-186 -455h-232l604 1432h341zM540 617h583l-291 736zM824 1507q-77 0 -132 55t-55 133t55 133t132 55q78 0 133 -55q56 -56 56 -133t-56 -133q-55 -55 -133 -55zM745 1775q-34 -34 -34 -80t34 -80q33 -33 79 -33q47 0 80 33
q34 34 34 80t-34 80t-80 34q-45 0 -79 -34z" />
    <glyph glyph-name="AE" unicode="&#xc6;" horiz-adv-x="2103" 
d="M1195 645v-483h813v-157h-1031v642l-426 -1l-262 -641h-232l604 1432h1298v-157h-764v-479h629v-156h-629zM590 798l387 3v489l-192 2z" />
    <glyph glyph-name="AE" unicode="&#xe6;" horiz-adv-x="2103" 
d="M1195 645v-483h813v-157h-1031v642l-426 -1l-262 -641h-232l604 1432h1298v-157h-764v-479h629v-156h-629zM590 798l387 3v489l-192 2z" />
    <glyph glyph-name="Ccedilla" unicode="&#xc7;" horiz-adv-x="1681" 
d="M1023 -10q-51 -10 -115 -10l-60 -81q27 8 68 8q62 0 104 -37q41 -36 41 -104t-54 -118q-53 -49 -166 -49q-50 0 -99 13q-35 9 -77 25l31 73q42 -15 53 -18q36 -10 67 -10q35 0 58 10q47 20 47 69q0 29 -24 50t-64 21q-13 0 -35 -4q-15 -3 -38 -11l-31 37l92 126
q-44 0 -80 8q-284 40 -447 239t-163 493q0 217 84 383.5t250 263t392 96.5q121 0 223.5 -29.5t170 -74t122 -106.5t84 -116t50.5 -114h-244q-119 258 -406 258q-154 0 -267.5 -74.5t-171 -200.5t-57.5 -286q0 -158 61.5 -284t179.5 -200t272 -74q98 0 177.5 27t128 66t85 93
t52.5 97t26 90h235q-3 -23 -9 -49t-23.5 -76.5t-42 -96t-68.5 -100t-98.5 -96.5t-136 -77t-177.5 -50z" />
    <glyph glyph-name="Ccedilla" unicode="&#xe7;" horiz-adv-x="1681" 
d="M1023 -10q-51 -10 -115 -10l-60 -81q27 8 68 8q62 0 104 -37q41 -36 41 -104t-54 -118q-53 -49 -166 -49q-50 0 -99 13q-35 9 -77 25l31 73q42 -15 53 -18q36 -10 67 -10q35 0 58 10q47 20 47 69q0 29 -24 50t-64 21q-13 0 -35 -4q-15 -3 -38 -11l-31 37l92 126
q-44 0 -80 8q-284 40 -447 239t-163 493q0 217 84 383.5t250 263t392 96.5q121 0 223.5 -29.5t170 -74t122 -106.5t84 -116t50.5 -114h-244q-119 258 -406 258q-154 0 -267.5 -74.5t-171 -200.5t-57.5 -286q0 -158 61.5 -284t179.5 -200t272 -74q98 0 177.5 27t128 66t85 93
t52.5 97t26 90h235q-3 -23 -9 -49t-23.5 -76.5t-42 -96t-68.5 -100t-98.5 -96.5t-136 -77t-177.5 -50z" />
    <glyph glyph-name="Egrave" unicode="&#xc8;" horiz-adv-x="1320" 
d="M412 162h813v-157h-1030v1432h982v-157h-765v-479h629v-156h-629v-483zM809 1558h-123l-242 261h201z" />
    <glyph glyph-name="Egrave" unicode="&#xe8;" horiz-adv-x="1320" 
d="M412 162h813v-157h-1030v1432h982v-157h-765v-479h629v-156h-629v-483zM809 1558h-123l-242 261h201z" />
    <glyph glyph-name="Eacute" unicode="&#xc9;" horiz-adv-x="1320" 
d="M412 162h813v-157h-1030v1432h982v-157h-765v-479h629v-156h-629v-483zM847 1819l-240 -261h-125l165 261h200z" />
    <glyph glyph-name="Eacute" unicode="&#xe9;" horiz-adv-x="1320" 
d="M412 162h813v-157h-1030v1432h982v-157h-765v-479h629v-156h-629v-483zM847 1819l-240 -261h-125l165 261h200z" />
    <glyph glyph-name="Ecircumflex" unicode="&#xca;" horiz-adv-x="1320" 
d="M412 162h813v-157h-1030v1432h982v-157h-765v-479h629v-156h-629v-483zM664 1731l-121 -173h-147l183 261h171l184 -261h-148z" />
    <glyph glyph-name="Ecircumflex" unicode="&#xea;" horiz-adv-x="1320" 
d="M412 162h813v-157h-1030v1432h982v-157h-765v-479h629v-156h-629v-483zM664 1731l-121 -173h-147l183 261h171l184 -261h-148z" />
    <glyph glyph-name="Edieresis" unicode="&#xcb;" horiz-adv-x="1320" 
d="M412 162h813v-157h-1030v1432h982v-157h-765v-479h629v-156h-629v-483zM610 1580h-169v187h169v-187zM907 1580h-168v187h168v-187z" />
    <glyph glyph-name="Edieresis" unicode="&#xeb;" horiz-adv-x="1320" 
d="M412 162h813v-157h-1030v1432h982v-157h-765v-479h629v-156h-629v-483zM610 1580h-169v187h169v-187zM907 1580h-168v187h168v-187z" />
    <glyph glyph-name="Igrave" unicode="&#xcc;" horiz-adv-x="610" 
d="M414 5h-218v1432h218v-1432zM435 1557h-124l-241 261h201z" />
    <glyph glyph-name="Igrave" unicode="&#xec;" horiz-adv-x="610" 
d="M414 5h-218v1432h218v-1432zM435 1557h-124l-241 261h201z" />
    <glyph glyph-name="Iacute" unicode="&#xcd;" horiz-adv-x="610" 
d="M413 5h-218v1432h218v-1432zM506 1815l-240 -260h-125l165 260h200z" />
    <glyph glyph-name="Iacute" unicode="&#xed;" horiz-adv-x="610" 
d="M413 5h-218v1432h218v-1432zM506 1815l-240 -260h-125l165 260h200z" />
    <glyph glyph-name="Icircumflex" unicode="&#xce;" horiz-adv-x="610" 
d="M413 5h-218v1432h218v-1432zM393 1822l184 -260h-148l-122 173l-121 -173h-147l183 260h171z" />
    <glyph glyph-name="Icircumflex" unicode="&#xee;" horiz-adv-x="610" 
d="M413 5h-218v1432h218v-1432zM393 1822l184 -260h-148l-122 173l-121 -173h-147l183 260h171z" />
    <glyph glyph-name="Idieresis" unicode="&#xcf;" horiz-adv-x="610" 
d="M413 5h-218v1432h218v-1432zM242 1576h-168v188h168v-188zM540 1576h-169v188h169v-188z" />
    <glyph glyph-name="Idieresis" unicode="&#xef;" horiz-adv-x="610" 
d="M413 5h-218v1432h218v-1432zM242 1576h-168v188h168v-188zM540 1576h-169v188h169v-188z" />
    <glyph glyph-name="Ntilde" unicode="&#xd1;" horiz-adv-x="1648" 
d="M1235 1437h218v-1432h-268l-773 1183v-1183h-217v1432h268l772 -1183v1183zM576 1638q-20 -20 -28 -63h-88q12 71 39 116q51 83 152 83q31 0 68 -9q36 -9 100 -36q31 -13 46 -17q21 -6 43 -6q51 0 72 31q11 15 16 52h95q-20 -115 -73 -158t-117 -43q-23 0 -51 7
q-34 8 -54 16l-48 17q-48 17 -69 23q-29 8 -52 8q-30 0 -51 -21z" />
    <glyph glyph-name="Ntilde" unicode="&#xf1;" horiz-adv-x="1648" 
d="M1235 1437h218v-1432h-268l-773 1183v-1183h-217v1432h268l772 -1183v1183zM576 1638q-20 -20 -28 -63h-88q12 71 39 116q51 83 152 83q31 0 68 -9q36 -9 100 -36q31 -13 46 -17q21 -6 43 -6q51 0 72 31q11 15 16 52h95q-20 -115 -73 -158t-117 -43q-23 0 -51 7
q-34 8 -54 16l-48 17q-48 17 -69 23q-29 8 -52 8q-30 0 -51 -21z" />
    <glyph glyph-name="Ograve" unicode="&#xd2;" horiz-adv-x="1775" 
d="M886 1463q171 0 314 -55.5t240.5 -154t152 -236t54.5 -297.5t-54.5 -296.5t-152 -235t-240.5 -154t-314 -55.5t-313.5 55.5t-240 154t-151.5 235t-54 296.5q0 215 92.5 383t266 264t400.5 96zM886 162q117 0 216.5 43t168.5 117.5t108 177.5t39 220q0 118 -39 221
t-108 178t-168.5 118t-216.5 43q-154 0 -275.5 -73.5t-187.5 -201t-66 -285.5q0 -239 148 -398.5t381 -159.5zM1074 1594h-123l-242 261h201z" />
    <glyph glyph-name="Ograve" unicode="&#xf2;" horiz-adv-x="1775" 
d="M886 1463q171 0 314 -55.5t240.5 -154t152 -236t54.5 -297.5t-54.5 -296.5t-152 -235t-240.5 -154t-314 -55.5t-313.5 55.5t-240 154t-151.5 235t-54 296.5q0 215 92.5 383t266 264t400.5 96zM886 162q117 0 216.5 43t168.5 117.5t108 177.5t39 220q0 118 -39 221
t-108 178t-168.5 118t-216.5 43q-154 0 -275.5 -73.5t-187.5 -201t-66 -285.5q0 -239 148 -398.5t381 -159.5zM1074 1594h-123l-242 261h201z" />
    <glyph glyph-name="Oacute" unicode="&#xd3;" horiz-adv-x="1775" 
d="M886 1463q171 0 314 -55.5t240.5 -154t152 -236t54.5 -297.5t-54.5 -296.5t-152 -235t-240.5 -154t-314 -55.5t-313.5 55.5t-240 154t-151.5 235t-54 296.5q0 215 92.5 383t266 264t400.5 96zM886 162q117 0 216.5 43t168.5 117.5t108 177.5t39 220q0 118 -39 221
t-108 178t-168.5 118t-216.5 43q-154 0 -275.5 -73.5t-187.5 -201t-66 -285.5q0 -239 148 -398.5t381 -159.5zM1100 1855l-241 -261h-124l165 261h200z" />
    <glyph glyph-name="Oacute" unicode="&#xf3;" horiz-adv-x="1775" 
d="M886 1463q171 0 314 -55.5t240.5 -154t152 -236t54.5 -297.5t-54.5 -296.5t-152 -235t-240.5 -154t-314 -55.5t-313.5 55.5t-240 154t-151.5 235t-54 296.5q0 215 92.5 383t266 264t400.5 96zM886 162q117 0 216.5 43t168.5 117.5t108 177.5t39 220q0 118 -39 221
t-108 178t-168.5 118t-216.5 43q-154 0 -275.5 -73.5t-187.5 -201t-66 -285.5q0 -239 148 -398.5t381 -159.5zM1100 1855l-241 -261h-124l165 261h200z" />
    <glyph glyph-name="Ocircumflex" unicode="&#xd4;" horiz-adv-x="1775" 
d="M886 1463q171 0 314 -55.5t240.5 -154t152 -236t54.5 -297.5t-54.5 -296.5t-152 -235t-240.5 -154t-314 -55.5t-313.5 55.5t-240 154t-151.5 235t-54 296.5q0 215 92.5 383t266 264t400.5 96zM886 162q117 0 216.5 43t168.5 117.5t108 177.5t39 220q0 118 -39 221
t-108 178t-168.5 118t-216.5 43q-154 0 -275.5 -73.5t-187.5 -201t-66 -285.5q0 -239 148 -398.5t381 -159.5zM900 1767l-121 -173h-147l183 261h171l184 -261h-148z" />
    <glyph glyph-name="Ocircumflex" unicode="&#xf4;" horiz-adv-x="1775" 
d="M886 1463q171 0 314 -55.5t240.5 -154t152 -236t54.5 -297.5t-54.5 -296.5t-152 -235t-240.5 -154t-314 -55.5t-313.5 55.5t-240 154t-151.5 235t-54 296.5q0 215 92.5 383t266 264t400.5 96zM886 162q117 0 216.5 43t168.5 117.5t108 177.5t39 220q0 118 -39 221
t-108 178t-168.5 118t-216.5 43q-154 0 -275.5 -73.5t-187.5 -201t-66 -285.5q0 -239 148 -398.5t381 -159.5zM900 1767l-121 -173h-147l183 261h171l184 -261h-148z" />
    <glyph glyph-name="Otilde" unicode="&#xd5;" horiz-adv-x="1775" 
d="M886 1463q171 0 314 -55.5t240.5 -154t152 -236t54.5 -297.5t-54.5 -296.5t-152 -235t-240.5 -154t-314 -55.5t-313.5 55.5t-240 154t-151.5 235t-54 296.5q0 215 92.5 383t266 264t400.5 96zM886 162q117 0 216.5 43t168.5 117.5t108 177.5t39 220q0 118 -39 221
t-108 178t-168.5 118t-216.5 43q-154 0 -275.5 -73.5t-187.5 -201t-66 -285.5q0 -239 148 -398.5t381 -159.5zM690 1674q-19 -19 -27 -63h-89q12 73 39 117q51 82 152 82q31 0 68 -9q39 -9 101 -36q31 -13 46 -17q21 -6 42 -6q51 0 72 32q13 17 17 51h94q-20 -116 -72 -158
q-53 -43 -118 -43q-22 0 -50 7q-37 9 -55 16l-47 17q-48 17 -69 23q-29 8 -52 8q-31 0 -52 -21z" />
    <glyph glyph-name="Otilde" unicode="&#xf5;" horiz-adv-x="1775" 
d="M886 1463q171 0 314 -55.5t240.5 -154t152 -236t54.5 -297.5t-54.5 -296.5t-152 -235t-240.5 -154t-314 -55.5t-313.5 55.5t-240 154t-151.5 235t-54 296.5q0 215 92.5 383t266 264t400.5 96zM886 162q117 0 216.5 43t168.5 117.5t108 177.5t39 220q0 118 -39 221
t-108 178t-168.5 118t-216.5 43q-154 0 -275.5 -73.5t-187.5 -201t-66 -285.5q0 -239 148 -398.5t381 -159.5zM690 1674q-19 -19 -27 -63h-89q12 73 39 117q51 82 152 82q31 0 68 -9q39 -9 101 -36q31 -13 46 -17q21 -6 42 -6q51 0 72 32q13 17 17 51h94q-20 -116 -72 -158
q-53 -43 -118 -43q-22 0 -50 7q-37 9 -55 16l-47 17q-48 17 -69 23q-29 8 -52 8q-31 0 -52 -21z" />
    <glyph glyph-name="Odieresis" unicode="&#xd6;" horiz-adv-x="1775" 
d="M886 1463q171 0 314 -55.5t240.5 -154t152 -236t54.5 -297.5t-54.5 -296.5t-152 -235t-240.5 -154t-314 -55.5t-313.5 55.5t-240 154t-151.5 235t-54 296.5q0 215 92.5 383t266 264t400.5 96zM886 162q117 0 216.5 43t168.5 117.5t108 177.5t39 220q0 118 -39 221
t-108 178t-168.5 118t-216.5 43q-154 0 -275.5 -73.5t-187.5 -201t-66 -285.5q0 -239 148 -398.5t381 -159.5zM827 1616h-168v187h168v-187zM1124 1616h-168v187h168v-187z" />
    <glyph glyph-name="Odieresis" unicode="&#xf6;" horiz-adv-x="1775" 
d="M886 1463q171 0 314 -55.5t240.5 -154t152 -236t54.5 -297.5t-54.5 -296.5t-152 -235t-240.5 -154t-314 -55.5t-313.5 55.5t-240 154t-151.5 235t-54 296.5q0 215 92.5 383t266 264t400.5 96zM886 162q117 0 216.5 43t168.5 117.5t108 177.5t39 220q0 118 -39 221
t-108 178t-168.5 118t-216.5 43q-154 0 -275.5 -73.5t-187.5 -201t-66 -285.5q0 -239 148 -398.5t381 -159.5zM827 1616h-168v187h168v-187zM1124 1616h-168v187h168v-187z" />
    <glyph glyph-name="Oslash" unicode="&#xd8;" horiz-adv-x="1853" 
d="M1741 1373l-205 -183q151 -195 151 -470q0 -160 -54.5 -296.5t-152 -235t-240.5 -154t-314 -55.5q-323 0 -532 190l-206 -184l-75 84l204 183q-150 193 -150 468q0 215 92.5 383t266 264t400.5 96q326 0 533 -190l207 184zM396 720q0 -178 88 -319l816 729
q-148 150 -374 150q-116 0 -215.5 -43t-168 -118t-107.5 -178t-39 -221zM1457 720q0 181 -87 321l-816 -729q147 -150 372 -150q155 0 277 73.5t188 200.5t66 284z" />
    <glyph glyph-name="Oslash" unicode="&#xf8;" horiz-adv-x="1853" 
d="M1741 1373l-205 -183q151 -195 151 -470q0 -160 -54.5 -296.5t-152 -235t-240.5 -154t-314 -55.5q-323 0 -532 190l-206 -184l-75 84l204 183q-150 193 -150 468q0 215 92.5 383t266 264t400.5 96q326 0 533 -190l207 184zM396 720q0 -178 88 -319l816 729
q-148 150 -374 150q-116 0 -215.5 -43t-168 -118t-107.5 -178t-39 -221zM1457 720q0 181 -87 321l-816 -729q147 -150 372 -150q155 0 277 73.5t188 200.5t66 284z" />
    <glyph glyph-name="Ugrave" unicode="&#xd9;" horiz-adv-x="1587" 
d="M1192 1437h218v-840q0 -618 -617 -618t-617 618v840h218v-840q0 -110 18.5 -188t50.5 -126t84 -75t109 -36.5t137 -9.5t137 9.5t109 36.5t84 75t50.5 126t18.5 188v840zM973 1558h-124l-241 261h201z" />
    <glyph glyph-name="Ugrave" unicode="&#xf9;" horiz-adv-x="1587" 
d="M1192 1437h218v-840q0 -618 -617 -618t-617 618v840h218v-840q0 -110 18.5 -188t50.5 -126t84 -75t109 -36.5t137 -9.5t137 9.5t109 36.5t84 75t50.5 126t18.5 188v840zM973 1558h-124l-241 261h201z" />
    <glyph glyph-name="Uacute" unicode="&#xda;" horiz-adv-x="1587" 
d="M1192 1437h218v-840q0 -618 -617 -618t-617 618v840h218v-840q0 -110 18.5 -188t50.5 -126t84 -75t109 -36.5t137 -9.5t137 9.5t109 36.5t84 75t50.5 126t18.5 188v840zM984 1819l-241 -261h-124l165 261h200z" />
    <glyph glyph-name="Uacute" unicode="&#xfa;" horiz-adv-x="1587" 
d="M1192 1437h218v-840q0 -618 -617 -618t-617 618v840h218v-840q0 -110 18.5 -188t50.5 -126t84 -75t109 -36.5t137 -9.5t137 9.5t109 36.5t84 75t50.5 126t18.5 188v840zM984 1819l-241 -261h-124l165 261h200z" />
    <glyph glyph-name="Ucircumflex" unicode="&#xdb;" horiz-adv-x="1587" 
d="M1192 1437h218v-840q0 -618 -617 -618t-617 618v840h218v-840q0 -110 18.5 -188t50.5 -126t84 -75t109 -36.5t137 -9.5t137 9.5t109 36.5t84 75t50.5 126t18.5 188v840zM776 1731l-122 -173h-146l182 261h172l184 -261h-148z" />
    <glyph glyph-name="Ucircumflex" unicode="&#xfb;" horiz-adv-x="1587" 
d="M1192 1437h218v-840q0 -618 -617 -618t-617 618v840h218v-840q0 -110 18.5 -188t50.5 -126t84 -75t109 -36.5t137 -9.5t137 9.5t109 36.5t84 75t50.5 126t18.5 188v840zM776 1731l-122 -173h-146l182 261h172l184 -261h-148z" />
    <glyph glyph-name="Udieresis" unicode="&#xdc;" horiz-adv-x="1587" 
d="M1192 1437h218v-840q0 -618 -617 -618t-617 618v840h218v-840q0 -110 18.5 -188t50.5 -126t84 -75t109 -36.5t137 -9.5t137 9.5t109 36.5t84 75t50.5 126t18.5 188v840zM726 1580h-168v187h168v-187zM1023 1580h-168v187h168v-187z" />
    <glyph glyph-name="Udieresis" unicode="&#xfc;" horiz-adv-x="1587" 
d="M1192 1437h218v-840q0 -618 -617 -618t-617 618v840h218v-840q0 -110 18.5 -188t50.5 -126t84 -75t109 -36.5t137 -9.5t137 9.5t109 36.5t84 75t50.5 126t18.5 188v840zM726 1580h-168v187h168v-187zM1023 1580h-168v187h168v-187z" />
    <glyph glyph-name="Yacute" unicode="&#xdd;" horiz-adv-x="1468" 
d="M1180 1438h251l-588 -782v-650h-218v650l-588 782h251l446 -603zM896 1819l-240 -261h-125l165 261h200z" />
    <glyph glyph-name="Yacute" unicode="&#xfd;" horiz-adv-x="1468" 
d="M1180 1438h251l-588 -782v-650h-218v650l-588 782h251l446 -603zM896 1819l-240 -261h-125l165 261h200z" />
    <glyph glyph-name="Ydieresis" unicode="&#xff;" horiz-adv-x="1468" 
d="M1180 1438h251l-588 -782v-650h-218v650l-588 782h251l446 -603zM662 1580h-169v187h169v-187zM959 1580h-168v187h168v-187z" />
    <glyph glyph-name="Ydieresis" unicode="&#x178;" horiz-adv-x="1468" 
d="M1180 1438h251l-588 -782v-650h-218v650l-588 782h251l446 -603zM662 1580h-169v187h169v-187zM959 1580h-168v187h168v-187z" />
    <glyph glyph-name="Aogonek" unicode="&#x104;" horiz-adv-x="1669" 
d="M1585 -262q15 4 33 15v-118q-38 -15 -53 -19q-45 -12 -92 -12q-87 0 -133 50t-46 114q0 73 52 131q44 49 129 106h-100l-186 455h-712l-186 -455h-232l604 1432h341l604 -1432l-53 -43q-67 -55 -85 -83q-18 -29 -18 -63t24 -58t69 -24q27 0 40 4zM542 617h583l-291 736z
" />
    <glyph glyph-name="Aogonek" unicode="&#x105;" horiz-adv-x="1669" 
d="M1585 -262q15 4 33 15v-118q-38 -15 -53 -19q-45 -12 -92 -12q-87 0 -133 50t-46 114q0 73 52 131q44 49 129 106h-100l-186 455h-712l-186 -455h-232l604 1432h341l604 -1432l-53 -43q-67 -55 -85 -83q-18 -29 -18 -63t24 -58t69 -24q27 0 40 4zM542 617h583l-291 736z
" />
    <glyph glyph-name="Cacute" unicode="&#x106;" horiz-adv-x="1681" 
d="M1047 1863l-240 -261h-125l165 261h200zM1343 535h235q-4 -26 -10.5 -55.5t-28.5 -87t-52.5 -108.5t-86.5 -109t-125 -99.5t-173.5 -69t-227.5 -27.5q-171 0 -311 55.5t-234.5 154t-146 234.5t-51.5 297q0 217 84 383.5t250 263t392 96.5q121 0 223.5 -29.5t170 -74
t122 -106.5t84 -116t50.5 -114h-244q-119 258 -406 258q-154 0 -267.5 -74.5t-171 -200.5t-57.5 -286q0 -158 61.5 -284t179.5 -200t272 -74q98 0 177.5 27t128 66t85 93t52.5 97t26 90z" />
    <glyph glyph-name="Cacute" unicode="&#x107;" horiz-adv-x="1681" 
d="M1047 1863l-240 -261h-125l165 261h200zM1343 535h235q-4 -26 -10.5 -55.5t-28.5 -87t-52.5 -108.5t-86.5 -109t-125 -99.5t-173.5 -69t-227.5 -27.5q-171 0 -311 55.5t-234.5 154t-146 234.5t-51.5 297q0 217 84 383.5t250 263t392 96.5q121 0 223.5 -29.5t170 -74
t122 -106.5t84 -116t50.5 -114h-244q-119 258 -406 258q-154 0 -267.5 -74.5t-171 -200.5t-57.5 -286q0 -158 61.5 -284t179.5 -200t272 -74q98 0 177.5 27t128 66t85 93t52.5 97t26 90z" />
    <glyph glyph-name="Eogonek" unicode="&#x118;" horiz-adv-x="1325" 
d="M1205 -267q15 5 33 15v-118q-38 -15 -53 -19q-45 -12 -92 -12q-87 0 -133 50t-46 114q0 74 52 132q42 47 129 105h-898v1432h982v-156h-765v-480h629v-156h-629v-483h813v-157l-52 -43q-67 -55 -85 -83q-19 -30 -19 -63q0 -34 24 -58t70 -24q27 0 40 4z" />
    <glyph glyph-name="Eogonek" unicode="&#x119;" horiz-adv-x="1325" 
d="M1205 -267q15 5 33 15v-118q-38 -15 -53 -19q-45 -12 -92 -12q-87 0 -133 50t-46 114q0 74 52 132q42 47 129 105h-898v1432h982v-156h-765v-480h629v-156h-629v-483h813v-157l-52 -43q-67 -55 -85 -83q-19 -30 -19 -63q0 -34 24 -58t70 -24q27 0 40 4z" />
    <glyph glyph-name="Lslash" unicode="&#x141;" horiz-adv-x="1390" 
d="M590 159h747v-157h-965v517l-296 -185v182l296 185v735h218v-599l410 256l-8 -187l-402 -251v-496z" />
    <glyph glyph-name="Lslash" unicode="&#x142;" horiz-adv-x="1390" 
d="M590 159h747v-157h-965v517l-296 -185v182l296 185v735h218v-599l410 256l-8 -187l-402 -251v-496z" />
    <glyph glyph-name="Nacute" unicode="&#x143;" horiz-adv-x="1648" 
d="M1112 1766l-241 -260h-124l165 260h200zM1235 1437h218v-1432h-268l-773 1183v-1183h-217v1432h268l772 -1183v1183z" />
    <glyph glyph-name="Nacute" unicode="&#x144;" horiz-adv-x="1648" 
d="M1112 1766l-241 -260h-124l165 260h200zM1235 1437h218v-1432h-268l-773 1183v-1183h-217v1432h268l772 -1183v1183z" />
    <glyph glyph-name="OE" unicode="&#x152;" horiz-adv-x="2195" 
d="M1284 160h813v-156h-1028q-87 -18 -183 -18q-171 0 -313.5 55.5t-240 154t-151.5 235t-54 296.5q0 215 92.5 383t266 264t400.5 96q134 0 251 -34h912v-157h-765v-479h629v-157h-629v-483zM357 727q0 -239 148 -399t381 -160q96 0 180 29v1061q-84 29 -180 29
q-154 0 -275.5 -73.5t-187.5 -201t-66 -285.5z" />
    <glyph glyph-name="OE" unicode="&#x153;" horiz-adv-x="2195" 
d="M1284 160h813v-156h-1028q-87 -18 -183 -18q-171 0 -313.5 55.5t-240 154t-151.5 235t-54 296.5q0 215 92.5 383t266 264t400.5 96q134 0 251 -34h912v-157h-765v-479h629v-157h-629v-483zM357 727q0 -239 148 -399t381 -160q96 0 180 29v1061q-84 29 -180 29
q-154 0 -275.5 -73.5t-187.5 -201t-66 -285.5z" />
    <glyph glyph-name="Sacute" unicode="&#x15a;" horiz-adv-x="1480" 
d="M957 1834l-241 -261h-124l165 261h200zM970 800q382 -94 382 -413q0 -131 -74.5 -225t-199 -139.5t-285.5 -45.5q-122 0 -224.5 24t-173 65t-124 92t-84.5 109.5t-47 112t-19 105.5h227q5 -41 17.5 -79t44 -85t77 -80.5t124 -57t178.5 -23.5q154 0 245.5 62t91.5 154
q0 41 -13.5 72t-35 53t-62 41t-80.5 32t-105 30l-317 82q-164 42 -248 138t-84 227q0 83 31.5 155.5t93 130.5t164.5 91.5t236 33.5q104 0 191.5 -19.5t145.5 -49.5t103.5 -71.5t70.5 -79.5t42 -80.5t22.5 -67t7.5 -46.5h-232q-7 32 -20.5 60.5t-41 61t-65.5 56t-98.5 39
t-135.5 15.5q-131 0 -209.5 -57.5t-78.5 -149.5q0 -77 57 -120.5t173 -71.5z" />
    <glyph glyph-name="Sacute" unicode="&#x15b;" horiz-adv-x="1480" 
d="M957 1834l-241 -261h-124l165 261h200zM970 800q382 -94 382 -413q0 -131 -74.5 -225t-199 -139.5t-285.5 -45.5q-122 0 -224.5 24t-173 65t-124 92t-84.5 109.5t-47 112t-19 105.5h227q5 -41 17.5 -79t44 -85t77 -80.5t124 -57t178.5 -23.5q154 0 245.5 62t91.5 154
q0 41 -13.5 72t-35 53t-62 41t-80.5 32t-105 30l-317 82q-164 42 -248 138t-84 227q0 83 31.5 155.5t93 130.5t164.5 91.5t236 33.5q104 0 191.5 -19.5t145.5 -49.5t103.5 -71.5t70.5 -79.5t42 -80.5t22.5 -67t7.5 -46.5h-232q-7 32 -20.5 60.5t-41 61t-65.5 56t-98.5 39
t-135.5 15.5q-131 0 -209.5 -57.5t-78.5 -149.5q0 -77 57 -120.5t173 -71.5z" />
    <glyph glyph-name="Scaron" unicode="&#x160;" horiz-adv-x="1480" 
d="M844 1594h-171l-183 261h147l121 -173l122 173h148zM970 789q382 -94 382 -414q0 -131 -74.5 -225t-199 -139.5t-285.5 -45.5q-105 0 -196 18t-157 48.5t-120.5 72.5t-89.5 88t-59.5 96.5t-36 96t-13.5 89.5h227q5 -41 17.5 -79t44 -85t77 -81t124 -57.5t178.5 -23.5
q154 0 245.5 62t91.5 154q0 51 -18 86.5t-60 61.5t-89.5 43t-128.5 38l-317 81q-164 42 -248 138t-84 227q0 83 31.5 155.5t93 131t164.5 92t236 33.5q104 0 191.5 -19.5t145.5 -49.5t103.5 -71.5t70.5 -79.5t42 -80.5t22.5 -67t7.5 -46.5h-232q-7 32 -20.5 60.5t-41 61
t-65.5 55.5t-98.5 38.5t-135.5 15.5q-131 0 -209.5 -57t-78.5 -149q0 -77 57 -120.5t173 -71.5z" />
    <glyph glyph-name="Scaron" unicode="&#x161;" horiz-adv-x="1480" 
d="M844 1594h-171l-183 261h147l121 -173l122 173h148zM970 789q382 -94 382 -414q0 -131 -74.5 -225t-199 -139.5t-285.5 -45.5q-105 0 -196 18t-157 48.5t-120.5 72.5t-89.5 88t-59.5 96.5t-36 96t-13.5 89.5h227q5 -41 17.5 -79t44 -85t77 -81t124 -57.5t178.5 -23.5
q154 0 245.5 62t91.5 154q0 51 -18 86.5t-60 61.5t-89.5 43t-128.5 38l-317 81q-164 42 -248 138t-84 227q0 83 31.5 155.5t93 131t164.5 92t236 33.5q104 0 191.5 -19.5t145.5 -49.5t103.5 -71.5t70.5 -79.5t42 -80.5t22.5 -67t7.5 -46.5h-232q-7 32 -20.5 60.5t-41 61
t-65.5 55.5t-98.5 38.5t-135.5 15.5q-131 0 -209.5 -57t-78.5 -149q0 -77 57 -120.5t173 -71.5z" />
    <glyph glyph-name="Zacute" unicode="&#x179;" horiz-adv-x="1378" 
d="M915 1792l-241 -261h-124l165 261h200zM1278 1439v-176l-903 -1101h903v-157h-1180v175l903 1102h-903v157h1180z" />
    <glyph glyph-name="Zacute" unicode="&#x17a;" horiz-adv-x="1378" 
d="M915 1792l-241 -261h-124l165 261h200zM1278 1439v-176l-903 -1101h903v-157h-1180v175l903 1102h-903v157h1180z" />
    <glyph glyph-name="Zdot" unicode="&#x17b;" horiz-adv-x="1378" 
d="M772 1580h-168v187h168v-187zM1278 1439v-175l-903 -1102h903v-157h-1180v175l903 1102h-903v157h1180z" />
    <glyph glyph-name="Zdot" unicode="&#x17c;" horiz-adv-x="1378" 
d="M772 1580h-168v187h168v-187zM1278 1439v-175l-903 -1102h903v-157h-1180v175l903 1102h-903v157h1180z" />
    <glyph glyph-name="quoteright" unicode="&#x2019;" horiz-adv-x="530" 
d="M150 1437h232v-200q0 -126 -54 -213q-55 -88 -169 -102l-9 -1v106l7 1q52 7 79 55q28 49 28 113q0 2 -0.5 6.5t-0.5 5.5l-1 2v2h-112v225z" />
    <glyph glyph-name="quotedblleft" unicode="&#x201c;" horiz-adv-x="868" 
d="M209 1359q61 79 161 91l9 1v-105l-6 -2q-65 -12 -92 -90q-14 -42 -14 -79q0 -2 0.5 -4t0.5 -3t0.5 -3.5t0.5 -4.5h110v-224h-232v200q0 144 62 223zM713 1344q-52 -7 -79 -55t-27 -113v-11q0 -1 0.5 -2.5t0.5 -2.5h112v-224h-233v200q0 116 51 207q53 93 172 107l10 1
v-105z" />
    <glyph glyph-name="quotedblright" unicode="&#x201d;" horiz-adv-x="870" 
d="M260 1212h-110v225h231v-201q0 -115 -50 -206q-51 -91 -172 -108l-9 -1v106l6 1q71 12 95 99q12 48 9 85zM489 1437h233v-201q0 -113 -51 -207q-51 -93 -173 -107l-9 -1v106l7 1q71 12 93 99q12 50 11 85h-111v225z" />
    <glyph glyph-name="Euro" unicode="&#x20ac;" horiz-adv-x="1703" 
d="M1346 548h181l-1 -9q-22 -223 -148 -376q-151 -184 -407 -184q-220 0 -371 151q-140 141 -180 387h-258l47 151h196q-2 46 -2 73q0 21 2 63h-243l47 151h214q35 174 128 300q160 220 442 220q242 0 374 -143q132 -142 147 -325l1 -8h-181l-1 6q-27 133 -109 212
q-82 77 -229 77q-180 0 -291 -144q-59 -75 -86 -195h564l-47 -151h-540q-2 -30 -2 -96v-40h589l-47 -151h-525q24 -119 83 -206q99 -149 298 -149q183 0 278 158q50 83 76 221z" />
    <glyph glyph-name="O.alt1" unicode="&#xf000;" horiz-adv-x="1933" 
d="M1616 849q18 -4 40.5 -10.5t52 -17.5t52.5 -24.5t41.5 -30.5t19.5 -36t-13 -41q-7 -16 -45 -33t-67 -30.5t-22 -24.5q35 -21 48.5 -57t-0.5 -73q-4 -6 -1.5 -14.5t8.5 -16t5.5 -14t-12.5 -7.5q-14 2 -19.5 -4t-0.5 -15t16 -14q-28 -26 -63.5 -39t-80 -13.5t-73.5 2
t-78 9.5q66 -84 93 -199q27 -116 -17 -149q-54 -38 -188 72q-6 6 -23.5 10t-23.5 13q-7 8 -21 29t-26.5 34t-29.5 17q-2 -5 5.5 -13.5t11 -13t-8.5 -8.5q-14 6 -16.5 -1.5t-2 -21t-5.5 -18.5q-26 -105 -61.5 -166.5t-69.5 -70t-64 49t-45 178.5q-35 -123 -131 -190
q-17 -3 -28.5 13t-21 44.5t-13.5 35.5q-56 -55 -152 -97q0 1 -2 4t-2 5q-2 -2 -4 -5t-3 -4q-12 13 -19 31t-10.5 30.5t-3 37.5t1 33t4.5 38.5t4 33.5q-11 -8 -22 -14t-24.5 -11.5t-23 -9t-26 -7t-24 -5t-26.5 -4t-24.5 -3t-27 -3t-25.5 -2.5q-2 10 -2 13q-6 14 -7.5 31.5
t-1.5 28.5t6.5 35t8 29t11.5 32l3 9q-92 -10 -89 61q3 62 63 141q20 26 38 42q-130 3 -177 17q-54 17 -47 51l-9 6q23 71 87 120.5t138 70.5t150 20v2q-125 30 -228 112t-167 197q1 0 4 1t4 2q10 46 85 58t148.5 2.5t123.5 -24.5q-105 204 -55 322q0 1 -1 4t-0.5 5.5
t4.5 3.5q4 12 15.5 15.5t27 -2t33.5 -14.5t37 -21.5t35.5 -23.5t31 -21.5t21.5 -13.5q-1 15 -6 51.5t-6.5 57.5t0.5 51t11 52q1 -1 3.5 -2t3.5 -2q56 13 104.5 -9.5t91.5 -87.5t61 -99t53 -115q8 -18 12 -26q4 15 11.5 55.5t14.5 68.5t20 60t34.5 50.5t51.5 21.5
q7 -1 18 -12.5t20 -9.5q64 8 103.5 -43t39.5 -117q14 12 52 49.5t68 59.5t64 31q39 -27 33 -110q1 -4 -0.5 -17.5t0.5 -21.5t10 -10q13 0 21.5 -5.5t4.5 -17.5q-4 -11 -23 -13.5t-22 -8.5q-5 -12 -15 -34.5t-18 -41t-15 -35.5q9 3 36.5 13.5t44.5 16.5t44 12t45.5 6t37.5 -8
t31 -24q22 -4 24 -24q10 -2 37.5 -2.5t47 -6t27.5 -20.5q2 0 6 1t6 1q-4 -38 -27 -74.5t-43 -56t-65 -56.5t-57 -48zM1282 523q-15 13 -19 20.5t1.5 10t15 3.5t21.5 0h15.5t14.5 1t11 3q-5 2 -21.5 4t-22.5 9q2 1 6.5 2.5t5.5 2.5q-2 1 -11 4q-1 8 -15 11t-16 12q6 4 19 6.5
t16 3.5q-25 29 -47 21q0 1 -0.5 1t-0.5 1q2 1 6 2.5t6 2.5q-1 1 -1.5 4t-0.5 4q2 -2 4.5 -4t3.5 -3q5 3 3 10q1 4 5 8.5t5.5 7t-1.5 7.5q-5 20 -19 21q-9 11 12 14q31 5 33 9q-4 1 -18.5 3t-20.5 8q9 22 1 25t-27 -5q-20 1 6 17l7 4q-1 7 0 17t-2.5 16.5t-13.5 2.5
q-6 6 -15 1q11 14 14 23t-0.5 12t-9 6t-11 4.5t-6.5 7.5t4 15q-3 0 -7.5 -0.5t-6.5 -0.5q6 24 2 25q-1 0 -16 -13q-12 -9 -18 -7q-5 3 -22 -5q14 -17 -19 -20q-2 -1 -6 -1h-2q1 -2 3 -4.5t2 -3.5l-18 3q-3 -6 -4.5 -7.5t-4 -2.5t-5.5 1v6q-8 4 -12 7q3 2 6 6.5t6.5 6.5
t8.5 0q3 1 8.5 4t8.5 4q3 -4 6.5 -4.5t6 1t6.5 5.5t6 5q0 24 -11 40q0 3 -1 11q0 22 -5 23q-3 0 -9 -5q-3 -3 -1 -5q3 -7 -4.5 -13.5t-7.5 -11.5q1 1 4 2t4 2q-8 -14 -13 -17q2 12 -10 28q8 14 1 22q-2 4 -7 2v-4q-10 -4 -14 -6q-3 5 3 16.5t0 15.5q-2 2 -4.5 0.5t-2.5 -5.5
q-3 -9 -5.5 -15t-5 -8.5t-4.5 -3.5t-4 1t-4 4.5t-4 7t-4 8.5t-4.5 10t-4.5 10q-13 -3 -13.5 -10.5t4.5 -16.5l-1 -6q0 -6 -1.5 -8.5t-4.5 -1.5q0 7 -1.5 17t-6 19t-10.5 8q-2 -4 2.5 -16.5t-2.5 -13.5l-3 6q-6 2 -7 10t-3 10q2 6 -6 14q-1 -1 -5 -10.5t-9 -13.5q-2 1 -5 4
t-5 4q-3 -2 -6 -8.5t-8 -7.5q-1 2 -4 5.5t-5 5.5q-9 -2 -10.5 -7t2 -10.5t4.5 -12t-4 -11.5l-2.5 5t-1.5 4q-5 -1 -13.5 -6.5t-14 -4t-12.5 12.5q-7 24 -13 23q-8 0 0 -28h-10q0 -1 -0.5 -3.5t-0.5 -4.5q-3 3 -4.5 5t-5.5 6t-7 6t-6.5 3.5t-6 0t-3.5 -6.5q14 -27 -5 -53
q-3 2 -5.5 10.5t-6 13.5t-9.5 1q0 -1 -0.5 -3.5t-0.5 -3.5q-8 -1 -19 12q-5 -7 -1.5 -9.5t11 -7t8.5 -8.5q-1 -2 -4 -2q-6 2 -23 -10q-3 0 -8 -0.5t-8.5 -0.5t-7 -1t-3 -4t3.5 -9q-18 6 -17 -2q1 -3 19 -30q2 -2 3 -4q-3 -5 -9 -13q-2 0 -5 1.5t-5 2t-4.5 0.5t-4 -2t-1.5 -6
q1 -1 8.5 -7t10 -10.5t2.5 -11.5q-2 0 -5.5 0.5t-5.5 0.5t-4.5 -1.5t-3.5 -4.5q-20 -3 -40 -3v-7q8 -3 22 -3.5t20 -2.5l-7 -7q14 -8 27 0q1 -1 7 -3.5t8 -5.5q-12 -2 -32 2t-29 4q-4 -7 -10.5 -11t-16.5 -8l-15 -6l7 -3.5t7 -4t4.5 -4.5t3.5 -8t9 -5q11 3 15.5 -1.5
t3.5 -16.5q-4 -2 -6.5 -4t-2.5 -3.5t0.5 -3t3 -3.5t4.5 -3t5 -3t5 -3q-2 -2 -15 -6q-17 -6 -17 -9q-1 -2 6 -4q1 -1 2 -1q2 0 8 1.5t9 2t7.5 0t8.5 -3.5q-2 -5 1 -10q-3 -3 -8 -9t-8 -9q2 -1 7.5 -2.5t9.5 -2.5q-2 -1 -7 -2.5t-9 -3t-9 -3.5t-8 -4.5t-5 -5t-0.5 -6t5.5 -6.5
q-1 -4 2.5 -13t-1.5 -11q-6 -6 -24 -15.5t-24 -17.5q7 1 19 6.5t23.5 11.5t23 9.5t19.5 0t11 -16.5l9 6q-8 -7 -8.5 -21.5t-3.5 -20.5q-11 -4 -13 -12q6 -4 13 4t13 2q4 1 6.5 8.5t8.5 6.5q1 -4 -0.5 -6.5t-4 -5.5t-3.5 -5l15 -9q-6 -10 -9 -16q7 0 13 8q3 10 16 5.5
t19 -1.5q-3 -4 -7 -5.5t-9 -2.5t-7 -2q1 -2 1 -4q-11 0 -6 -8t10 0q20 22 18 -11q-1 -39 -15 -70q-1 -1 -1 -2q7 2 31.5 12.5t38.5 10.5q8 -5 18 9q12 -11 24 -8q13 -48 10 -67q-3 -6 5 -12q1 15 18 10q1 15 9.5 28t18.5 0q3 -12 0.5 -35t0.5 -34q1 2 10 17t12.5 19t11.5 13
t17.5 12t20.5 2q8 1 15.5 10t14.5 9q17 9 26 8t19 -18q-7 28 1.5 35.5t26.5 12.5t26 21q3 4 2 9.5t-0.5 11t4.5 6.5q9 -13 29 -15q4 9 9 24q9 24 15.5 27.5t39.5 -2.5q9 -1 14 -2q0 3 -2 10t2 10q2 2 -2 6zM1276 655zM760 -422q16 19 44 28t49.5 -2.5t19.5 -43.5
q-4 -36 -49 -45q-42 -8 -65 13q-20 19 1 50zM641 -236q24 21 38.5 3.5t-0.5 -41.5q-16 -23 -35 -4q-17 17 -7 36zM1271 653q0 3 1.5 4t2.5 -2q-1 -1 -2 -1t-2 -1zM1276 655h-1h1zM782 633q-1 -6 -2.5 -7t-4 1.5t-5.5 4t-6 -0.5l-6 3q-5 4 -9 2q-7 -2 -10 2q1 2 4.5 7t5 6.5
l5 5t6 4.5t6.5 2.5t8 0.5t9 -3l-9 -9l9 -6q10 8 17 9t10 -7.5t4 -13.5t3 -19q-5 -1 -7 -0.5t-6.5 3t-7.5 3.5q0 1 -1 3l-2 4h-4t-4.5 1t-2.5 4zM1105 578q-3 2 -6 5q-19 -12 -18 -24q-6 3 -12 -4.5t-11 -6.5q-1 2 -1.5 9.5t-6.5 9.5q2 2 8 10t8.5 8t11.5 -4q1 18 18 22
q16 5 16 -7q1 -7 -7 -18zM1109 659q-6 15 -7 17l10 5q0 6 -1 10q2 0 5.5 0.5t5.5 0.5q2 4 0 5t-5.5 3.5t-4.5 5.5q6 10 10 16q3 -1 8 -4t7 -4q0 -2 8 -19q-11 4 -15 -0.5t-6 -16.5q1 0 4 -1t5 -1q-2 -6 2 -14.5t4 -14.5q-5 1 -13.5 7t-16.5 5zM913 512q2 0 7.5 1.5t8 2
t8.5 -0.5q1 -4 3 -13t3 -13q-35 3 -49 -18q-11 4 -12.5 14t5.5 18q1 0 5 -0.5t7 -0.5q0 -1 -0.5 -2.5t-0.5 -2.5q2 5 14 3q0 2 0.5 5.5t0.5 6.5zM985 554q-1 0 -4 0.5t-4 0.5q-2 4 -1.5 5.5t3 4.5t3.5 5q6 -4 10 0v0v0q3 2 6.5 0.5t4.5 -2.5t3.5 -4t3.5 -4q0 -2 -2 -7t-2 -7
h-6q-4 -5 -14 -17q0 1 -1 1t-2 1q1 4 1 11.5t1 11.5zM1028 466q-4 -12 6 -17q-3 -4 -13.5 -2t-14.5 -4q2 -2 6 -4q0 -1 -0.5 -1t-0.5 -1q-6 1 -9.5 2.5t-5.5 4.5t-3 5.5t-2 8t-2 8.5q5 -1 12 -1q1 1 2.5 3.5t2.5 3.5q7 -3 11 -9q7 2 11 3zM824 857q-5 9 6 8q12 -1 18 -8
q15 -7 6 -21q-6 -11 -13 -2q-2 3 -3 8q-3 -6 -5 -12q-3 4 -8 9q2 14 -1 18zM1024 889q-8 1 -9.5 1.5t-3 2.5t-2.5 9q-4 -2 -9 -4q-1 6 3.5 10t3.5 9q9 9 14.5 10.5t7.5 -3t3 -11.5t0 -16q-1 0 -3.5 -1t-3.5 -2.5t-1 -4.5zM939 583q1 -4 -6 -14q1 -2 3.5 -4t4 -3t2.5 -3.5
t-1 -5.5q-2 -7 -7 -6q1 1 1 4t1 4q-11 0 -15.5 1.5t-5 3.5t-3 6t-8.5 7q11 21 34 10zM781 700q-1 4 -8.5 11t-5.5 13q3 8 15 12t15 -6q-2 -1 -5.5 -3t-4.5 -3l1 -1v-1q3 -1 10 -1q2 -6 1 -7t-6 0q1 -4 -1 -6t-5.5 -4t-5.5 -4zM793 714h-1h1zM791 715q-6 2 -9 2q2 0 4.5 -0.5
t4.5 -1.5zM1121 504l6 3q6 3 7 -2q-5 -2 -2.5 -12t0.5 -14v1l-1 2q-16 -7 -27 2q-8 7 1 17q1 -1 5 -2.5t5 -2.5q1 2 -0.5 6t-1.5 6.5t4 4.5q1 -2 2 -5t2 -4zM968 837l-12 -4q0 2 5 11.5t3 16.5q13 6 21 -1.5t5 -21.5q-6 2 -8 2t-3 -1t-3 -4.5t-5 -6.5q-1 6 -3 9zM921 790
q-5 -5 -13 -15q-3 2 -9 6.5t-9 7.5q1 5 1 10t1 6.5t4.5 3t12.5 3.5q2 -3 6 -11t6 -11zM1175 547q12 0 14 -4q0 -5 5 -12.5t5 -12.5q-2 0 -4.5 -1t-5 -1t-4.5 3q-1 1 -4 2.5t-3.5 2.5t0.5 5q-13 2 -15 7q4 12 7 18q1 -1 2.5 -3.5t2.5 -3.5zM859 701q9 -4 11 -5.5t0 -12.5
q-14 -1 -5 -19q-9 1 -16 8t-4 14q1 2 2 6.5t2 6t3.5 3.5t6.5 -1zM976 916q-2 4 -6.5 4.5t-8.5 -0.5t-6.5 1t-1.5 8h5q0 3 2 7.5t2.5 6.5t-1.5 7q-3 5 -2.5 7.5t7.5 8.5q-1 -4 -3 -10q7 -3 6 -10q-2 -13 7 -17t18 7q-1 -15 -18 -20zM1175 573q-1 -1 -3 -2.5t-3 -2.5
q-2 1 -5.5 4t-5.5 5q5 7 13 4l-12 12q4 2 6 1.5t5 -3t5 -3.5q-1 2 -1 5.5t-1 5.5q6 -1 7 -8q5 -3 10 -5q-1 -14 -2.5 -15.5t-12.5 2.5zM876 768q4 -2 2.5 -8.5t-0.5 -8.5q-6 4 -12.5 -2t-11.5 -4q0 3 -1 8.5t-2 8.5q12 24 25 6zM1025 811q1 0 4 1q6 2 8 -2q-8 -8 -8 -17
q-3 -1 -9 -4t-9 -4q2 6 -2.5 11t-4.5 7q2 1 5 5t5 5.5t5 1.5t6 -4zM1048 518q-3 0 -2 -8l2 -7q-5 1 -11 -3t-8 -4q0 14 -13 21q2 2 13 2q6 10 15 7q5 -2 4 -8zM1048 503zM1158 801q-12 -17 -21 -15q-1 4 2.5 10t1.5 12q6 -1 14 1t10.5 2.5t5.5 -4t-2 -17.5zM908 865q3 7 2 9
q-3 3 -7 -5q-3 -5 -2 -10q-3 0 -8 0.5t-7 0.5q0 4 4 5t5 2q0 3 -1 9.5t-1 10.5q14 7 24 -7q8 -11 -5 -14q-2 -1 -4 -1zM838 569q3 2 9.5 -2t11.5 -2v-10q-3 0 -9 -1.5l-10 -2.5q0 -1 1 -2.5t1 -2.5q-6 -1 -10 3.5t-4 12.5q1 1 5 2.5t5 4.5zM1099 777q0 -3 0.5 -6.5t0.5 -5.5
l-6 2t-6.5 2t-5.5 2q1 3 1.5 9t0.5 9q19 3 23 0q1 -2 2 -6.5t1 -7.5q-2 1 -6 1q-3 1 -5 1zM1211 765q23 -8 23 -16q0 -6 -19 -6v-1q7 -12 -9 -15q-15 -2 -16 3q-1 4 8 8q-3 8 2 11.5t8 -5.5v0q2 8 -5 12q0 6 8 9zM1201 693q2 -1 8.5 -2.5t9 -2.5t5 -5t1.5 -10q-19 -4 -28 5
q-5 6 4 15zM776 586zM795 594q2 7 7.5 12t11.5 1q-1 -5 -7 -8.5t-8 -6.5q-3 -6 -10.5 -8t-12.5 2q5 1 6 8t5 7q2 -1 2.5 -3t0 -5t-0.5 -5q6 0 6 6zM800 766q-13 -2 -16.5 6t10.5 14q1 -1 4 -2.5l5 -2.5zM1094 425q-3 17 13 19q5 -8 0.5 -15.5t-13.5 -3.5zM1118 890
q-5 3 -13 -3.5t-12 -6.5q-1 4 1 6q4 1 7.5 6t6.5 5q6 1 13 10q-1 -3 -2 -8.5t-1 -8.5zM1167 837q-13 -1 -14 5q-1 4 5 6q3 1 7 1q0 5 2.5 5.5t5.5 -1t4 -0.5q-2 -3 -5.5 -6.5t-5.5 -6.5v-1q1 -1 1 -2zM818 505q-1 5 3 13.5t5 11.5q2 0 6.5 -2t7.5 -2q-1 -2 -2.5 -6t-2.5 -6
q-1 1 -2 2.5t-2 2.5q-5 -1 -10 -15h-1zM924 893q-3 8 -0.5 9.5t9.5 0t10 -0.5q4 -7 -3 -16q-6 8 -9 11q-4 -2 -7 -4zM1026 492q7 -1 9.5 -0.5t6.5 5.5t6 6q-9 -22 -24 -22q0 2 -2 5t-2 4q5 3 6 2zM983 381q3 2 6.5 7t4.5 6q0 -8 -6 -16.5t-12 -1.5q0 2 2 6.5t3 6.5h1
q0 -1 0.5 -4t0.5 -4zM891 621q-1 -2 -1.5 -9.5t-2.5 -10.5q-6 2 -7.5 5.5t1 7.5t10.5 7zM930 474q4 1 7.5 -1.5t4.5 -2.5q-2 -8 -3 -13q-3 0 -7 -1q3 9 -2 18zM1017 605v1v-1zM1023 621q4 -2 4.5 -7t-0.5 -11t-1 -9q-1 2 -4 5.5t-5 5.5q4 10 6 16zM861 886q-5 1 -7 4t-3 8
t-2 8q8 -3 12 -20zM1161 741q0 -13 -5 -16q-12 2 -4 11q4 4 9 5zM1142 535q-1 -5 -0.5 -7t2.5 -6.5t3 -7.5q-4 2 -8.5 8t-5.5 7q1 1 3.5 4t5.5 2zM1168 824q-3 -7 -21 -7q15 12 21 7zM905 634q1 3 3.5 3.5t4.5 0t5 0.5q0 -2 -0.5 -6.5t-0.5 -7.5q-2 2 -6 5t-6 5zM806 889
q5 -17 4 -27q-6 4 -4 27zM1056 897q-7 20 4 22q-2 -8 -4 -22zM716 674q4 8 18 2q-5 -4 -18 -2zM1076 488q10 -4 10 -10q-2 0 -7.5 2t-8.5 3q1 1 3 2.5t3 2.5zM941 907l11 11q2 -8 -1 -11.5t-10 0.5zM1157 783q2 -5 -7 -12q-2 4 -2 6t2 3t7 3zM923 634q-4 12 11 13
q0 -4 -6 -6t-5 -7zM1198 660q1 7 2.5 7.5t12.5 -3.5q-3 -1 -8 -2.5t-7 -1.5zM755 707q-7 -3 -15 -1q2 4 4 4.5t11 -3.5zM1056 925q-4 1 -5 2t0 3.5t6 8.5q0 -3 -0.5 -7.5t-0.5 -6.5zM1188 626l2 8q6 -4 9 -7q-3 -3 -11 -1zM878 889q6 -5 -1 -15q-3 6 1 15zM764 855q8 2 9 2
t3 -1.5t-1 -7.5q-2 2 -5.5 3.5t-5.5 3.5zM976 706q0 -1 0.5 -2.5t0.5 -3.5h-4q-7 0 -6 7q1 0 4 -0.5t5 -0.5zM846 928q-3 -6 -5 -9l-8 8q3 1 7 1h6zM1030 954v1v-1zM1024 938q-1 5 -0.5 6.5t3 4.5t3.5 5q1 -9 -6 -16zM1024 969q8 -10 6 -14q-2 1 -4 5t-4 6q1 1 2 3z
M1022 966l-1 -1v1h1zM1030 955zM776 586zM762 574v1l-1 1q2 1 7 5t8 5q-4 -10 -14 -12zM1029 736q1 2 1.5 6.5t0.5 6.5q1 -1 3.5 -5t3.5 -7q-2 0 -5 -0.5t-4 -0.5zM1093 925q-1 -5 -2 -6t-8 -2q5 8 10 8zM788 758q0 -1 -1 -2t-3 -2t-3 -2l-3 6h10zM959 610q7 0 6.5 -4
t-5.5 -6h-1l-1 1q0 1 0.5 4t0.5 5zM940 944q5 -3 3 -10q-1 0 -3.5 -0.5t-4.5 -0.5q1 2 2.5 5.5t2.5 5.5zM1144 854q2 -6 1 -7.5t-8 -0.5q1 2 3 4.5t4 3.5zM1005 949q6 -2 7 -3t1 -3t-2 -6l-2 5q-2 4 -4 7zM1011 531q-3 5 2 6q3 0 6 -2q-4 -6 -8 -4zM763 719v-3
q-2 0 -6.5 0.5t-6.5 0.5v3q2 0 6.5 -0.5t6.5 -0.5zM890 898q1 0 4 -2t5 -3q-6 -3 -11 -6q0 2 1 5.5t1 5.5zM1189 621q5 -6 2 -11q-5 5 -2 11zM1124 584l-1 1q0 4 1 7q1 -1 3 -2l2 -2q-1 0 -2.5 -2t-2.5 -2zM1000 595q-1 -6 -1.5 -6.5t-7.5 1.5q6 3 9 5zM992 740q-2 -3 -3 -4
t-2.5 0t-4.5 5q2 0 5.5 -0.5t4.5 -0.5zM740 608q0 -9 -9 -6zM1076 920l-6 -12q-2 7 4 13l1 -1h1zM736 749q-6 -4 -11 2q2 -1 5.5 -1t5.5 -1zM1035 728q0 -8 -5 -9q-3 8 5 9zM822 479q-3 -6 -9 -1h4t5 1zM1101 639l-1 1q0 1 1.5 3t2.5 4l4 -4q-1 0 -2.5 -1t-2.5 -2t-2 -1z
M1033 688q5 2 7 0.5t1 -6.5q-1 2 -4 3t-4 3zM1237 619q4 6 8 2v-3q-1 0 -4 0.5t-4 0.5zM1004 644q1 -4 0.5 -5t-3.5 -1.5t-4 -1.5q4 4 7 8zM750 514q1 1 2.5 4.5t2.5 5.5q1 0 1 -0.5t1 -0.5q-1 -2 -2.5 -5.5t-2.5 -4.5l-1 1h-1zM1046 913q-4 9 1 9q1 0 3 -1zM1252 607
q2 1 6 5l2 -2q1 -2 2 -3q-2 0 -4.5 -0.5t-4.5 -1.5q0 1 -0.5 1t-0.5 1zM1121 518q-2 -2 -4 -1.5t-2.5 3t1.5 5.5q1 -1 2.5 -3.5t2.5 -3.5zM1261 676q-5 -2 -10 1q0 1 1 1t1 1q2 -1 4.5 -2t3.5 -1zM1244 708q-5 -2 -11 3q2 -1 5.5 -2t5.5 -1zM848 939q3 -3 2 -8q-3 3 -2 8z
M687 734q-6 -6 -10 1q1 0 4.5 -0.5t5.5 -0.5zM1071 465q3 6 10 1q-2 0 -5 -0.5t-5 -0.5zM748 837q6 0 10 -3q-5 -5 -10 3zM1130 903q0 -2 -0.5 -5t-0.5 -5q-4 6 1 10zM1208 628q-4 -2 -5.5 0.5t0.5 6.5q4 -6 5 -7zM898 454q-5 8 0 10q1 -2 0 -10zM851 548h2q4 -3 -2 -8v8z
M998 579q1 -4 -6 -9q0 7 6 9zM763 547q-1 4 3 4h3q0 -4 -6 -4zM695 740h-2q-4 0 -4 0.5t1 4.5v1q2 -3 5 -6zM1180 865q-2 -6 -7 -6q0 6 7 6zM788 532q-1 8 5 8l1 -1v-1zM1178 830q-4 -8 -10 -6q3 6 10 6zM1168 824v0v0zM726 736q-4 1 -4 5q4 0 4 -5zM928 599q8 -1 4 -7
q-1 1 -2 3zM1083 839q1 6 5 8q2 -5 -5 -8zM1223 699v-2h-9v2h9zM821 888q6 -1 5 -7q-1 1 -2.5 3.5t-2.5 3.5zM756 632q-1 -1 -3 -2.5t-3 -1.5v1q0 1 -1 1q1 0 2.5 2t2.5 2l1 -1zM926 862v3h8v-3h-8zM1021 672q1 0 1 -0.5t1 -0.5l-3 -6l-1 1h-1zM770 757q-1 2 2 2q1 1 2 1
q-1 -3 -4 -3zM785 894q-3 -2 -6 -5l-1 1q1 4 7 4zM977 959q-1 -5 -3 -5q-1 4 3 5zM1017 605v1v-1zM1017 605q-5 -3 -5 4q1 -1 2.5 -2t2.5 -2zM809 832h-1l-4 4h1zM752 535v1l3 3q1 -2 -3 -4zM772 521q0 1 0.5 2.5t0.5 2.5h2v-5h-3zM848 912q-3 0 -3 4q2 1 3 -2v-2zM799 504
l1 2v2h2l-1 -2l-1 -2h-1zM756 843l-1 -1h-1l-1 2l-1 2q0 1 1 1q1 -1 3 -4zM957 475q-4 2 -3 3l2 -1q1 -1 2 -1q-1 0 -1 -1zM1042 565v1l1 2q3 0 1 -3h-2zM1226 653q-1 -3 -4 -1h2zM923 907l-2 2l-1 3q4 -3 3 -5zM918 937q0 -4 -4 -5l-1 1q1 1 2 2.5t2 2.5zM893 770
q-1 0 -1 1t-1 2l1 1q0 -1 1 -2q2 -1 0 -2zM1073 650q-1 2 1 3h1l-1 -1q0 -2 -1 -2zM1042 647q1 -1 3 -4l-2 -1l-3 3l1 1zM822 433q0 1 4 3q-1 -4 -4 -3zM1191 804q-1 0 -2 -1l-2 -2q0 1 -0.5 1t-0.5 1q1 1 4 3v-1zM1033 671v-3q-4 0 -6 1q3 5 6 2zM1151 519v5l1 -2v-3h-1z
M767 837q4 0 4 -2l-1 -1zM983 714q-4 -1 -4 3q2 1 4 -3z" />
    <glyph glyph-name="O.alt2" unicode="&#xf001;" horiz-adv-x="1867" 
d="M1744 678q16 -9 11 -24h-6q0 -3 -0.5 -11t-2.5 -13t-7 -9q-1 -3 -2.5 -23.5t-7.5 -28.5q-7 14 -5 30.5t8 44t6 37.5q2 23 0 46.5t-8.5 60t-7.5 45.5q3 2 7 4q-1 1 -4 3t-5 3q3 4 -1.5 13.5t0.5 13.5q-4 12 -9 32.5t-7 28.5q-2 3 -5.5 10t-5.5 10.5t-3.5 9.5t-1.5 11t2 11
q-1 -1 -2.5 -5.5t-3.5 -7.5q-13 32 -51 80t-48 64q0 -2 -1 -5t-1 -4q-6 7 -23.5 18.5t-23.5 21.5q-3 -1 -19 8q-1 -3 -1 -6t0.5 -5t2.5 -4l3.5 -3.5l4 -4t4.5 -3.5q1 -1 1.5 -4t1 -4.5t3 -2.5t6.5 2q4 -6 4 -9q2 -16 9 -19q1 -1 3 -1l6 -15l3 -9q8 -3 11 -7t3.5 -6.5
t-0.5 -9.5t-1 -11q2 1 4.5 2t3.5 1l3 -24h10q0 -1 2.5 -12.5t1.5 -16.5q-3 -4 -4 -7.5t1.5 -7.5t4 -6t6.5 -7l5 -5q-6 -5 -6 -13t3.5 -15t9 -17t7.5 -14q-1 -1 -2 -1l-6 3q-7 -17 11 -27q-1 0 -4 -2.5t-5 -3.5q-14 4 -20 14.5t-7.5 33.5t-2.5 26q-6 10 -11 22t-9.5 27.5
t-7.5 23.5q-3 10 -14 29t-14 31q-1 5 -5 12t-7 7q-13 1 -17 17.5t-5 17.5l-1 -1h-1q1 -2 1 -6q1 -3 1 -5q-10 13 -23.5 26.5t-23 22t-27.5 23.5t-25 22l-53 26.5t-72 28.5q-6 -4 -14.5 -2t-10.5 9q-26 -9 -36 0q-18 -3 -33 11q6 -13 -13 -13q-19 1 -30 8q-2 -2 -2 -4
q-23 -5 -68 -5q-6 9 -9 0h-16q-5 11 -14 7q2 -4 8 -13q-6 2 -11 0.5t-10 0t-8 8.5q-5 2 -6.5 -1.5t-1.5 -8.5q-31 -6 -69 -12l-8 8q-1 -2 -1.5 -7t-0.5 -7h-4q-1 2 -3.5 6.5t-3.5 6.5q-1 -1 -4 -3q0 -1 -1 -3q-3 -13 -12 -11q-11 -9 -18 -1q-1 -1 -3 -5q-4 -5 -5 -4
q-3 0 -9.5 -1.5t-10.5 0.5t-7 9q-5 -1 -7.5 0.5t-4.5 6.5t-2 6q-7 9 -2 21t17 11q9 14 28.5 19.5t45 8t36.5 6.5l4 -4q58 18 80 2q0 1 1 4l2 6h22q-12 8 -14 9q-161 13 -266 -28.5t-213 -159.5q-1 -10 -20.5 -36.5t-25.5 -27.5q-4 -6 -10 -18.5t-12 -21.5t-14 -13
q-12 -34 -40 -85q-6 -6 -8.5 -21t-9.5 -20q-1 -1 -1 -3t-0.5 -5.5t-0.5 -6.5q-3 2 -8 5.5t-6 4.5q-1 -2 -3 -3q-1 2 -4 5t-4 5l4 8q2 0 5.5 1t5 1.5t3.5 1.5t2.5 2.5t0 4t-1.5 6.5h-4q0 -2 -1 -4.5t-2 -3.5h-3q0 3 -0.5 8t-0.5 7h18q1 0 1 1t1 2q-1 1 -4 2.5l-5 2.5
q0 1 1.5 4t2 4.5t2 3t4 1t6.5 -1.5q-4 7 -1 20.5t1 21.5q8 -1 12 -3q2 23 -3 30q-84 -113 -118 -250t1 -265h-7q5 -10 19.5 -38t21.5 -43q-1 -2 -3 -6.5t-3 -6.5l2 -2q8 3 10 4q1 -4 10.5 -17t6.5 -25q10 1 13 -2.5t1.5 -11t-0.5 -10.5q2 2 6 8q3 -4 12.5 -19t17 -22.5
t18.5 -11.5q1 0 1 1l2 1q0 8 -4.5 14t-12 13t-10.5 11q1 13 -10 21v16h-3q0 -1 -0.5 -4t-0.5 -4q-1 0 -3 -1q0 12 1 13q2 5 -2 14t-4 14h-3v-19h-1l-1 -1q-5 11 -11.5 39t-16.5 41l-3 3q4 5 -1 11.5t-5 8.5q8 3 4.5 20t-7.5 29.5t7 15.5q-2 3 -7 9.5t-8 10.5q5 1 8 1
q9 21 -9 36h20l1 1v2q-2 2 -6 4.5t-5 2.5q10 7 1.5 19.5t-2.5 20.5q2 -2 6 -8q4 2 2 13t-1 15q7 12 2 22q3 3 6 5q-7 6 -7.5 10.5t2.5 12t3 13.5q4 1 5.5 3.5t0.5 5t-2.5 6t-0.5 5.5q18 6 16 -29q0 -6 -12 -74q-1 -3 -1 -5q-3 -10 -1 -39.5t-6 -37.5q10 -167 102 -277
q2 3 4.5 6t2.5 4q3 -2 7 -4q6 7 13.5 5t12.5 -5t12 -11.5t11 -14.5t9.5 -14.5t7.5 -11.5q7 -14 28.5 -32.5t29.5 -30.5q14 4 19.5 3t18.5 -9.5t18 -10.5q0 1 2 3.5t4 5.5v-31q-21 -3 -29 12q-6 -3 4 -14.5t15 -13.5q88 -68 121 -85q29 -17 91.5 -33.5t88.5 -30.5q0 1 2 11
q9 -5 38 -3t38 1q24 -10 39 0q2 -2 4.5 -7t4.5 -7v14q7 1 22 1t22 1q2 8 10.5 7.5t15.5 0.5q2 12 14 3q4 2 12.5 8t12.5 8q1 -3 3.5 -7.5t4.5 -8t3 -6.5q-19 2 -20 -11l-21 3q-2 -10 -2 -11t-1 -1t-2 -1q-1 2 -5 12q-2 -6 -5.5 -9.5t-6.5 -4.5t-7.5 0t-7 2.5t-8.5 4.5l-8 4
q-1 0 -1 -1t-1 -2q1 -2 2.5 -4.5t4 -5.5t3.5 -5q-5 0 -16 0.5t-16 1.5v-14q-26 22 -32 25q0 -2 6 -9.5t2 -15.5q-16 16 -35.5 13t-21.5 3q-2 -2 -5.5 -7t-5.5 -8q-3 3 -7.5 6.5t-5.5 5.5l-2 -2q0 -1 1 -4t2 -4l-1 -1v-2q-5 2 -17 8q0 -1 -0.5 -3.5t-0.5 -3.5q-4 0 -6 -1
t-5 1.5t-4 3t-3.5 4t-3.5 4.5q-4 -8 -6 -11l-11 11q-1 -1 -3 -4l-4 -6l-6 3t-7 3l-4 -2q-1 0 -3 1q0 2 2 6.5t3 8.5q-12 4 -14 2t0.5 -7.5t-2.5 -9.5q-2 1 -5.5 4t-6.5 6l-5.5 5.5t-5 1.5t-4.5 -6q-10 15 -21 15q-9 0 7 -10l6 -4q-21 2 -23 12q-7 -9 -18.5 1.5t-19.5 3.5
q-1 2 -2.5 7.5t-2.5 8.5l-1 -1h-2q-1 -2 -2 -5.5t-1 -5.5q-5 0 -10.5 5.5t-11.5 4.5q-3 0 -4 1.5t-1 4v4.5t1 5.5t1 4.5q-1 1 -2 1t-2 1q-6 -10 -10 -16q-3 4 -14 9t-14 8q-3 15 -17 8q-1 2 -1.5 8t-2 6.5t-9.5 -0.5q-1 2 -2 5.5t-2 5.5q-1 0 -3 -1q2 -4 3 -12l-7.5 5
t-6.5 4q0 1 1 2.5t2 3.5l2 4q-13 -1 -22 5.5t-12.5 12t-11.5 20.5q-1 -2 -3.5 -5.5t-3.5 -5.5q-7 2 -8.5 6.5t-0.5 9.5t-0.5 8t-7.5 2q-11 -3 -19 12.5t-18 12.5q0 1 -0.5 4t-0.5 5q-10 -2 -16 6t-4 19q-4 1 -11 2t-10 2q3 16 3 18.5t-11.5 3t-18.5 3.5q4 7 3.5 10t-9.5 4
q-4 1 -8 4.5t-8.5 10t-6.5 8.5q-1 1 -4.5 4t-4 4.5t0.5 6.5l-8 6q1 -8 3 -12q-2 0 -4 0.5t-4 0.5q4 16 -1.5 24.5t-16.5 5.5q1 -1 5.5 -5t6 -7.5t0.5 -7.5q-8 2 -10 7q-3 7 -13 11.5t-13 7.5q-2 -4 -3 -7q-1 3 -1.5 7.5t-0.5 7.5l5 -2.5t4 -1.5l-30 57q-12 -2 -22 22t-19 28
l-5 12q2 -1 6.5 -3t7.5 -3q-3 7 -9 18.5t-8 16.5q-1 0 -2 -1t-2 -1l3 -15h-1q-1 -1 -2 -1q-2 8 -6 24.5t-6.5 26t-8 23t-12.5 23.5l1 1q1 1 2 1q1 -1 3.5 -3t3.5 -3q5 6 3 9.5t-9 10.5t-8 10q12 8 5 31.5t-5 31.5q1 1 -2 4q-2 4 -3 7q2 -1 11 -8q-1 6 -3.5 18t-2.5 16t3 17
q11 7 4 22q0 4 2 11.5t1.5 14t-4.5 11.5q2 0 5 0.5t4 0.5q0 1 1 3l-9 6q6 2 6.5 5.5t-1.5 9t-1 8.5q2 -1 6 -2.5t6 -1.5l2 2q-2 2 -4 6t-3 5l6 33q0 1 2.5 2t4.5 2l-6 9q4 0 9 1q-4 4 -3 17t0 17q3 0 11 -2q0 1 1 1t2 1l-9 12h24q-2 2 -7 6t-7 6q6 3 7.5 6t4.5 20
q1 -1 5 -3.5t6 -4.5q1 0 1 1q-15 27 8 46q4 -12 6 -17q7 17 3 22q0 7 17 24q-2 1 -5.5 2.5t-5.5 2.5q2 1 5.5 3.5t5.5 4t4 2.5q-3 4 -7 10q12 6 21 10q0 2 1 6.5t1.5 9t1.5 8.5q3 -1 7.5 -3.5t5.5 -3.5l2 2q-1 2 -3 5t-3 5l1 -1h2q6 6 8 22q3 -2 7 -3.5t6 -2.5q2 5 1 6.5
t-4 3t-4 2.5q2 2 7 6.5t8 7.5q-7 6 -3 12q4 -1 6.5 -8.5t6.5 -9.5q1 6 -4 18q14 -4 16 -5q-13 15 -3 27q11 -1 16 4.5t2 14.5q8 16 10 16.5t15 -12.5q6 5 -2.5 14t-1.5 15q1 -1 3 -3.5t4 -4.5q3 3 3 14.5t7 14.5q0 -3 1 -8t1 -7q2 3 6.5 8.5t6.5 8.5q-2 2 -5 4q8 18 16 13
q2 -2 3 -2t4 1t5.5 5.5t6.5 13t9 22.5q2 -3 4 -7t3 -5q1 0 4 0.5t4 0.5l-2 2q4 5 12 17q-3 0 -11 2q4 4 5.5 4.5t7 -3t7.5 -4.5q0 1 0.5 1t0.5 1l-11 11l1 1q1 1 1 2q2 -1 7 -2.5t7 -2.5l1 1q1 1 1 2q-1 1 -4.5 4t-5.5 5q8 6 13 10q1 -2 3 -5.5t3 -5.5q1 0 3 1q0 2 1 5t1 4
q5 1 6.5 2.5t0 4.5t-2 6t1.5 7h3q2 -10 10 -10q4 11 12 31q1 0 2 -0.5t2 -0.5q1 -1 2 -5t2 -5q1 0 3 1v17q9 -8 19.5 -1t-3.5 14q5 3 15.5 10.5t15.5 11.5q2 -2 6 -4t5 -3l2 2q-18 14 13 21q2 -2 7 -6.5t8 -7.5q7 15 -12 18q8 11 16 -5q3 15 -6 17.5t-26 -2t-22 -3.5
q-158 -30 -274 -178q-9 -12 -36.5 -47.5t-39.5 -51.5t-34.5 -48t-35.5 -54t-28 -52t-25 -58q-2 1 -5 3.5t-4 3.5q5 -24 -3 -35q-2 -3 -2.5 -9t-2.5 -8.5t-8 -0.5q1 -13 -4.5 -35.5t-6.5 -26.5q-3 1 -7.5 1.5t-7.5 0.5q2 -3 4.5 -7t3.5 -6h3q-5 -5 -6.5 -24.5t-14.5 -19.5
q2 -2 4.5 -4t3.5 -3q-5 -28 -19 -127q-1 -3 -3.5 -5.5l-3.5 -3.5t1 -6q13 -73 105 -180l-10 -5q0 -2 1 -4.5t1 -3.5t-1 -1h-1q-12 16 -19 25q1 0 4 -1t5 -1q2 8 -9 13t-10 12q-15 2 -25 27.5t-25 31.5q6 7 4.5 10.5t-7 11t-6.5 11.5h-1q-1 -1 -2 -1v-10q-2 1 -4.5 3t-3.5 3
q-5 -23 -5.5 -69t-4.5 -66q-2 5 -12 15q2 7 -2 21t2 18q2 7 -1.5 22t-3.5 18q3 -2 7 -3.5t5 -2.5q6 8 4.5 9.5t-15.5 3.5l10 10q1 -1 3 -2.5t3 -2.5q1 0 1 1l2 1q-10 18 -15 28l5 2l3.5 10.5t4.5 11.5q-10 8 -8 12q1 3 4 6q-1 4 -1 17.5t-3 22t-12 9.5q1 3 0 7.5t0 8t6 6.5
q-9 12 -8.5 37t-3.5 39h-3q3 2 9 8q-6 4 -7 5q5 2 6 3.5t0.5 4.5t-3.5 13h3q3 5 2 28t-1 28q4 -4 6 -7h1q1 1 2 1q0 3 -1 14t-0.5 18.5t4.5 12.5q6 -5 10 -22h2l-3 36q-1 0 -3 -0.5t-3 -1.5q2 6 5.5 18t5.5 18q12 -6 17 -9q-2 3 -5.5 8.5t-5.5 8.5q12 7 -3 22q3 0 6.5 -0.5
t4.5 -0.5l-2 2q2 2 3.5 7.5t3.5 8.5l6 3q-2 1 -5 3.5t-4 3.5q6 -2 7.5 -1.5t3.5 6t3 6.5q4 5 3 15.5t1 16.5q2 -6 4 -9q8 3 7 14t1 20q2 -1 5.5 -1h5.5q1 2 4.5 7.5t3.5 8t-1 10.5q3 3 5 4q-1 1 -3 2.5t-3 2.5q2 3 8 9l8 -24q5 3 3 15.5t-2 13.5q2 -1 5.5 -1t5.5 -1
q-5 9 -2 19q1 0 4.5 0.5t5.5 0.5v22q4 -1 11 -2.5t10 -1.5v1l1 2q-6 3 -18 7v2q1 0 4 -1t4 -1q7 20 9 25q2 -10 5.5 -12.5t6.5 1.5t5 12q-10 0 -11 7q13 0 15.5 4t0.5 17q4 -4 6 -4t9 8q2 -1 5.5 -3.5t5.5 -4.5q0 1 1 1t2 1q-2 3 -3.5 6.5t-1.5 7t0.5 6t2.5 7t3 6t3.5 6
t3.5 5.5q5 -2 13 -6q0 1 1 1t1 1q-3 7 -5 15q5 3 7 -0.5t2.5 -11t1.5 -9.5l2 1h2v31q-1 7 8 12t8 12q3 -2 9.5 -7t9.5 -7l1 1q2 0 2 1q-3 7 -4.5 12t1 10t4.5 7t8.5 8t9.5 8q1 -6 3 -14h1q1 1 2 1q1 1 1 4t1 5h12v0q3 5 6 14.5t7.5 16t13.5 10.5q4 -6 7 -10q1 7 1 16l1 -1h1
q2 2 6.5 8t9 10t8.5 4q9 -4 9 5q0 8 8 7q5 -1 6.5 4.5t2.5 6.5q3 2 6 5.5t6.5 7l5.5 5.5q1 -2 2.5 -7t2.5 -8h1l2 1v22q1 1 6 1t6.5 2t-0.5 10h4q4 -7 4 -15q5 -1 6.5 2.5t0.5 8.5t-4 8q3 2 7 8.5t8.5 9.5t10.5 1q8 11 22 12.5t21 -10.5q7 -14 35 -6q5 -6 5.5 -3.5t2 6.5
t4.5 3q4 -6 7 -12q6 14 10 22q3 -4 6.5 -10t6.5 -10q0 2 -0.5 6t-1 6t1.5 4.5t6 4.5q5 2 10.5 -3t10.5 -2q0 1 -1 4t-1 5q14 12 25 -5q2 13 6.5 16t10 -1t11 -4t7.5 6q5 6 12 1.5t8 -12.5l2.5 5t1.5 4q8 -3 12.5 -15.5t7.5 -15.5q15 11 16 11q13 -6 13 10l11 -4q4 6 14 5.5
t14 5.5l6 -2q1 1 4 3t4.5 2.5t4 1.5t4 1h4t5 -1.5t4.5 -3.5q3 11 12 4q36 -1 21 -49q-6 3 -9 4q-8 -18 -47.5 -23t-51.5 -15q6 -8 21 -4t21 0q13 0 44.5 2t54 1t43.5 -7q8 -2 24 -4t29 -5.5t23 -9.5q9 0 20 -3.5t15.5 -5.5t19.5 -11l15 -9q1 1 1 4v5q18 -3 19 -18
q1 0 7.5 2.5t10.5 4.5v-8v-7t1.5 -6.5t4.5 -5.5q5 7 0 21q14 -11 46.5 -25t46.5 -26q10 2 24 -8.5t23 -10.5q1 0 9 -8q10 5 19 -9q8 2 14 -2t11.5 -11t9.5 -10l4 8q1 -9 7 -14t10 -6t14 -2q0 -4 -2 -5q31 -10 53 -36q7 1 10.5 -2.5t4 -9t3 -9.5t7.5 -4q3 -2 8 -8.5t6 -7.5
l4 4q2 -7 7 -14t9 -10.5t12 -11.5l10 -10l2 2l1 -5q2 -1 3.5 -2t2.5 -2l1 -1q0 -4 -0.5 -6.5t1.5 -5.5t3.5 -4.5t4.5 -4t4 -3.5q23 -19 41 -76h3q0 1 1 4.5t2 6.5l2 -16q-2 -5 3 -14.5t3 -17.5l16 -16q-4 1 -10.5 2.5t-10.5 2.5q1 -5 9.5 -13t4.5 -18q0 -2 2.5 -6t5 -7t1 -6
t-8.5 -5q2 -1 4.5 -3.5t5 -4.5t5.5 -4l-1 -1q0 -1 -1.5 -3t-2.5 -4q7 -15 8.5 -47.5t7.5 -46.5q-2 -9 1.5 -26t2.5 -30t-12 -20zM926 1460q-2 -3 -4.5 -7.5t-3.5 -6.5l1 -1l1 -1q2 1 4.5 2l5 2t5.5 2l-5 5t-4 5zM323 1109q4 -21 13 -26q-2 5 -0.5 12t0 12.5t-7.5 4.5
q1 3 2 7t3 9t3 8q-49 -40 -98 -142l-6 2q0 -27 -24 -57q-1 -3 -3 -15t-5 -19t-8 -13q-2 -15 -14 -54t-11 -61q-2 -3 -8 -5q12 -5 5.5 -26.5t-4.5 -27.5q5 -13 2 -26.5t1.5 -25t21.5 -11.5q-1 2 -14 26l6 2q0 5 6 14.5t-2 11.5q-1 1 -1 4t1 4q9 6 2.5 22t-0.5 25l7 -14h2l2 1
l-3 11q-3 2 -5 4t-2 4.5t0.5 4.5l1.5 6t1 5l6 -18h1l2 -1l5 14q-5 5 -5.5 16t-2.5 15q14 -10 16 -4.5t-4 16.5q-6 4 -3.5 17.5t1.5 17.5q3 -1 16 -3l1 1v2q-11 7 -9 15q10 -2 13 -6l1 1l1 1q0 3 -3 17t-4 23q13 -20 13 -1l1 30q12 -5 13 -5q-2 10 -3 14h5q-2 6 -4 9
q2 -1 4.5 -2.5t4.5 -2.5l2 2q-15 11 4 43q3 -5 7 -11q5 3 2 13t-2 13q7 4 11 16t8 16q3 -2 6.5 -5.5t6.5 -5.5q1 10 1 25h-2q-1 -1 -2.5 -3t-2.5 -3l-2 1q2 3 5 10t4 10q1 0 6.5 -1t8 0.5t3.5 6.5l-12 6q12 6 17 8q-5 11 1 16zM353 1128q1 0 1 1v1q-1 1 -2.5 3.5t-2.5 3.5
q1 15 -4 14q-7 -1 -6 -10.5t14 -12.5zM389 1181q6 12 9 20q-6 -2 -9 -9.5t-4 -8.5q0 -1 2 -1q1 0 2 -1zM777 34q-4 -9 14 -15q0 4 -14 15zM756 33q5 5 -4 10.5t-17 6.5q2 -5 5 -7.5t9 -5.5t7 -4zM465 1030q-12 -4 -2.5 -12t14.5 1q-1 0 -3 1q2 13 -4 20q-3 -5 -5 -10z
M506 1064h1q1 1 2 1q-1 3 -3.5 8t-3.5 8q-7 -12 4 -17zM892 1373l3 3q-1 2 -4 6.5t-4 6.5q-8 -6 -6.5 -11.5t11.5 -4.5zM890 1247q-2 -7 -1 -10.5t3 -4.5t8 -1q-6 10 -10 16zM1118 1320v1q0 1 1 2q-6 1 -16.5 3.5t-15.5 3.5l-1 -1v-2q8 0 15 -9q3 0 8.5 1t8.5 1zM1643 728
q-3 -7 0 -12t1.5 -9t-12.5 -5q-3 -7 9 -14q-6 -3 -6 -7q3 -6 2 -18.5t2 -19.5q-1 -3 -5 -10.5t-4 -9.5t4 -10q1 -3 -3 -7.5t-2 -8.5q-4 -1 -6 -2q-7 38 -5.5 134.5t-12.5 134.5q9 -7 23 -17q-6 -7 -5.5 -10t7.5 -10t8 -10q-10 -3 -19 -4v-2q10 1 13 -4.5t2.5 -12t0.5 -14.5
t6 -12q-2 0 -5 -2t-4 -2q1 -2 3 -7t3 -7h1q1 -1 2 -1q1 1 2 3.5t1 3.5l1 -1q1 -1 2 -1q-16 -18 -4 -26zM1623 595zM1422 174q10 -7 -2 -24q-1 -1 -2 -4.5t-1.5 -5t-3 -2.5t-6.5 -1q-7 1 -13.5 -10.5t-10.5 -13.5q-2 2 -4.5 5.5t-3.5 5.5q-1 0 -2.5 -1t-2.5 -2q0 -2 0.5 -7.5
t0.5 -8.5q-8 -5 -26 -15l3 -6q-13 0 -10 -10q-2 -1 -5.5 1t-5.5 1t-2 -7q-3 -5 -8 -6.5t-10 4.5q-2 -3 -5 -11t-4 -11q-7 2 -18 7q3 -9 5 -13h-18q4 -10 -2 -16q-4 2 -9 6.5t-9 6.5q1 -2 2.5 -5.5t1.5 -4.5q-11 -10 -16 -11t-18 8q4 7 18 14t19 5q7 4 29 19t31 21.5t27.5 20
t29.5 23t25.5 22.5t25.5 26zM170 384q-1 -19 1 -41t5 -38t9 -42t8 -38q5 -26 30 -74.5t29 -77.5q-6 14 -29.5 58.5t-33.5 70.5q0 5 -4 11t-5 9t5 9q-6 15 -16 41q1 0 2 -0.5t2.5 -1t4.5 -0.5q-2 5 -7 10.5t-6.5 8.5t1.5 11q0 4 -1.5 8t-4.5 9t-4 7l1 1q1 1 2 1q1 -1 3 -2.5
t3 -2.5h3l-6.5 19.5t-6.5 20.5q1 0 3 1q1 -2 3 -3.5t3 -3.5h3q-13 25 -8 44q11 -13 11 -15zM252 73v-1v1zM415 886v0q8 -6 10.5 -12.5t1 -11.5t-5.5 -14t-6 -15q-1 -7 -6 -24t-5 -26q0 -13 -12 -11l3 18q-10 -8 -12 -10q2 10 3 16h2q3 1 6 1q-6 21 -4 24q7 0 7 12
q-1 14 12 32q-1 3 -2.5 11t-2.5 11q7 0 11 -1zM1571 464q4 13 16.5 43t18 53t4.5 46q12 -10 13 -11q-1 -4 -5.5 -17t-4 -17t2.5 -17q-5 -1 -12 -4q0 -2 3.5 -9.5t3 -11.5t-4.5 -9h-2l-2 1q2 -10 4 -17q-2 1 -5 4l-5 5q0 -3 0.5 -8t1.5 -8q-1 -2 -6.5 -2.5t-7 -2.5t3.5 -12
q-12 -4 -17 -6zM1510 366q8 -9 6 -9.5t-6.5 -4.5t-2.5 -13q-4 0 -4 -1q-1 -7 -13.5 -17t-10.5 -21q-6 5 -12 0t-7 -11q2 -6 1 -8t-3 -2t-5.5 1t-4.5 0q-1 -2 -1.5 -5.5t-0.5 -5.5l-12 6q4 8 19 21t18 23q1 1 2 1t3.5 0.5t3.5 0.5q1 11 14.5 26.5t15.5 18.5v0zM690 150
q-3 4 -2 12.5t-1 12.5l5 -5q1 1 2.5 3t2.5 3q4 -4 7 -6q1 1 3 3.5t3 3.5q5 -16 24 -17l-2 10q1 1 3 0.5t3 -2.5l2 -1q-1 -22 28 -30q-24 -1 -53 19q-7 -16 -25 -6zM394 322q7 -2 11 -7t2 -11q-4 8 -17.5 12t-17.5 10q-1 1 -2.5 4.5t-2.5 4.5t-3.5 2t-6.5 0q-3 1 -5.5 4
t-5.5 8t-5 7q-1 -2 -2 -6t-1 -6q-4 6 -10 14q1 0 2.5 0.5t2.5 0.5q-1 2 -2.5 6t-2.5 6q0 1 1 1h2q1 -1 4.5 -5.5t5.5 -5.5q11 -2 26 -19t27 -20zM253 73q15 6 31.5 -16t21.5 -41q-11 8 -27 28.5t-26 28.5zM252 72l1 1zM1713 558q16 -10 4 -22q1 0 3.5 -1.5t3.5 -2.5
q-13 -1 -15 -19t-17 -19v9q2 -1 4.5 -2.5t3.5 -2.5q1 3 0 7.5t-2.5 7.5t0 5.5t7.5 4.5q3 5 5 19t3 16zM1430 272q1 -2 4 -5t4 -5q-6 -5 -19.5 -16t-20.5 -16l2 -1l2 -1q-4 -1 -16 -5q-1 9 9.5 16t11.5 9t23 24zM1315 160q-2 -1 -5 -6t-5.5 -6t-10.5 1q6 5 16 12t18.5 13.5
t15.5 12.5q1 1 3 4.5t3 4t6 -1.5q-3 -16 -24 -18v-9q-5 1 -6.5 -0.5t-1.5 -5.5t-1 -6q-1 1 -4 2.5t-4 2.5zM745 168q13 0 20.5 -1.5t13 -8.5t4.5 -20q-32 19 -38 30zM1459 217h-1h1zM1435 174q-7 6 -2 11.5t15 16t11 15.5q4 -4 4.5 -8.5t-2.5 -11.5t-3 -9q-5 3 -10 2.5
t-4 -7.5q1 -6 -1 -8.5t-8 -0.5zM321 19q2 -2 19.5 -19t19.5 -32q-4 3 -11 11t-12 12q-6 -1 -12 9t-4 19zM1459 217q8 9 32 40q1 -4 -5 -31q-11 -7 -12 -14zM1571 464v0v0zM1551 420q-2 5 -1.5 7t4.5 7t5 8q-1 4 1 7.5t6 7.5t5 7q4 -5 2 -17.5t-1 -18.5h-11q-2 -1 -5 -4
t-5 -4zM326 378q-6 -19 -13 -8q-3 11 -16 14q-5 0 -10 12q-3 6 0 7q2 1 5 -1q18 -19 34 -24zM1581 312q22 32 33 49q5 -11 0.5 -19.5t-16.5 -17.5t-15 -13q-1 0 -1 0.5t-1 0.5zM1515 294q25 41 30 38t-20 -44q-6 4 -10 6zM408 -59q0 1 1 1t2 1q4 -2 45 -24q-26 -9 -48 22z
M1667 440q1 -16 -3 -17q-6 -1 -3.5 13t15.5 28q9 -16 -9 -24zM1500 252q-8 14 11 33q8 -14 -11 -33zM884 118q-7 0 -15 5.5t-12 7t-12 -5.5q1 2 2.5 5.5t2.5 5.5q5 -1 14.5 -2.5t14.5 -2.5q0 -1 2 -5.5t3 -7.5zM1565 376q1 -3 1 -6.5v-6t-1 -5t-2 -4.5l-2.5 -5t-2.5 -4.5
l-3 -4.5t-3 -4q-3 9 -2 13t7 13t8 14zM1527 394q8 -10 1.5 -17t-18.5 -11q2 6 4 7t9 1q0 2 -1 5.5t-1.5 6t1 5t5.5 3.5zM366 -31q9 1 18.5 -6.5t9.5 -15.5q-10 8 -28 22zM1620 368q3 5 8.5 14t8.5 13q3 -11 0.5 -15t-17.5 -12zM1274 134q1 -1 3 -4q-5 -4 -14 -11t-13 -11
l-1 1q-1 1 -1 2q2 5 6 9t11 8t9 6zM1553 411q-15 -3 -4 -14l-2 -2q-1 1 -17 5q6 8 14 18q2 -1 4.5 -3.5t4.5 -3.5zM1598 422q-1 -2 -2.5 -6.5t-3 -7t-4 -5t-6.5 -2.5q-2 5 0 8.5t6.5 7t6.5 6.5q1 0 3 -1zM826 154q1 -10 -11 -6q-10 4 -12 13q3 -1 11 -3t12 -4zM532 -114
q-9 -2 -20 2t-13 12q5 -3 16 -7.5t17 -6.5zM1652 419q6 -4 2 -12.5t-2 -12.5q-8 5 -8 9t8 16zM1686 486q9 0 10 -4q1 -6 -13 -10q-2 -1 -4 -1l3.5 7t3.5 8zM1381 220l-3 -18q-1 0 -2.5 -0.5t-2.5 -0.5q-7 7 3 21q1 0 2.5 -1t2.5 -1zM1554 280q12 15 24 11l-21 -14zM920 143
q-2 0 -8.5 -1t-10.5 1t-6 8q4 -1 12.5 -3.5t12.5 -4.5zM1010 123q12 8 16.5 9t10.5 -6zM830 125l-1 4q-1 4 -1.5 4t-2 3t-3 1.5t-5.5 -0.5q0 1 0.5 2t0.5 2q3 -1 9.5 -2t9.5 -2q-1 -2 -7 -12zM852 148l-2 -2q-2 0 -7 1t-8 1l5 10q2 -1 6 -5t6 -5zM455 1292zM909 119
q-8 -1 -10.5 1.5t-1.5 11.5q8 -8 12 -13zM858 149q3 -1 8 -1t7 -1q0 -1 -0.5 -2.5t-0.5 -2.5q-2 0 -7 1t-8 1q0 1 0.5 2.5t0.5 2.5zM998 146q-8 -2 -10 -1.5t-3 2t-1 7.5q4 -3 14 -8zM948 121q7 4 17 2q0 -1 1 -3q-3 0 -8.5 -1t-8.5 -1l-1 1v2zM1107 32q0 -8 -1.5 -9
t-10.5 2q2 1 6 3.5t6 3.5z" />
    <glyph glyph-name="O.alt3" unicode="&#xf002;" horiz-adv-x="1804" 
d="M1671 755h-6q2 -2 6.5 -6t6.5 -6q0 -1 -1 -2.5t-1 -2.5q-18 6 -29 9q-2 -24 -3 -38q-15 2 -20.5 -5.5t-8.5 -19t-8 -15.5q-3 1 -13 5l-15 6l-3 -6q8 -3 23 -10t23 -10q1 3 2 10t2.5 12t4.5 7q4 3 9.5 4t14.5 1t14 1q-1 -15 -3 -37q-1 0 -3.5 0.5t-3.5 0.5v21
q-5 -5 -17 -15q0 -1 1 -4l2.5 -7.5t2.5 -8.5q-12 9 -13 10q-5 -3 -10.5 -5.5t-12 -5.5t-9.5 -5q-1 1 -2 2.5t-2 2.5q1 2 3.5 5t3.5 5q-1 0 -2.5 2t-2.5 2q-6 -7 -21 -22q-2 2 -12 8q-11 6 -13 6l-1 -2q-1 -1 -2 -3.5t-2 -3.5q5 -2 17 -5q-7 -21 -7 -22q0 -3 3 -5.5t7 -5
t6 -4.5q0 1 2 1q1 0 2 1v-32q-10 8 -11 9q-12 -3 5 -18q10 -8 22 -12q4 -2 9 -4q4 11 10 33l-2 2t-2 1q-3 -2 -9.5 -7.5t-10.5 -8.5v51q-5 -1 -11 -2t-8 -1l-1 2q-1 2 -2 2q5 3 12 7t9 5q3 -4 11 -16l12 -18l6 3v-32q9 -4 22 -11t17 -9q0 -1 -1 -2l-1 -2q-4 2 -14 6l-15 6
l-3 -3l13 -13h-48q0 -1 -0.5 -3.5t-0.5 -3.5q4 0 11 -1t10 -1q2 0 4.5 -1.5t3.5 -1.5t6 2t7 2q1 0 16 -5q-4 -8 -7 -10q-19 -12 0 -25q-6 -8 -11 -14l26 4q0 -1 1 -2l1 -2q-4 -2 -17 -6t-22 -7q2 5 3.5 10t1.5 6q-10 1 -10.5 -1t3.5 -13q-2 -2 -6.5 -5t-7.5 -4v-3h22
q-3 -18 -4 -25q14 6 16 7l3 -3q-3 -3 -8 -9t-8 -9q-6 -6 -6 -7q0 -6 -1 -11.5t-2 -10t-4 -10.5t-4.5 -9.5t-6 -9.5t-6.5 -8.5t-7.5 -9t-6.5 -8.5q-13 -17 -41 -47.5t-40 -45.5q-3 -4 -2.5 -15t-2.5 -13q-12 -10 -2 -23q-10 -39 -14 -51q-1 -3 -8 -13q0 -1 -2 -3q-3 -2 -2 -3
q4 -11 3.5 -16t-4 -15.5t-4.5 -15.5q-4 -14 -1.5 -53.5t1.5 -52.5q-1 -12 -1 -70q-2 0 -4 -2q-2 0 -3 -1q-1 2 -4.5 5.5t-5.5 6.5t-2 6q-2 66 -1 100q1 22 3.5 63t3.5 54q0 7 -4 19q-13 -3 -18 -14.5t-10.5 -22t-20.5 -11.5q1 20 3 56q-62 -36 -81 -50q-47 -33 -155 -73
q-1 0 -3 -1t-3 -1q-5 -2 -18 -5t-21.5 -6.5t-13.5 -8.5t-7 -13t-3 -22t-1 -16l3 -24q5 -56 4 -71q-1 -31 -1.5 -88t-0.5 -75v-36q-7 1 -25 4q14 80 15 89q1 3 -2 8t-3 7q0 11 2 45t2 53q0 10 -2.5 29t-2.5 26v80q-29 -3 -82.5 -8.5t-79.5 -7.5q-1 5 -3 11t-2 8h-3
q0 -2 -1 -6.5t-2 -6.5q-34 2 -40 37q-14 -27 -50 -4q2 -7 4 -15q-1 0 -2 -1l-2 -2q-3 3 -15 17h-22q5 3 12 6t11 5q-3 1 -8.5 2t-7.5 1.5t-6 0.5t-6.5 -2.5t-4.5 -7.5q-1 -3 -5 -5.5t-11.5 -6t-12.5 -6.5q-2 10 -5 25.5t-4 22.5q-2 0 -12 2t-17 3q-1 -3 -2.5 -8t-1.5 -6h-5
q0 1 -2 6.5t-3 10.5q-2 2 -6 4q8 8 9 8q16 3 47.5 10t47.5 11q5 1 12 5.5t9 5.5q83 37 140 98q2 2 8 5t8 6q2 4 6.5 11.5t6.5 11.5q42 71 54 95q4 8 10 23t6 16q2 -1 20 -6q1 1 1 3t1 2q-2 2 -6 5.5t-7.5 6.5t-7.5 6q0 3 2 19q5 -3 23 -16l6 3q-15 19 -21.5 31.5t-9.5 33.5
t11 37q-1 -1 -7 -3.5t-10 -4.5q4 7 11 18t10 18q-5 -2 -11 -4.5t-7 -2.5q-38 81 -79 134t-109 89v-36q1 -13 2 -40t2 -41q0 -8 -5 -15q-2 -3 -15 -8q-2 8 -2 13q-1 5 -1 15.5v15.5q-1 6 -4 18.5t-4 18.5q-1 5 0 15.5t1 13.5q0 18 2 27q1 3 4 10.5t4 9.5q-78 70 -93 134
q-17 37 -26 58q-1 13 -1 30v70q7 54 21 92q30 83 109 149q2 2 7.5 2t6.5 1q17 19 20 21q8 4 33 17.5t42 21t34 12.5t36.5 8t46 6t38.5 5q81 12 188 -29q11 -14 42.5 -26t42.5 -22q13 -12 41.5 -31.5t39.5 -29.5q13 -11 70 -73q3 -3 6 -10.5t6 -10.5q8 -10 23 -30t20 -26
q-5 1 -9 1.5t-5 0.5q2 -7 12 -16.5t13.5 -15.5t-3.5 -24q6 3 12.5 6.5t10.5 5.5q-3 -14 -7 -34q1 1 5.5 4.5t8.5 6.5q1 -4 3.5 -9t2.5 -6q-1 -5 -5 -6t-7.5 0.5t-6.5 0t-3 -7.5l2 -1q3 0 6.5 -1t4.5 -1q0 -2 -2 -6.5t-3 -7t1.5 -5.5t8.5 -5q-1 -3 -4 -8.5t-4 -7.5
q11 -5 23 -13l-2 -4q-12 -4 -14.5 -9.5t-0.5 -16t2 -14.5q0 -6 6.5 -14.5t6.5 -13.5v0v0q0 -4 0.5 -12t0.5 -12q0 -3 2 -9q2 -4 5.5 -13t5.5 -13q1 0 3 1t3 1q2 6 6 13v-24q-2 -1 -7 -1h-8v-3q10 -2 18 -4q-1 -14 -3 -44zM1265 951q2 7 8 21t8 21t4 21.5t-3 22.5q0 1 -11 18
q17 13 -3 30q-2 1 -4 5t-2 5q-39 64 -119 75q-78 11 -134 -36q9 -10 9 -29t-11 -27h-1h1q-1 8 -2.5 23t-2.5 22h-5q-2 -14 -5.5 -41.5t-5.5 -41.5h-7q-1 8 -2 23t-2 22q-20 -24 -20 -71q0 -4 -3 -11t-3 -8q11 -22 15 -28q26 -41 35 -50q6 -7 22 -16.5t22 -15.5
q22 -22 64 -22q27 0 84 19q36 13 41 34q1 4 1 11l9 -2q3 3 9 8.5t9.5 9.5t4.5 8zM698 302q-23 -9 -18 -29v-19q-14 2 -18 2q3 -10 4 -11q4 -1 6.5 -2.5t3 -4.5t1 -4.5t0 -5t-0.5 -5.5q0 -14 0.5 -41.5t0.5 -41.5q0 -4 -5 -21q-1 0 -3.5 -0.5t-3.5 -0.5q-8 21 -7 23
q3 14 -3.5 46.5t2.5 43.5q-1 4 -4 24t-4 29q-9 1 -32 3q-14 -23 -13 -63t-1 -68q-12 9 -12 10q-10 51 -12 79q0 4 7 45q-5 5 -17 18t-18 20q-28 4 -37 6q-1 0 -1 3.5t0.5 7.5t-0.5 9q-8 0 -14 -1q-1 3 -10 15.5t-12 20.5q-4 11 -13 54l-18 -15q-1 1 -4 3q2 7 3 7q5 2 8 6.5
t3.5 7.5t1 10t0.5 8q2 32 29 41q5 2 7 5q5 20 21 24q8 2 21.5 11t21.5 12q33 10 79 17q21 3 41.5 -2.5t33.5 -13.5t32 -22q8 -6 14.5 -14.5t15 -23.5t10.5 -18q1 -2 -4 -20l-4 3q-2 10 -2 16h-8q-1 -6 -1 -18q-2 -19 18 -20l9 -12q-1 -1 -2.5 -2t-2.5 -1q-1 1 -6 4.5t-8 5.5
q-3 -4 -9.5 -10.5l-9.5 -9.5q1 -1 4 -3l8 5q17 0 18 -2q7 -16 -2 -39t-27 -35q-3 -2 -6 -10t-6 -10q-27 -19 -45 -26zM1071 -356l12.5 5t10.5 5v1l1 -1h-1q0 -9 2 -27.5t2 -27.5q0 -2 -4 -4.5t-5 -1.5q-13 5 -14 10q-1 3 -4 41zM1683 881q-30 0 -26 -28q-2 4 -6 11.5
t-6 10.5q2 3 6.5 8.5t6.5 8.5q-3 2 -7.5 4.5t-6.5 4.5q32 5 37 6q-3 -3 -8.5 -8t-8.5 -7q10 -6 19 -11zM1016 961h-9v117q1 0 4 1t5 1v-119zM182 948v2q1 1 1 2q0 -1 -1 -4zM398 1268l-8 -6zM535 1371l4 4q0 -1 -1 -2zM650 1423l3 6q3 0 3 -1q-5 -2 -6 -5zM1016 1440l-3 -1
q0 1 0.5 1t0.5 1zM150 501v-3v3zM191 388q-1 1 -3 8l3 -6v-2zM240 295l-2 5l1 -1q1 -1 1 -2v-2zM269 256q-1 0 -1 1zM638 36l26 -31l-31 9q-4 2 -8 2v-1l-1 1q-1 0 -3 0.5t-3 0.5q1 -1 1 -2l-2 2q-5 0 -8 1q-1 0 -1 0.5t-1 0.5q-10 2 -15 4t-13 6q-4 1 -12.5 4t-12.5 4
q-15 5 -31 14q-4 2 -10.5 4t-8.5 3q3 -1 11 -3q-1 1 -2.5 2t-2.5 2q-3 1 -8 2.5t-6 1.5l-1 4q-17 9 -22 12q-1 0 -3 1l1 -2q-10 5 -22 10.5t-24 13.5h2q-2 1 -8 4.5t-10 6.5t-6 7l13 -9q0 1 -11 15q-1 1 -4 2.5t-4 2.5q-2 1 -3 0t-4 1l2 2l4 -2h-1q-5 3 -22.5 16t-24.5 17
l1 1q-5 5 -19 16.5t-18 17.5l3 -3q-3 6 -11 13.5t-12.5 13.5t-3.5 9q-2 3 1 -1q7 -8 4 -1q-7 10 -13 13.5t-11 11.5l1 -1q-21 28 -30 42q-2 8 -18.5 36.5t-18.5 41.5q1 -5 -3 0l-2 4q0 1 -7 11q-1 4 -6.5 13.5t-5.5 11.5l-1 2q-1 2 -2.5 5.5t-2.5 6.5q4 -7 5 -8q3 0 4 -1
q-3 10 -10.5 21.5t-10.5 23.5l-1 14q-2 0 -4.5 6t-3.5 11l-2 5q0 10 2 10l-2.5 10t-2.5 11t-2 6l1 -10q-2 12 -4 19l-1 4l-1 2q0 1 -3 1q-7 4 -9 13q-1 4 -1 11v8l1 3h-2l-3 3q-1 1 -1 2q-1 1 -1 3v2v0v2q0 1 -0.5 1t-0.5 1l-1 2q-1 1 -1 -1q-1 -1 -1 -2q-2 12 -2 20
q0 12 10 26q1 1 3 0t3 1t1.5 9t0.5 10q2 15 1 19l1 -5q0 4 -0.5 9t-0.5 8t-1 4l-1 -9v24q-1 9 -4 10q-1 0 -1 -6q1 8 4 10q1 11 -1.5 17.5t1.5 16.5v-2q2 12 2 14q-1 -9 1 -8q2 0 2 -1q0 -3 -1 -9q2 1 2.5 5.5t1 10.5t1.5 9q-1 7 -3 6.5t-2 1.5q1 0 3 10l-3 -5q2 10 2 15
l-1 -9q0 1 4.5 16.5t5.5 26.5q0 -15 4 -3q2 11 3 11q2 0 2.5 1l1.5 3q2 7 1 13t4 20v1l-3 -3q2 5 7 20.5t10 26.5q-2 -7 -4 -8v6q0 -2 2 2q1 2 4 7l5 12v2q2 3 2 1q-1 -1 -1 -3l-1 -4q-2 -1 -3 -4q-1 -6 1 -6q4 3 8 12q4 13 1 13l-2 -1q4 10 5.5 20.5t6.5 19.5q1 1 9 11.5
t12 18.5q0 4 -6 -5q-4 -6 -3 -2q9 9 19.5 35t21.5 39l1 -5q11 17 13 20l-8 -9q6 10 13 15q5 12 21 31l-6 -11q6 7 19 25l5 3q1 1 2.5 3.5t2.5 3.5q5 8 26 34l1 -1q12 14 26 26q1 2 3.5 5t4.5 5l2 -1q1 2 4 4.5t5 3.5q3 5 8 9l7 7l1 1l-2 -1q-6 -3 7 9q2 3 6 7q6 5 7 6l2 1
q3 0 5 2q-1 1 1 3t4.5 4t3.5 4q3 2 5 1.5t9 5.5q8 6 3 6q7 2 20 11q-1 -1 -4 -3l-3 -3q0 -1 2 0q1 0 1.5 0.5t1.5 -0.5l2 2q-3 0 0 4q2 2 5.5 3.5t4.5 2.5q-2 0 -2 1q10 5 24.5 15.5t20.5 14.5l-2 -4q7 4 12 9l11 6q-9 -6 -7 -9l1 1q4 2 11.5 6t11.5 7t4 5q6 2 19.5 7.5
t19.5 7.5q9 6 11 7q3 0 3 -1q2 1 7 3t7 3q0 3 9 6q-5 -3 -7 -5q5 2 7.5 3.5l5 3t3.5 2.5t1 2q5 3 18.5 4t16.5 5h6l-2 -1q-5 -2 -6 -4q2 0 20 6l2 2v-1q6 2 8 0l5 2q-2 0 -4 2q2 -2 13 0l2 2q2 0 5.5 0.5t5.5 0.5q10 2 14 2h1q1 1 2 1l-1 1q-1 0 1 1q1 0 3 1h1h3.5h3.5l2 4
l7 -3q19 3 29 8v-2l1 1h1l-1 -1h5h2q27 3 34 3q-1 0 -5 -2q10 1 15 4q0 -2 5.5 -2.5t12.5 0.5t12 -1q2 1 7 1.5t12 1t10 0.5q-5 -1 -5 -3q6 1 17 -3q4 2 5 2q-3 3 1 4q5 -3 5 -4q-2 -1 -1 -2l18 3q5 -1 8 -4q12 2 20 -1l-15 2l5 -3l18 1q10 -2 14.5 -4.5t4 -4t-2.5 -4.5
q1 -1 1 -2h-2h-3v-1l1 -3h3q1 -1 -1 -1l-28 -2q-17 2 -17 5q-1 3 -10 5h-27l-1 2h-3.5h-3.5l-1 -1l-1 1q-1 0 -4 0.5t-6.5 0.5h-8h-7h-6.5l4 -2q-15 -3 -38.5 -1.5t-34.5 -1.5l-16 -6l-4 3q-16 -7 -28 -8q-51 -5 -171 -51q3 0 6 1q-28 -8 -59 -29q-41 -28 -51 -33l2 3l-8 -5
q2 2 -1 1l-4 -2q0 -2 -6 -7t-14.5 -11.5t-12.5 -10.5q0 1 1.5 2t3.5 2.5t3 2.5q-9 -3 -10 -4q-5 -8 -24.5 -27t-24.5 -25q-2 0 -7.5 -3.5t-12.5 -8t-11 -6.5q-2 -4 -4 -12q-8 -6 -13 -16q3 3 7 7.5t6 6.5l2 2l4 6q3 1 3 0q-1 -3 0 -4q-15 -18 -18 -18q-1 -1 -2.5 -3t-3 -3.5
t-3.5 -2.5q-1 -1 -3 -3.5t-3 -4.5l1 2q-1 0 -1 -0.5t-1 -0.5q-7 -7 -26 -42q2 4 1.5 5t-4.5 -2l-5 -2l21 27q-1 -1 -3 -1q-7 -6 -16 -20.5t-16 -22.5l1 4q-8 -9 -8 -17q-2 0 -9 -8.5t-10 -15.5q-2 -6 -9 -20l2 6q-5 -7 -7 -13t-6 -12l2 4l-2 -2q-7 -15 -9 -30l-2 3
q-1 -3 -3 -10t-3.5 -11.5t-3.5 -9.5t-3.5 -7.5t-2.5 -2.5q2 -3 0.5 -8t-7 -19t-6.5 -18q1 3 -1 5v1q-1 -7 -4.5 -20t-5.5 -20q-2 -6 -5 -20t-5 -21l-6 -4q-1 -7 2 -17.5t1 -18.5l-1 6q-1 -8 -8 -63h-3q0 -4 -0.5 -13t0.5 -14q-6 -13 -4 -49q2 -47 0 -61l5 -1q3 -33 1 -37v3
q-2 -1 -1.5 -3.5t2 -9t1.5 -9.5q1 -7 4 -8l1 2q1 -19 11 -58.5t11 -48.5q17 -45 31 -67q4 -5 4 -14v-4q1 -1 3 -5h-1q0 -1 2 -4t3 -5q1 -1 2.5 -3t1.5 -3l2 -4q11 -14 7 -16q7 -11 22.5 -29.5t24.5 -32.5l-6 4q7 -12 16 -18q2 -2 -1 -2l13 -13l-3 1q5 -8 14.5 -18t16.5 -16
t22.5 -19.5t18.5 -16.5q-5 4 -2 -2q8 -3 30 -19t25 -18l-9 3q11 -6 19.5 -15t21.5 -15q-2 2 -6 5.5t-6 5.5q14 -10 17 -7q4 -3 4.5 -5.5t7.5 -6.5q2 -1 3 -2q0 -1 -5 1h-3q1 -1 3 -2.5t3 -1.5l2 -1l2 -1l13 -7q5 -1 5 -0.5t-2 2.5q8 -5 4 -5l15 -7q4 -1 2 1q-1 1 -2 3
q6 -3 23 -10.5t26 -10.5q8 -3 24 -7q20 -6 26 -9zM366 1201q-2 -3 -6 -7q2 0 6 5v2zM130 598zM285 271l1 -1zM1003 1441l4 -2h1q0 1 1 2h-6zM1009 1438zM1011 1441v0v-1v1zM134 591v1v0h-2h-1l-1 1q-2 0 -3 1q0 1 -1 2v1v1v1q0 3 -2 9q-4 11 0 21l-3 -4q0 3 1 10
q-4 -7 -2 -15q2 -10 3 -14q-6 18 -6 22q0 -3 3 -18q1 -2 1 -7v-3v-1q0 -1 0.5 -2t0.5 -2t0.5 -1t0.5 -1l1 -2l1 -1l2 -1h1v1h3q2 1 3 1zM370 1208l-2 -2v2l1 1q1 1 2 1q-1 -1 -1 -2zM401 1270l1 1h1q-1 -1 -2 -1zM736 1448q12 2 11.5 3.5t-1.5 1.5q2 0 11 1q-14 -3 0 -3z
M674 1434q-6 -1 -6 0q0 -1 6 2v-2zM302 1166q0 1 -2 0l1 3zM223 1054l-2 -4l-4 -10zM228 311q-4 6 -3 7t4 -3zM485 68q-12 2 -17 9q10 -5 17 -9zM173 633l-1 6v6z" />
    <glyph glyph-name="O.alt4" unicode="&#xf003;" horiz-adv-x="1902" 
d="M464 1760q5 6 13 2q-2 -1 -6.5 -1.5t-6.5 -0.5zM386 1730q-2 0 -7.5 -1t-8 -1t-4.5 2q2 0 7.5 1t8 1.5t4.5 -2.5zM1834 882q-18 -24 -12 -47t-15 -42q1 -3 6 -9t5.5 -9.5t-4.5 -13.5q-13 31 -56 27q6 -8 15.5 -16t15 -11.5t8 -8t-3 -8.5t-20.5 -10q-21 10 -20 18l-18 -12
q-13 7 -14 6q0 -1 8 -7q40 -34 22 -41q-7 -11 -9.5 -7.5t-4 14t-12 15t-33.5 -4.5q98 -28 -11 -96q32 -4 56 -23q-13 3 -20.5 -1.5t-10 -10.5t-6.5 -11t-15.5 -4t-31.5 12q24 -4 27 13q2 12 -7 13q-5 1 -12 -4q2 -1 5 -3q7 -4 5 -6q-1 0 -3 -2l-11 -7q-29 -13 -14 -23
q11 -7 12 -9q0 -4 -15 -9q-8 -3 -22 -7q-8 -4 -9.5 -6t2 -3t7.5 -2.5t8 -4.5t4 -7q-12 -4 -12.5 -13.5t-1 -12t-22.5 3.5q4 -19 29 -14q5 1 2.5 -2t-20.5 -19q-19 -2 -20 -6q0 -5 3 -12q-13 5 -19.5 2t-17.5 8q6 -14 6 -18t-7.5 -14t-8.5 -13q23 8 23 -2t-23 -20q5 14 -3 11
q-15 -5 -44 -40q-13 -16 -8 -15q2 0 8 4q30 -22 35.5 -26t-1.5 -6t-21 -2.5t-28 -15.5t-18 -45q-12 -10 -27 1q-11 12 5 20q-13 7 -13 -7q-1 -18 13 -24q1 -1 2 -1q9 -13 7.5 -16t-10 1t-17 6t-12.5 -1t3 -21q-10 2 -23.5 24.5t-25.5 17.5q14 -3 2 -9q-20 -12 -20 -18
q-1 -4 2 -7q-6 1 -8.5 1h-5.5t-3 -0.5t-0.5 -1.5t1 -2.5t2 -3.5t2 -5t2.5 -6.5t2 -8.5t1 -11q-17 6 -16 -1q0 -1 14 -28q13 -25 -5 -26l-6 26q-1 0 -2 -9q-5 -31 -15 -33q-4 0 -9 3q-2 -4 4.5 -15t-1.5 -17q8 -5 -7 -8q-2 0 -19 -2q3 -3 4.5 -10.5t8.5 -10.5q-11 -7 -14 1
t-1 20q-19 -2 -26 -9q12 -30 -14 -12q8 -15 -15 -16l-29 -1q-4 -3 8 -12q4 -10 -15 -15q-27 -6 -36 9q-4 7 0 17q-2 -2 -20 -9l-17 -8q0 -1 8 0q5 -15 -23.5 -28.5t-32.5 -22.5q14 27 -4 25q-22 -2 -48 -26t0 -25q-15 -17 -16.5 -6t-8.5 26t-23 6q3 -8 10 -10t8.5 -2.5
t-2.5 -11.5q8 -28 -10 -31q-18 -2 -28 12q-9 13 12 22q-19 -1 -27.5 -2.5t-9 -5t2.5 -6.5t9.5 -10t9.5 -13q-42 -7 -51 -10q17 24 0 38q-5 3 -5 2l6 -6q0 -6 -5.5 -7.5t-10 -1t-6 -3t5.5 -11.5q2 -12 0 -11q-1 0 -6 6q-18 22 -28 15q0 7 -4 10t-9.5 3t-13.5 0.5t-13 2.5
q2 1 5 3q11 8 15 0l2 -6v13q1 14 -1 14.5t-6 -6.5q-7 23 -10 23q-1 0 -3 -10q-8 -34 -24 -34q-2 0 -5 1q9 12 10.5 20t-3.5 12.5t-12 7.5t-18 7t-19 9q-4 10 -1.5 25t-5.5 26q9 -1 16 3t3 11q-31 -14 -31 2q-1 10 -4 10q-5 0 -20 -10q-8 -28 -9 -29t-3 5q-2 3 -6 20
q-13 -27 -23 -30q-13 -2 -30 11q-5 5 -13 -2q20 -1 29 -25q8 -21 -7 -23q-6 -1 -15 3q-3 -20 -21 -36t-20 -31q-7 20 -23 5q-11 -10 -10 -20q-4 3 -6 8t-4.5 7t-9.5 2q-1 7 10 13t8 19q-1 6 -6 7.5t-10 0.5t-10.5 -2.5t-9 -3t-3 0.5t5.5 8t17 18q-10 7 -14 11l-7 7t1.5 6.5
t8.5 5.5l16 8q3 10 14 14t14.5 5t-2.5 15q10 -9 14 4q4 14 -4 16q-2 1 -6 -1q-16 -27 -43 -28q-21 0 -19 17q1 12 15 29q-10 4 -46 -3q-10 -2 -10 1q-1 3 17 19q9 7 -5 11t9 14q-10 8 -15 2t-5.5 -16.5t-5 -20t-14.5 -7.5q11 27 2.5 35.5t-26 23t-19.5 30.5h-6l1 1
q27 9 4 25q-22 -9 -21 -13q1 -3 18 -1q-9 -5 -33 -29q-7 -6 -7 1t4 29q13 -21 13 -2q0 5 -2 18q-1 15 -1 20q-5 0 -12.5 -1t-11.5 -1.5t-7.5 1t-3 6t4.5 13.5q22 0 14 18q-7 16 -22 18q-11 2 -16 -12q-7 8 -3 21.5t-0.5 23t-24.5 4.5q7 2 0 23q-3 9 -7 9q-1 0 -2 -1
q10 4 18 28q6 16 -1 15q-8 -3 -28 -26q3 5 1 9t-1.5 6t-3.5 4.5t-5.5 3l-6 2t-6.5 2.5q3 1 16.5 2t19.5 5t1 14q-23 -6 -32.5 -6.5t-10.5 3t0 8.5t-5 11t-22 8q6 18 15 26t15.5 8t8.5 4.5t-4 16t-23 42.5q1 -28 -1 -40t-7 -14.5t-16.5 -10.5t-22.5 -22q-17 12 12 37
q18 17 12 20q-4 2 -20 2q-6 -3 -7 -7.5t1 -11.5t2 -11q-5 -1 -13 7t-13 -3q1 12 1.5 19.5t-1 19.5t-6.5 16t-14 7.5t-24 -4.5q6 -11 -5 -18q-10 -7 -13 4q-1 3 0 8q10 -4 17 6t10 23.5t9.5 22.5t15.5 4q-10 -15 -8 -16q1 0 8 4q15 9 23 11q-8 0 -17 7.5t-13.5 10t-12.5 -5.5
q-11 20 16 31q28 11 43 -5q5 -5 6 -11q6 5 -1.5 15.5t-4.5 18.5q-40 -21 -72 -6q-28 13 -6 41q7 8 19 17q-16 7 -19.5 11t-2 6.5t10.5 11.5t15 20q-6 22 -4.5 22.5t9 5t9.5 20.5q-28 -3 -28 0q0 1 24 16q13 8 18 15q-17 6 -22.5 17t2 21t23.5 13q-1 18 -6 31q-2 3 -1.5 3.5
t5.5 0.5q16 0 34 2q-12 1 -17 5t-5.5 7t2 11t3.5 12q-13 -8 -17 1.5t-6.5 29t-10.5 27.5q6 0 14 -2t16 -4.5t12.5 -6t2.5 -7.5q-20 -19 -13 -18q10 1 18 17q4 9 2 17q-6 6 -22.5 10.5t-23.5 17.5q12 -1 17 1.5t4 7t-3.5 9.5t-5.5 9.5t-1.5 7.5t8.5 2q11 3 -11 24
q-17 14 -8 15q5 1 20 -2q16 17 26 17t32 9q-22 2 -23 12q-2 10 11 16q9 5 9 -3q0 -5 -4 -14q15 0 14.5 -23t-15.5 -36q-13 8 -13 6q0 -1 1 -5q8 -20 0 -31q3 2 11 9q69 53 53 69q-8 6 -26 8q5 4 12.5 7.5t12.5 5.5q8 3 11 5t5.5 4.5t-1 5.5t-11.5 6q-1 -9 -3 -12t-3 -2.5
t-5 5.5t-7 7v1q-15 -13 -27 -1q-9 12 5 21q-1 -8 1 -11t5.5 -2l7 2t6.5 -0.5t3 -8.5q4 16 4 21.5t-6.5 23.5t-7.5 22q11 1 17.5 -7.5t8 -18.5t6.5 -15.5t14 2.5q-28 35 -16 35q8 0 8 3q0 1 -1 2q-8 12 -8 20q-2 1 -10.5 2.5t-11.5 4t-2 9.5q3 -2 8 -5.5t9 -6t7 -4.5
q0 12 21 -4q8 -7 14 -15q0 3 -5 9t-6.5 10t4.5 15q-12 2 -22 11q-4 5 2 7h3q40 -9 61 -18q-11 -4 -15 -8q-6 -5 0 -5q13 -1 19 14q1 2 1 4q1 17 18 2q1 15 -11 22q-9 5 -11 -10q-5 0 -7.5 10t-6 16t-12.5 0q-9 16 14 47q26 33 46 20q6 -3 10 -11q-1 -49 33 -12q19 21 30 45
q4 16 12 22.5t16 6t18.5 2t17.5 11.5q14 26 19 17q5 -11 -9 -28q-5 -6 -11 -9q19 -5 27 11t-1 27q37 29 37 19q0 -4 -5 -17q-8 -16 -4 -17q4 0 15 8q5 -5 11 -5t11 3t13 8t11 7q4 6 14 -9q5 -7 5 1v8q12 3 13.5 8t-2.5 10.5t-8.5 11t-3 11t11.5 8.5q-3 -15 0 -16.5t9 1.5
t10 -10q8 6 9 2.5t5 -9.5t12 -4q19 -4 28.5 0.5t11 11t9 9.5t22.5 -3q11 3 13.5 -2.5t0 -14t1.5 -19.5t17 -16q6 -3 13 4q5 5 1 6q-2 0 -7 -3q5 17 1 19t-17 -12q2 12 3.5 19t2.5 10t2.5 3.5t3 -0.5t3.5 -2.5t5 -2t7 1.5q6 10 1.5 12.5t-15 6t-12.5 8.5q25 6 48 17.5
t47 17.5q-12 -18 -3 -17q6 1 18 8q-4 -8 -2.5 -9t6.5 0t10.5 3t9.5 0t4 -9q-6 -3 -12.5 -1t-13.5 0t-11 -10q-3 -1 1 -1q3 0 11 -1q87 -5 88 -22q1 -6 -8 -13q-20 0 -44 8q-3 1 0 -2q22 -17 25 -20q17 -8 13.5 -15t-13 -15t2.5 -27q1 1 4 2l8 4t4.5 -2t-3.5 -15
q5 -4 10.5 0.5t6.5 12t-1 13.5q-23 1 -22 6q0 7 23 6q24 -2 37 -18q-17 -14 -25 -40q-3 -8 0 -8q4 1 15 17q12 2 20 4.5t13.5 4.5t6.5 6.5t2 6.5t-3 9t-6.5 10.5t-10 13.5t-11.5 16q19 -14 29.5 -16t15 4t15.5 16t25 15q2 -9 -10 -25.5t-18.5 -27t4.5 -22.5q2 4 3.5 8.5l2 6
t2.5 2t5 -1t10 -4.5q-18 23 -10 26t21.5 9t7.5 20q16 -11 17.5 -7.5t9.5 10.5t24 4q-14 11 -14 18t16 32q-9 25 13 12q12 -7 40 -30q12 -10 15 -12q-27 -2 -34 -37q10 -1 18 6t13 15.5t10 15t9.5 4t10.5 -18.5q-2 -9 0 -10t7 2.5t10.5 4t10.5 -6.5q-3 -15 7.5 -29t-1.5 -42
q15 -3 24 6q3 2 -3 3q-4 0 -12 -1q-2 21 10 22q12 0 17 -14q5 -13 -7 -25q3 -2 11 -5q13 -4 7 -7q-3 -2 -7 -3q23 -5 21.5 -2t0 15.5t16.5 19.5q7 4 9 -8q1 -5 2 -15q0 -11 2 -11l6 16q0 9 2.5 10.5t10.5 -2.5q-18 11 -13 23q4 12 16 4q7 -6 12 -16q23 -14 54 -7q8 1 0 2
q-5 0 -14 -1q-33 25 -4 26q10 0 28 -2q14 -1 16 -16.5t-12 -16.5h-6q6 -9 -3 -12t-24 -5t-18 -9q12 -1 13.5 -1t1.5 -3.5v-10.5q6 3 14 14.5t12.5 10.5t8.5 -23q22 7 29 -19q7 -25 -8 -35q-4 -3 -10 -3q18 38 -2 42q-16 4 -28 -13q-5 -8 -4 -16q22 -2 32 -25t18 -27
q-12 37 13 46q21 7 35 -10q17 -24 -18 -57q3 0 12 -4.5t14 -1.5q-6 11 -1 14.5t15.5 10t11.5 13.5q8 -23 6 -40q-1 -8 -9 11q-2 3 -3 6q-8 -4 -9.5 -6.5t2 -8t4.5 -8.5q1 -7 -6.5 -16t-7.5 -10.5t15 -1.5q2 -9 9 -15.5t11.5 -9t2 -5.5t-17.5 -8q13 -4 21.5 3t5.5 20
q14 1 19.5 -5t5.5 -14t5.5 -15t19.5 -8q-8 -21 -2 -23q4 -1 13 2q3 -13 -7 -15t-21 4q8 -13 16 -13.5t21 5.5q-17 -7 -15 -18.5t11.5 -21.5t23.5 -18q-7 26 11 48q5 6 5 2t-6 -17q36 -6 42 -19q0 -5 -5 -7q9 -4 10.5 -6.5t-3.5 -5.5t-10 -5q-5 -1 -7 -2l-6 -3t-6.5 -3.5
t-4.5 -4t-3 -5.5q34 16 47 -7q10 -19 -8 -34q-12 -10 -32 -10q13 -2 25 0.5t19.5 6t13.5 5.5t8 -0.5t2 -11.5q-1 -2 -9.5 -7.5t-10 -9.5t6.5 -15q5 25 21 3q12 -17 7 -22q-2 -1 -5 1h-1q3 -8 -6 -9q-8 1 -9 7q2 0 7.5 0.5t7.5 1.5q-10 5 -17.5 1.5t-22.5 -11t-23 -8.5
q6 -1 27 3t32 1t5 -20zM338 1343q9 5 9 10t-6 7.5t-11 0.5q4 -10 8 -18zM156 705q12 17 0 26v-26zM415 1350l-18 -9q2 -11 12 -2q5 5 6 11zM401 1318q-6 1 -11.5 -0.5t-12.5 -6t-9 -5.5zM399 225q-1 6 -2.5 14t-1.5 11q-7 -1 -5.5 -11t9.5 -14zM345 1236q-21 -33 -19 -33
t11 9q18 16 8 24zM328 1189q-18 -13 -31 -23q9 -5 21 5.5t10 17.5zM243 825q-12 -18 0 -27v27zM253 676q-2 7 -8 12t-12 4t-7 -9q9 -9 27 -7zM223 808q-3 -16 -9 -18.5t-12 3t-12 6t-11 -7.5q16 -8 12.5 -14.5t-11 -11t8.5 -15.5q4 5 18 7t17 4.5t-8 16.5q15 17 16 21t-9 9z
M211 642q-3 -1 -13.5 -1.5t-14.5 -3t0 -10.5q3 3 10.5 2.5t12.5 1.5t5 11zM211 703q-28 -3 -29 -7q-1 -6 27 -5l1 5q2 5 1 7zM198 618q-3 -3 -3.5 -5t1 -3.5t4 -2.5t6 -2t5.5 -2q2 3 2 4.5t-2 3t-4 2.5l-5 2.5t-4 2.5zM176 657q16 -9 18 6q1 13 -9 15q-5 1 -10 -4
q14 -8 1 -17zM137 554q7 -7 11 -6.5t10 3.5t10 2q7 11 -2 9q-4 0 -14 -4q-12 -4 -15 -4zM180 567q-9 -14 -13 -21t0.5 -9t6.5 -1.5t15 3.5q8 2 13 3t14.5 2t14.5 0q-2 10 -19 11t-21 10q1 1 3.5 4t4 4t4 2.5t4.5 1.5t5.5 -1t7.5 -4q-1 28 -15 13q-4 -5 -7 -8t-8 -6t-10 -4z
M245 555q-6 -4 -8 -8t-1.5 -7t2.5 -10t3 -11q12 2 11.5 14t-7.5 22zM215 451q6 -18 30 -21q16 -3 15 5q0 5 -10 13q-7 -7 -10.5 -7t-12 4.5t-12.5 5.5zM265 626q0 -1 15 -1q-8 24 -15 24q-5 -1 0 -23zM275 1141q-6 -5 -5 -6q3 -1 12 9q2 1 3 3q-4 8 -20 -2q-10 -6 -1 -6
q4 0 11 2zM271 1181q3 1 11 1.5t13 3t7 8.5q-3 4 -17.5 -2t-13.5 -11zM306 321q6 10 -3 20q-7 7 -13 -2q12 -16 16 -18zM317 371q11 -3 10 7q0 12 -10 13q-6 1 -11 -6q10 0 13 -2.5t-2 -11.5zM327 299q22 1 23 5q0 2 -9 3q-20 1 -19 -12l2 -7q9 1 9.5 3t-6.5 8zM366 331
q6 6 1 14t-8 -6q-10 7 -9 5q3 -7 16 -13zM372 1170q-8 7 3 10q-4 12 -10 5q-6 -9 1 -14q2 -2 6 -1zM380 205q5 -1 15.5 -5t16.5 -6q-2 11 -8.5 13.5t-23.5 -2.5zM416 367q2 4 -0.5 8.5t-7 5t-8.5 -5.5l9 -4.5zM1562 1307q-2 -6 -6 -15.5t-5 -12.5q18 -6 21 3.5t-10 24.5z
M1460 1388q-4 17 -21 2q3 0 10 -1t11 -1zM1396 1376q-3 -12 -5 -18q16 -1 17 1t-7 11q-3 4 -5 6zM1326 1396q-4 -5 2 -13t16 -5zM1236 1423q-2 1 -3.5 0.5t-2.5 -3t-1 -4.5t-1 -5t-1 -4q11 -7 11 2q0 2 -1 8q-1 4 -1 6zM1222 1442q-9 -2 -12.5 -3.5t-5.5 -6.5t1 -13
q2 -1 7 3.5t8.5 11t1.5 8.5zM1210 1507q2 24 -1 25q-2 1 -6 -3q-3 -15 12 -30zM1057 1380q-13 -3 1 -16q14 10 -1 16zM1037 1346q-6 15 -12 10t-3 -19q2 1 3.5 6t3 6t8.5 -3zM938 1464q-17 7 -20 2t1 -15t-4 -15q18 8 23 28zM915 1474h-32q7 -10 13.5 -10t18.5 10zM913 1436
h-1l-2 -1q-5 -1 -7 -2zM873 1519q-4 -7 3 -11t7 -7q5 15 -10 18zM870 1489q-13 -7 -22.5 -5t-15 0.5t-5.5 -13.5q7 5 12.5 4t9 -4.5t9 0.5t12.5 18zM823 1458q-4 -4 -8 -7.5t-8.5 -7.5t-7.5 -6q10 -4 15 0.5t9 20.5zM783 1436q-1 9 -25 26q-31 21 -36 2q17 -2 35 -14t26 -14
zM724 1449q-3 4 -9 -2.5t-10.5 -15.5t-2.5 -11q3 5 11 14.5t11 14.5zM679 1462q-5 -6 -8 -6.5t-9 4t-8 5.5q4 -13 16 -16q9 -2 9 8v5zM564 1420q-2 -4 3 -13t5 -11q8 4 4 12.5t-12 11.5zM533 1409q-8 -9 -5 -13.5t19 -11.5q-3 5 -7 12.5t-7 12.5zM562 1157q-18 -2 -33.5 -25
t-9.5 -46q15 11 47 48t7 28q-5 -2 -11 -5zM455 1412q-4 -5 -3 -10.5t5.5 -7.5t9.5 2q3 4 1.5 6.5t-3 3.5t-5 3t-5.5 3zM466 755q2 -11 14 -3q10 7 3 11l-6 2q1 -7 -1.5 -9t-9.5 -1zM553 638q39 -26 30 -13q-3 4 -12 13q11 2 10 4q0 1 -6 3q-16 6 -20 12q-6 -18 -12 -9
q-7 11 -1 19q15 0 17 2.5t-1 16.5q-4 4 -4.5 10t0.5 11.5t1.5 11t-2 8t-9.5 1.5q-6 0 -9 12q-3 11 5 10l11 -5q-6 13 -8 29t-5.5 21t-17.5 2q20 10 12.5 74t-30.5 75q14 -5 22 22q12 41 1 84q-12 41 -37 11q-14 -17 -15.5 -25t4.5 -15t7 -12q-24 -12 -24 -15q0 -1 20 -4
q16 -4 23 -12q3 -10 -4 -11t-17 4q-3 1 -5 1.5t-5 1.5t-5.5 1h-4.5t-4 -0.5t-3 -2.5q0 -6 1.5 -8t4.5 -0.5t6 5.5q-2 -4 -5 -11q-10 -24 -6 -25q1 -1 5 -1q17 -1 31 -8q-12 -5 -18 -8.5t-14 -10.5t-10.5 -15t-2 -20t5.5 -28q33 5 51.5 -18.5t19.5 -76.5q9 -30 -5 -45
q-12 -14 -23 17l-2 6q-9 -33 18 -86q21 -38 33 -30q7 5 8 27zM544 -12q-14 22 -22 6q-7 -13 2 -19q6 -5 16 1q-24 12 4 12zM549 -67q1 5 4 7.5t5 3.5t8 2t8 2l-5 2.5t-5.5 2.5t-4 2.5t-1 3.5t3.5 5q-17 -3 -23 -19q-5 -13 8 -12h2zM569 589q2 -3 5 -2t4.5 2t4 3.5l3.5 3.5
q0 6 -11 2q-9 -4 -6 -9zM637 35q5 2 7 4t2 4t-0.5 3.5t-3 5t-3.5 6.5q0 -3 -2.5 -9t-2.5 -8t3 -6zM675 59q4 7 1.5 11t-8.5 3.5t-8 -4.5q1 -10 15 -10zM903 -61q4 -4 6.5 -3t8.5 6t8 6q-3 3 -6 1.5t-9 -5.5t-8 -5zM1063 -2q5 -1 9.5 1t9.5 6t8 6q-4 6 -15.5 0.5t-11.5 -13.5
zM1356 470q3 -9 17 5q10 9 6 12q-3 -3 -11 -8.5t-12 -8.5zM1512 409q10 7 10 12t-8 17q0 -5 -0.5 -14.5t-1.5 -14.5zM1564 855q9 9 -14 42q-2 3 0 1q2 -1 9 -7q1 1 5 3t4 4q-2 8 -15 15.5t-15 9.5q12 2 13.5 4t-4.5 10q10 22 8.5 50.5t-15 51t-28.5 15.5q22 22 -6 62
q-15 21 -9 24q2 2 6 2q-11 9 -25.5 10t-22.5 -6q4 9 0 13.5t-5.5 5.5t-8.5 1h-9q8 4 9 8q-3 0 -10 -2t-9 -1.5t-6 2.5q17 7 25 3q-2 12 -40 15q-26 1 -26 -6q0 -3 4 -6q-55 49 -77 40l18 -18q-5 -2 -9 -2.5t-5.5 -0.5t-2.5 3t-1 4.5v6.5v7q-13 -19 -38 -18t-39 -10
q-7 8 -10 9.5t-3 -2v-8.5v-7.5t-1 -7t-3 -5.5q-11 -9 -21 -1q31 10 10 16q-30 9 -70 -4q-20 -6 -29 -17q-11 -11 -15 -22t-4 -18t-6.5 -14t-22.5 -12q8 2 16 -1.5t3 -11.5q-27 -16 -62 3.5t-66.5 54.5t-71 65.5t-76.5 37t-84 -31.5q-26 23 -39 22.5t-80 -27.5l-1 -1l-1 -1
l-1 -1q-24 -24 -22 -24q1 0 5 1q26 9 33 -10q2 10 7.5 13t11 1.5t11.5 3.5t9 18q1 -18 11 -25t19.5 -6t15.5 -3.5t-2 -17.5q18 11 23.5 16.5t2 7t-11.5 3t-16.5 3t-13.5 7.5t-2 17q7 -3 22 -9t19.5 -8.5t10 -9t2 -15.5t-13.5 -23q-64 -39 -98.5 -142t-23.5 -237t74 -245
q11 7 11 1q0 -3 -3 -13q-10 -37 6 -46q-9 -21 13 -31.5t23 -16.5q0 -15 21 -33.5t48 -30.5h1q1 5 -0.5 6.5t-5.5 2.5t-6 2q-1 13 14 10q14 -2 9 -11q-2 -5 -11 -10q3 -2 6 -7t5.5 -8.5t5 -6.5t6 -2t8.5 7q0 -4 -0.5 -11t-0.5 -10.5t3 -7.5t9 -7q-2 16 16 -5q5 -7 18 -24
q20 -26 25 -30q12 -23 25 -32.5t22 -10t19.5 -12t18.5 -39.5q8 -12 30.5 5.5t34.5 39.5q-1 0 -4 1l-6 3q0 1 7 4q4 1 6 -1q3 6 1.5 9.5t-7.5 2.5q9 28 16 29q2 0 8 -12q4 -7 7 5q1 3 2 7q-16 10 -17 12q0 1 10 0q27 -5 31 3q20 5 39 21t48 20q-14 12 -14.5 19.5t6 9.5
t21.5 4q-4 -6 -5 -8t-2 -6.5t1 -4t5 -1.5t10 1q-1 3 -3.5 9t-3.5 10q48 7 52 26q9 9 5 44q23 -17 34 0q19 8 25 30t31 29q1 14 17.5 24.5t33 15.5t27 16t-0.5 25q-6 6 -2 13q4 6 7 2q1 -3 -1 -10q22 8 27 30.5t23 28.5q13 2 13 10t-3 15.5t9 13.5q0 -14 2 -14l3 3q4 6 7 8
q-28 24 -17 24q9 -1 25 -12q7 11 -4 16t-11 8q20 -3 26.5 8.5t4.5 35.5q10 12 10.5 26.5t-4 22.5t-1.5 13t19 4q9 9 3 10q-2 1 -9 -1q-6 -1 -6 0q-1 1 10 8q9 4 1 15q-12 2 -15.5 3.5t0 4.5t9.5 6q8 4 12.5 6.5t9.5 8t5 10.5zM1570 460q10 8 10.5 11t-8.5 13q0 -4 -0.5 -12
t-1.5 -12zM1570 513q4 1 13 0q12 -1 13 2q0 3 -5 9q-7 -4 -21 -11zM1650 1155l-15 -3q-2 -7 6 -6q10 0 10 6q0 2 -1 3zM1635 614q5 3 13.5 7.5t9.5 5.5q-14 4 -18.5 1.5t-4.5 -14.5zM1711 692q-9 1 -18.5 -13.5t-14.5 -29.5q9 2 14 8.5t10.5 18.5t8.5 16zM1723 1032
q-18 12 -20 -1q-2 -15 9 -24q10 -8 18 10q-23 8 -24 10q-2 4 15 5h2zM1735 892q0 -3 1.5 -10.5t2.5 -11.5q6 9 7.5 13t-1 6t-10.5 3zM1747 812h24q-16 18 -24 0zM1185 328l1 1v1v-1l1 -1h-2zM102 552q-9 -19 -22 -6t-5 26q3 4 8 6q7 14 -6 18.5t1 13.5q-13 3 -22 5q4 0 7 1
t7 6t-4 15q39 -21 36 -85zM1479 1521q-3 3 -11 8t-11.5 10.5t-2.5 14.5q7 -5 21.5 -9.5t21 -11t2.5 -21.5q-3 -10 -22 -8.5t-23 -13.5q-20 6 1 39q0 -5 0.5 -7.5t2.5 -3t4 0t7 1.5t10 1zM801 1528q-44 -12 -44 18q0 20 12 27q7 5 9 -8v-12q7 -19 20.5 -7.5t7.5 26.5
q9 0 13 -2t3.5 -5.5t-3 -6.5t-6.5 -8t-6.5 -7.5t-4.5 -7t-1 -7.5zM1388 1459q19 -3 6 -14q-14 -13 -25 -5q-7 4 -5 18q-13 -19 -23 -17q-8 1 0 22q12 6 23 -5q-2 7 -4.5 20t-3.5 19q6 -10 17 -11.5t17 0.5t8 -3.5t-10 -23.5zM1128 1479q-31 28 -30 43q1 14 35 -16
q13 33 14 14q2 -21 -6 -41l-6 6q-2 3 -3 3.5t-2 -1.5t-2 -8zM487 23q-9 8 -25 0.5t-19 5.5q0 18 19 16q6 -1 8 -3q1 -3 -4 -4q-3 -1 -8 -2q9 -1 18.5 6t20.5 -3q21 -11 19 -21q-1 -11 -19 -1q-5 2 -10 6zM842 1588q44 -29 25 -29q-23 1 -59 22l-6 4q2 0 19 4q46 11 46 9
t-25 -10zM1605 1332q-12 12 -3.5 38.5t4.5 31.5q-7 7 -1 7q8 1 11 -9q2 -6 -2 -13q5 5 8 -7q5 -23 -9 -30q-3 -2 -7 -2q10 -5 13.5 -7t0.5 -4.5t-15 -4.5zM754 1520q-16 -13 -46 -3q-28 9 -15 26q3 4 9 8q5 -12 10 -15.5t9.5 -2t13.5 -1t19 -12.5zM1449 1450h-1h1z
M1449 1450zM1325 1509q-6 8 -8.5 9.5t-3 -1.5t-4 -5.5t-9.5 -1.5q-19 25 -3 26q18 0 36 -15q15 -12 -8 -12zM1058 1490q2 4 2.5 3.5t-0.5 -3.5h-2zM1093 1480q-17 -10 -25.5 -9t-8 7.5t0.5 11.5q5 -2 13.5 2.5t12.5 8t7.5 0t-0.5 -20.5zM1430 1489q-3 -7 0 -14t10 -14t9 -11
q-27 -6 -41 14q-6 10 1 11q3 1 8 -1q4 -1 4.5 2t0 6.5t1 6t7.5 0.5zM1558 1348q-1 1 -16 6.5t-17 11.5q55 11 55 3q1 -6 -22 -21zM1596 1317q-3 -8 0 -8t8.5 3.5t11 4t7.5 -4.5t-3 -23q-16 0 -33 17q-12 12 1 12q4 0 8 -1zM379 121q-12 19 4 23q17 5 28 -8q10 -12 -8 -28
q-9 26 -17 25q-4 -3 -7 -12zM1341 1463zM1341 1463zM87 737q19 3 19 0q1 -4 -18 -6q-27 -3 -26 17q0 7 4 16q9 -3 11 -13.5t10 -13.5zM442 1454q12 0 18.5 0.5t4 -4.5t-5.5 -8t-10 -9q-3 -3 -5 -4.5t-4 -3.5q-4 5 -10 12q-6 6 -6 7.5t5 3.5q1 0 2 0.5l3 1.5l4 2zM1717 616
q-6 14 -4 18.5t14 12.5q14 -13 10.5 -24t-20.5 -7zM644 3q14 2 18 -1t8 -20q-14 -6 -20 -1t-6 22zM1583 1407q6 -4 8 -9t2 -7.5t-2.5 -9t-2.5 -7.5q-5 5 -11 9t-8 4.5t-2 3.5t3.5 6t12.5 10zM1324 1510q-8 -12 -11.5 -17t-7.5 -6t-6 0.5t-8.5 7t-13.5 9.5q10 7 24 2t23 4z
M1259 1556q8 20 13 19q7 -2 -1 -20q-7 -16 -21 -16q0 3 -1 10q-1 13 2 12zM502 1469q2 -7 -1.5 -10t-10.5 -6t-10 -8q-3 17 9 31q9 11 13 -7zM432 1422q6 -6 2 -13t-11.5 -8.5t-11.5 1.5q5 6 5 12.5t-1.5 9t1.5 2.5t16 -4zM454 -27q-11 14 5 19q15 5 20 -8q3 -5 1 -12
q-11 8 -14.5 9.5t-6 0t-5.5 -8.5zM1402 1589q-18 5 -22 11t4 9.5t23 3.5l-8 -8t-2 -3t2 -4.5t3 -8.5zM1418 1508q-6 -7 -12.5 -9t-11.5 3t-6 16q22 0 30 -10zM1593 1451q-9 -15 -18 -6q-10 11 3 23q2 2 4 3q10 -17 11 -20zM970 1594q-10 -4 -15 -3.5t-16.5 4.5t-17.5 4
q16 11 19.5 9.5t11.5 -8t18 -6.5zM308 232q-12 12 -9 14q3 4 11 -8q2 -2 3 -5q-4 -21 -13 -23q-5 -1 -5 5q0 8 13 17zM1487 1318q15 21 30 6q-9 -17 -30 -6zM105 483q12 8 25 -4q12 -10 -3 -14h-2l-3 -9q-1 0 -1 4q-5 20 -16 23zM1477 1480q5 16 15 11.5t17 -18.5
q-15 3 -32 7zM1723 1146q-10 14 -7 14q1 0 7 -4q18 -11 21 -5q8 -8 -11 -12q-18 -4 -17 1q0 3 7 6zM1587 438h2l6 -2h-1q-10 -7 -1 -23q-12 0 -17.5 2.5t-3.5 6.5t5 7.5t10 8.5zM1220 1540q-19 10 5 21q12 6 19 5q-4 -5 -12 -13.5t-12 -12.5zM1822 850q6 2 9 7.5t5.5 13
t4.5 11.5q13 -7 1 -26q-12 -16 -20 -6zM1676 555q-10 -8 -10.5 -12t6.5 -10q-21 -3 -20 9q1 11 14 14q6 1 10 -1zM1386 217q-15 -9 -25.5 -5.5t-1.5 19.5q2 -1 11.5 -6t15.5 -8zM1012 -68q-2 23 15 26q10 2 13 -3q2 -4 -6 -7q-5 -2 -12 -3q-1 -1 -1.5 -3.5t-0.5 -5t-2 -4
t-6 -0.5zM314 271q16 -10 9 -20t-15 -2q-5 4 -4 14q4 -9 7 1q2 5 3 7zM1145 1545q-2 -9 -5.5 -13t-8.5 -3.5t-9 2t-10.5 6t-9.5 5.5q5 6 15 0t28 3zM1643 1201q10 -7 16 -1.5t16 -10.5q0 -10 -19 -2q-17 8 -13 14zM819 -113q2 9 8 12t15 3t13 2q-6 -11 -9 -15.5t-4 -4
t-2.5 2t-3 4t-6 2t-11.5 -5.5zM1445 1570q-17 -3 -22 -1.5t-11 10.5q17 7 33 -9zM57 539q0 3 -2.5 11.5t-2 14t5.5 7.5q8 -9 9.5 -19t-10.5 -14zM618 1500q-14 -10 -15 -4q-1 7 8 10q8 4 13 -8q4 -12 2 -16q-3 -5 -7 3q-2 7 -1 15zM880 1639q-1 8 -2 10t-3.5 -0.5t-6.5 -8.5
q-1 -1 -1 -2q-7 12 4 19q11 6 14 -2q2 -6 -5 -16zM1807 1100q7 -6 6.5 -13.5t-6 -9.5t-13.5 2q0 5 6 12t7 9zM304 1284q-11 4 -1 16q6 8 13 8q-7 -6 -4 -11t2 -8.5t-10 -4.5zM1632 452q1 0 8.5 0.5t10 -2t2.5 -10.5q-4 0 -11 -1q-11 -2 -13.5 -0.5t3.5 13.5zM1842 1122
q1 -10 -4 -18t-12 -10q-5 21 16 28zM130 1072q-8 0 -15 9t-11 11q13 4 20 -1.5t6 -18.5zM673 1579q10 -1 12 -11.5t-6 -26.5q-4 26 -6 38zM1207 0q-2 8 11 19q7 -11 4 -16t-15 -3zM1526 359q10 10 26 0q13 -11 0 -18q-12 21 -26 18zM1447 1466q6 9 16 7.5t14 -9.5
q-2 0 -10 -2.5t-12.5 -1.5t-7.5 6zM1803 1027q-11 8 -3 16.5t19 -1.5q-3 -3 -8.5 -8t-7.5 -7zM709 1572q-7 -1 -10 -2.5t-6.5 2.5t-4.5 5.5t-3.5 8.5t-3.5 9q6 -2 15.5 -11.5t12.5 -11.5zM230 1249q-5 -3 -8.5 -3t-5 2t-4 6.5t-4.5 6.5q7 6 15 0.5t7 -12.5zM1358 1420
q12 5 14 -7q1 -13 -10 -15h-4v22zM244 376q-1 -3 -1.5 -5t0.5 -4t1.5 -3.5t3 -3t4 -2.5t5 -2.5t4.5 -2.5q-11 -16 -18 -2q-5 12 1 25zM883 1560q10 11 22.5 6t9.5 -18q-5 2 -11 7t-8.5 5.5t-12.5 -0.5zM569 -89q35 -10 12 -24q-1 3 -3.5 8l-4.5 9t-4 7zM774 1583
q-11 -5 -12 6q2 11 10 11q1 -2 4 -6t2.5 -5.5t-4.5 -5.5zM384 94q5 4 4 7.5t-1 6t5 3.5q12 -15 11.5 -18t-19.5 1zM671 1526q-10 1 -13 6t0 11t10 9q2 -16 3 -26zM1011 1496q5 -4 7.5 -6.5t2.5 -5.5t-0.5 -4.5t-4 -6t-4.5 -6.5q-4 2 -4 6t1.5 11.5t1.5 11.5zM1524 1394
q13 4 16 2t7 -15q0 -8 -12 4q-8 7 -11 9zM1753 1122q-8 -8 -14 -7q-6 0 1 6q3 2 8 4q11 3 19 0q6 -3 -1 -4q-5 -1 -13 1zM1358 1526q17 0 19.5 -2.5t-3.5 -18.5q-13 18 -16 21zM380 1455q-7 -10 -34 -2q7 4 34 2zM200 1172q-10 7 -6.5 16t14.5 15q-1 -6 -4 -16.5t-4 -14.5z
M1770 690q-12 -7 -13 3q0 11 12 13h7q0 -1 -4 -7t-2 -9zM365 1411q-11 -26 -23 -5q2 3 5.5 3.5t9 0.5t8.5 1zM1722 1066q-11 17 -4 28q4 6 5 -4q0 -4 -1 -12q9 2 9 0q0 -1 -9 -12zM1334 1564q-5 -7 -37 2q23 9 37 -2zM1444 1519q-12 -8 -22 4q-7 8 6 10h6q-5 -5 -4.5 -7
t3.5 -2t6.5 -1t4.5 -4zM302 143q4 -6 5 -6.5t-3.5 -5.5t-6.5 -7q-5 6 -6 7.5t4 5.5t7 6zM367 163q8 -6 6.5 -9t-10.5 -10t-11 -10q-1 4 2 8.5l7 10.5t6 10zM1344 190q4 -2 11 -3.5t11 -4t3 -6.5h-8.5t-8 0.5t-6 4t-2.5 9.5zM1805 1276q-4 -13 -14 -20t-17 5q11 -6 18.5 4.5
t12.5 10.5zM131 951q-12 16 -9 27l4.5 -4.5t4.5 -5t2.5 -4.5t0.5 -6t-3 -7zM1858 896q15 5 15 0q0 -3 -7 -8q-16 3 -12 17q2 5 4 3q1 -3 0 -12zM815 1629q15 -8 3 -21q-9 -8 -16 -3q15 11 13 24zM1679 1332q8 8 16 6t11 -13q-22 6 -27 7zM222 395q-10 -5 -17 1t1 15zM12 549
q2 2 5 5.5t5 5.5t4.5 2t6.5 -5q-2 -1 -7.5 -6.5t-7 -5t-6.5 3.5zM1157 1532q10 -3 12.5 -11t-6.5 -13q-4 14 -6 24zM295 1323h-16q-4 9 6 12q12 3 11 -7q0 -2 -1 -5zM1876 1062q-5 15 -4 17t3 -3q10 -16 4 -20q-3 -2 -12 5q1 0 4 0.5t5 0.5zM1010 1591q-16 -8 -17 -6
q-1 1 3 7q1 15 10 4q2 -2 4 -5zM1679 554q2 0 5 1t4.5 1h3.5t3 -1t1.5 -3.5t0.5 -6.5q-2 1 -8 1t-8.5 2t-1.5 6zM163 1128q-11 -14 -21 -5q-6 6 3 14q0 -8 2 -9.5t7.5 -0.5t8.5 1zM1349 1590q-3 -4 -12.5 -4.5t-17.5 2.5t-7 7q5 0 10.5 -1t13.5 -2t13 -2zM1359 1555
q-12 7 -7 26q5 -2 6 -5.5t1 -20.5zM968 -116q-6 0 -8 -6.5t-6 -6.5q-6 14 3 18q6 4 11 -5zM600 1524q8 19 -6 30q15 -1 16 -12t-10 -18zM1052 1405q-1 2 -5 5.5t-5.5 5t-2.5 5.5t3 7q16 -13 10 -23zM266 1282q5 -12 0 -12q-6 1 -16 12q0 3 1 4.5t3 1t4 -1.5t4.5 -2.5
t3.5 -1.5zM80 680q-9 3 -8.5 11t10.5 11q-2 -20 -2 -22zM799 1611q-2 1 -5 1.5t-6.5 0.5t-6.5 1t-5.5 1.5t-3.5 2.5t0 5q3 -1 11 -2t13 -3t3 -7zM679 6q5 2 12 6t10 5q2 -10 -3.5 -12.5t-18.5 1.5zM575 -82q9 -2 12.5 5t4.5 8q5 -14 -1 -18t-16 5zM229 466q1 7 -6.5 10.5
t-5.5 7.5q9 0 15 -5t-3 -13zM1610 1201q-2 12 4 9q10 -6 18 -21q-18 10 -22 12zM233 1184q-11 1 -1 18q12 -11 1 -18zM1887 1027q5 -11 2.5 -14.5t-16.5 -2.5q2 3 7 8.5t7 8.5zM160 413q-11 8 0 13q12 6 17 -5q1 -2 1 -3q-2 -1 -7 1.5t-8 2t-3 -8.5zM1095 -31q7 8 14 7
t9 -10q-2 0 -7.5 -1t-9.5 -0.5t-6 4.5zM1552 1441q5 11 7 5q4 -10 -3 -15q-3 -4 -9 1q3 5 5 9zM285 1377q2 0 5.5 1t5.5 1.5t4.5 0.5t4 -1t3 -3.5t2.5 -6.5q-4 2 -10 2.5t-10 1.5t-5 4zM1586 382q-4 2 -5 4t1 4.5t4.5 5t6 5t4.5 4.5q5 -9 -4 -13.5t-7 -9.5zM961 -144
q-4 -8 2.5 -10t7.5 -3q-9 -9 -15.5 -0.5t1.5 12.5q2 1 4 1zM1152 -45q-15 23 2 27q-1 -5 -1.5 -13.5t-0.5 -13.5zM613 -41q2 0 8 2t10 1t7 -6q-17 -6 -25 3zM1654 1238q-6 -3 -9.5 -2.5t-4.5 1.5t-3 7t-3 8q5 -3 11.5 -7.5t8.5 -6.5zM1532 1465q-6 3 -6 5.5t3 14.5
q9 -1 3 -20zM132 1051q5 -3 4.5 -5.5t-3 -8t-1.5 -9.5q-4 -1 -5 5q-2 15 5 18zM514 1520q7 3 10.5 2.5t4 -1.5t1 -8t1.5 -11q-4 4 -9 9.5t-8 8.5zM1284 1518q-3 2 -5.5 3l-5 2t-3.5 2q4 8 6.5 11.5t4 1.5t2 -6.5zM998 -119q8 -5 -2 -12q-14 16 -10 17q2 0 12 -5zM1246 1516
q-21 8 -5 21q1 -3 2.5 -10t2.5 -11zM1209 1561q1 4 0 9t0 8.5t5 3.5q-1 -4 0 -9t0 -9t-5 -3zM334 205q7 11 12 -2q5 -12 -4 -14q1 8 -4 11t-4 5zM800 1560q-11 18 -5 18q4 -1 12 -6q-4 -8 -7 -12zM1643 1409q-3 -10 -15 -8q-7 1 1 7q12 10 13 7q1 -2 1 -6zM1467 1474
q-6 17 7 26q-2 -4 -2.5 -10t-1 -10t-3.5 -6zM315 202q5 1 9 -4.5t4 -11t-2 -7.5l-6 12t-5 11zM1658 512q-4 4 -2 12t7 8q0 -17 -5 -20zM1573 1323q3 16 25 9q-6 -2 -14 -5t-11 -4zM749 1542q-7 -2 -12 -0.5t-1 8.5q7 1 11 -0.5t2 -7.5zM896 1630q7 7 14.5 6.5t10.5 -6.5h-25
zM1535 1462q4 -1 12.5 -1.5t12.5 -0.5q-12 -16 -25 2zM1625 1317q16 15 27 2q-4 -1 -13 -1.5t-14 -0.5zM63 823q2 10 9 16t13 -1q-14 -10 -22 -15zM1797 1130q-7 4 -9 7v2q5 -1 18 -14q-20 -10 -12 1zM688 -48zM688 -48zM31 531q7 6 16 15q2 -11 -0.5 -13t-15.5 -2z
M1640 1279q6 2 14 -2.5t10 -4.5q0 -6 -17 0q-8 4 -7 7zM688 1622q3 0 7 -0.5t6 -0.5t4 -1t2.5 -2.5t0 -4.5t-2.5 -7q-6 5 -17 16zM827 -88q-10 -13 -13.5 -13.5t-7.5 7.5q2 1 6 2t7.5 2t7.5 2zM1203 -19q-4 9 -2.5 12.5t12.5 2.5q-2 -3 -3 -6.5t-2.5 -6t-4.5 -2.5zM688 -48
q-12 0 -17 5q-3 3 3 4q5 0 17 -2zM376 1442q9 8 14.5 2.5t2.5 -13.5q-2 1 -7.5 5t-9.5 6zM116 507q-1 -1 -2.5 -3.5t-3 -4t-3.5 -2.5t-4.5 -0.5t-6.5 2.5q2 1 7 4.5t7.5 5t5.5 -1.5zM303 93q9 -8 8.5 -11.5t-12.5 -7.5q1 3 2 9.5t2 9.5zM405 1372q-7 -2 -11 3.5t1 12.5
q4 -4 10 -16zM1129 1579q-5 -10 -21 -1q3 0 9 2.5t8 2.5t4 -4zM68 801q13 4 19 -4q-4 -4 -11.5 -2.5t-7.5 6.5zM1014 -106q-10 -12 -22 2q4 -1 11 -1.5t11 -0.5zM599 -58q8 -6 10 6q1 3 1 4q9 -7 2 -15q-7 -9 -12 1q-1 2 -1 4zM1398 1544q9 9 10 5q0 -1 -4 -15q-8 7 -11 16
l2 -1q1 -2 3 -5zM865 -159q2 -2 8.5 -4t9.5 -4.5t0 -6.5q-2 2 -8 4t-9.5 4.5t-0.5 6.5zM1525 1545q-5 -2 -9.5 1t-5 7.5t2.5 6.5zM1508 336q-1 1 -4 2.5t-4 2.5t-1 3t2 4q9 -3 9.5 -3.5t-2.5 -8.5zM484 -85q9 6 12 -4q3 -9 -3 -11q-1 2 -4 7t-5 8zM1053 -48q0 3 2 3.5t5 1
t4 1.5q9 -13 3 -12q-4 0 -14 6zM1512 1509q10 0 12.5 -3t0.5 -14q-5 7 -13 17zM929 -186q11 -7 12.5 -9t-1.5 -8q-1 2 -5 6l-6 6t0 5zM667 1570q-2 -1 -6.5 -6t-7 -6.5t-6.5 0.5q2 1 4.5 5.5t6 6t9.5 0.5zM769 1518q8 4 10.5 2.5t4.5 -11.5q-2 1 -4.5 3t-5 3.5t-5.5 2.5z
M1571 1491q-11 0 -12 10q-2 7 5 8q4 -10 7 -18zM1045 1567q12 -4 -1 -11q-8 -4 -11 -1q2 1 3.5 3t4 4.5zM46 604q1 0 4 1q8 4 9 -3q-12 -5 -13 -3q-1 1 0 5zM998 1534q-4 1 5 6q11 5 16 -1q-4 -1 -11 -2.5t-10 -2.5zM1718 1286q-2 1 -9.5 1.5t-12.5 1.5t-4 5q5 -2 11 -1
t11 -0.5t4 -6.5zM1801 734q2 23 19 11q-11 0 -19 -11zM393 1406q0 2 -0.5 5t-1 5t-0.5 3.5t1 3t3 2.5q6 -6 6 -9t-8 -10zM273 240q-2 7 3 7q8 0 11 -8q1 -2 0 -4q-2 1 -5.5 1.5t-6 1.5t-2.5 2zM1417 1546q2 3 -6 8.5t2 12.5q1 -3 4.5 -9t3.5 -8t-4 -4zM490 1499q3 4 8 5
t8.5 -1.5t3.5 -7.5q-12 2 -20 4zM22 442q14 -2 14 -3q1 -2 -4 -5q-5 0 -8.5 2t-1.5 6zM516 -87v1v-1zM516 -87zM995 -99q0 10 2.5 12t14.5 0q-14 -10 -17 -12zM1845 934v6.5t0.5 5.5t3.5 2.5t8 0.5q-2 -2 -4 -6.5t-3.5 -6.5t-4.5 -2zM91 456q-5 5 3 8q9 1 10 -5
q-8 -2 -13 -3zM1394 1533q-2 0 -6.5 -1.5t-7 -1.5t-3.5 3q1 1 4 3q11 9 13 0v-3zM1872 938q-13 -5 -17 -7q3 16 17 7zM196 1222q-1 -2 -2.5 -4t-4 -5.5t-3.5 -5.5q-8 7 2 15q5 5 8 0zM220 1229q-6 -3 -7 -2q-1 2 5 6q7 3 10 -3q-1 -7 -4 -8q-3 3 -4 7zM1247 -18q2 0 8 3.5
t8.5 4t5.5 -2.5q-2 0 -7.5 -3t-8.5 -4t-6 2zM520 1486q10 -12 -4 -19q1 3 0.5 7t0 8t3.5 4zM1491 1099q3 11 12 14q5 1 7 -5q-4 -11 -19 -9zM1155 1133q6 -14 22.5 -12t27.5 9t15.5 0t-14.5 -38q1 15 -17 17q-6 1 -21 1q-24 0 -24 6q1 7 11 17zM1141 1084q-14 14 4 18
q20 4 29 -8q4 -5 2 -12q-6 -9 -10 -3.5t-8 11.5t-17 -6zM974 156q-15 21 -14 34q0 6 11 -3q9 -10 9.5 -15t-6.5 -16zM1541 842q-7 11 -4 19.5t16 7.5q7 -17 -12 -27zM1116 312q9 -1 12.5 -9.5t-1.5 -15.5t-14 -6q11 14 3 31zM775 1209q-10 14 -2 17t21 -4l-9 -6t-10 -7z
M1401 548q-10 -9 -15.5 -8t-12.5 12q4 0 13.5 -1.5t14.5 -2.5zM1122 1068q-11 1 -13 11q-1 8 9 8h4v-19zM822 871q0 2 12.5 1t14.5 -7q-18 -8 -27 6zM1514 1000q-3 10 0.5 12t18.5 -2q-7 -4 -19 -10zM1501 797q-5 4 -5 7.5t2.5 8.5t3.5 8q10 -11 -1 -24zM1229 1158
q10 1 12 -2.5t-1 -14.5l-6 9t-5 8zM1080 278q0 -2 0.5 -8t-1.5 -8.5t-8 -2.5q0 2 0.5 5.5t0.5 6t0.5 5t2.5 3t5 -0.5zM1382 1165q19 13 23 -3q-14 2 -23 3zM1492 726q2 2 5.5 6.5t4.5 6.5q8 -7 1 -14q-5 -5 -11 1zM734 1175q-1 7 7.5 11t9.5 7q1 -6 -1.5 -9t-8 -5t-7.5 -4z
M1330 1200q2 -1 8.5 -1.5t9.5 -2.5t1 -6q-2 1 -5 1.5t-5.5 1l-5 1t-3.5 2t0 4.5zM789 894q2 -2 6.5 -4t6.5 -4t1 -5q-14 1 -15 4t1 9zM1218 1161q1 2 2.5 8t3.5 9t6 0q-1 -2 -2.5 -8t-3.5 -9t-6 0zM1349 1186q-18 -9 -26 2q5 0 13.5 -0.5t12.5 -1.5zM454 874q8 16 38 5
q-6 -13 -38 -5zM465 893q16 23 28 0h-28zM455 858q4 5 8 6t10.5 -1t9.5 -2q-5 -5 -9 -6t-10.5 1t-8.5 2zM532 674q-8 15 0 15h2q7 -14 -2 -15zM509 1049q-3 -1 -5 2t-3.5 9t-2.5 8q13 -4 11 -19zM462 945q8 8 13 14q4 -8 -1 -13.5t-12 -0.5z" />
    <glyph glyph-name="O.alt5" unicode="&#xf004;" horiz-adv-x="1882" 
d="M1452 179q-123 -113 -292 -159q-6 -2 -20 -6q0 -3 0.5 -9t1.5 -9h-2q0 1 -1 4t-2 4q-6 19 -20 9q-9 -6 -40 -11q-263 -37 -481 96q-271 164 -332 466q-78 379 196 662q133 138 332 189q27 7 34 6q6 -1 7.5 2.5t0.5 12.5q6 -8 13.5 -8.5t12.5 1.5q85 13 162 7
q230 -17 409 -161q113 -92 180 -220q90 -174 81 -364q-15 -305 -240 -512zM1579 466q13 8 20.5 25t3.5 29q-2 8 -8.5 11t-13.5 -1t-12 -12q-3 -5 -8.5 -14.5t-8.5 -13.5l-6 3l6 21q1 3 4 8.5t4 7.5q2 5 -1 8q-1 1 -4 1t-4 -1q-19 -21 -18 -47q2 -13 15 -16q10 -2 18 10
q2 4 6.5 12t6.5 12q1 2 4.5 4.5t4.5 3.5q5 -10 -3.5 -26t-5.5 -25zM1622 589q5 3 6 7t-1.5 7.5t-7.5 5.5q-11 4 -19 5q-3 0 -11 2.5t-10.5 2.5t-11.5 -2q2 -10 16.5 -13.5t18.5 -8.5q-24 -14 -36 -20t-11 -14q1 -9 15 -11q9 -2 34 -7q2 -1 6 0t6 1q-2 12 -16.5 14.5
t-17.5 7.5l9 6q4 2 14.5 7.5t16.5 9.5zM1638 743q-3 8 -12 8q-19 2 -37 0q-10 -1 -12.5 -3.5t-2.5 -13.5q0 -6 2 -18.5t1 -19.5t-3.5 -20t-3.5 -18q-2 -12 -2 -20l6 -9l2 1h3l3 18l3 21q1 1 8 9q5 -8 5 -9q0 -3 -1 -9t-1 -9t0.5 -5.5t1.5 -6t1 -5.5h7q2 8 4.5 22t3.5 21
q11 -6 11 -13l-3 -30q0 -1 1 -3t3 -5t3 -5q7 13 9 49q1 12 -2 15.5t-16 5.5q-5 0 -17 1.5t-18 2.5q1 7 2 20.5t2 20.5h38q6 0 9 1t2 6zM1612 900q4 7 0.5 12.5t-11.5 3.5q-14 -2 -42 -10q-2 -1 -7 -8q10 -5 11 -5q7 1 28 5q-1 -4 -3 -8q-2 -3 -5.5 -8t-5.5 -8l-12 -18
q-4 -8 -0.5 -12.5t11.5 -3.5q14 2 42 10q2 1 7 8q-10 5 -11 5q-9 -1 -27 -5q0 6 1 7q2 3 6 8.5t6 8.5q1 2 4 5.5t5 6.5t3 6zM1596 954q1 16 -9 26.5t-24 11.5t-23 -8t-10 -23q-1 -15 9.5 -26.5t24.5 -12.5q13 -1 22 8.5t10 23.5zM1544 1058q2 9 -2.5 13.5t-12.5 0.5
q-10 -4 -38 -21q-1 -1 -4 -9q10 -3 12 -2q8 3 24 11q0 -11 -6 -27q-1 -3 -3.5 -9.5t-3.5 -10.5q-1 -7 3.5 -11.5t10.5 -1.5q13 6 39 22q10 6 0 15q-10 -4 -30 -14q-1 0 -1 1l-2 1l6 18q6 16 8 24zM1497 1124q-32 -4 -47 -7q-2 -1 -4.5 -3.5l-3.5 -3.5q5 -7 7 -7q10 0 20 -14
t6 -23q-1 -2 4 -10h6q13 25 25 50q4 9 0.5 14t-13.5 4zM1405 1182q-12 -18 -1 -37q13 -23 32 -23q1 0 2 1t2.5 2t2.5 2l-5 5l-4 4q-2 2 -7 5t-7 5q-15 15 -2 28q13 14 29 0q2 -2 5.5 -6.5t4.5 -6.5q6 -8 10 -13q3 15 -5 27.5t-22 17.5q-23 8 -35 -11zM1186 155
q-6 -13 -3.5 -16.5t19.5 -10.5q1 1 3.5 9.5t11.5 5.5q0 -3 -1.5 -11t-2.5 -12q-2 -5 -1 -11t9 -11q8 31 12 53q2 9 -2 12t-14 0q-6 -2 -16.5 -4.5t-14.5 -3.5zM1074 1353v-58h1v58h-1zM915 1392q-24 -4 -23 -23q1 -15 8 -82q2 -11 13 -11q-5 7 -12 16q17 10 20 11
q13 1 20 16q1 2 3.5 4.5l3.5 3.5q2 -1 3 -1h2q2 -2 6 -8q7 -10 12.5 -10.5t13.5 9.5q9 12 18 -1q1 -1 2 -4.5t2.5 -5.5t4.5 -2q3 3 8.5 10.5t8.5 11.5q8 6 15 10q-8 5 -18 13q0 -3 1 -11t1 -11q-8 7 -8 9.5t5 12.5v1l-6 8h22q5 17 1.5 22.5t-20.5 10.5q-4 1 -11 1
q-6 0 -16.5 1t-19.5 1.5t-17 0.5q-22 0 -43 -3zM955 1290l-1 1v2q0 -1 -2 -2l-2 -1l2 -2q3 0 3 2zM943 1275q-1 1 -4 3q-1 0 -3 -2l3 -3zM341 773l1 -1q0 -2 1 -2q-5 -4 -15.5 -13t-15.5 -13q-8 -6 -6 -15q0 -5 12 -8q18 -3 37 -3q10 0 12 6q1 5 -2 7t-9 3q-14 2 -26 3
q4 3 7.5 6t7.5 6t5 4q12 10 16 14q6 9 5 14t-12 8q-21 3 -40 3q-1 0 -3 -1.5l-4 -3t-3 -2.5l9 -9q1 0 23 -3zM312 682q-6 -4 -6.5 -10.5t5.5 -9.5q30 -18 60 -24l-2 6t-1.5 5t-1.5 3t-4 5t-3 6t-1 10.5t0 13.5t6 10q2 3 0 10q-1 1 -4 1.5t-5 -0.5q-26 -14 -43 -26zM378 576
q5 10 2.5 27t-10.5 25q-1 1 -5 1.5t-5 0.5q0 -1 -1 -4t0 -5t3.5 -7.5t3.5 -8.5q7 -15 -5 -25q-10 -8 -20 -4q-13 5 -13 23q0 3 0.5 7t0.5 6q0 1 -4 13q-11 -18 -8 -36t18 -26q12 -7 24 -3.5t19 16.5zM349 802q14 0 23.5 10.5t9.5 26.5q0 15 -10 25.5t-24 10.5t-23 -10.5
t-9 -26.5t9.5 -26t23.5 -10zM398 923q10 5 10 12q0 8 -11 12q-16 7 -35 12q-1 0 -3 -0.5t-5 -1.5t-4 -1q4 -8 7 -10q4 -2 27 -10q-2 -1 -4 -2.5t-3.5 -2t-2.5 -1.5t-2 -1q-26 -11 -29 -12q-10 -4 -10 -13q0 -7 10 -12q16 -7 35 -12q10 -2 12 2q4 8 -7 12q-3 1 -11.5 4
t-14.5 5q8 6 10 7q25 10 31 13zM444 1025q2 -1 5 0t5 1l-3 11q-13 9 -39 25q-2 0 -5 1t-4 1t-2 -1l-2 -2q5 -11 7 -12q28 -18 38 -24zM493 1088q6 2 6 7t-5 9q-3 2 -8.5 6.5t-8.5 6.5q-15 11 -30 10q5 -5 14 -13t14 -13l-10 -4q-23 0 -34 -1q-13 -3 -14 -8q-2 -8 6 -14
q6 -5 33 -25q2 -1 6 -1q3 -1 5 -1q0 10 -11 19t-13 16l33 3q16 3 17 3zM512 1121q13 1 25 13.5t13 25.5l-3 6q-4 0 -6 -1.5t-4 -5t-3 -4.5q-10 -12 -17 -17q-11 -7 -20 2q-8 10 -4 20q5 8 11 14q1 2 15 12q-25 0 -35 -16t-1 -33q8 -16 29 -16zM566 1157q1 2 3 5t3 5t1 3
t-3 4t-4 3q-8 -5 -8 -8zM649 182q4 6 4 10q1 11 -14 22.5t-25 7.5q-5 -2 -12 -11l-9 -15q-1 -2 -3 -5t-2 -4q0 -13 14 -25t25 -8q1 0 10 9q3 3 7 10t5 9zM673 198q-5 -11 -5 -12q1 -3 7 -7q1 1 4 3.5t3 3.5t-9 12zM688 129q-5 4 -4.5 9.5t7.5 6.5q5 1 13.5 1.5t11.5 0.5
q14 2 27 3q-10 15 -11 16q-35 16 -41 17q-1 -1 -1 -2t-1 -2q2 -2 6 -8t7 -9q-3 -1 -9 -2t-9 -2q-13 -5 -13 -18q-1 -15 14.5 -25t29.5 -3t4 19q-1 -1 -4 -2.5l-5 -2.5q-11 -7 -22 3zM768 94q1 1 2.5 2t2.5 2t1 2t-6 13q-7 -7 -7 -9q1 -2 4 -6zM779 123q1 0 2.5 0.5t4.5 2
l5 2.5q-13 9 -15 10q-1 0 -4 -3.5t-2 -4.5q4 -6 9 -7zM841 74l1 2l2 3q-10 6 -16 9q1 3 3 11t3 11q4 16 -5 22q-5 -6 -7 -12.5t-3 -15.5t-2 -12q-5 -17 1 -22q3 -2 6 -2t5.5 0.5t6 2.5t5.5 3zM887 590q10 -4 46 1q32 3 101 40q7 4 12 13q2 3 8.5 10.5t10 13.5t3.5 13
q8 8 12.5 18.5t9 25.5t7.5 21q4 9 4 25q-1 14 -9 38.5t-10 33.5q-3 14 -22 39q-21 27 -41 36q-7 3 -19 11l-15 10q-16 9 -24 3q-3 -4 -5 -2q-26 16 -49 5q-13 5 -21 -13q-1 -2 -1 -3q-30 5 -58 -16q-4 -3 -44 -43q-2 -2 -2 -4q2 -8 -7 -15.5t-10 -9.5q-1 -1 -4 -3.5t-4 -4.5
q-16 -32 -19 -69q0 -4 2.5 -15t0.5 -15q-5 -10 4 -31q1 -2 9.5 -14t7.5 -21q0 -1 6 -7q2 -2 4.5 -6t5 -7t5.5 -5t10 -5t10 -6q6 -6 13.5 -11l12 -8t15.5 -7.5t13.5 -5.5t16.5 -6zM1018 69q5 28 3 36.5t-15 11.5v-25q-3 -8 -9 -8q-7 0 -9 7q-1 3 -1.5 9t-0.5 8q-1 3 -7 9
q-1 -1 -4 -1q0 -4 -0.5 -12t-0.5 -11q0 -10 -10 -10q-9 0 -9 10q0 5 -2 17q0 1 -2 3t-3 2q-7 -2 -7 -5q-2 -10 0 -20q3 -25 29 -20q5 1 15 1q9 0 33 -2zM1089 80q5 1 15 2.5t13 2.5q-2 6 -2.5 16t-3 17.5t-9.5 13.5l-4 -4l-1 -1q0 -6 2 -18q1 -9 -2 -11.5t-14 -1.5
q-2 2 -4.5 14.5t-14.5 13.5q0 -4 0.5 -10.5t0.5 -9.5q1 -9 -0.5 -11t-12.5 -3q-3 3 -5 15.5t-12 15.5q-6 -9 1 -29q6 -22 30 -16q7 2 23 4zM1124 102q7 -26 29 -26q18 0 25 18q4 10 0 22.5t-12 19.5q-18 13 -33 1q-15 -11 -9 -35zM1112 -64q15 3 19 2q-26 -14 -47 -15
q-18 -1 -55.5 -3.5t-56.5 -3.5q-54 -4 -148 11q-200 35 -358 160q-60 47 -103 97l-24 27q-4 4 -5 4q-4 0 -7 0.5t-5.5 3.5t-3.5 4t-3.5 5.5t-2.5 5.5q-6 11 -13 8h-3q-1 2 -11.5 16t-6.5 26q3 9 -6 26q-2 4 -18.5 33.5t-23.5 46.5q-32 78 -48 150q-20 93 -20 169
q0 131 36 246q29 93 76 174q16 29 60 85q31 39 72 85l36 30q142 122 324 169h2l4 -2q-36 -13 -52 -18q-105 -33 -215 -115q-126 -94 -201 -206q-95 -143 -123 -324q-12 -73 -7 -151q3 -41 11 -93l15 -60q16 -59 65 -165q32 -67 89 -139q35 -44 107 -111q26 -24 50 -39
q3 -2 6.5 -7.5t5.5 -7.5q8 -6 26 -14q4 -2 11.5 -5t11.5 -5q142 -85 323 -109q104 -13 217 9zM1717 1018q54 -142 53 -268q-7 60 -10 80q-23 138 -76 240q-63 122 -154 214q-68 69 -150 120q-77 48 -143 70q-6 2 -16 10q62 -18 134 -57q129 -68 237 -197q81 -98 125 -212z
M1701 889v-29q15 -118 12 -164q-1 -20 -5 -55q0 -1 -5 -8q5 91 5 102q-3 121 -42 228q-60 166 -180 283l-7 7q0 1 -2 5q8 -4 11 -8q84 -83 129 -164q51 -94 74 -179q0 -1 10 -18zM1703 633v-1v1zM1425 134q140 110 218 279q1 2 11 17q-39 -106 -105 -188q-55 -67 -141 -130
q-15 -12 -39 -20q42 31 56 42zM1477 1282q23 -9 58 -48.5t39 -59.5q-13 14 -46.5 51t-50.5 57zM1660 453q34 95 43 172v7q0 -5 -0.5 -20.5t-1.5 -24.5q-10 -67 -39 -140l-6 -12q2 12 4 18zM1655 433q0 1 0.5 1t0.5 1v-1l-1 -2q-1 0 -1 -1v-1v1q1 1 1 2zM1149 1434l-102 18
q-1 0 -9 3q67 -5 121 -13v-5q-2 0 -4 -2q-4 -2 -6 -1zM1166 -54q33 11 56 17q-2 -3 -7 -8.5t-5 -7.5t1 -9l-11 -6q-5 7 -24 7q-1 0 -10 7zM1718 961q4 -15 10 -45q1 -5 1 -16q-10 10 -18 42q-1 4 -1 8t-0.5 9.5t-0.5 10.5q1 -1 3.5 -3t4 -3.5t1.5 -2.5zM1729 900l1 -1v-1z
M1193 1436l66 -18q0 -1 -0.5 -2.5t-0.5 -2.5q-11 3 -33.5 9t-33.5 9q0 1 1 2.5t1 2.5zM1730 898q10 -7 11.5 -11t1.5 -19q-11 -2 -12 6t-1 24zM1730 898v1v-1zM401 1484q3 -14 -14 -21q-2 -1 -3 -1q1 12 17 22zM885 1516q-6 -1 -19 -2.5t-20 -2.5v3q7 1 20 2.5t19 2.5v-3z
M821 1507q-5 -1 -14.5 -3t-14.5 -3v1l-1 2q5 1 14.5 3t14.5 3v-1q1 -1 1 -2zM1317 1393q3 -1 10 -5t10 -5q-1 -1 -1 -2t-1 -2q-3 2 -10 5t-11 5q0 1 1 2zM216 334q-6 1 -10 4.5t-5.5 7t-3.5 10.5t-3 9q3 -5 10.5 -15.5t11.5 -15.5zM216 334zM1387 1361q1 -3 4 -7.5t4 -6.5
l-1 -1q0 -2 -1 -2q-2 2 -6.5 5t-6.5 5zM1218 1485h2l1 -1l-1 1h-2zM1190 1489q0 1 0.5 3l0.5 2l27 -9q-4 1 -13.5 2t-14.5 2zM138 896q-4 8 -3.5 11t6.5 9q-2 -12 -3 -20zM1261 1400l14 -7q0 -1 -0.5 -1t-0.5 -1q-2 1 -7 2.5t-7 2.5v2zM1009 1526q0 -1 -2 -3l-3 -4
q-4 4 -6 8q0 4 4 4q4 -2 7 -5zM237 1157l-4 -4l-3 6q0 1 1 2q2 1 3 3q3 -4 3 -7zM134 542h1l1 1q0 -3 2 -7t2 -7l-1 -1h-1q0 2 -2 6.5t-2 7.5zM421 1455q-1 -1 -2.5 -3t-2.5 -3q0 1 -1 1t-2 1l6 6zM181 391l1 1q2 0 2 1q1 -2 3.5 -6t3.5 -6q-1 -1 -4 -3q-1 2 -3 6.5t-3 6.5z
M237 282l2 2q1 -1 3.5 -4t3.5 -5q0 -1 -2 -2l-2 -1q-1 1 -2.5 5t-2.5 5zM1442 1286l2 2q2 -2 5 -4t5 -4v-1q0 -1 -1 -2q-1 1 -5 4t-6 5zM163 447q0 -1 1.5 -2t2.5 -2v-7q-1 0 -1 -0.5t-1 -0.5q-1 2 -2 5.5t-2 5.5q1 0 1 0.5t1 0.5zM119 655v10v-10zM1433 1320l2 2
q1 -1 3 -2.5t2 -2.5q-1 1 -3.5 2t-3.5 1zM1440 1317l1 -1h1v-1l1 -1h-1l-1 1q0 1 -0.5 1t-0.5 1zM1089 1514l-1 -2v-2q-2 0 -5.5 1t-4.5 2q0 1 0.5 2t0.5 2q1 -1 5 -2t5 -1zM1322 65q2 1 4.5 2t3.5 2q0 -1 0.5 -1t0.5 -1q-1 -1 -4 -2.5t-4 -1.5q0 1 -0.5 1t-0.5 1zM216 334z
M217 319q-9 7 -1 15q0 -2 0.5 -7t0.5 -8zM1445 1308q-1 1 -1 3t-1 3q1 0 2.5 -2t2.5 -3q0 -1 -1 -1h-2zM361 1384q-1 -1 -3 -2.5t-3 -2.5l-2 2l6 6l1 -1q0 -2 1 -2zM457 1478l-3 -3l-3 3l2 1q1 1 2 1zM1028 1326v1h1v-1h-1zM350 858q17 0 17 -18q0 -8 -5.5 -14.5t-13.5 -6.5
q-18 0 -18 19q0 8 6 14t14 6zM602 182q10 3 14 1t10 -14h-3q-11 0 -13.5 1.5t-7.5 11.5zM616 206q12 1 16.5 -1.5t6.5 -13.5q-12 0 -15.5 2.5t-7.5 12.5zM1544 957q0 8 5.5 14t13.5 6q20 0 20 -21q0 -8 -6 -13.5t-14 -5.5t-13.5 6t-5.5 14zM1495 1108q-2 -4 -5 -9.5t-4 -9.5
q-2 3 -6 8t-7 8q5 1 12 2t10 1zM344 663l-21 7q2 2 6 4.5t7.5 5t7.5 5.5v-22zM1150 128q7 0 12.5 -6.5t5.5 -14.5q0 -17 -15 -17q-8 0 -13 6t-5 15q0 17 15 17z" />
    <glyph glyph-name="S.alt1" unicode="&#xf005;" horiz-adv-x="1505" 
d="M582 2307q9 23 11 25q0 -1 -11 -25zM492 2284q4 -2 5 -5zM1011 2110q-22 -30 -34 -44q17 27 34 44zM1608 2105q14 -4 30 -7.5t24.5 -5.5t19.5 -5t15 -5t10 -7t5.5 -11t2 -16t-1.5 -22q-42 56 -127 74.5t-176 5.5t-181.5 -37.5t-149 -48t-71.5 -33.5q-7 1 -9 3.5t-0.5 3.5
t6.5 5t8 6.5t5.5 7t2.5 9.5q-9 -2 -30 -32q-17 -27 -24 -15q-1 2 -2 5q0 -8 -11.5 -15.5t-22 -12.5t-10.5 -13.5t18 -19.5q-25 -1 -66 -11t-69 -7.5t-59 24.5q12 -13 29.5 -23.5l25 -15t3.5 -15.5t-26 -33q16 14 48 30.5t75.5 31t91 7.5t80.5 -40q-9 2 -12 -1.5t-3 -13.5
t-1 -13l1 1q2 3 7 6.5t7.5 5.5t4 6.5t-3.5 8.5q39 -33 69 -67q-3 4 -17 23t-23 32q-35 18 -49.5 29.5t-3 19.5t19.5 10t45 8q9 2 14 3t13.5 2.5t15.5 2.5q-5 -11 -16.5 -17t-22.5 -7.5t-32 -3.5t-35 -5q25 -6 34 -5.5t32.5 7.5t33.5 9q-4 -2 -8 -5q53 -6 42 -13
q-16 -10 -85 -9l-15 1q20 -11 70.5 -6.5t71.5 -11.5q-19 -4 -111 -6q12 -5 66.5 -9.5t67.5 -21.5q-106 17 -104 12q1 -3 64 -14l62 -29q-2 1 -15 5q-103 31 -103 9q0 -6 9 -17q11 -7 34.5 -15t31.5 -12q59 -21 68 -42q-16 1 -39 20t-29 22q3 -12 1 -15t-3.5 -2.5t-7.5 5.5
q-7 6 -11.5 8.5t-14.5 6.5t-17 0q21 -49 28 -95.5t1 -91t-17 -80.5t-30 -80v5v5.5t-0.5 4t-2 4t-4.5 2.5t-7 1q0 1 1 4t1 4t-2.5 2.5t-8.5 -0.5q-1 5 0 56q1 16 -3 16q-3 0 -11 -13q9 37 -1.5 50t11.5 56q-2 -4 -10 -17.5t-13 -20.5q8 11 -7 72q-9 40 -17 38q-2 -1 -4 -5
q1 31 15 72q2 7 1.5 7t-8.5 -14q-12 -19 -21 -34q8 28 0 34q-4 3 -9 -10l-5 -16q2 23 -2 55t7 60q-18 -50 -25 -50q-8 0 4 59q-7 -8 -26 -31q0 3 0.5 9t0 8t-3.5 5t-10 -1q30 22 -2 4q-21 -11 -55 -31q15 2 23 1.5t13 -1t6.5 -5t2 -8t-0.5 -13.5t-1 -18q1 -11 17.5 -33.5
t8.5 -35.5q24 -11 13 -22q-12 -9 -23 -2q1 -25 -4.5 -32t-14.5 -8t-12 -11q-6 2 -15.5 4.5t-12.5 3.5t-8.5 3.5t-6.5 5.5t-2.5 8.5t-1 13t2.5 18.5q2 10 1 13.5t-7 10.5t-8 10q-17 6 -17 9q-1 2 13 4q21 4 12 13q-5 5 -19 13q-2 -7 -4 -8.5t-4 2t-5.5 7t-8 5t-12 -4
t-17.5 -18.5q-29 -36 -38 -55.5t-4.5 -27.5t11 -14t6 -24t-15.5 -49q14 21 20 27q3 3 2 0q-2 -6 -18 -33q25 4 24 -15q0 -9 -20 -59q-8 -20 -10 -32h9q4 4 12 15l6 6q-1 -1 -4 -9q-9 -6 -5 -13q34 -3 86 -13q3 111 -31 202q8 -12 36.5 -38.5t37.5 -46.5q-3 1 -27 29
q-16 19 -16 4q-11 9 -8 -5q1 -8 34 -83q6 -15 4 -14q-3 1 -20 27q-14 -14 2.5 -38t14.5 -31q-8 11 -12.5 16.5t-6.5 3.5t-2.5 -3.5t-0.5 -11v-12.5q44 -10 51 -12q-15 23 -20 26q27 -8 32 -30q80 -25 142.5 -68.5t96 -85.5t56.5 -92.5t29.5 -79t9.5 -54.5h-231
q-36 152 -188 205q9 -70 8 -80q-26 84 -29 83q-4 0 6 -70q-13 49 -19 48q-4 0 -8 -71v-3q-1 42 -9 41q-10 0 -10 -42l1 -27q-5 -7 -5 4q1 27 -1 29h-3q-4 -12 1 -38t-2 -40q-14 -69 -12 -242l182 -45q382 -94 382 -413q0 -130 -73.5 -223.5t-196.5 -139t-282 -46.5
q-1 -74 -8 -150q-3 -9 6 -13.5t15 -7t-1 -17.5q-23 -31 -10.5 -59.5t32 -52t35 -40.5t-1.5 -24.5t-78 -4.5q-11 1 -46 -1q-103 -4 -123 15q-17 16 13 52q20 164 27 311q-115 14 -208 54.5t-151.5 92.5t-99 116t-58 122.5t-20.5 114.5h227q6 -45 21.5 -87t48.5 -90.5
t96 -85.5t149 -52q2 149 -8 476q2 0 2 2l-144 37q-164 42 -248 138t-84 227q0 136 81.5 240.5t241.5 146.5q-3 7 -9 0q-14 18 2 48q9 18 12 10q2 -4 -2 -20q6 0 12 6.5t9.5 12t7.5 3.5t7 -17q9 11 4 29.5t6 30.5q9 -6 10 -11t-1.5 -13t-1.5 -15q11 12 12 15t-5 9
q6 21 -5.5 32.5t-8.5 25.5q10 9 10 -1v-8v-10q8 -5 13 2q4 6 0 7q-2 1 -6 -2q13 42 16 15q0 -3 1 -9l2 -13q3 1 11 42v2q-3 -2 -7.5 -6t-6.5 -6q11 27 15 29t4 -16q-1 -7 -2 -22q-1 -12 -1 -18q27 66 25 92q-1 20 -30 -24l5 28q-1 -1 -4 -8q-13 -31 -23 -43q-2 17 2 29.5
t11 13.5q11 34 9 46.5t-14.5 9t-31.5 -9.5t-42 -10t-45 8q-70 17 -65 39t73 32q95 14 157 -19q48 -26 48 -75q-17 25 -19 23q-5 -4 18 -44l14 -20q1 12 -2 29.5t-6 29.5t-1.5 24.5t10.5 20.5q-3 8 -7 33q-6 42 -13 42q-4 1 -10 -10q-7 15 -29 14q-9 0 -9 -5q0 -4 8 -9
q5 2 11 1.5t11 -3.5t4 -7q-16 -1 -1 -21q22 -30 22 -41q0 -3 -2 -6q-42 43 -54 64.5t0.5 27t33 5.5t47.5 6.5t41 24.5q-16 0 -41 -4.5t-40 -2t-31 16.5q19 -34 7 -33q-14 1 -32 31q-4 6 -7 13q8 -38 -5 -38q-14 0 -80 52q-6 11 4 4q3 -2 9 -7l14 -10q-13 32 -37 92
q32 -33 54 -90l4 -7q0 1 -2 15q-5 28 -8 53q18 -47 66.5 -67t141.5 -14q-14 9 -43.5 13t-53.5 5.5t-42 14.5t-17 39q2 -3 5.5 -7t6.5 -7t5 -6t0 -5.5t-7 -5.5q21 3 64.5 -14.5t68.5 -12.5q-7 4 -39 16q-55 20 -56 25q-1 3 12 4h2q-12 9 -17 12q61 -38 98 -48q7 -2 5 1
q-4 7 -61 39q-7 87 -206 366q-109 151 -138 177q-12 10 18 -35l8 -12q25 -16 1 -17q-4 -1 -13 -1h-17q60 -9 62 -19q1 -6 -32 -8q5 -4 29 -11q27 -8 26 -12q0 -4 -15 -8q6 -4 18 -8t18 -9t7 -18q-15 12 -14 9q0 -3 24 -31q-1 1 -23 4q-1 -4 4 -6.5t14 -4t12 -3.5l-2 4
q13 -15 22 -26t21 -27t17.5 -26t9 -21t-3 -14t-19 -2.5t-38.5 10t-63 27.5l39 -5q-1 0 -8 3q-33 11 -46 20q72 -11 15 8q-15 4 -39 11q57 0 58 3q1 2 -12 6q-2 0 -7 2q-50 15 -69 29q53 -8 51 -4t-69 23q38 1 37 5q0 1 -26 11q-12 5 5 6q15 1 56 -1q-115 30 -122 32h88
q-14 4 -42 11q-46 12 -47 16q0 4 53 4q-51 9 -52 15q-1 2 4 4q8 5 -6 9q-11 3 -38 7q35 4 37 9q0 4 -17 10q-20 6 -20 8q-1 3 16 5q7 1 17 1q-94 23 -4 27q-13 3 -42 8q-36 6 -39 8q-3 3 8 5q10 1 33 3q-57 11 -59 16t34 7h12q-60 12 -60 19q0 2 3 4q6 5 -8 9l-27 5
q29 3 32 6q1 1 -3 3q-4 1 -18 3q-30 6 -39 10q36 1 35 6q-1 1 -18 9q-13 5 5 7h12q-36 5 -51 20.5t-31 19.5q27 5 26 7q0 2 -13 3q-31 5 -35 12q16 1 40.5 -2.5t35.5 -4.5t26 5q2 -1 4 -6.5t5.5 -8.5t10.5 0q6 0 14 -5t13 -9q10 -11 17 -11t7 20q6 -33 19 -36q10 -2 9 29
q3 -35 36 -69q31 -34 41 -11q8 17 -2 66q15 -16 10 -39.5t-4 -46t18 -24.5q1 11 -2 27t-2.5 28.5t7.5 23.5q-7 -6 -6 5q0 6 3 21q2 15 2 19q10 -27 5.5 -54.5t-2.5 -58t19 -43.5q0 15 4.5 56.5t1.5 65.5q14 -21 8 -74.5t-1 -73.5q8 0 15 34q4 16 0 17q-2 1 -8 -7q4 27 9 59
l4 18q0 -1 -1 -6q-9 -118 13 -136q-1 27 -0.5 37.5t6 42.5t7.5 46q6 -18 -2 -108q-4 -36 1 -38q4 -2 14 17q4 8 10 19q-1 -5 -2.5 -14t-3 -16.5t-3.5 -14.5q2 -43 16 -7q7 17 8 17q1 -1 -2 -26q-3 -38 5 -39q4 0 19 19q7 8 7 3t-6 -26q-4 -28 9 -30q9 -1 17 14q-7 -23 4 -45
q10 -21 24 8q-4 -15 -3 -18t4.5 1.5t8 6.5t8.5 -3q3 6 7.5 15.5t6.5 12.5q-7 -16 -11.5 -30.5t-7.5 -30.5t1 -24t16 -6q-4 -12 7 -21q8 -8 15 4q7 19 10 20q2 0 4 -8q1 -12 6 -3q7 14 26 78q7 -23 -5.5 -62t-11.5 -54q10 18 21 39l7 10l-1 -5q-6 -32 -2 -56q14 34 18 36
t-1 -23q-2 -10 -5 -26q5 2 10 -4.5t7.5 -13.5t6 -5t7.5 19q1 -21 21 -59t33 -74t1 -62q21 -15 40 -30l6 -4q-1 1 -2 3q-15 25 -19 50q4 -4 11.5 -14.5t13 -18.5t14 -16t14 -8t11.5 6q-34 41 -45.5 74.5t-9.5 75t1 48.5q4 -8 12 -22.5t12 -22.5q-4 29 -4.5 53.5t2 49.5
t5.5 42t9 49t10 54q15 21 5.5 42.5t11.5 48.5l-5 -30q2 1 4 3q7 5 8 1q1 -1 1 -5q6 71 16 68q12 -3 19 -64q3 -27 0 -27q-5 0 -19 55q-2 -9 11 -77q10 -56 -4 -56q-8 1 -22 13q23 -62 49 35q6 20 42 206q20 106 35 132q13 2 37 32t33 37q1 -12 -18.5 -31t-39.5 -41.5
t-19 -41.5l27 27l36 35q-1 -1 -10 -13q-44 -58 -64 -97l1 1l1 1l1 1l1 1l1 1l1 1l1 1l1 1l1 1l1 2l1 1l1 1l1 1l1 1l2 1l51 53q0 -1 -13 -19q-39 -52 -61 -88q67 68 69 67l-47 -66q-20 -27 -34 -49q62 62 63 60q1 -1 -16 -24q-41 -56 -57 -86q63 64 63 60q0 -2 -15 -22
q-41 -57 -57 -87q14 16 34 39l28 32q-1 -2 -8 -12q-52 -75 -71 -118q12 24 59 72q27 28 25 18q0 -4 -6 -15q-8 -14 -49 -57.5t-43 -74.5l26 28t20 22t13.5 14.5t9.5 10t4 4.5q-59 -78 -79 -133q60 82 65 82q2 0 -4 -20q-3 -12 0 -12q5 -1 25 21q-1 -5 -1.5 -18t-0.5 -20
q14 32 38.5 64t36.5 62q11 -10 73 63t77 107q-4 -27 -1 -29q1 -1 5 5q2 5 10 19q14 30 20 36q-11 -45 -7 -45q1 -1 15 17q16 20 20 3q1 -1 1 -2q5 9 14.5 26t14.5 26q-1 -13 -1 -18.5t1.5 -6.5t3.5 2t5 6t6 5.5t6 2t5 -6.5q36 38 34 20q-5 -25 -55 -89q-49 -62 -81 -74
q3 16 1 16.5t-11 -14.5q-37 -60 -49 -69q-4 -3 -8 -4q2 3 9.5 12t9.5 12.5t5.5 13.5t-0.5 16q-44 -93 -121 -155q10 14 15 22q-21 -31 -71.5 -86t-88 -99t-40.5 -64q37 44 41 45q2 1 -6 -17q-12 -27 -5 -28q2 0 7 3q-9 -27 -19 -44t-16.5 -21t-10.5 -8.5t-3 -10.5t8 -21
q-28 15 -31.5 52.5t9 77t26 88.5t13.5 76q-17 -22 -22 -65t-11 -62q-2 -8 -7 -23.5t-8 -22.5q5 33 0 31q-8 -3 -14 -52q-12 -96 35 -117q5 -3 11 -4q-2 2 -5 6.5l-5 7.5q7 -1 20 -4t20 -4q-13 19 -11 20q2 0 12 -8q18 -12 17 -7q0 6 -16 30q22 42 78 110q-15 -25 -21 -58
q10 13 26 33q-3 -8 -5.5 -15t-4 -10t-1.5 -4q40 81 53 94q-11 -35 -8 -35l23 28q19 23 33 31q-1 -20 24 6q14 15 14 11q0 -3 -3 -12q15 -1 27.5 18.5t22.5 21.5q9 -3 12 -5t0.5 -3.5t-6.5 -3t-8 -4t-5 -5.5q9 -4 15.5 0.5t13.5 13t13 11.5q-7 -23 10 -13q16 10 34 30
q-10 -21 6 -16q17 7 39 27q-4 -9 17 -10q12 -1 124 10q56 5 77 1q-12 -10 24 -24q39 -17 69 -19q-13 -14 9 -21.5t41 -6.5q-15 -9 8 -15q16 -3 15 -5q-1 -4 -56 -12zM1142 2402q3 -7 -3.5 -18.5t-0.5 -18.5q7 0 8.5 18t-4.5 19zM1033 2266q-2 -5 -6.5 -14.5t-6.5 -13.5
q7 0 15 15q7 12 -2 13zM973 2213q-3 0 -7.5 -11t-5.5 -21t4 -12q7 14 9 44zM967 2260q-2 -10 -15 -28t-14 -31q6 -2 14.5 11t13 28.5t1.5 19.5zM877 2119q26 23 49 66q-13 -3 -30.5 -26.5t-18.5 -39.5zM922 2218q-4 -5 -16 -13.5t-18.5 -17.5t-5.5 -23q34 46 40 54z
M863 2191q-4 12 -12 32.5t-11 28.5q0 -4 0.5 -14t1 -18t2.5 -16.5t7 -12t12 -0.5zM842 2115q10 3 6 26q-5 22 -19 15q9 -4 9 -19.5t4 -21.5zM199 2623q3 -7 18.5 -19t19.5 -5q-6 4 -19 12t-19 12zM534 2216q-3 22 -42 15q7 -2 14 -4.5t15 -5.5t13 -5zM518 2245q2 23 -59 19
q32 -10 59 -19zM261 2583q-2 -5 2.5 -11t16.5 -15.5t14 -11.5q-5 6 -16.5 19t-16.5 19zM267 2522q11 -2 29 -6.5t24 -5.5q-11 15 -20.5 17t-32.5 -5zM300 2498q7 -2 20.5 -6t20.5 -6q-7 13 -15 15.5t-26 -3.5zM306 2476q6 -7 24.5 -10.5t29.5 -1.5q-5 10 -12.5 13t-23 1
t-18.5 -2zM1184 1719q-5 -11 1.5 -43.5t14.5 -42.5q-3 14 -8 42.5t-8 43.5zM1151 1896h-38q1 -5 19 -5t19 5zM1156 1673q8 -1 14.5 7.5t-2.5 15.5q-2 -4 -6 -11.5t-6 -11.5zM1160 1713q-6 4 -9.5 -1t-6.5 -13.5t-8 -9.5q4 -3 8 1.5t8.5 12.5t7.5 10zM773 1740q-8 0 -5 -23
q1 -12 5 -11q0 4 2.5 15.5t-2.5 18.5zM769 1842q-14 -3 -20 -11t-8.5 -28.5t-3.5 -22.5q9 6 18.5 31t13.5 31zM764 1676q-5 4 -11 -11q-8 -18 -1 -19zM749 1032q7 31 -8 66q-10 26 -15 4l-3 -26q-11 13 -12 7q0 -3 3 -15q6 -33 0 -41q-5 -16 12 -19q18 -3 24 10q2 6 -1 13
q-5 -17 -16 -10q-12 9 -3 21q3 5 9 8q8 -16 10 -18zM719 985q7 -21 1 -44.5t-4 -47t20 -28.5q12 28 7 81q-3 43 -21 40q-1 0 -3 -1zM733 1142q16 -16 21 6q4 18 -4 24q6 39 -6 5q-3 -8 -8 -27zM754 962l-3 -30q6 -3 7 7q3 19 -4 23zM699 1605q-6 -4 -5.5 -18.5t8.5 -18.5
q5 8 5.5 11.5t-3.5 12.5t-5 13zM648 1706q-3 -17 2 -18t11 17q-1 4 -6 3.5t-7 -2.5zM707 1531q-39 -7 -75 -78q1 0 50 3q1 11 8 18t13 19.5t4 37.5zM714 855q2 -18 0 -83.5t6 -75.5q-4 -37 -5 -60q-4 -60 -4.5 -131t2 -167t2.5 -129q22 7 28 48.5t3 83.5t7 75q-2 -4 -4 3
q-10 36 -15 43q-4 5 -9 7q19 0 23.5 22.5t-4 46.5t-23.5 27q36 15 29 62q-2 13 -8.5 31t-10.5 30.5t-3 17.5q19 -26 22 20q4 58 -12 109q-11 35 -20 9q0 2 -2 5.5t-2 5.5zM744 -24v-14q2 10 2 14h-2zM724 194q0 -6 -0.5 -16t-0.5 -16q12 -2 18 -2q2 25 -17 34zM737 -23h-5
q-5 -12 -2 -16q-13 11 -14 -1q0 -4 1 -14q2 -12 1 -16q12 22 11 2l-1 -9q8 2 8 16q0 17 -15 11q12 8 16 27zM742 -368q25 9 29 17.5t-4.5 16.5t-17 22.5t-5.5 29.5q-4 -2 -12 -21q-5 -11 -8 5q-1 2 -1 5q-12 -9 -24 -21t-25 -26.5t-19 -20.5q-1 -23 32.5 -25.5t54.5 18.5z
M853 601l-39 10q8 -288 9 -454q149 3 237 64t88 151q0 41 -13 72.5t-35 53.5t-62 41t-80.5 32t-104.5 30zM661 877l28 -7q-7 135 6 168q-9 -6 -19 152l-4 83q-111 -10 -176 -65.5t-65 -138.5q0 -77 57 -120.5t173 -71.5zM887 1213q10 1 1 37q-1 0 -3.5 1t-3.5 2
q1 -7 3 -20.5t3 -19.5zM812 1163q8 18 25.5 50.5t23.5 45.5q-11 3 -35 7q-7 -14 -6.5 -24t14.5 -9q-9 -2 -14 -7.5t-6.5 -14.5t-2 -15.5t0 -18t0.5 -14.5zM895 1783q-18 -15 1 -19q21 -5 31 6q9 10 -12 25q-6 -1 -7.5 -5t-1 -8.5t2 -8t1 -4.5t-3.5 2t-11 12zM940 1657
q-1 17 0.5 19.5t13.5 -6.5q-1 3 -2.5 10t-2.5 10q-28 -14 -9 -33zM950 1730v6t-0.5 4t-1 3t-1.5 2t-2 1.5t-3.5 2t-4.5 2.5q-5 -9 -2.5 -13t15.5 -8zM891 1891q-37 -4 -63 -28t-16 -59q13 14 39.5 43t39.5 44zM873 1804q-21 1 -32.5 -6t-15.5 -16t-10 -27.5t-13 -31.5
q28 34 99.5 75.5t95.5 69.5q-53 -18 -51 -3q2 12 30 22q13 5 27 6q-40 19 -91 -2q-39 -16 -35 -38q5 -17 40 -28q-10 -9 -18.5 -12.5t-13 -3t-16 4t-20.5 5.5q4 -2 8 -4.5t8.5 -5.5zM789 1805q-4 0 -6.5 -6.5t-4.5 -15t-4 -11.5q7 -2 9.5 4t3 16t2.5 13zM1105 2045
q3 -4 11.5 -2t17.5 8t8 9q-6 -3 -18.5 -8t-18.5 -7zM1254 2113q5 -10 18 8q5 8 4 10q-4 -3 -11 -9t-11 -9zM1158 2236q-25 -6 -63 -42q-29 -27 -11 -26q8 1 24 8q-57 -29 -96 -66q38 49 59 105q-1 -34 22 -15q7 5 22 21q33 35 40 27q2 -3 3 -12zM535 1898zM535 1898
q-63 18 -148.5 59t-151 75.5t-150 61t-156.5 25.5q-45 12 -34 16q21 7 115 -9q23 -3 36 -7l-60 69q26 -6 56.5 -40t47.5 -40q-41 43 -56 81q73 -44 82.5 -44.5t2.5 15.5q-3 5 -7 13q28 -14 63 -49q-17 29 -11 29q4 0 31 -25l19 -18q-13 33 -8 34q2 1 30 -26q19 -19 30 -25
q-15 28 -13 31t40 -35q22 -23 23 -17q1 5 -18 38q23 -12 41 -39.5t34.5 -54t36.5 -37.5q-4 18 -26 50t-26 52q26 -20 54 -70t37 -61q-37 85 -32 85t56 -85q-3 14 -13.5 38t-13.5 36q23 -14 42.5 -61t36.5 -57q-41 67 -35 81q4 9 18 -15q18 -30 27 -74zM337 2045
q-13 -9 1 -28t33 -21q-7 10 -19 27t-15 22zM245 2816q24 -7 26 -3.5t-11 16.5q13 -10 24.5 -11.5t17 0t12.5 -6t15 -29.5q-1 14 2 15q2 0 12 -14q1 -2 2 -3q0 3 0.5 7.5t1.5 7.5q29 -63 26 -25q-1 5 -2 17l-1 7q1 -1 7 -24q9 -4 22 -41q3 -9 4 1v14q8 1 11.5 -4.5t3.5 -13.5
t2.5 -18t8.5 -15q-13 86 -7 80q8 -10 25 -100q2 39 4 40l6 -16q15 -53 32 -74q-21 83 -18 123q16 -49 34 -149q-3 69 1 86q2 12 7 -43q2 -14 3 -32q6 9 6 -5q2 -38 8 -44q4 114 25 7q5 -25 12 -68q4 28 8.5 39.5t10 6t10.5 -15t13 -30.5q2 -6 3.5 -9.5t4 -9.5t4 -9.5t4 -9
t4.5 -9.5t4.5 -8l5 -8t4.5 -7q32 -71 20 -91q-8 -14 -24 11q-22 33 -28 93q-6 -39 -10 -8q-1 4 -2 11q-1 16 -2 18q-2 2 -3 -9q-1 -2 -1 -5q-13 28 -42 61q29 -52 12 -55q-14 -3 -33 25q-13 20 -16 42q3 -1 13 -9q22 -16 24 -3l-5.5 11t-5.5 12t-6 10.5t-7.5 7.5t-9.5 2
t-13 -4q29 -14 30 -17q2 -6 -45 13q-26 11 -24 14t24 -1q-34 18 -47.5 30t-14.5 19.5l-2 15t-17.5 22t-53.5 35.5q20 -4 19 1q-1 7 -53 53l-10 9q19 -3 17 3q-1 5 -23 21l-13 11q33 0 -9 20q-4 3 -14 7zM487 2609q-9 -2 7 -22q10 -12 14 -9q-4 5 -11 15.5t-10 15.5z
M442 2667q-6 -3 6 -18q9 -10 13 -4q-3 3 -9 10.5t-10 11.5zM430 2675q-7 27 -42 53q-18 13 -16 8q1 -7 40 -40q-14 -2 -15 -4q-2 -2 3 -4q3 -2 11 -5zM402 2744l1 1v-1h-1zM1372 1831q30 6 -4 7q-28 1 -42 -1q20 5 -10 10q-5 1 -16 2q-17 3 -21 4q6 4 30 18q-17 -2 -14 2
q1 1 37 20q1 0 2 1q-51 -22 -48 -6q2 13 28 28q22 12 40 9q23 -6 59 -16.5t54.5 -15t47.5 -10.5t60 -9q-19 -12 4 -15q24 -4 24.5 -6t-6.5 -6q18 -6 26 -19t36 -19l-33 -12q11 -13 -3 -19q-7 -3 3 -8q12 -5 62 -21q-49 9 -52 6q-2 -3 39 -13q1 -1 2 -1l-4 -1h-8q4 -4 8 -9.5
t6.5 -8l6 -6l6.5 -6.5t8.5 -6.5t12.5 -8.5q-4 1 -69 37.5t-141 67t-131 31.5zM1311 1895q6 2 19.5 8t20.5 8q-3 9 -19.5 0t-20.5 -16zM1396 1843q3 0 11 -2.5t14 -1.5t10 9q-5 -1 -17 -2.5t-18 -2.5zM1364 1856q8 3 22.5 8t21.5 7q-3 4 -13 2t-21 -7.5t-10 -9.5zM240 2286
q13 -39 -3 -39q-13 0 -78 45q-78 53 -111 57q-21 17 -107 22q-24 1 -25 2l12 5q8 1 22 4q54 -9 55 -7q0 1 -20 19q-14 13 -25 27q20 -14 46 -33q24 -17 24 -16t-10 14q-24 29 -41 54q27 -18 81 -74q7 -8 1 1q-3 4 -36 50q18 -7 29.5 -21.5t17 -27.5t20 -24.5t37.5 -14.5
q-12 16 -29 24.5t-36 37.5q7 9 20 13t34.5 -6t41.5 -39q-6 18 8 14q30 -10 95 -81q23 -25 38 -46q7 -36 -10 -34q-7 0 -9 4q-2 3 2 3t10 -2q-6 28 -26 38.5t-28 30.5zM202 2319q-5 -50 28 -52q-10 18 -28 52zM195 2286q-18 36 -26 53q1 -5 2.5 -16t2.5 -16.5t6.5 -12
t14.5 -8.5zM672 2627q-37 40 -83 80q-12 11 -12 12t21 -10q35 -18 65 -33q17 -44 17 -34q-1 13 -16 59q47 -76 33 -116q-11 -32 -50 -10q-34 21 -73 76q17 -10 17 1q0 4 -4 16q-8 22 -1 21q14 0 86 -62zM685 2571q8 9 -3.5 16t-23.5 7q4 -4 13 -11.5t14 -11.5zM684 2606
q-5 3 -14.5 9.5t-13.5 9.5q-7 -5 12 -17q14 -9 16 -2zM468 2067q-87 37 -139 126q-29 49 -23 66q6 16 39 -33q10 -15 22 -35q0 2 -5 38q17 -13 22.5 -47.5t14.5 -40.5q-14 68 -4 62q12 -7 27 -58q7 -24 6 -35q17 -19 19 -16q0 2 -6 19q-18 44 -12 55q13 -14 20.5 -51
t18.5 -50zM381 2142q8 3 -4 19q-9 13 -14 5zM752 2514q26 -41 21 -21l-15 40q13 -9 34 -50q14 -29 4 -27q-3 0 -8 4l9 -30q9 23 10 51t-1.5 63t-1.5 54q5 114 8 116q2 2 3 -55q0 -31 1 -114q1 -125 2 -169v-12q0 -3 -1 -10q-4 -26 -1 -25q1 0 3 4q-11 -56 -15 -55
q-3 0 -1 57q1 71 -1 93q-6 -25 -29 29q-15 35 -21 57zM663 2676q-41 19 -91 71q-24 25 -15 24t46 -28q-39 31 -42 55q-1 10 9 10q10 -1 28 -12q-4 10 -2.5 13.5t12.5 3.5q50 -82 47 -83q-2 0 -16 14q-13 21 -41 31q7 -11 30 -32t28 -38q-38 37 -41 31q-2 -7 16 -26
q20 -20 26 -8q1 -4 2.5 -13t3.5 -13zM651 2455zM692 2517q-18 16 -18 14q-1 -1 0 -4q4 -12 -5 -11q-5 1 -12 4q32 -36 23 -60q-8 -17 -29 -5q1 22 -1 30.5t-6 11.5t-14.5 17t-22.5 39q23 -13 19 -5q-1 3 -29 36q31 -20 31 -17q0 1 -8 10q-18 19 -25 31q7 -6 26 -19t30 -21.5
t23.5 -22.5t17.5 -28zM746 2451q14 -20 14 -12l-15 44q54 -69 50 -102q-11 16 -12 15t3 -15q5 -18 2.5 -18t-10.5 10q5 -34 -1 -31q-11 5 -25 60q-9 35 -6 49zM943 2114q6 20 73 96t88 86q-12 -48 -27 -68q-4 -5 -3 1q0 8 10 40q-3 5 -12 -12q-4 -7 -11 -23q-8 -20 -10 -20
v12q1 5 2 13q-5 -5 -14.5 -16t-14.5 -17v0q-20 -16 -38.5 -41t-24.5 -46q-1 8 -3 8.5t-7 -5.5t-8 -8zM877 2710q10 -53 11.5 -75.5t-2 -26t-8 -19.5t-6.5 -48q-9 53 -11 74t-1.5 28.5t6.5 24.5t11 42zM468 2067q10 -6 9 5q-1 7 -9 28l-7 27q18 -24 32 -69l3 -8q0 2 -1 24
q-1 17 -1 29q16 -61 71 -127q-9 9 -48 39.5t-49 51.5zM1310 2379l84 20q-2 -1 -25 -9q-78 -29 -113 -47q0 4 -1 11.5t-1 11.5q7 -9 14.5 -5.5t11.5 10t10 16t11 12.5q-3 -9 -6 -21q13 14 23 15q9 2 -8 -14zM468 1876q13 5 16.5 4.5t12 -7.5t15.5 -9q69 -32 65 -40
q-4 -6 -65 12q-3 11 -21 22t-23 18zM589 2055q-19 -2 -21 -4t9 -18q-42 17 -62 46q-15 21 0 21q21 -1 74 -45zM1237 2327q13 4 37.5 14.5t44.5 15.5t41 1q-27 -22 -98 -34q-34 -5 -35 1q0 6 28 18q-3 -2 -9 -7.5t-9 -8.5zM469 2170q47 2 70 -23q15 -16 4 -22q-14 -7 -53 19
q37 -4 37 -2q0 1 -14 6q-37 13 -44 22zM1344 2561q1 3 2.5 8t2.5 8q1 2 6 14q14 32 19 33q3 1 4 -10q10 18 10 8v-15q3 -1 18 24q0 1 1 2q-3 -18 -13 -30t-27 -24t-23 -18zM1296 1748q-34 26 -86 46q-11 4 -11 3q1 -3 34 -22q-66 25 -62 31q4 8 54 -10q58 -21 71 -48z
M917 2782q-1 -13 1 -65t-5 -59q-20 94 4 124zM1003 2705q56 63 57 55q1 -9 -41 -60q-37 -44 -34 -24q1 12 22 53q-1 -4 -2.5 -12t-1.5 -12zM1213 2287q5 2 21 10t24.5 11.5t25 9.5t23 4.5l19.5 -4.5q-11 -2 -54.5 -19t-58.5 -12zM1169 2234q2 13 44.5 30.5t53.5 4.5
q-19 -7 -98 -35zM749 2365q9 -9 16 -22t10.5 -22.5t9 -26t8.5 -23.5q-10 9 -17.5 21.5t-11 22t-8 26t-7.5 24.5zM895 2744q1 -20 5 -60t5 -60q-13 28 -15.5 63t5.5 57zM1021 2749q41 53 44 44q4 -8 -21 -35q-18 -18 -37 -29q-2 14 5 25q5 7 9 -5zM896 1643q-3 6 -9 7t-9 -6
q3 4 4.5 10.5t2 10.5t2 6t4.5 0t8 -10v11v10v7t1 5t3 1.5t4.5 -1t6.5 -5t10 -8.5q-4 -11 -16 -21t-12 -17zM934 2816q-1 -11 1 -54.5t-5 -48.5q-16 56 4 103zM946 1595q-5 -9 -14 1t-19.5 27t-16.5 20q12 5 20.5 -4t16.5 -24t14 -20h-1q15 -11 18 -32q-20 11 -18 32z
M1094 2207q9 77 38 100q-6 -24 -17.5 -43.5t-20.5 -56.5zM1240 1729q65 -26 70 -55q-22 9 -39.5 28t-30.5 27zM1271 1641q-2 19 26 -7q29 -28 28 -39q-56 30 -57 46l2 2q1 0 1 -2zM1141 2204q8 16 38 24.5t37 -2.5q-67 -20 -75 -22zM1283 1675q32 -33 14 -26q-16 7 -50 31
q6 -3 18 -1t18 -4zM596 1811q8 -6 25 -16.5t28 -20t17 -22.5q-15 5 -39 25.5t-31 33.5zM1438 2477q-12 -15 -30.5 -27.5t-33.5 -13.5q7 4 19 16t23.5 20t21.5 5zM1289 1496q-39 46 -34 62q26 -14 34 -62zM888 1688q-6 -20 -23 -5q-2 3 -21 19q-5 3 5 7q3 1 9 2q0 9 2 10.5
t11 -1.5q7 -2 -5 -10q-7 -4 -5 -6q0 -1 3 -7.5t4.5 -8l4.5 -4.5t6.5 -2t8.5 6zM770 2255q16 -44 9 -45q-7 0 -18 35l-7 28q3 -3 8.5 -9.5t7.5 -9.5v1zM1215 1883q17 6 47 26t49 25q-54 -42 -96 -51zM782 2263q2 -6 -1 -7.5t-9 -1.5h-2q-15 44 -13 48q2 2 10 -13zM1359 2409
q44 33 68 23q-11 -4 -34 -11.5t-34 -11.5zM1302 1531q-5 6 -29.5 25.5t-26.5 30.5q5 -7 21 -17.5t27 -20.5t8 -18zM497 2126q7 -4 24 -7.5t29.5 -7.5t16.5 -11q-4 1 -23 4.5t-31 8t-16 13.5zM469 2448q3 7 4 28.5t6 30.5q-1 -6 0 -14t2 -16.5t1 -15t-3 -10.5t-10 -3z
M1242 2426q-2 -11 -3.5 -17t-5 -16.5t-9 -15t-13.5 -3.5q5 9 15.5 26.5t15.5 25.5zM849 2525q-9 0 -9.5 2.5t5.5 5.5l5 5t5 6t2.5 7t-1.5 8q5 -2 7 -10.5t3.5 -19.5t3.5 -17q-4 1 -8.5 10t-12.5 3q9 -36 0 -50v50zM1189 2373q-3 -5 -5 -17.5t-6 -21t-12 -7.5q0 8 -1 11.5
t3 9.5t6 8.5t7.5 8t7.5 8.5zM1246 2392q4 4 10.5 17.5t12.5 22.5t13 8q-4 -4 -10.5 -18.5t-12.5 -23.5t-13 -6zM595 2005q-4 6 -17 9t-22 6.5t-8 10.5q5 -3 20 -5t23 -6.5t4 -14.5zM947 2770q7 -23 -1 -23q-1 0 -3 1q-7 51 -2 61l3 -10q2 -10 3 -29zM954 2767q2 10 0.5 21.5
t-1 23t5.5 14.5q-2 -10 -0.5 -21.5t1 -23t-5.5 -14.5zM770 2185q-8 4 -12.5 19t1.5 19q1 -3 7 -12.5t5.5 -12t-1.5 -13.5zM1024 2206q9 -6 0 -27.5t-19 -27.5q3 11 10 29.5t9 25.5zM873 1141q-1 8 -7 34.5t-4 37.5q0 -8 6 -25.5t8.5 -27.5t-3.5 -19zM714 2505q-1 -7 0.5 -20
t1 -22.5t-4.5 -12.5q-1 4 -3 14t-2 14.5t1.5 12t6.5 14.5zM1246 1465q-16 36 -26 60q30 -32 26 -60zM1281 1612q32 -32 17 -30q-11 1 -23 11q-4 3 -2 3q4 0 18 -6q-1 2 -4.5 10.5t-5.5 11.5zM715 2362q-6 27 0 45q11 -11 0 -45zM678 2415q-4 4 -15.5 12.5t-13.5 12.5t2 15
l11 -11t11.5 -14t4.5 -15zM565 1063q-1 6 3 8.5t11 2t14.5 -1t14 -1t10.5 0.5q-12 -8 -20 -9.5t-17 0t-16 0.5zM1147 2294q8 22 13 37q9 -11 3.5 -25t-16.5 -12zM1022 2769q5 3 15 16.5t18 20.5t14 0q-4 -3 -21 -19.5t-26 -17.5zM458 2486q-9 5 -9 10.5t9 32.5v-43z
M-31 1254q3 7 9 21.5t9 20.5q4 -14 -2 -27.5t-16 -14.5zM766 2109q-1 5 -7.5 16.5t-8.5 17t5 10.5q0 -5 6 -15.5t8 -16.5t-3 -12zM1331 2412q2 2 6.5 8.5t6.5 8t6.5 1t9.5 -6.5q-4 -1 -10.5 -6.5t-9.5 -7t-9 2.5zM974 1474q-4 -2 -9 3t-10.5 14t-9.5 12q8 0 13.5 -3.5
t7.5 -6.5t4.5 -10t3.5 -9zM741 2576q-6 -6 -6 -26.5t-13 -27.5q3 6 5 20t4.5 24t9.5 10zM757 2183l24 -45q-20 10 -24 45zM1306 2441q-4 -4 -9.5 -16t-11 -20.5t-11.5 -5.5q4 4 9.5 15.5t11 19.5t11.5 7zM602 2250q-2 -4 -3.5 -13.5t-4 -16t-6.5 -6.5q4 6 1.5 12.5
t-0.5 13.5t13 10zM397 2794q7 -10 7.5 -24.5t-1.5 -24.5q0 5 -3.5 17t-5 19t2.5 13zM626 1770q-8 5 -24 15.5t-24 15.5q36 -9 48 -31zM771 2042q0 -5 3 -17t4 -18t-5 -11q0 5 -3 17t-3.5 18t4.5 11zM845 1113q0 7 -2 28.5t-1 31.5q1 -5 5.5 -20t4 -20.5t-6.5 -19.5z
M665 1083q-18 -22 -47 -11q8 2 23.5 5.5t23.5 5.5zM585 2380q-2 -4 -2.5 -14.5t-2 -18.5t-6.5 -8q2 4 2.5 14.5t2 18t6.5 8.5zM249 2667q-11 -1 -12.5 3t0.5 26q1 -4 5.5 -14t6.5 -15zM205 2694q1 -5 7 -14t9 -16.5t0 -11.5q-1 4 -8 14.5t-9.5 16t1.5 11.5zM741 2246
q-3 -4 -6 -14t-7 -17t-9 -7q3 4 6 15t7 18t9 5zM522 2345q0 3 -1.5 10t-2 10.5t2 7t9.5 3.5q-1 -4 -1 -11.5t-1.5 -13t-5.5 -6.5zM943 1927q-10 8 -12 11.5t1 6t14 6.5q0 -4 -1 -11.5t-2 -12.5zM666 1982q2 1 7 4.5t8 4.5t7 -1t7 -10q-5 0 -14.5 0.5t-14.5 1.5zM877 1655
q-9 3 -13 12.5t1 15.5q1 -3 5 -9.5t6.5 -11t0.5 -7.5zM650 2003q11 16 18 6q6 -10 -3 -14q-3 -2 -7 -1q14 11 5 11q-4 1 -13 -2zM473 1827q-7 1 -23.5 -1t-23.5 -2q-5 -2 -36.5 -10.5t-44.5 -12t-45.5 -14t-49.5 -17.5t-46.5 -20.5t-47 -25.5t-40 -29t-36.5 -35t-26 -40.5
t-18 -46.5q-2 -15 -11 -25.5t-24 -21t-22 -17.5q13 3 24 7l3 -1q-5 -12 -2 -25q-1 -9 -12.5 -24.5t-14.5 -22.5q17 14 20.5 8t-1.5 -24q-1 -5 -1 -8t-1 -7.5t-1 -8v-7.5t1 -7l2 -6t3 -5q-19 17 -19 9q0 -3 2 -10q6 -32 1 -50q10 -23 -13 -58q-13 -20 -15 -11q-1 9 12 40
q-22 -38 -27 -17q-7 24 10 60l6 10q-28 -18 -28 -12q0 5 21 41q-21 -11 -19 -1q1 4 27 42q7 10 4 10q-4 1 -43 -32q-1 5 4.5 14t8.5 14t-1 8t-24 -4q59 42 64 59q4 17 -63 -21q6 12 27.5 24.5t28.5 22.5q-4 -1 -12 -4t-11 -5q8 9 19 17t19.5 12.5t24 11.5t21.5 10
q-17 -1 -52.5 -18.5t-58.5 -15.5q67 28 67 30q1 2 -15 -2q43 23 43 26t-34 -7q-20 -5 -31 -8q4 8 14.5 16.5t15 12t-1.5 7.5t-29 7q10 5 34.5 16.5t39.5 18.5q-54 -3 -49 5q6 10 76 27q-19 2 -54 2q3 2 11 5t14 5.5t11 6t4 8.5t-8 11q20 10 52.5 35t57.5 32t67 0
q-57 13 -57 18q0 3 31 3q34 1 35 4q1 4 -27 12q-2 0 -4 1q8 4 44 8q14 2 0 7q-6 2 -19 5q57 16 87 19t50 11q-16 18 -7.5 18t26.5 -7.5t25 -4.5t-11 25q116 -28 116 -44q0 -10 -44 -24q25 4 30 -2zM132 1758q5 -1 13 -4t12.5 -4.5t11 0t12.5 8.5h-49zM463 1852
q-5 4 -14.5 11t-14.5 10q-1 -2 5 -9t14 -11.5t10 -0.5zM512 1508q2 -16 -0.5 -21t-12.5 -3q2 4 6.5 12t6.5 12zM1270 1601l-1 -1zM1271 1611q-5 13 -3 13q2 1 13 -12l-11 -11q-14 12 -13 15q3 1 14 -5zM736 2266q-2 -3 -6.5 -14.5t-9.5 -13.5q-3 12 0.5 16.5t15.5 11.5z
M776 2186q5 -12 13 -30q-13 11 -15 15t2 15zM452 2749q-9 -1 -11 4t0 26q2 -6 6 -16t5 -14zM1190 2200q-4 -3 -14 -10t-15 -11q2 18 29 21zM558 2422q0 -4 2.5 -24t-1.5 -21q1 5 -1.5 16t-3.5 17.5t4 11.5zM577 2446q1 -5 4.5 -15t5.5 -15t0 -12q0 4 -5.5 14.5t-7.5 16.5
t3 11zM794 1972q1 -2 2.5 -5.5t3 -6t2 -5t-0.5 -4t-5 -2.5q0 2 -2 5t-3 5.5l-2 5t0.5 4.5t4.5 3zM712 2348q9 -2 15 0q-5 -5 -11 -19q-1 4 -2 9.5t-2 9.5zM677 1946z" />
    <glyph glyph-name="V.alt1" unicode="&#xf006;" horiz-adv-x="1607" 
d="M996 -703q1 -5 6 -9t10 -6.5t13.5 -5t13.5 -3.5t14.5 -3t11.5 -2q8 0 24.5 0.5t25.5 0.5l-98 -9q-11 7 -42 17.5t-53 22t-26 25.5q12 7 42.5 -12.5t49.5 -12.5q8 0 8 -3zM790 -684q3 -1 7 -2.5t7 -2.5t5 -2q14 -10 41.5 -31t41.5 -31l-22 -2q-9 8 -27 19.5t-31.5 23.5
t-21.5 28zM1311 246q19 -333 94 -567q66 -202 27 -379l-299 -29q-3 5 -6 10.5t-4 6.5q27 11 3 25l11 11q-9 2 -26 6.5t-25 7.5v2l1 2l48 -9q-1 5 -1.5 13.5t-0.5 13.5q15 9 23 13q-5 2 -12 3.5t-10 2.5q1 2 3.5 8t3.5 10q-9 3 -15 6q3 1 9 2.5t8 2.5q-12 28 -18 41
q15 22 21 29q-3 3 -17 7t-15 16q-3 2 -25 -1l-3 6q3 2 10 6t11 6q-14 0 -22 8q3 10 2.5 13t-6.5 7.5t-7 6.5l-20 -5q-1 6 -1.5 12t-1.5 13t-2 13q-5 -15 -8 -27q-1 0 -2 0.5t-2 0.5q-2 30 -3 46l-10 -2.5l-10 -2.5q-1 10 -1 22q-3 2 -11.5 9.5t-12.5 11.5l-2 -2q-6 18 -8 23
q-26 14 -36 19v9q5 0 13 -0.5t12 -0.5q-2 4 -18 11.5t-11 23.5q-14 8 -15.5 12.5t4.5 23.5q-8 -2 -21 -6.5t-17 -5.5q7 12 21 37.5t20 36.5l-2 2t-1 2q-29 -43 -68 -52q2 3 5 7t4.5 6.5t2 5.5t-2 6t-8.5 6q-1 1 -5 3t-5 3t-3 4.5t1 7.5q-1 2 -3 4t-5 4.5t-5 4.5
q-7 -7 -11 -12l-2 2q2 8 4 14q-5 -1 -8 0.5t-3.5 3.5t-0.5 6v5q-4 21 -13.5 23t-19 -3.5t-19.5 5.5q-23 -5 -34.5 -9t-14.5 -6.5t-3 -5.5t0.5 -6t-4 -9t-16.5 -13q2 -2 2 -4l21 3q-5 -1 -26 -15.5t-39 -4.5q0 -2 -0.5 -9.5t-0.5 -12v-11.5t1 -11.5t2.5 -8.5t5 -5.5t8.5 -0.5
q-6 14 -2 28.5t21 3.5q-11 -11 -13 -17q9 -17 46.5 -29.5t48.5 -34.5q-13 -3 -37 -7v-3q36 -7 67 -15l-1 -1q-1 -1 -1 -2q-4 0 -13 0.5t-13 0.5v-3q3 -2 8 -5t9 -6q-15 -3 -20 -5q14 -5 5.5 -13.5t-6.5 -12.5q8 -11 28 -39l-2 -1l-2 -1q1 -5 5.5 -8.5t12 -7t10.5 -5.5
q0 -1 -0.5 -2t-0.5 -2q-8 -2 -9 -2q17 -34 68 -38v-2q-6 -1 -18.5 -2.5t-18.5 -2.5q11 -11 17 -22q-5 0 -14 -0.5t-14 -1.5q1 -7 4 -12.5t4.5 -8t8 -5.5t7.5 -3.5t10.5 -2.5t10.5 -2q0 -1 -0.5 -3t-0.5 -3q-13 1 -39 3.5t-39 3.5q-2 -6 -2 -9l108 -42l-3 6q-1 1 -1.5 2
t-0.5 2q21 -2 50 -20t46 -22q-30 -3 -62 5.5t-69.5 23t-59.5 19.5v-2l-1 -2q3 -3 9.5 -8t9.5 -7l-12 -6q10 -8 26 -22q-23 -12 -67 52q-47 68 -49 71q-36 43 -51 -7q-7 -22 -11 -64q7 -3 9 -7t1.5 -6.5t-3 -8.5t-3.5 -8q-3 -8 -3 -17.5t1 -21.5t1 -19q-2 4 -5.5 14t-6.5 17
q-11 -13 -2.5 -53t-7.5 -44l11 -56l-46 -4q-2 16 3 43.5t10.5 49.5t4 45.5t-14.5 36.5q-35 7 -61.5 -16t-34.5 -60q-11 -39 -48 -54t-92 -19.5t-78 -13.5q-5 5 -13.5 14t-12.5 13q-45 6 -79.5 22t-52.5 34t-35.5 36.5t-28.5 30t-31.5 15.5t-44.5 -7q7 -17 11 -25t14 -19
t22 -16q23 -12 28 -43.5t7.5 -66t18.5 -50.5l-82 -8q0 4 -2 20.5t-2.5 21.5t-2 20.5t-2.5 21.5t-3.5 20t-4.5 21.5t-5 19.5t-6 20.5t-7 19t-9 19.5q-12 40 -8.5 63.5t11.5 62t6 64.5q-29 25 -39.5 62t-3 74.5t28.5 74.5t50 64t65.5 40.5t71.5 6.5q-32 71 -25 123t45.5 85
t92.5 48.5t115 13t113 -21.5q-26 158 -131.5 452t-134.5 437q-4 35 -26.5 85t-45 93.5t-39 89.5t-10 88t43.5 74q64 42 131 23.5t104 -84.5q119 -287 175 -413q53 -98 94.5 -214.5t84 -260t71.5 -223.5q6 -16 21 -10q25 6 44 19.5t29.5 28.5t19 39t13 43t10.5 48.5t11 47.5
l8 -4q23 90 101.5 292t100.5 313q3 25 7 50.5t10.5 57.5t15 60t19 57.5t24.5 51.5t30 40t36 25t42 5t49 -19.5t57 -48.5q19 -84 17 -185.5t-16.5 -187.5t-37.5 -187.5t-44.5 -187.5t-39 -187.5t-20.5 -185.5v-1zM1205 361q11 -9 14.5 -6.5t7.5 19.5q-2 1 -6.5 3.5t-7.5 3.5
q-6 -14 -8 -20zM1179 284q-2 -6 1 -18h2l2 1q0 2 0.5 5t1.5 5zM1330 1029q-11 7 -19 -10q-1 -2 -2 -3q1 -2 2.5 -3.5l4.5 -4.5t5 -6zM1260 1118q-14 -4 -13 -9t17 -24q6 1 18 1.5t19 0.5q-6 2 -14 4.5t-10 2.5l6 6q-2 1 -4.5 2.5t-4.5 2.5l8 4q-7 2 -22 9zM1182 839
q-25 -17 -39.5 -30.5t-18 -24.5t-3 -18.5t12.5 -16t21.5 -14t31 -15.5t34.5 -17q-5 -1 -12.5 -2t-12.5 -2q10 -4 26.5 -12t24.5 -12q0 -1 -0.5 -3t-0.5 -3q-8 2 -22.5 5.5t-20.5 5.5q1 -3 4 -7t5 -7q-7 -2 -15 -4q0 -1 -1 -2v-2q13 -9 21 -8.5t17 16.5q39 -16 43 -18
q1 2 3.5 9t3.5 11l10.5 -3.5t11.5 -3.5q1 5 2 14.5t2 14.5q-11 7 -13 14t2.5 12t10.5 12.5t8 12.5q4 -7 10 -9l3 3q-15 33 -19 40q-1 0 -3 0.5t-3 0.5q3 2 9 7t10 8q-5 8 -17 26q2 2 8.5 6.5t11.5 7.5q-8 7 -22 19q25 8 10 22q10 5 15 7q-3 10 -1 14.5t17 21.5q-5 6 -8.5 21
t-9 24.5t-17.5 9.5q-13 1 -29.5 18t-31.5 15q-8 0 -8 -5t-1.5 -8t-3.5 -3.5t-7 -0.5h-6q-23 8 -37 -6t-2 -37q-9 -9 -9 -10q2 -9 -4.5 -24t-3.5 -25q7 7 10 9q5 -22 -18 -34q3 -3 10 -9.5t11 -10.5zM1168 706q-29 41 -60 14q1 -2 7.5 -6t6 -6.5t-5.5 -12.5q10 4 18.5 1.5
t18 -1t15.5 10.5zM992 486q-4 -3 -17 -12q-1 0 -1 -1t-1 -1q0 -6 -1 -9q-2 -9 -1 -13q1 -1 2 -3.5t1 -3.5q3 -3 8 -4q0 2 0.5 3.5t1 4.5t0.5 6q16 -11 30 -48t31 -44q7 1 10.5 -0.5t5.5 -7.5t3 -8q12 6 20.5 7.5t17.5 -5t12 -10l15 -17.5q3 5 9 12t9 12q2 -7 4 -15
q0 1 1.5 6.5t1.5 7.5v6v8q-2 14 -9 21q13 3 15 8.5t-2 27.5q22 6 37 11q2 3 8 13.5t10 16.5q-3 0 -17 -2q1 6 5 17t6 18l8 -16q2 5 4 17.5t5.5 20.5t11.5 13q-5 30 -3 39q14 11 11 21t-12 15.5t-20.5 14t-14.5 16.5q5 0 16 -0.5t16 -1.5q0 1 0.5 3.5t0.5 3.5q-33 2 -38 3
q-3 -12 -9.5 -17.5t-17.5 -3.5t-19.5 5.5t-21 9t-17.5 7.5q-4 -9 -13 -40q-1 0 -2.5 0.5t-2.5 0.5q-4 10 -7 15q-5 -1 -14.5 -2.5t-13.5 -1.5q7 21 8 25q-3 -5 -16.5 -26.5t-17 -28t-12.5 -25t-10.5 -29.5t-1.5 -27t4 -32q-4 5 -9.5 11t-6.5 8zM721 263q-2 -1 -5.5 -2
t-5.5 -2t-4 -1q23 -19 41 -6q-9 12 -10 13l-3 -3l4 -10h-1q-1 -1 -2 -1q-12 10 -14 12zM384 1044q-2 12 -3 21q-35 -12 -47 -15q7 0 18.5 0.5t18.5 1.5q-3 -2 -7.5 -6t-6.5 -6q1 0 1 -1t1 -2q19 5 25 7zM376 1108q-3 -1 -9.5 -3t-10.5 -3q5 -2 23 -10q-1 6 -3 16zM317 1141
l-6 -11q5 -4 10.5 -4.5t14.5 2t12 2.5q-1 4 -2.5 14.5t-4 16t-10.5 7.5q-1 -4 -14 -27zM263 1341q-7 6 -10 6t-6 -4t-10 -19q5 0 15 0.5t15 1.5v4q-1 0 -6 1.5t-8 2.5q7 3 10 7zM259 1289q-1 -2 -2.5 -4t-3 -3.5t-3 -4.5t-3.5 -5q16 0 26 -1q-3 4 -7.5 9.5t-6.5 8.5z
M284 1165q-3 9 -1.5 11t8 6t9.5 8q-4 5 -9 5.5t-9 -1t-10.5 -5t-10.5 -4.5q2 -4 4.5 -13.5t6 -13.5t11.5 -4q2 8 1 11zM376 1072q-20 3 -41 -5t-28 -22q3 0 7 0.5t6 0.5l3 1q6 12 26 16t27 9zM369 751q9 -4 7 -12q1 -11 10.5 -17t20.5 -7.5t20 -9t8 -21.5q-5 -3 -12 -6v-2
l42 6q24 -26 75 -22q50 4 57 35q4 20 -12 44q-5 5 -15 11.5t-15 10t-9.5 13t2.5 21.5q1 8 -7 19.5t-11 18.5t7 21q-4 3 -11.5 10t-10.5 10q4 1 24 5q-3 4 -9.5 11.5t-10 12t-3.5 12.5t6 16q-17 -1 -20 18.5t-11 24.5q-6 1 -18.5 8.5t-18 9.5t-14.5 -4q1 0 3 -1.5t3 -2.5
l-1 -2l-1 -2q-3 1 -6 2.5t-6.5 3t-6.5 2.5q4 2 10.5 6t7.5 5q-2 2 -2 3q-3 -1 -14 -4q-5 4 -14 13t-14 13q-5 -9 -13 -20q6 19 -8 13.5t-15 -2.5l3 -15q-2 -1 -6 -3.5t-6 -3.5v-3l18 -3v-1q-37 -7 -44 -9q2 -6 5.5 -18.5t5.5 -18.5q-12 -12 -18 -17q20 -7 23.5 -16t-5.5 -28
q-2 2 -5.5 5t-4.5 4q-3 -11 7.5 -14.5t12.5 -6.5q-3 -1 -8.5 -2t-8.5 -2q2 -3 11 -16t14 -20q1 1 2 1t2 1q-1 4 -2 12t-2 12h5q14 -20 5 -52q-9 0 -17 1q3 -5 6 -24.5t13 -26.5zM375 647q6 4 26 16h-29q0 -1 1 -6zM425 612q-2 -3 -9.5 -6t-11 -6.5t-1.5 -10.5
q8 -3 21.5 -6.5t19.5 -5.5q1 3 3 7.5t2 5.5q6 -1 20 -4.5t20 -4t18 0.5q22 5 48 23q22 17 1 22q-8 -6 -22.5 -2t-23 6.5t-15.5 -10.5q-5 0 -13 -0.5t-12 -1.5q0 -1 1 -3t1 -3q-6 -10 -13 -8t-18 6t-16 1zM343 79q-7 19 -21 21t-35 -2.5t-33 -0.5l1 -3q9 -2 25.5 -5.5
t23.5 -5.5q-3 -9 -4 -13q8 2 21.5 5t21.5 4zM314 -520q18 -1 21.5 2t3.5 19l-9 -3q8 11 7 28t-9 21q2 24 -7 49.5t-29 51t-36.5 44t-44 45.5t-37.5 37t-9 16t-1 10.5t-6.5 7.5t-7.5 4.5t-10 4t-9 3.5q1 2 3 8.5t4 10.5h-28q1 2 2 3.5l3 4.5t3 6q-24 -15 -32 -21q-5 -9 0 -13
t13.5 -4.5t12.5 -6t-2 -18.5q-4 3 -11.5 8.5t-9.5 6.5q0 -2 0.5 -8t0.5 -7.5t1.5 -5.5t3.5 -6.5t6 -4.5q-2 -1 -21 -7t-23 -18q5 2 17.5 4.5t19 7t9.5 13.5l6 -24q-4 -1 -9.5 -1h-7.5q1 -3 3.5 -7.5t4.5 -8t3 -6.5q-2 0 -8 -1t-8 -2q0 -7 -9 -30.5t-9 -40.5t20 -22
q-2 -3 -5 -7t-5 -7q14 2 16.5 -3.5t-2.5 -18.5t-5 -16q2 -14 15 -38t16 -36q2 1 8 3l5 -15q10 -3 29.5 -11t31 -11.5t28 -2.5t30.5 10q1 -1 2 -3l1 -2q-2 -3 -9.5 -13.5l-12.5 -17.5q16 6 45 16.5t42 15.5q-1 1 -2.5 3.5t-2.5 3.5zM389 -340q1 0 1 -2q0 -1 1 -2q23 8 71 26
q-2 2 -5.5 6t-4.5 5q-2 -1 -8 -2.5t-8 -2.5l-2 2l21 15v5q-4 1 -9 2t-10.5 2.5t-8.5 2.5q2 28 -38.5 65t-46.5 58q-17 32 -42 30q0 2 2 6t2 7l-9 -4.5t-6 -3.5q0 10 -4 12t-13 -0.5t-14 -2.5q-14 -24 -32 -13q-14 -4 -10 -12q5 -10 20 -3q0 -3 0.5 -9t0.5 -11q-5 7 -7 10
l-3 -3q2 -16 3 -21q6 1 16 2t13 1q-1 -4 -3 -11.5t-3 -12.5q5 1 9 3q4 -7 5.5 -23.5t6 -24.5t19.5 -3q1 -3 2 -9.5t2 -9.5q14 4 18 5l39 -57l-2 -4q27 -13 55 -1q0 -1 0.5 -1t0.5 -1q-3 -2 -9.5 -7t-9.5 -8zM478 -350q11 5 9.5 9.5t-6 12t-1.5 11.5q-13 -5 -39.5 -15
t-39.5 -15q0 -3 1 -5q4 0 13 -2t13.5 -2.5t10.5 4t10 15.5q7 -20 29 -13zM494 -683q12 33 -10 60q2 -12 5.5 -32.5t4.5 -27.5zM472 -424q34 -5 41 25q-8 -5 -22 -13.5t-19 -11.5zM471 -375q26 -7 43 24q-46 -12 -70 -18q-2 -12 -23.5 -19t-27.5 -18q44 18 78 31
q-17 -17 -9 -24.5t25 10.5q-3 3 -8 7.5t-8 6.5zM599 -245q3 6 9 20q-45 10 -65 26.5t-17 40.5t13.5 46.5t26.5 56t21 57.5q-1 0 -1 2t-1 2q-7 -4 -20 -11.5t-19 -10.5q-3 1 -9.5 4.5t-9.5 5.5q0 3 0.5 7t1.5 7q-2 0 -30 16q-21 11 -22 -5q-9 4 -25.5 10t-18.5 7q0 4 0.5 8.5
t1 7.5t0.5 4q6 4 16 11t14 10q-1 1 -2 2.5t-1 2.5q-28 4 -83 -26q-15 5 -23 -13q-2 -11 -10 -30t-12 -35t0 -31q11 -80 114 -115q12 -22 50.5 -42t50.5 -39q3 3 8.5 8t7.5 7q1 -1 3 -2.5t4.5 -3.5t5.5 -3v20q8 -9 21 -22zM488 89q12 -4 28.5 -14t30.5 -19t29.5 -16
t30.5 -5.5t29 12.5q-74 32 -146 49q0 -1 -1 -3.5t-1 -3.5zM574 -156q-22 5 -26.5 3.5t-5.5 -14.5q5 2 32 11zM703 -123l-3 13q-24 -12 -17 -37q-11 6 -12 9t2 14q-1 0 -5.5 2t-7.5 3q10 3 12 3q0 6 0.5 16.5t1.5 15.5h-1q-1 1 -2 1q-14 -22 -22 -35q-1 6 -2.5 15.5
t-1.5 13.5q-5 -3 -11.5 -1.5t-11 -1.5t-3.5 -13q-16 2 -20 -3.5t2 -22.5q-17 -4 -22 -5q1 -4 3.5 -15t3.5 -17q3 2 13 8q1 -4 4.5 -7.5t10 -7t8.5 -5.5q6 17 20 26t30 0q-2 -2 -5.5 -8.5t-6.5 -10.5q14 -1 21 6t13 22.5t9 21.5zM1156 -308v-6q13 -1 40.5 -5t44 -5.5
t39.5 -0.5t42 7q-5 11 -13 29q-2 -2 -7.5 -6t-7.5 -6q9 15 -10 23l24 12q-7 40 -49 35l12 36q-36 24 -88 5l-3 3q4 4 12.5 12t13.5 12q7 -10 17 -9t19 12q-1 1 -4.5 4t-5 4t-5 3t-5.5 2.5t-5 1.5t-5.5 1t-6 -0.5t-6.5 -2.5q1 5 2 10.5t1.5 7.5t-1 5t-4.5 5.5t-10 6.5
q-5 14 -14.5 20t-21.5 4.5t-22.5 -5t-25.5 -9.5t-22 -8q5 4 19.5 16t24.5 18.5t23.5 13.5t25 5.5t21.5 -10.5q8 25 13 25q2 -6 5 -6.5t7.5 1t6.5 0.5q-3 -2 -8 -5.5t-7 -5.5q18 -1 36 -3q25 19 25 61.5t-32 51.5q1 22 -8.5 34.5t-22.5 6.5q-4 2 -14.5 6.5l-17.5 7.5
q29 34 31 44q3 12 -14 15h-2q-15 0 -15 20q-4 23 -33.5 42.5t-54.5 19.5q1 -1 7 -10q-6 2 -15.5 7t-16 8t-15.5 5t-18 1l3 7q-19 10 -24.5 11t-13.5 -5l18 -12q-1 -1 -1 -2.5v-2.5q-49 7 -93 37q8 6 15 11q-19 11 -26.5 -7t-15.5 -18q-6 4 -17.5 0.5t-14.5 -5t-13.5 -8.5
l-13.5 -9q-14 -10 -46 -19t-45 -20q-2 8 -3 15q-16 -7 -43.5 -20t-32.5 -15q-2 3 -11 15v1q4 2 13 4.5t15.5 6t11.5 11.5q-9 -3 -26 -8t-26 -8q1 -1 5.5 -3t6.5 -4q-7 -10 -17.5 -16.5t-19 -8.5t-23 -4t-21.5 -4l-1 14l-39 -21q4 4 9.5 10.5t7.5 8.5l-16 -2q7 10 18.5 26
t14.5 20q-7 7 -8.5 13.5t1 10t7.5 10t7 11.5q-10 6 -18 11q2 5 15.5 20t10.5 26q-6 38 35 62q-1 0 -5 2.5t-7 3.5q15 27 10 28.5t-17 6.5t-11 21q3 -3 24.5 -9t22.5 -26q2 0 4.5 -0.5t5.5 -1.5t5 -1q3 9 7 24t5 20q6 -2 14 -4q-3 5 -6.5 13t-5.5 12q0 1 0.5 3.5t1.5 7t2 7.5
q-12 -4 -19 -8q0 2 0.5 5.5t1.5 5.5q-4 -1 -9 -1q0 3 -0.5 10t-0.5 12q-3 -4 -8.5 -11t-7.5 -10q0 -3 -0.5 -8.5t-1.5 -8.5q-8 2 -9 5.5t2.5 11.5t4.5 10q-1 4 -5.5 14t-7.5 17q8 1 11.5 -2t4 -9.5t2.5 -8.5q14 10 24 18q-4 1 -11 2.5t-10 2.5q1 1 4 3q-2 4 -8 12t-10 14
q1 7 3 25q-6 5 -14.5 1t-11 -5.5t-9 -8.5t-8.5 -9q-24 -2 -35 -7q-3 -1 -8 -5.5t-7.5 -5t-10.5 3.5q-5 -3 -16.5 -16t-22 -18t-23.5 1q-31 18 -44 5q-13 -12 13 -32q2 -2 5 -4q-2 -2 -12 -14q7 -4 18.5 -10t15.5 -8q-8 -10 2 -16t10 -10q-8 -4 -16 -7q8 -14 14 -43.5
t15 -43.5q2 -1 2 -5t-2 -5q-5 -5 0 -17t3 -17q7 -2 8 -5.5t-1 -9.5t-2 -9q0 -1 0.5 -15t0.5 -17.5t2 -15t4.5 -17t7.5 -12.5t12 -12q-14 -27 -14 -48t9.5 -34t30 -24t39.5 -16.5t45 -14t40 -14.5q31 -15 52.5 -19.5t35.5 -3.5t27 16t20.5 28.5t21.5 43.5q5 10 7 15
q1 -1 2.5 -2t2.5 -1q-11 -31 -39 -106q43 2 79 -21.5t56.5 -51.5t39.5 -48.5t38 -12t42 57.5l3 -3q-16 -30 -23 -44l8 -8t8 -7v-1q0 -1 -1 -1q5 -1 14 -2.5t13 -2.5q-23 -7 -63 -19q8 -10 17.5 -27t17.5 -32t18 -31.5t20.5 -28t23.5 -19.5t29 -7.5t34 9.5l1 -1v-1l-5 -2.5
t-4 -2.5q13 -2 35 2q2 0 8 1.5t9 2t7.5 -0.5t8.5 -5q-23 -7 -65 -19zM588 241q3 -9 -6.5 -15.5t-10.5 -12.5q18 -11 28.5 3t1.5 37q-8 1 -11.5 -1t-1.5 -11zM1219 -105q12 -2 13 -2q-1 -9 -3 -25q28 0 37 18.5t-10 34.5q-12 -2 -17.5 -3.5t-11.5 -7t-8 -15.5zM1177 -364
q2 5 4.5 11.5t2.5 8.5l-22 19q-2 -2 -4 -2l9 -18t10 -19zM1242 -357q8 -10 13.5 -9.5t16.5 12.5q-26 10 -76 30q0 -1 -2 -3.5t-2 -4.5q24 -18 50 -25zM1319 -380q2 3 6 8.5t5 7.5q-6 5 -12 3t-11.5 -0.5t-6.5 9.5q2 3 6 8.5t7 9.5q-11 0 -29.5 -0.5t-27.5 -0.5z" />
    <glyph glyph-name="W.alt1" unicode="&#xf007;" horiz-adv-x="2490" 
d="M794 313q12 8 18 10q-10 -9 -18 -10zM919 -588q24 -27 70 -30q7 0 22.5 0.5t23.5 0.5l-89 -9q-11 7 -38 16.5t-47 20t-25 24.5q12 5 39 -12t44 -11zM739 -573q3 -1 6.5 -2.5t6 -2.5t4.5 -2q8 -6 23 -18t27.5 -21.5t24.5 -17.5q-48 -3 -92 64zM1570 -565q17 -7 44 11
t39 12q-5 -14 -25 -24.5t-47 -20t-38 -16.5l-89 9q84 -6 116 29zM1677 346q9 -3 18 -9q-9 1 -18 9zM1750 -550q-44 -67 -93 -64q9 5 40.5 31t52.5 33zM2336 -27q38 8 78 -11t67 -55t43 -78t8.5 -85t-39.5 -71q14 -39 11.5 -93.5t-10 -90.5t-19 -90.5t-14.5 -93.5l-75 8
q14 15 16.5 47t7.5 61t26 41q24 9 43 56q-22 8 -35.5 8t-29 -12.5t-25 -24.5t-23 -28.5t-24.5 -24.5q-79 -42 -140.5 -51t-148.5 14q-18 5 -29.5 22t-16.5 34.5t-15.5 36t-27.5 26.5q-21 7 -32.5 6t-17 -12.5t-5.5 -25.5t2.5 -33t5.5 -36q2 -11 3 -17t2.5 -14.5t1.5 -15
v-11.5l-41 4l10 52q-14 7 -7 41t-2 50q-2 -5 -5.5 -14.5t-5.5 -14.5q4 12 0.5 31.5t-5.5 30t7 20.5q-1 5 -2 17t-2 21t-4 19.5t-8.5 17.5t-14.5 9q-27 -15 -61.5 -67.5t-49.5 -66.5q-17 -14 -16 -2q1 14 17 23q2 0 3 1l-10 5q12 14 0 13q-4 -1 -78 -26q-62 -21 -80 -13
q16 4 42 20.5t45 18.5q-3 -6 -4 -9q10 6 34 13t41 14.5t21 19.5q-12 -1 -35.5 -3.5t-35.5 -3.5q1 7 20.5 13t19.5 25q-4 1 -12.5 1.5t-12.5 0.5q4 8 15 20q-3 1 -16.5 2t-17.5 5q47 2 62 35q-14 3 -1 10q16 11 17 16h-1l-2 1q3 4 12.5 17.5t13.5 19.5q2 4 -5.5 12t4.5 12
q-3 1 -8.5 2.5t-9.5 2.5q3 2 7 4t6 3.5t2 4.5q-2 0 -8.5 -1t-11 -0.5t-5.5 4.5q7 3 30.5 6.5t30.5 9.5q-5 1 -16.5 3.5t-17.5 3.5q10 21 43.5 32t42.5 27q-2 6 -12 16q15 10 19 -3.5t-2 -26.5q3 1 6 0t4.5 2.5t3 5.5t2 7t0.5 8v8.5v8.5t-0.5 8t-0.5 7q-16 -9 -35.5 4.5
t-23.5 14.5q16 -3 18 -1q1 2 -6 7q-8 8 -10 13q4 12 -4.5 16.5t-22.5 6t-19 5.5q-9 -10 -18 -5t-18 2.5t-12 -21.5v-5t-0.5 -5.5t-3 -3.5t-7.5 0q0 -2 1.5 -6t2 -5t-1.5 -4q-2 2 -5.5 6.5t-4.5 5.5q-7 -4 -11 -15.5t-12 -13.5q-6 -4 -8 -8t-1 -6t4.5 -7t5.5 -8q-36 8 -62 49
q-1 -13 16 -40t19 -33q-4 1 -16.5 5t-18.5 6q5 -17 4 -22t-14 -12q5 -15 -9.5 -22t-16.5 -11q4 0 11.5 0.5t11.5 0.5q-2 -10 -21 -20t-20 -27v1q0 1 -1 1l-5 -4l-6 -5l-4 -5q-5 -4 -4.5 -5t-2.5 -6t-1 -7t0 -9l-18 6q-2 -8 -1 -16t0 -16.5t-5 -12.5q-5 19 -8 26
q-1 -5 -2 -12t-2 -12.5t-1 -10.5q-10 7 -22 1t-5 -22q-8 -8 -21 -8q5 -3 11 -6.5t8 -4.5q-1 -6 -11 -4t-14 -1q-1 -10 -14 -14.5t-15 -6.5q16 -19 15.5 -31t-12.5 -35q12 -3 15 -4q-3 -1 -7.5 -3.5t-5.5 -2.5q2 -6 6 -16q-2 -1 -8.5 -2.5t-11.5 -3.5q16 -6 19.5 -14
t-0.5 -23q7 1 22 3.5t22 4.5v-2l1 -2q-8 -2 -23.5 -6t-23.5 -6q1 -1 4.5 -5t5.5 -6q-23 -13 3 -24q3 -10 -35 -10.5t-88 5.5q0 -1 -0.5 -3t-0.5 -3q-2 1 -62 -6q-219 -26 -219 -6q26 11 2 24q2 2 6 5.5t5 4.5q-9 2 -25 7t-22 6v1l1 2q8 -2 22 -4.5t21 -3.5q-2 10 -1.5 17
t5.5 12t16 9q-4 2 -11 3t-9 2q2 5 6 17q-1 0 -5.5 2.5t-7.5 3.5q3 1 15 4q-12 23 -12.5 35t15.5 31q-2 3 -15 7t-14 14q-3 3 -14.5 1t-11.5 4q1 1 7.5 4.5t11.5 6.5q-12 0 -20 8q7 16 -5.5 21.5t-22.5 -0.5q-1 17 -4 35q-3 -7 -8 -26q-4 4 -5 12.5t0 16.5t-1 16l-18 -6
q2 3 0.5 7.5t-1 6.5t-2 5.5t-3 5t-4 4.5t-4 4t-4.5 4t-5 4l-2 -2q-1 17 -19.5 27t-20.5 20q4 0 11.5 -0.5t11.5 -0.5q-2 4 -17 11t-10 22q-13 8 -14 12t4 21q-6 -2 -18 -5.5t-16 -4.5q2 6 18.5 33t15.5 40q-26 -41 -62 -49q2 3 5.5 8t5 7t-0.5 6t-8 8q-8 2 -12 13t-11 15
q-1 -1 -4.5 -5t-5.5 -6q-2 3 -1.5 4t2 5t1.5 6q-5 -1 -7.5 0t-3 3.5t-0.5 5.5v5q-3 19 -12 21.5t-18 -2.5t-18 5q-5 -4 -19 -5.5t-22.5 -6t-4.5 -16.5q-2 -5 -10.5 -12.5t-2.5 -8.5l15 2q-4 -1 -23 -14.5t-36 -4.5q0 -2 -0.5 -9t-0.5 -11t-0.5 -10.5t0.5 -10.5t2.5 -8
t5 -5.5t7.5 -0.5q-6 13 -2 26.5t19 3.5q-9 -9 -11 -16q9 -16 42.5 -27t43.5 -32q-7 -1 -18 -3.5t-16 -3.5q7 -6 30.5 -9.5t30.5 -6.5q-1 -4 -5.5 -4.5t-11 0.5t-8.5 1q0 -3 2 -4.5t6 -3.5t7 -4q-15 -4 -18 -5q12 -4 4.5 -12.5t-5.5 -12.5q4 -6 13 -18.5t13 -17.5
q-1 0 -2 -0.5t-2 -0.5q0 -6 17 -16q13 -7 -1 -10q15 -33 63 -35q-4 -4 -18 -5t-17 -2q13 -15 16 -20q-4 0 -12.5 -0.5t-12.5 -1.5q0 -19 19.5 -25t20.5 -13q-12 1 -35.5 3t-35.5 3q4 -12 21.5 -19.5t41 -14t33.5 -12.5q-1 2 -2.5 4.5t-2.5 4.5q19 -2 45.5 -18.5t42.5 -20.5
q-20 -9 -114 25q-50 18 -50 11q0 -3 6 -10l-10 -5q16 -6 19 -22q2 -6 -2.5 -6.5t-12.5 6.5q-15 14 -49.5 66.5t-61.5 67.5q-9 -2 -14.5 -9t-8.5 -17.5t-4 -19.5t-2 -21t-2 -17q9 -6 7 -21t-6 -30t1 -31q-2 5 -5.5 14t-5.5 14q-10 -12 -2 -49.5t-7 -40.5l10 -52l-42 -4
q-1 11 11 82q12 76 -16 82q-13 3 -34 -5q-17 -8 -28 -26.5t-15.5 -36t-16.5 -34.5t-30 -22q-87 -23 -148 -14t-140 51q-11 8 -24.5 24.5t-23 28.5t-25 24.5t-29 12.5t-35.5 -8q19 -47 43 -56q21 -12 25.5 -41t7 -61t16.5 -47l-74 -8q-3 39 -14.5 93.5t-19 90.5t-10 90.5
t11.5 93.5q-32 28 -39.5 71t8.5 85t43 78t67 55t78 11q-29 64 -22.5 112t42.5 79.5t85 47t105 13.5t101 -21q-19 119 -67.5 265.5t-100.5 297.5t-75 267q-4 38 -32.5 100t-52.5 109.5t-25 101.5t40 90q43 27 79 27.5t70.5 -27.5t63.5 -70t57 -101.5t51 -120t47 -126
t43 -120.5t40 -102.5t38 -72.5q11 -49 18 -79.5t20.5 -83.5t25.5 -87t27 -69.5t31 -51.5t32 -14l-7.5 -5t-6.5 -5q-13 -10 -42 -18.5t-41 -18.5q-1 6 -3 15q-8 -2 -21 -9.5t-23 -14t-20 -6.5t-14 11l-1 1q3 1 11.5 3.5t15 6t10.5 10.5l-48 -15q26 -18 -31 -31l-31 -6l-1 14
q-6 -4 -17.5 -10t-18.5 -10q3 4 8.5 9.5l7.5 7.5l-15 -1q19 17 23 45t13 40q-2 1 -4 2.5t-5.5 3.5t-6.5 3q2 5 14.5 19t9.5 24q-4 37 32 59q-6 3 -11 5q13 24 9.5 25.5t-14.5 7t-11 19.5q4 -5 15 -6.5t19 -6.5t8 -19q2 -1 6.5 -2t6.5 -2q6 23 12 42q6 -2 13 -4l-4.5 9
l-3.5 7t-2 6t-0.5 8t2.5 10q-2 -1 -8 -3t-9 -4q0 2 0.5 5t1.5 5q-2 0 -5 -0.5t-4 -0.5v21q-17 -22 -17 -36q-8 5 -5.5 22.5t-7.5 31.5q6 1 9 -1t3.5 -5t1.5 -7t2 -6q12 10 21 17q-4 1 -9.5 2.5t-8.5 2.5q0 1 1 1t2 1q-7 8 -12 22.5t-7.5 21.5t-10.5 4.5t-23 -20.5
q-11 2 -28 -8t-27 -6q-8 -1 -16 -18q-9 -19 -41.5 -9.5t-40.5 1.5q-3 -25 18 -33q-6 -8 -11 -13q29 -16 31 -17q-4 -6 -2 -9.5t5 -6t6 -4.5t0 -5t-13 -6q22 -52 29 -122q7 -10 7 -51t22 -55q-14 -23 -13.5 -42t9 -31t28 -23.5t36 -17.5t41.5 -14t36 -12q33 -18 56 -21.5
t40 9.5t28 32t25 54q1 0 2.5 -0.5t2.5 -1.5q-6 -18 -18 -50.5t-17 -48.5q33 5 64 -15.5t51.5 -47t39.5 -47.5t38 -14t38 52q1 -6 -3.5 -15t-8.5 -16t-2.5 -14t11.5 -12q0 -1 -1 -1h-1q20 -5 25 -6q-33 -10 -57 -17q7 -9 15.5 -25t16 -30t16.5 -29.5t19 -26.5t22 -18t26.5 -7
t30.5 9l1 -2l-5 -2.5t-4 -2.5q15 -1 32 2q23 5 30 -2q-52 -11 -48 -20q7 -14 79 -14q11 0 22 1q2 7 5 20.5t4 20.5q-2 2 -4 3q1 0 5 2q1 5 3.5 15t3.5 15q-14 16 -35 11q6 13 7.5 22t-2.5 14t-10 7t-15.5 2t-17.5 -0.5t-18 -1.5t-16 -1q4 3 12 11t12 11q14 -21 32 2
q-2 1 -7 5.5t-7.5 6t-6.5 3.5t-8.5 1.5t-9.5 -3.5q4 13 2.5 19.5t-13.5 13.5q-5 13 -13.5 18.5t-19.5 4t-21 -4.5t-23 -8.5t-20 -7.5q4 3 17.5 14.5t22.5 17.5t21.5 12.5t23.5 5.5t20 -10q3 17 5 20t9.5 0t14.5 -2q-2 -2 -7 -5.5t-8 -4.5q29 -11 45.5 11.5t11 52.5t-28.5 38
q1 23 -7 31.5t-25 11.5t-26 9q32 36 28 47q-2 7 -14 8q-14 0 -14 18q-6 23 -30.5 39.5t-49.5 18.5l6 -9l-14 7t-15 7t-13.5 4t-16.5 1l3 7q-18 10 -23 10.5t-12 -4.5q20 -15 5 -14q-27 3 -64 25q-7 4 -10 7q2 2 6 5t7 5q-15 7 -18.5 2.5t-8 -14.5t-11.5 -11q-9 2 -21 -1
q39 35 75 198l4 -3q16 62 62.5 178.5t61.5 170.5q24 44 55 207.5t56 226.5q3 57 53 95.5t100 25.5q42 -15 67 -55t32 -80t15.5 -97.5t17.5 -85.5q20 -104 92 -292t93 -272l6 4q37 -164 75 -198q-12 3 -22 1q-7 1 -11.5 11t-8 14.5t-18.5 -2.5q3 -2 7 -5t6 -5
q-14 -14 -59 -28q-21 -6 -21 -2q-1 3 11 12q-7 5 -11.5 4.5t-22.5 -10.5l3 -7q-8 1 -16.5 -1t-13.5 -4t-15 -7l-14 -7l6 9q-25 -2 -49.5 -18.5t-30.5 -39.5q0 -18 -14 -18q-31 -4 11 -51q2 -3 3 -4q-9 -6 -26 -9t-25 -11.5t-7 -31.5q-23 -8 -28.5 -38t10.5 -52.5t45 -11.5
q-3 2 -7 5t-7 5q7 -1 14.5 2t9.5 0t5 -20q9 9 19.5 10t23 -5.5t21.5 -12.5t22 -17.5t18 -14.5q-7 2 -25.5 9.5t-29.5 10.5t-23.5 -1.5t-18.5 -20.5q-12 -7 -13 -13.5t3 -19.5q-5 3 -9 3.5t-9 -1.5t-7 -3t-7.5 -5.5t-6.5 -5.5q18 -23 32 -3q4 -3 12 -10.5t12 -11.5
q-6 0 -16 1t-18 2t-17.5 1t-15.5 -2.5t-10 -7t-2.5 -13.5t7.5 -22q-20 6 -36 -12t4 -29q4 -2 9 -3q-18 -9 -9 -22q-1 1 -3 2.5t-3 2.5q3 -16 7 -25q62 -7 102 5q34 10 -23 24q-6 2 -13 3q8 9 30.5 2.5t31.5 -3.5l-9 6q1 0 1 1q16 -9 30.5 -9t26.5 7t22 18t19 26.5t16.5 29.5
t16 30t15.5 25q-14 5 -58 17q5 1 25 6q0 1 -1 1q10 5 11.5 12.5t-3 14t-9 16t-3.5 15.5q19 -45 38 -52t38.5 13.5t39.5 47t51.5 47t64.5 15.5q-5 16 -17 48.5t-18 50.5q1 1 5 3q14 -35 25 -54t28 -32.5t40 -10t56 21.5q11 4 36 12.5t41.5 14.5t36 17t28 23.5t9 31.5
t-13.5 42q22 14 22.5 54.5t6.5 50.5q7 72 29 123q-12 4 -13.5 7t3.5 5.5t7.5 6.5t-1.5 11q2 1 31 17q-5 5 -11 13q21 8 18 34q-8 8 -40.5 -2t-41.5 9q-9 18 -16 19q-10 -4 -27 5.5t-28 7.5q-15 18 -23 20.5t-10.5 -4.5t-7.5 -21.5t-12 -22.5l1 -1q1 -1 2 -1q-3 -1 -9.5 -2.5
t-9.5 -2.5q3 -2 11 -8t11 -9q1 2 2 6t1.5 7t3.5 5t9 1q-10 -12 -7.5 -31.5t-5.5 -22.5q0 14 -17 36q0 -4 -0.5 -11t-0.5 -10q-1 0 -3.5 0.5t-4.5 0.5q1 -2 1.5 -5t0.5 -5l-4 2t-3.5 1.5l-4.5 1.5t-5 2q2 -7 2 -12.5t-0.5 -8t-4 -8.5t-5.5 -10l8 2t5 1q2 -8 6 -23t5 -19
q2 0 7 1.5t7 2.5q0 14 8 19t19 6.5t15 6.5q0 -14 -11 -19.5t-14.5 -7t9.5 -25.5q-5 -2 -11 -5q36 -23 32 -59q-3 -10 9.5 -23.5t14.5 -18.5q-11 -6 -16 -10q9 -12 13 -40t23 -45l-15 1q2 -3 7 -8l9 -9q-7 4 -18.5 10t-17.5 10l-1 -14q-61 7 -69 23q-3 7 7 14q-5 2 -14.5 4.5
t-17.5 5t-16 5.5q4 -7 10 -10.5t14.5 -6t11.5 -3.5v-1q-4 -11 -14 -11t-20 6.5t-23.5 14t-21.5 9.5q-2 -9 -3 -15q-3 1 -19 11.5t-28 9.5q-6 0 -13 3t-12 6.5t-12.5 8.5t-11.5 8q16 -2 32 14.5t31 52t27 69t25.5 87.5t20.5 83.5t18 78.5q17 25 37.5 72.5t40 102.5t43 120.5
t46.5 126.5t51.5 120t57 101t63 70.5t70.5 27.5t79 -28q33 -29 39.5 -68.5t-8.5 -82.5t-35.5 -83.5t-40.5 -87t-24 -79.5q-23 -116 -75 -267t-100.5 -297.5t-67.5 -265.5q57 24 127.5 21t124.5 -32.5t76.5 -85t-17.5 -134.5zM1789 323q15 -11 37 6q-4 8 -15 1t-14 -7
q4 11 1 12zM1934 313q-7 19 -12 8q-7 -16 2 -32q9 -12 25 -2l-7 10q-11 4 -8 16zM2127 692q1 4 2 9t1 6h-26q15 -10 23 -15zM2239 1332q-1 -1 -5.5 -1.5t-6 -1.5t-1.5 -4q4 -1 13 -1.5t14 -0.5q-10 21 -14 22q-2 1 -10 -6q3 -4 10 -7zM2233 1290q-2 -3 -6.5 -8.5t-6.5 -8.5
q4 0 12 1t12 1q-2 3 -5.5 7.5t-5.5 7.5zM2231 1193q-4 1 -12.5 6t-11.5 4.5t-11 -5.5l7 -7q7 -1 8.5 -5.5t-1 -9.5t0.5 -11q7 0 10.5 3.5t6 12.5t3.5 12zM2168 1177q-7 -2 -9.5 -7t-4 -15t-2.5 -13q3 0 8.5 -2t9 -2.5t8 0.5t8.5 4q-1 2 -8.5 15t-9.5 20zM2189 1063
q-7 13 -25.5 20.5t-37.5 4.5q6 -4 25 -8t24 -15l2 -1q2 0 6 -0.5t6 -0.5zM2127 1122q-1 -3 -2 -8t-2 -7q11 4 22 9q-8 2 -18 6zM2122 1081q-8 -15 7 -22q9 -5 12 -1q2 3 -10 11q22 0 34 -1q-8 2 -22 6.5t-21 6.5zM1937 777q-9 -24 -10.5 -38.5t8.5 -21.5t23 -8.5t31.5 0
t35 4.5t33 5t25.5 1q0 1 1 1q-27 13 8 33l22 8q14 7 12 17q20 27 25 58q-7 -1 -17 -1q-12 45 10 49q-6 -26 1 -20q6 4 21 30l-15 3q1 3 11 6.5t7 13.5l-9 -9q-8 18 -4.5 25.5t21.5 15.5q-14 9 -14.5 22t7.5 29q-12 2 -40 8q16 4 17 5t-3 3q-12 8 -5 19q-3 -5 -8.5 -0.5
t-10 4t-2.5 -13.5q-2 3 -6 9.5t-6 9.5q-3 -2 -11.5 -11.5t-12.5 -10.5t-15 1q0 -2 -1 -3q2 -1 7 -4.5t9 -5.5q-13 -5 -17 -8q-3 4 3 8q-9 5 -14.5 3t-15.5 -9t-16 -8q-6 -4 -8 -11t-2 -13t-4 -10.5t-14 -4.5q5 -8 5 -15.5t-3 -11.5t-9 -11t-8 -11q18 -4 21 -5q-3 -3 -9.5 -9
t-10.5 -9q6 -6 7 -12t-0.5 -9.5t-6.5 -10t-6 -9.5q-1 -5 -1.5 -12t-1 -9.5t-1 -7t-1.5 -6.5t-2 -5.5t-3 -5t-4 -4.5t-6 -5.5t-7.5 -5t-9.5 -6.5zM2065 626q12 3 18.5 5.5t13 6.5t3 9.5t-17.5 11.5q-5 3 -15 -1t-16.5 -5.5t-11.5 7.5q1 1 1 3t1 3q-10 -2 -24 6t-26 3
q-6 -6 -19 -4t-19 -1q9 -26 37.5 -33t48.5 -2.5t26 -8.5zM1326 14q-17 -15 -9 -32t33 -17q-1 4 -1.5 11.5t-0.5 11.5q2 0 12 2q-3 14 -10.5 18t-23.5 6zM1139 -58q25 0 33 17t-9 32q-11 -1 -16 -2.5t-10.5 -7t-7.5 -14.5q10 -2 12 -2q0 -4 -0.5 -11.5t-1.5 -11.5zM540 264
q23 -16 28 11q4 20 -3 26q-4 3 -9 -8q0 -2 -1 -3q3 -8 -5.5 -14.5t-9.5 -11.5zM676 310q-5 -2 -13 -4q22 -17 37 -6q-2 2 -5 6t-5 6q-3 -1 1 -12q-4 -2 -9 4zM357 1046q-15 -10 -8 -12q9 -4 17 7q7 7 1 17q-7 -2 -21 -6.5t-22 -6.5q12 1 33 1zM362 1098q-3 -1 -18 -5
q16 -7 21 -9q-1 3 -2 7t-1 7zM309 1129l-6 -10q4 -3 8.5 -4t8 -0.5t9 2.5t8.5 2q-1 3 -2.5 13t-4 15t-9.5 7q-4 -12 -12 -25zM260 1316q-9 7 -12 5.5t-12 -21.5q5 0 14 0.5t13 1.5q0 3 -1.5 4t-6 1.5t-5.5 1.5q7 3 10 7zM256 1267q-2 -4 -11 -16q5 0 12 -0.5t12 -0.5
q-2 3 -6.5 8.5t-6.5 8.5zM279 1151q-3 5 -2 8.5t3.5 5t6.5 4.5t6 6q-8 5 -11 5.5t-11.5 -4.5t-12.5 -6q1 -3 3.5 -12.5t6 -13t10.5 -3.5q2 7 1 10zM363 1065q-19 3 -37.5 -4.5t-25.5 -20.5q2 0 6 0.5t6 1.5h2q5 11 23.5 15t25.5 8zM349 861q13 -20 8 -40q-5 -12 -19 -8
q6 -33 24 -58q-2 -10 12 -17q20 -4 34 -16t-3 -25v-2q9 1 25.5 -1t33 -4.5t35 -4.5t31.5 -0.5t23 9t9 22t-10 38.5q-7 4 -11 7t-8 6.5t-5.5 5t-4 5.5t-3 5t-1.5 6.5t-1.5 8t-1 10.5t-1.5 13q-1 3 -6 9.5t-6.5 10t-0.5 9.5t7 12q-12 10 -21 18q6 1 22 5q-2 4 -8 11t-9 11
t-3 11.5t5 15.5q-12 0 -15 7t-4.5 17.5t-8.5 14.5q-6 1 -16.5 8t-15.5 9t-14 -4q5 -4 3 -7q-4 2 -17 8q6 4 16 10q-2 2 -2 3q-11 -2 -14.5 -1.5t-12 10t-11.5 11.5l-12 -18q2 13 -2.5 13.5t-10 -4t-8.5 0.5q4 -7 2.5 -11t-5 -6t-5.5 -3t1.5 -2.5t15.5 -4.5q-5 -1 -19 -4.5
t-21 -4.5q8 -16 7.5 -28.5t-14.5 -21.5q18 -8 21 -15.5t-5 -25.5q-2 2 -5 4.5t-4 3.5q-3 -10 7 -13.5t11 -6.5q-2 0 -4.5 -1t-5 -1.5t-5.5 -0.5q28 -47 25 -22q0 5 -2 13h4zM362 669q8 5 23 15h-26q0 -1 1 -6t2 -9zM407 636q-14 -6 -17.5 -11.5t3 -9.5t13 -6.5t18.5 -5.5
q6 13 26 8.5t48 2.5t38 33q-5 3 -19.5 1t-19.5 4q-12 5 -26 -3t-24 -6q3 -11 -3.5 -12.5t-16.5 3.5q-5 1 -7.5 2t-7 1.5t-5.5 -1.5zM599 109q-51 23 -133 45q22 -26 65.5 -46.5t67.5 1.5zM332 139q-6 18 -18.5 19.5t-31.5 -2.5t-30 -1q5 -5 23 -8.5t22 -4.5l-4 -12
q6 1 12.5 2.5t14.5 3.5zM306 -420q16 -1 19 1.5t3 17.5q-1 -1 -3.5 -1.5t-3.5 -0.5q7 10 6 26t-8 19q13 38 -57.5 125t-122.5 130q1 4 3.5 9t3.5 8h-26q1 1 3.5 5.5t4.5 7.5q-5 -3 -15.5 -9.5t-14.5 -9.5q-5 -9 0 -12.5t13 -4t12 -5.5t-2 -17q-14 10 -20 14v-6.5t0.5 -6
t1 -5t1.5 -5t3 -3.5t5 -4q-1 -1 -18.5 -6.5t-21.5 -16.5q4 1 15.5 3.5t17.5 6.5t9 13q1 -4 2.5 -11t2.5 -11q-3 0 -8 -0.5t-7 -1.5l10 -20l-15 -3q0 -7 -8.5 -28.5t-8 -37.5t18.5 -20q-3 -4 -9 -14q8 1 12 -0.5t4 -6t-1 -9t-3.5 -10.5t-2.5 -9q22 -70 35 -66q13 -25 51 -34
t62 6q2 -5 -1 -10t-8.5 -11.5t-7.5 -11.5q13 5 38.5 14.5t39.5 14.5q-2 4 -4 7zM340 -236q25 -11 51 -1q-16 -15 -11 -16t32 10q21 9 28 11q-3 7 -8 8t-8.5 -0.5t-8.5 0.5q37 20 -6 25q3 4 1.5 10.5t-2.5 10t-5.5 8.5t-6.5 7.5t-7.5 7.5t-7.5 7q-15 9 -28 32t-26 40.5
t-33 19.5q0 1 0.5 2.5l1 3l1 3t0.5 3.5q-3 -2 -8 -4.5t-6 -3.5q-3 10 -7.5 12.5t-10.5 -1.5t-12.5 -8.5t-13 -7.5t-13.5 2q-13 -3 -9 -12q4 -10 18 -3q0 -2 0.5 -7.5t0.5 -10.5l-6 10q-4 -2 -2 -12t2 -11q6 1 14.5 2t11.5 1q-1 -3 -3 -10.5t-3 -12.5q4 1 8 3q4 -26 8.5 -37
t8.5 -10t8.5 -2.5t7.5 -15.5q16 8 30 -13t19 -40zM455 -262q10 5 8.5 9t-5 11t-1.5 11q-12 -5 -36 -14t-36 -14q6 -9 22 -8.5t21 18.5q8 -20 27 -13zM469 -573q12 31 -8 57q1 -8 3.5 -27.5t4.5 -29.5zM449 -331q32 -3 38 24q-16 -10 -38 -24zM449 -285q25 -5 39 22
q-68 -14 -110 -51q11 4 35 14l36 15q-17 -17 -7 -23q8 -5 22 10q-3 3 -8 7t-7 6zM565 -164q1 3 8 19q-40 6 -57.5 22t-14.5 40t12.5 47.5t22.5 55t16 51.5q-27 -21 -43 -17q-11 2 -7 19q-5 1 -19 9q-26 16 -29 4v-3q-33 7 -37 23t26 31q-6 5 -14 5.5t-17 -2.5t-16 -6
t-17 -8.5t-14 -7.5q-21 1 -32 -37t-9 -65q10 -75 104 -108q11 -21 45.5 -39.5t45.5 -36.5l4 4l4 4t3 2.5t3.5 1.5h3.5t4 -1.5t5 -4.5v19q4 -4 9.5 -10.5t9.5 -10.5zM542 -80q-20 4 -24 2.5t-5 -13.5q5 2 14.5 5.5t14.5 5.5zM660 -49q0 1 -0.5 3t-1.5 4.5t-1 3.5
q-21 -11 -15 -34q-10 5 -11 7.5t2 13.5q-1 0 -5 2t-7 3q15 12 13 23q-1 10 -11 0q-7 -8 -12 -22q-1 5 -2.5 13.5t-1.5 12.5q-5 -3 -10.5 -1t-10 -0.5t-3.5 -12.5q-15 1 -18 -3.5t2 -20.5q-14 -4 -20 -5q4 -18 6 -29q1 1 5.5 3t6.5 4q1 -4 4.5 -7t9 -6.5t7.5 -5.5
q5 16 19 24.5t27 -0.5q-3 -6 -11 -18q13 -1 19.5 6t11.5 21.5t8 20.5zM1326 -224h-31q1 -2 2 -5t1 -5q0 -1 1 -3.5t2 -4.5q16 12 25 18zM1352 437q2 -18 10 -18.5t8 11.5q-1 7 -5 13q-2 -1 -6.5 -3t-6.5 -3zM1395 336q0 5 2 11q-2 -1 -4 -2.5t-3 -1.5q2 -6 5 -7zM1474 646
q-3 13 -13 37q-28 -19 -43.5 -18.5t-32 8.5t-35.5 6v-6q5 1 14.5 1.5t14.5 0.5q-2 -8 -25.5 -24t-11.5 -35q10 -12 4 -33q1 -8 8.5 -25.5t8.5 -29.5q1 2 3.5 6.5t3.5 8.5q9 -29 10 -33q-12 2 -15 2q8 -18 19 -26t31 -12q-3 -14 -3 -20t2.5 -9t11.5 -5q-6 -6 -7 -18
q-2 -14 2 -27q0 1 1 3q2 6 3 11l1 -1q10 -14 16 -22q23 30 37 30q9 0 22 -7q0 1 0.5 1t0.5 1v1q0 1 1.5 4l2 4t2.5 3.5t4 2t6 -0.5q15 7 28 41t28 44v-5q0 -2 0.5 -4.5t0.5 -3.5q4 1 8 5q1 1 1 3t1 3q2 6 0 13q-5 16 -19 21q-2 -2 -14 -18q4 15 4 29.5t-2.5 25.5t-9 26.5
t-11.5 24l-15 25.5t-15 25q5 -18 7 -23q-15 3 -21 1t-15 -12zM1453 736q-5 9 -5.5 11.5t6 6.5t7.5 6q-21 17 -41 4q-14 -11 -7 -21q8 -12 40 -7zM1389 968q9 26 1 34.5t-22.5 5.5t-23.5 2q-4 3 -6 9q-15 12 -34 -7t-29 -19q-11 0 -15.5 -9t-8 -23t-7.5 -20q13 -15 14.5 -20
t-1.5 -13q12 -5 14 -6q-14 -13 9 -21q-3 -3 -9.5 -8.5t-10.5 -8.5q15 -11 19 -14q-2 -3 -5 -8t-5.5 -9t-4.5 -7q3 -2 8.5 -7t8.5 -7q-9 1 -19 -27q-3 -11 -1 -13q2 -1 8 7q16 -18 16.5 -26.5t-4.5 -20t-1 -28.5h1q1 1 2 1l18 6q1 -2 2 -6t2 -7t2 -5q3 1 7 3t6.5 3t6 3
t5.5 2.5t5.5 1t5 0t4 -1t4.5 -2t4 -4t4 -5.5q18 3 20 10q0 4 -13 6q1 3 4 7t4 7q-6 -2 -19 -5t-20 -5q0 6 8 10t20 8.5t18 8.5q-4 1 -11 2t-12 2q9 5 27.5 14t25.5 13t18.5 12t13.5 13t4 13.5t-4.5 17t-18.5 20t-31 24.5l7 7l12 12q-21 11 -16 31q2 -1 4.5 -4t4.5 -4
q0 35 -16 55zM1301 1115l6 -6q-3 -1 -10 -3t-12 -3q6 0 11.5 -0.5t11.5 -1.5t10 -1q23 22 11.5 28t-27.5 -5l8 -4q-2 -1 -5 -2t-4 -2zM1277 1036q-11 22 -15 10q-3 -9 5 -23q8 10 10 13zM1188 1092q-2 1 -5 2t-4 2q6 3 7 4q-9 3 -19 8q-22 -6 -6 -20q20 -16 40 -10q2 0 3 1
q-10 3 -22 7zM1096 848q-19 -13 -31 -24.5t-18.5 -20t-4.5 -17t4 -13.5t13.5 -13t18.5 -12t25.5 -13t27.5 -14q-5 -1 -12 -2t-11 -2q6 -4 18 -8.5t20 -9t8 -10.5q-7 2 -21 5.5t-19 5.5q2 -2 5 -6.5t4 -7.5q-22 -3 -8 -11q7 -4 15 -5q3 5 5.5 7.5t6 3.5t6 1.5t7.5 -1.5t8 -3
t9.5 -4.5t9.5 -4.5q1 3 3 10t3 9q4 -1 10 -3.5t10 -3.5q4 18 -2 32t-1 24q1 3 15 19q10 -12 9 -3q-2 17 -15 32q-3 4 -6 4q3 2 8.5 7t8.5 7q-2 3 -4.5 7t-5.5 9t-5 8q1 1 18 13q-3 3 -9.5 8.5t-9.5 8.5q22 8 8 21q3 2 8.5 4.5t6.5 2.5q-1 7 6.5 29t-6.5 40q-1 9 -6 12
t-13.5 4t-12.5 3q-4 3 -11 12t-14 13t-16 3l-4 -2q-1 -1 -5.5 -8.5t-14.5 -5.5q-20 8 -33.5 -6.5t-2.5 -34.5q-15 -19 -15 -54q2 1 5 4l4 4q5 -20 -16 -31l6 -6l7 -7zM1117 402q10 -13 16 -2q7 11 -4 18l-6 2zM1036 713q39 -6 42 11q2 13 -16 20q-17 6 -34 -7q1 -2 7 -6
t6 -6.5t-5 -11.5zM923 519q-11 -5 -19 -20v-1q-2 -8 -1 -13l3 -6v0q4 -4 7 -5h1q0 7 1 13v0q15 -10 28 -43.5t26 -40.5q1 0 1 -0.5t1 -0.5q7 1 10 -1t4.5 -7.5t2.5 -7.5q11 6 18.5 7t15.5 -4t11.5 -9t13.5 -17l2 2t1 2q3 4 7.5 9.5t6.5 9.5l4 -14v1q1 2 1 6q1 3 1 11v8
q-2 13 -8 19q12 3 13.5 8.5t-2.5 25.5q39 9 51 38q-3 0 -15 -2l2.5 10t3 11.5t3.5 11.5q2 -4 4.5 -8.5t3.5 -6.5q2 6 3.5 16.5t4.5 18t10 12.5q0 3 -1.5 10t-2 11t1 10t5.5 10q12 19 -11.5 35t-25.5 24q5 0 14.5 -0.5t14.5 -1.5v6q-19 2 -35.5 -6t-32 -8.5t-44.5 18.5
q-7 -17 -12 -38q-10 10 -15 12.5t-21 -0.5q2 5 7 23q-5 -8 -15 -25l-15 -25.5t-11.5 -24t-9 -26.5t-2.5 -25.5t4 -29.5q-12 16 -14 18zM1094 313q3 1 5 7q-1 0 -3 1.5t-4 2.5q0 -3 2 -11zM1212 304q8 -154 29 -289q37 176 35 303q-1 1 1 5q-9 97 -31 215q-29 -141 -36 -232z
M1182 -247h-19q3 -2 8.5 -6t8.5 -6q0 2 1 6t1 6zM1091 -275q8 14 1.5 24t-18.5 11q2 -5 8 -17zM1104 -245q19 -15 46 -23q8 -10 13 -9t14 12q-11 5 -34 14.5t-35 13.5q0 -1 -1 -2.5l-2 -3t-1 -2.5zM1311 -242q4 -7 11 -9t15.5 2t16 8.5t17 10.5t13.5 8q-1 2 -3 8
q-12 -4 -35.5 -13.5t-34.5 -14.5zM1398 -252q3 7 9 18t8 17q-1 3 -6.5 -0.5t-11 -9t-6.5 -5.5q1 -2 3.5 -9t3.5 -11zM2237 178q-11 -3 -30 1t-32 2t-19 -19q26 -6 40 -9l-4 12q30 8 45 11v2zM2023 177q-82 -22 -133 -45q13 -15 33.5 -11.5t34 12t34 21.5t33.5 17q-1 1 -1 3
t-1 3zM1903 -79q2 2 7.5 5t9 6t4.5 7q2 -2 6.5 -4t5.5 -3q2 11 6 29q-6 1 -20 5q5 16 1.5 21t-18.5 4q1 10 -3 12.5t-10 0.5t-11 1l-3 -27q-10 26 -19 26q-8 1 -3 -12q3 -8 12 -15q-3 -1 -7 -3t-5 -2q3 -10 2 -13t-11 -8q6 23 -16 35q-3 -19 7.5 -40t29.5 -20q-8 12 -11 18
q15 8 28 0.5t18 -23.5zM1969 -144q11 18 44.5 35t44.5 37q35 17 51.5 26.5t34.5 32t21 52.5q2 27 -9 65t-32 37q-4 2 -14 7.5t-17 8.5t-16 6t-17 2.5t-14 -5.5q30 -15 26 -31t-37 -23q-1 17 -27 1q-16 -10 -21 -11q5 -22 -12.5 -20t-37.5 18q3 -20 16 -51.5t22.5 -55
t12.5 -47.5t-14.5 -40t-57.5 -22q7 -16 8 -19q3 4 9 10.5t10 10.5v-19q9 7 12 6.5t10 -7.5zM1947 -57q22 -8 28 -10q-1 12 -4.5 13t-23.5 -3zM2032 -208q2 -4 -1.5 -11t-5 -11t8.5 -9q19 -7 27 13q5 -18 21 -18.5t22 8.5q-12 5 -36 14.5t-36 13.5zM2020 -549q2 10 4.5 29
t3.5 27q-20 -26 -8 -56zM2002 -284q6 -27 37 -24q-4 3 -17 11t-20 13zM2040 -261q12 -5 35.5 -15t35.5 -15q-42 37 -110 51q15 -27 39 -22q-2 -2 -7 -6t-8 -7q9 -10 17 -11t8 7t-10 18zM2124 -219q4 0 25 7q5 19 19 39.5t30 12.5q3 10 6 13.5t6.5 3.5t6.5 2t6.5 13t6.5 33
l9 -3q-1 5 -3 12.5t-3 10.5q3 0 11.5 -1t14.5 -2q0 1 2 11t-2 12l-6 -10q0 5 0.5 10.5t0.5 7.5q14 -7 18 3q4 9 -9 12q-7 -5 -13.5 -2t-13.5 7.5t-13 8.5t-10.5 1.5t-7.5 -12.5q-1 1 -5.5 3.5t-7.5 4.5l3 -12q-20 -2 -33 -19.5t-26 -40.5t-28 -32q-2 -2 -7.5 -7t-7.5 -7.5
t-6.5 -7.5t-5.5 -8.5t-2.5 -10t1.5 -10.5q-40 -6 -6 -25q-5 -2 -9 -0.5t-9 0.5t-8 -8q6 -2 26 -10q34 -13 36 -10q1 3 -12 16q1 0 11 -3t15 -3zM2385 -147q-2 1 -7 1h-8q1 4 2.5 11.5t2.5 11.5q3 -9 8.5 -13t18 -7t15.5 -4q-3 8 -10 12t-16.5 6t-13.5 5q3 2 5.5 4t3.5 5.5
t1 5.5t0.5 7.5t0.5 7.5q-6 -4 -20 -14q-6 12 -2 17t11.5 5.5t12.5 4t0 12.5q-8 6 -29 20q2 -3 4.5 -7.5t3.5 -5.5h-26q1 -2 2 -5.5t2 -6.5l2 -6q-52 -44 -122 -131t-57 -124q-7 -3 -8 -19t6 -26q-1 0 -4 0.5t-4 1.5q0 -15 3 -17.5t20 -1.5q-1 -1 -2.5 -3.5t-2.5 -3.5
q14 -5 40.5 -15t38.5 -14q-2 5 -7.5 11.5t-8.5 11.5t-1 10q24 -15 62 -5.5t51 34.5q14 -4 35 65q0 3 -2.5 9.5t-3.5 10.5t-1 8.5t4 6.5t12 1q-3 5 -9 13q18 4 18.5 20t-8 37.5t-8.5 28.5l-15 3q1 3 4.5 10z" />
    <glyph glyph-name="H.alt1" unicode="&#xf009;" horiz-adv-x="1662" 
d="M1061 1425q-3 0 -3 1q3 0 3 -1zM864 1399l1 -1l2 -2q-4 2 -5 3h2zM1032 1423q4 5 7 2q-1 0 -3 -1t-4 -1zM706 1419zM773 195q-2 -3 -5 0h5zM1460 190q2 4 6 0h-6zM1488 202q6 0 6 -1h-3.5t-2.5 1zM648 30q-4 -4 -7 -1q4 0 7 1zM1035 52q1 0 2 -0.5t2 -0.5q-1 0 -2 0.5
t-2 0.5zM929 34zM181 1218q-1 -1 -6 0h6zM195 1214h-5h5zM901 1211q-3 -4 -4 0h4zM190 1407l1 1h2h-1zM1496 45q4 2 7.5 -1.5t6.5 -2.5q-2 -5 -14 -6t-14 -2q-8 5 -13.5 2t-13.5 6q-1 -6 -7 -6q-3 1 -3 5q-3 -5 -7 -4q0 2 -2 2v-36h-218v27q-86 0 -250 4q-4 1 -17.5 1h-21.5
q1 0 4 3q-1 1 -3 1t-3 1q0 -5 2 -5q-13 0 -19 1q1 1 2 3l1 1q-6 -2 -10 5q-2 -7 -5.5 -9t-6.5 3q-5 5 -5 2q0 -1 1 -4q-14 12 -24 5q-3 4 -9 4.5t-14.5 0t-11.5 -0.5l5 -4h-1q-6 1 -6 -4v-3h-7q6 2 4 4q-5 2 -9 -3q-3 4 -7 5t-10.5 0t-7.5 -1q-4 -2 -9.5 2.5t-13.5 -1.5
q-3 -2 -6.5 -1.5t-7 1.5t-6 -0.5t-4.5 -6.5q-1 6 -15 7q-2 0 1 2q2 0 4 1q-110 -24 -313 -17v-24h-218v193q-6 1 -9 2.5t-2 3.5q10 -2 11 -2v4q-5 0 -3 3q1 -1 3 -1v190q-2 1 -4 3h4v1h-5q0 4 5 5v171q-7 0 -2 8q1 2 -0.5 2t-6.5 -2q-21 3 5 7q2 1 4 1v193l-15 3q0 -9 -6 -9
t-9 7q3 5 9 -1l3 -3q1 5 -1.5 7t-6.5 3.5t-6 2.5q-2 0 -3 4t0.5 7t4.5 2h30v216q-3 -3 -5 -2t-12 2q-15 3 -15 5t7 4q1 3 6 1q-1 0 -3 -0.5t-3 -0.5q8 -5 9.5 -4t0 5t2.5 5q8 -2 13 -2v168h-10q-2 8 10 14v189q-2 0 -4.5 0.5t-3.5 0.5h4q-2 4 -6 0q-2 0 -5 1t-4 1q1 -2 0 -3
q-4 0 -3 0q0 1 1 3q-13 3 16 7q2 1 5 1v16h218v-2q179 -10 287 -13q-1 -2 0.5 -2.5t2.5 0.5q0 1 -2 1l-1 1q27 -1 68 -1q1 1 2 0h13q0 -3 1 -5q2 -3 3 0q1 2 0 5q11 -14 26 -5q-2 -5 0.5 -6t4.5 2q-8 2 -2 4q8 2 12 0q1 -1 -2 -3l-5 -2q3 0 7.5 1t6.5 1q-6 2 -4 5
q1 -1 3 -2.5t3 -2.5q47 6 106 9q4 2 5 0q121 6 264 6v9h218v-10h42q10 -18 -42 -28v-172q27 0 27 -5q-1 -2 -3 -4q2 -1 5.5 0t6.5 2t5 0t3 -5q-6 1 -15 -2t-12 -3q-3 1 -4.5 2t-2 1.5t-1.5 1t-3 -0.5l-6 -3v-161h54q6 -7 3.5 -9.5t-9.5 -6.5t-8 -8q10 -1 -1 -2q-5 0 -22 -1
h-17v-222q16 -2 15 -5q7 4 12 5.5t7 1.5t3 -1t1 -3t0.5 -3.5t1 -2.5t2.5 -0.5t6 2.5q16 -5 -8 -8q-22 -2 -40 1v-199q30 -2 44 -3h-2q1 -1 4 -1.5t4 -0.5l-1 2q34 -3 1 -6q-17 -2 -50 -3v-170q13 2 16 -2q7 7 8 -2q13 15 26 1q-7 -4 -2 -4q15 1 16 0q-7 -9 -32 -6t-32 0
v-184q11 -3 0 -5v-156q1 0 3 -1t3 -1q15 10 21 2q5 6 7.5 1t4.5 2h7q11 1 12 -2l-4 -7q15 0 6 5zM1479 402q-1 0 -2.5 -0.5t-2.5 -0.5q2 -2 5 1zM1447 402q-3 1 -7 -3q3 1 7 3zM1471 794q-1 0 -3 -0.5t-4 -0.5q4 -4 7 1zM1473 1030q1 3 -3 2h-3q0 -2 3 -2h3zM1459 1028
q0 1 -5 1q0 -1 5 -1zM1460 1220q-2 1 -5 -2q2 -1 5 2zM1465 1412l-1 -1q8 -2 11 0q-4 1 -10 1zM1446 1423h-7q1 -3 7 0zM190 1034q2 -4 5 -1q-1 0 -2.5 0.5t-2.5 0.5zM419 210q286 16 799 6v162q-76 2 -197 10h-2q-19 1 -55 3q0 1 -1 1l-2 1v-2q-7 1 -20 1t-20 1q-2 2 -5 1
q-17 1 -49 1l1 -1q2 -1 3 -2h-8q-12 0 -12 2q4 -1 10 1q-3 0 -9 0.5t-9 0.5h-2q-26 0 -72 -2q12 4 -2 4h-8q10 -7 1 -6q-16 0 -18 5q-4 1 -4.5 1.5t-3.5 -4.5l-2 -4q-2 7 -18 6q-4 -1 0 1q2 1 7 3q-6 3 -11 -2.5t-10 -3.5q-6 -2 -16.5 -2.5t-14.5 -1.5q2 -1 -1 0q-8 3 -9 -1
l2 -2q-5 -2 -5 -3q-3 -2 -9 1t-8 -3q-19 -5 -17 2q0 1 1 3q-7 -10 -28 -2q-3 1 -3 -1q-1 0 0 -2q-5 -2 -7 4q-2 -13 -9 -4h-17v-1h-2v1q-40 0 -138 2v-174zM1168 188q1 1 -1 1l-2 1q-1 -1 1 -1zM1112 193q-5 3 -5 -4l3 3zM1081 186q0 1 -2 2h-2l2 -1zM1059 188q-4 0 -7 1
q3 -5 7 -1zM979 203q-2 1 -5.5 1t-5.5 1q2 -3 4.5 -3.5t4.5 0t2 1.5zM914 204q0 3 -4 1q0 -1 -1 -1h-1h6zM886 215q-1 1 -5 -2q2 -1 5 2zM789 202q-2 1 -4 1q-1 -2 0.5 -2.5t3.5 1.5zM775 204q-1 1 -2 -2l-1 -2q2 -1 3 4zM668 212q-1 0 -2.5 -0.5t-2.5 -0.5q3 -4 5 1z
M655 208q-5 0 -5 -2q1 0 2.5 1t2.5 1zM578 389l2 -1q2 -1 3 -2q-1 5 -2 5zM591 389h5h-5zM609 383q1 -1 4 1q-1 1 -4 -1zM631 384q3 -2 7 2q-6 -2 -7 -2zM693 397h3h-3zM777 402q-1 -3 2 -3h2q0 1 -2 2zM915 401q0 -4 3 -4q-2 2 -3 4zM1111 595q8 0 23 -0.5t22 -0.5l-1 -1
l2 1q11 0 31.5 -1t29.5 -1v50h-799v-41q73 3 112 2t129.5 -8t100.5 -8h1h17q1 -1 4 -2.5l5 -2.5q5 12 12 5q3 -2 3 -1v4q6 -7 12.5 -8t8.5 1t5 -4q7 11 16.5 3t16.5 0q28 6 92.5 4.5t89.5 13.5q19 3 48 -4l-2 3q8 -5 8 1q2 1 10 -4q-4 2 1 2h3v-1q-1 -1 -1 -2zM1102 590
q1 2 -2 3q-1 0 -2 1q0 -4 1 -4.5t3 0.5zM1089 592h-4v-1zM1072 597h-4h4zM1049 597h-5q0 -3 3 -1q1 1 2 1zM966 582zM966 582zM954 584h-3h3zM905 579q0 2 -5 3q-1 -3 3 -3h2zM877 568q1 2 -1 3t-4 0q1 -1 2.5 -2t2.5 -1zM843 579q-2 4 -5 0h5zM780 582h-5h5zM766 579
q-1 6 -3 6zM646 577q-3 0 -10 2.5t-11 1.5q9 -7 21 -4zM453 587q0 3 -2 1q1 0 1 -0.5t1 -0.5zM794 806q0 -2 3 -3q2 -1 3 -2q1 3 -3 4q-2 0 -3 1zM1014 799q1 0 2.5 -0.5t2.5 -0.5h3q-3 4 -8 1zM419 1039q406 8 799 8v151q-48 -1 -103.5 1t-129 6.5t-84.5 5.5q1 0 1 1
q-1 0 -3 1t-3 1v-1q1 -1 1 -2q-4 0 -10 0.5t-9 0.5q-2 -5 -6 -1l2 1h2q-3 0 -8 0.5t-7 0.5q-2 3 -4.5 -0.5t-4.5 2.5q-5 5 -41 5q-10 -1 -8 -3q-1 -1 -3.5 -0.5t-4.5 -2.5q-2 -1 -4.5 1.5t-7.5 -5.5q-2 4 -28 2q-7 0 1 4q2 1 5 2q-2 3 -6 -0.5t-7 -2.5q-4 4 -13 0.5
t-13 -0.5t-6.5 -2t-9.5 0q-9 5 -50 -4.5t-56 -7.5q-5 -5 -16.5 -1t-14.5 4q4 -4 0.5 -4t-4.5 3q-2 -4 -4.5 -4.5t-4.5 3.5q-1 -1 -3.5 -1h-3.5l1 1q-54 -2 -131 0v-163zM1091 1022q-5 3 -6 -3zM1078 1022q-1 0 -2.5 0.5t-2.5 0.5q-1 -1 1 -2zM1036 1017q-1 1 -3 1t-3 1
q3 -3 6 -2zM1031 1024q0 -1 2 -1t2 1h-4zM892 1031q-2 5 -5 2q1 -1 2.5 -1t2.5 -1zM863 1030q1 1 1 2t-1 1q-1 -1 0 -3zM757 1042q0 1 -5 1q0 -1 5 -1zM646 1038q-2 2 -9 2q0 -1 1.5 -1.5t3.5 0t4 -0.5zM442 1025h-5h5zM558 1207q1 -1 2.5 -1t2.5 -1q-1 5 -4 3q0 -1 -1 -1z
M571 1208q0 -1 5 -1q0 1 -3 1h-2zM599 1204q0 -1 3 -1q0 1 -3 1zM617 1204q-1 0 -3 -0.5t-3 -0.5q2 -3 6 1zM613 1210q0 -1 2 -1t2 1h-4zM785 1220q-1 -2 0 -3q1 0 0 3zM896 1219q-1 -1 1 -5q1 1 0 3zM1003 1224q7 0 9 1q-8 2 -9 -1zM1029 798h3q-2 2 -3 0zM1438 795
q0 2 -2 0v-2zM1093 1419l-3 3l-2 1q0 -6 5 -4zM960 1409q0 4 -6 2l-6 -2q2 -2 6 -1t6 1zM893 1407q1 2 -2 2q-1 1 -2 1q-1 -2 2 -2zM768 1410q0 1 -3 1q0 -1 3 -1zM754 1409v3h-2l1 -1q1 -1 1 -2zM675 1406h-4q2 -2 4 0zM656 1405q-1 2 -3 2q1 -2 3 -2zM648 1401q-2 4 -5 0
h5zM442 1417h-2l1 -1zM419 1400v-158q110 2 267.5 -3t318 -12t213.5 -8v169q-70 1 -194.5 6t-159.5 5h-3h1q-27 0 -47 -2q-34 -1 -94 1t-81 2q-17 -5 -23 5q-1 2 0 2q2 0 6 -5q26 3 -5 7h-4q3 -4 -5 -8q-10 -2 -14 6q-19 -3 -77 -6t-99 -1zM419 1012v-205q521 0 799 -9v216
q-93 4 -125 3q-5 -8 -9 1q-4 -5 -8 -3q6 2 0 3l-3 1q-2 -13 -51 -3q-15 3 -15 4t3 1q-3 3 -16.5 3t-25 1.5t-11.5 7.5q-3 1 -7 1q-5 -1 -1 -3q2 0 5 -1q-3 -3 -6 -3t-4.5 1t-3.5 -0.5t-3 -6.5q-2 6 -5.5 7.5t-6 0.5t-6 -1.5t-7.5 1.5q0 -2 2 -2.5t2 -1.5q-8 -3 -12 0
q-2 2 3 3l5 1q-8 5 -11 1q-5 -2 -23.5 -2.5t-24.5 -1.5q1 4 -0.5 4.5t-4.5 -0.5h-1.5h-1.5q7 6 -5 5q-5 0 -17 -2q-19 -2 -22 -1q-10 -9 -10 -6q1 3 0 3t-3 -2q-4 -7 -9.5 -0.5t-8.5 0.5q-1 1 -2 3q-2 3 -5 1q4 -2 5 -6q0 -2 -1 -2q-1 -1 -3 2q-7 -5 -10.5 -3.5t0.5 11.5
q-55 -11 -163.5 -19t-171.5 -2zM197 789q1 0 3 -1h1v1q-11 3 -15 2q2 -1 5.5 -1t5.5 -1zM419 574v-156q311 3 604 -12v-1q1 1 4 1h3q4 0 11 -1t8 -1q-1 1 -1 2q1 0 3 -1t3 -1l2 -1v0q6 0 65.5 3.5t96.5 3.5v159q-565 -9 -714 3q-12 2 -85 2zM588 33l6 -3q-2 6 -6 3zM601 34
q1 -1 5 -1q0 1 -5 1zM643 35q0 -1 2 -1t2 1h-4zM788 46q1 -3 3 -3zM914 40zM927 40q1 1 0 3t-1 3q-1 -1 1 -6zM1039 51q144 -8 179 -11v148q-11 -1 -32.5 -1.5t-33.5 -0.5q1 0 1 -1q-3 0 -3 1q-3 0 -9 -0.5t-9 -0.5v-1l-1 1q-3 0 -9.5 -0.5t-9.5 -0.5q-5 -1 -6 1.5t-8 -0.5
q3 3 0 4q-2 0 -2 2q-3 -3 -7.5 -5t-10.5 -2h-11t-13.5 1.5t-12.5 1.5q-32 14 -119 9q1 1 4.5 1.5t3.5 5.5q-6 -1 -12 -2.5t-9 -1.5t-14 1q-6 0 -8 -5q-1 3 -11 3q-2 0 -2 2q-5 7 -12 5.5t-12 0.5q-19 -6 -77 -11v2q-4 2 -5 -2q-176 -15 -349 -11v-118q247 6 616 -14
q-2 0 -2 -3h8q0 2 -2 2zM1452 43q1 0 3.5 1t3.5 1q-2 5 -7 -2zM1485 43q1 -2 3 0q0 1 0.5 1.5t1.5 0.5q-2 1 -5 -2zM845 1216q6 -5 3 -6l-5 1q-2 2 -7 -0.5t-6 1.5q10 0 15 4zM816 1216l12 2q5 -1 2 -6q-2 2 -7 1.5t-7 2.5zM844 43h7q11 1 11 -1q0 -1 -2 -3q-2 1 -8 0.5
t-8 3.5zM818 195q3 4 6 4.5t7.5 -1.5t8.5 -1q-4 -2 -10.5 -1.5t-11.5 -0.5zM764 39q1 1 14 -2q-14 -5 -15 0q0 1 1 2zM736 1214q2 1 5.5 -0.5t6.5 0.5q-7 -6 -13 -4q-2 0 1 4zM805 1411q0 1 -2.5 3t-2.5 4q1 -1 5 -1q6 -1 0 -6zM872 38q2 4 6 1q2 -1 3 -2q-5 -2 -9 1z
M917 1375q-3 -4 -9 0q1 0 4 1q5 2 5 -1zM857 201q11 4 12 0q-2 1 -12 -3q-2 0 0 3zM741 1253q-5 -3 -9 -1q2 3 9 1zM928 238q6 2 9 -2q-3 -2 -9 2zM762 77q1 2 11 2q-5 -4 -11 -2zM812 195q7 -3 4 -4t-8 1q-1 2 2 2zM702 1210q-3 -6 -6 -2q-1 2 -1 4q1 0 3.5 -0.5t3.5 -1.5z
M968 195q1 0 3 1q1 1 2 0.5t1 -4.5zM726 37l5 -3q-5 -2 -5 0v3zM866 38q-3 -4 -6 0h6zM853 1205q5 4 9 3zM883 32q1 0 3.5 1t3.5 1.5t2 -1.5q-1 0 -3.5 -1t-3.5 -1.5t-2 1.5zM1479 794q1 1 3 0q3 -1 1 -2q0 -1 -2 -1h-1zM860 1419l-3 -2q-2 0 -3 1q1 0 3 0.5t3 0.5z
M813 1415q5 3 7 0h-7zM874 196q1 0 3 -1q3 -1 3 -2q-1 0 -3 1q-3 1 -3 2zM907 39l-1 -5l-3 2q2 1 4 3zM835 44q4 2 5 -3q-1 1 -2.5 2t-2.5 1zM1490 399q0 2 -4 2q5 0 5 1q0 -1 -1 -3zM809 1216q-3 3 -3 4q3 -3 3 -4zM1471 1218q-4 1 -5 1l1 1h2q5 2 2 -2zM1101 1017
q-4 -4 -8 0h8zM671 1421q-2 -1 -4 3q1 -1 4 -3zM1019 192h4h-4zM995 192h3h-3zM790 1210q5 0 5 -1h-2h-2t-1 1zM1489 793q0 -1 -5 -1h2q2 1 3 1zM1481 583h4h-4zM1473 585l-3 -1h1q1 1 2 1zM758 589q5 5 6 -1q-1 -1 -2 -1h-1q-1 0 -3 2zM1160 596l-1 -1q-1 -1 -2 -1h-1
q2 2 4 2zM1457 595l-3 -3q-3 -2 -4 2q2 0 4 0.5t3 0.5zM195 399h1q0 -1 1 -2q-2 0 -2 2zM1023 406q0 2 8 1l-1 -1h-7zM923 392q-5 -4 -7 2q1 0 2.5 -0.5t2.5 -0.5q2 0 2 -1zM964 389l-2 1q-1 0 -1 1h3v-2zM816 583q-9 7 0 7q3 0 9 -1q5 -1 6 -1q-2 -1 -8 -0.5t-7 -4.5z
M832 1031q-1 -5 -6.5 -4t-7.5 0q-1 4 1 5t7 0zM798 1023q4 7 11 3q-2 0 -5.5 -1t-5.5 -2zM753 827q-8 -3 -9 -2q4 5 9 2zM908 1067q6 2 8 -1q-3 -3 -8 1zM929 549q-3 -7 -10 -2q2 1 5 1.5t5 0.5zM762 435q-6 -4 -10 -2q4 4 10 2zM798 590q1 3 11 3q-4 -3 -11 -3zM959 589
q3 6 6 2l1 -4q-1 1 -3.5 1t-3.5 1zM953 1026q1 -4 -1.5 -4.5t-4.5 2.5q1 0 3 1t3 1zM785 1022q3 2 7 1t4 -4q-3 1 -11 3zM810 391q1 0 2 1q3 2 3 -1h-5zM722 392q-6 -6 -7 1q2 -1 7 -1zM870 589q-4 -1 -4 0.5t4 1.5v-2zM1012 592h5h-5zM818 1028q-1 -7 -5 -2l3 1q2 0 2 1z
M776 1025q-3 -3 -6 2q2 0 6 -2zM893 392q5 2 6 2q-5 -5 -6 -2zM848 583q-2 3 0 3t4 -2q-4 0 -4 -1zM192 583q4 -2 -2 -5q-1 1 0 3zM784 588q2 4 4 1l-2 -1h-2zM838 1028h-4h4zM858 1023h-2h-2t-1 1q5 0 5 -1zM683 593l-2 1q-4 0 -3 2q1 0 3 -2q1 -1 2 -1z" />
    <glyph glyph-name="A.alt1" unicode="&#xf00a;" horiz-adv-x="1667" 
d="M1637 2h-233l-2 3q-35 2 -35 13q1 10 25 14l-57 138q-66 -3 -159 -6q1 0 1 -1q-3 0 -3 1q-3 0 -9 -0.5t-9 -0.5v-1l-1 1q-3 0 -9 -0.5t-9 -0.5q-5 -1 -6.5 1.5t-8.5 -0.5q3 3 0 4q-2 0 -2 2q-3 -3 -7 -5t-10.5 -2h-11t-13 1.5t-12.5 1.5q-32 14 -119 9q1 1 3 1t3 1t1 5
q-3 0 -16.5 -4t-18.5 0q-6 0 -8 -4q-1 3 -11 3q-2 0 -2 2q-5 7 -12 5.5t-12 0.5q-19 -6 -77 -11v2q-4 2 -5 -2v-1q-173 -14 -359 -10q5 -3 -2 -4q-15 -2 -18 5q-1 2 5 4q1 1 4 2q-2 2 -5 2h-4q-1 4 -5 5.5t-5 2.5q1 1 -1 5q-1 0 2 1q118 9 430 11t492 -4l-67 164
q-60 1 -214 10h-1q-38 2 -56 3q0 1 -1 1h-2v-1q-7 1 -20 1t-19 1q-2 2 -5 1v-1q-34 2 -50 2l1 -1q2 -1 3 -2h-8q-12 0 -12 2q4 -1 10 1q-3 0 -8.5 0.5t-8.5 0.5h-2q-26 0 -72 -2q10 3 -2 4q-5 1 -9 0q10 -7 1 -6q-16 0 -18 5q-4 4 -8 -4q-1 -3 -2 -4q-2 7 -17 6q-3 0 -1.5 1
t8.5 4q-6 3 -11.5 -2.5t-10.5 -3.5q-6 -2 -16.5 -2.5t-14.5 -1.5q3 -2 -1 -1q-8 2 -9 -1l4 -1h-2q-5 -1 -5 -3q-3 -2 -9 1t-8 -3q-19 -5 -17 2q0 1 1 3q-7 -10 -28 -2q-3 1 -3 -1q-1 0 0 -2q-5 -2 -7 4q-2 -13 -9 -4h-17q1 0 1 -1h-3l1 1q-75 0 -116 1l-132 -322
q198 17 725 -10q-2 0 -2 -2h8q0 2 -2 2q252 -14 231 -20q-19 -5 -300 2h-1h-1q-4 1 -17.5 1h-21.5q1 0 4 3q-1 1 -3 1t-3 1q0 -5 2 -5q-12 0 -18 1q1 1 2 3l1 1q-7 -2 -11 5q-2 -7 -5.5 -9t-6.5 3q-4 4 -4 3t1 -5q-14 12 -24 5q-3 4 -9 4.5t-14.5 0t-11.5 -0.5l4 -4h-1
q-6 1 -6 -4v-3h-7q6 2 4 4q-5 2 -9 -3q-3 4 -6.5 5t-10 0t-7.5 -1q-4 -2 -9.5 2.5t-13.5 -1.5q-3 -2 -7 -1.5t-7 1.5t-6 -0.5t-5 -6.5q-1 6 -15 7q-2 0 1 2q2 0 4 1q-85 -18 -211 -19t-223 7l-3 -7h-231l154 364q-18 5 -21 9q1 0 3 1h3q-1 1 -7 1q0 5 30 10l69 164
q-15 0 -42.5 1t-34.5 1.5t-14 -0.5t-8 1q0 1 2 5t0 4q-1 0 -6 -2q-21 2 7 7q1 0 4 1q5 1 7 1t5 -3t5 0q9 -2 18 -0.5t32 5t36 4.5l75 178q-146 -2 -195 11q0 -9 -6 -9t-9 7q3 5 9 -1l3 -3q1 5 -1.5 7t-6.5 3.5t-6 2.5q-2 0 -3 3.5t0.5 6.5t4.5 2q37 0 111.5 0.5t111.5 0.5
l85 202q-76 0 -102 11q-14 5 -19 11q-2 5 -1.5 4.5t2.5 0.5t2 4q2 -1 4 -4q3 -3 6 2q20 1 60.5 1.5t60.5 0.5l67 159l-1 1l-1 2q-1 -1 -4 -1h-4h1q-43 -1 -173 2t-186 1q-5 24 98 32t288 5l67 159h-4q-19 -5 -22 5q-1 2 0 2q2 1 6 -5q26 3 -7 7h-3q3 -4 -5 -8q-10 -2 -14 6
q-55 -9 -159 -7q-90 3 -66 20h6l-5 5l-5 2q2 1 7 1t5 1q-4 3 3 3h11l-6 -5q6 0 14 7q109 -8 253 -13l14 35h342l15 -34q60 2 454 2q17 -31 -134.5 -36t-307.5 5l71 -170q138 -5 174 -4q7 8 10 2q0 -4 -2.5 -6.5t-5.5 -4t-5.5 -2.5t-3.5 -1.5t1 -2t8 -4.5q-55 -5 -165 -1
l64 -152q52 0 154.5 -0.5t153.5 -0.5q6 -7 3.5 -9t-9.5 -6t-8 -8q12 -1 -4 -2q-10 -1 -54 -1q-130 -2 -160 -7q5 0 4 -2q-1 1 -2 1q-2 0 -2 1q-9 1 -31 1.5t-32 0.5l92 -219q3 0 9 -0.5t9 -0.5l-2 -2q1 -5 -4 -6t-5 -4h-1l82 -195q91 -4 106 -5h-3q1 -1 4 -1.5t4 -0.5l-1 1
q35 -3 -8 -6q-28 -2 -95 -4l71 -169q6 6 7 -3q13 15 26 1q-7 -4 0 -4q12 0 14 -1q-11 -8 -42 -4zM1504 380q-1 0 -3 -0.5t-3 -0.5q3 -3 6 1zM1497 1008q1 3 -3 2h-3q0 -2 3 -2h3zM1483 1006h-5h5zM1390 997l-4 6q1 -5 4 -6zM1489 1390h-4q7 -4 15 -1q-4 1 -11 1zM1470 1401
q-1 0 -3 -0.5t-3 -0.5q2 -4 4 -1q1 2 2 2zM1117 1397l-3 3l-2 1q0 -6 5 -4zM464 1395l1 -1l1 1h-2zM306 1185q1 -1 3 0l1 1q-1 2 -4 -1zM462 1003q0 -1 4 -1q0 1 -4 1zM222 767q6 -1 5 0l-16 2q2 -1 5.5 -1t5.5 -1zM317 758h5q-2 3 -5 0zM226 557q1 0 3 0.5t3 0.5
q-3 3 -6 -1zM297 570l-4 -6q5 1 4 6zM258 557q1 -2 7 1q-1 1 -7 -1zM292 560q1 -1 4 -1h4q0 2 -5 1h-3zM951 23q-2 -2 0 -5v5zM938 18zM812 24q1 -3 3 -3zM671 13h-3q0 -1 1.5 -1t1.5 1zM630 11h-5h5zM618 8q-2 6 -6 3zM340 13q0 -1 -2 -2l-2 -1q3 0 4 3zM406 181h2l-1 2z
M674 184q1 0 2.5 1t2.5 1q-5 0 -5 -2zM687 189q3 -4 5 1q-1 0 -2.5 -0.5t-2.5 -0.5zM796 178q1 -2 2 1l1 2zM809 181q-1 -2 0 -2q2 -1 5 1q-2 1 -5 1zM905 191q2 -1 5 2q-1 1 -5 -2zM933 182h5q0 3 -3 1q-1 -1 -2 -1zM993 183q2 -3 4.5 -3.5t4.5 0t2 1.5q-2 1 -5.5 1t-5.5 1
zM1076 167q3 -5 7 -1q-4 0 -7 1zM1101 166l2 -1l2 -1q0 1 -2 2h-2zM1131 167l3 3l2 1q-5 3 -5 -4zM1189 168q-1 -1 1 -1l2 -1q1 1 -1 1zM1369 20q3 -5 7 -1q-1 0 -3 0.5t-4 0.5zM625 751l-54 -137h583l-56 140q-169 8 -182 8q1 2 1 3q-1 5 -4 -2q-1 -4 -4 -1q-1 1 -0.5 1.5
t2.5 0.5q3 3 -1 5q-9 -9 -12 -10.5t-7 2.5t-9 6q5 -5 3 -5t-8 1l3 3l1 2q-7 2 -31 -1q5 4 -4 6t-10 -1q-1 -2 4 -4q-3 0 -5 1q-2 0 -2.5 -0.5t-1.5 -3.5q-2 4 -8.5 0.5t-8.5 -3.5q8 5 -2 5l-24 -1q0 1 3 2q-14 3 -14 0q0 -1 2 -3q2 -3 -1 -3t-11 2q-3 0 -7.5 2t-7 1t-5.5 -8
q-22 10 -38 7t-42.5 -10t-41.5 -5zM648 755q4 -1 5 1h-2.5t-2.5 -1zM709 768v-1h3l-1 1h-2zM725 768q2 -1 3.5 -0.5t5 1.5t4.5 1q-6 3 -13 -2zM743 767q1 -1 4 1q0 1 -2 0zM768 765zM792 772q3 -4 5 1q-1 0 -2.5 -0.5t-2.5 -0.5zM818 784q0 -2 3 -3q2 -1 3 -2q1 3 -3 4
q-2 0 -3 1zM855 773q2 -4 5 -1q-1 0 -2.5 0.5t-2.5 0.5zM863 770q1 0 2.5 -0.5t2.5 -0.5q1 2 -1 3t-4 -2zM891 767q1 0 2 -3q2 -4 4 -2q-1 6 -6 5zM917 769q2 -2 5 2q-1 -1 -2.5 -1t-2.5 -1zM977 763q2 -3 5 0h-5zM1011 774q0 -1 3 -1q0 1 -3 1zM1029 774h1q2 0 2 -1l-2 1
h-1zM1038 777q2 0 5 -0.5t4 -0.5q-3 5 -9 1zM1051 775q5 -3 6 1q-3 2 -6 -1zM1058 774q12 -5 13 -4q-2 1 -4.5 3.5t-3.5 2.5t-5 -2zM1082 774l1 -1q1 -1 2 -1q1 1 -3 2zM667 1379h1l1 2zM862 1350l-53 -136q19 -1 55 -2.5t54 -1.5zM921 1192q1 1 0 3l-1 2q-1 -1 1 -5z
M809 1195q2 0 1 2q-2 -1 -1 -2zM582 1185q0 -1 2 -1t2 -1v2q0 3 -4 0zM800 1192l-68 -171q86 1 260 3l-66 165v0v1q-2 0 -6 2v-1q1 -1 1 -2q-4 0 -10 0.5t-9 0.5q-2 -4 -5 -1q1 0 3 1q-3 0 -8 0.5t-7 0.5q-2 3 -4.5 -0.5t-4.5 2.5q-5 5 -41 5q-10 -1 -8 -3q-1 -1 -3.5 -0.5
t-4.5 -2.5q-2 -1 -4 1.5t-7 -5.5q-2 4 -8 4zM916 1009q-2 5 -5 2q1 -1 2.5 -1t2.5 -1zM888 1008q1 1 0.5 2t-1.5 1q-1 -1 1 -3zM781 1020q0 1 -4 1q0 -1 4 -1zM778 1011q-8 -2 -53 -8l-87 -218q210 0 450 -5l-88 223q-19 2 -19 8q-3 1 -7 1q-5 -1 -1 -3q2 0 5 -1
q-3 -3 -6 -3t-4.5 1t-3.5 -0.5t-3 -6.5q-2 6 -5 7.5t-6 0.5t-6 -1.5t-7 1.5q0 -2 2 -2q1 -1 1 -2q-8 -3 -11 0q-2 2 2 3q2 1 6 1q-8 5 -12 0q-5 -2 -22.5 -2t-25.5 -1q1 4 -0.5 4.5t-4.5 -0.5h-1.5h-1.5q7 6 -5 5q-5 0 -17 -2q-19 -2 -22 -1q-10 -9 -10 -6q1 3 0 3t-3 -2
q-4 -7 -9.5 -0.5t-8.5 0.5q-1 1 -2 3q-2 3 -5 1q4 -1 5 -6l-1 -2q-1 0 -2 2q-7 -5 -11 -3.5t0 11.5zM602 367l2 -1l3 -3q-1 6 -5 4zM616 367q0 -1 4 -1q0 1 -4 1zM633 361h4h-4zM655 362q3 -2 7 2q-6 -2 -7 -2zM717 375h4h-4zM801 380q-1 -3 3 -3h2q0 1 -2 2zM939 379
q0 -4 3 -4q-2 2 -3 4zM1080 381q6 0 67.5 3.5t98.5 3.5l-28 69h-713l-25 -61q318 2 567 -12v-1q1 1 4 1h4q5 0 11 -1t7 -1q-1 1 -1 2q1 0 3 -1t3 -1l2 -1v0zM1085 1403q-3 0 -3 1q3 0 3 -1zM1056 1401q3 5 7 1q-1 0 -3 -0.5t-4 -0.5zM797 173q-2 -4 -5 -1h2q2 1 3 1z
M1481 573l-3 -3q-2 -2 -3 2q2 0 3.5 0.5t2.5 0.5zM1497 563l-3 -1h1q1 1 2 1zM1505 561q3 0 4 -1h-1q-2 1 -3 1zM1403 571q-2 -4 -4 -1q1 0 2 0.5t2 0.5zM947 370q-4 -3 -6 1h5q1 0 1 -1zM988 367l-2 1q-1 0 -1 1h3v-2zM219 377h1q0 -1 1 -2q-2 0 -2 2zM1047 384q0 2 8 0h-8
zM673 8q-5 -4 -7 -2q1 0 7 2zM953 12zM1059 29h4h-4zM1327 16q3 0 3 -1q-3 0 -3 1zM206 1196q-1 -1 -6 0h6zM220 1192h-5h5zM926 1189q-3 -5 -5 0h5zM1508 769q15 -5 -7 -7q-41 -3 -51 5q-2 -6 -7 -5q3 5 -2 3q-9 -5 -11 -4q-2 0 -4 -3t-4 -3q-5 3 -14 2t-19.5 -2t-19.5 -2
t-14.5 2t-4.5 11q-28 9 11 12q64 5 108 -3q9 -2 7 -4q23 12 23 0q0 -7 9 -2zM1352 769q1 -7 6 -2zM1420 768q2 0 4 0.5t4 0.5q-2 5 -8 -1zM1424 760q1 1 2.5 3t2.5 3q-5 -1 -5 -6zM1456 771q1 -2 4 0q2 1 3 1q-1 2 -4 0q-2 -1 -3 -1zM1489 771q4 -4 7 1q-1 0 -3 -0.5
t-4 -0.5zM214 1385l1 1h2h-1zM220 999q-2 1 -12 2q-15 3 -15 5t7 4q1 3 6 1q-1 0 -2.5 -0.5t-2.5 -0.5q8 -5 9.5 -4t0 5t2.5 5q18 -5 78.5 3t77.5 -10q-24 -29 -105 -4v-3q-2 -1 -3 0t-2 5q-2 -11 -12 -1q-10 -10 -15 -4q-3 4 -6.5 -0.5t-5.5 -2.5zM357 1006q0 5 -4 2
q-1 -1 -2 -3q1 0 3 0.5t3 0.5zM287 1008q-1 3 -6 3q1 -3 6 -3zM284 1000q2 2 0 5q-1 1 -3 0q2 -4 3 -5zM251 1010q-2 3 -6 2q1 0 3 -1t3 -1zM219 1011q-1 0 -2.5 0.5t-2.5 0.5q2 -4 5 -1zM870 1193q5 -4 3.5 -5t-6.5 1q-2 2 -7 -0.5t-6 1.5q12 0 16 3zM840 1194l12 2
q5 -1 2 -6q-2 2 -7 1.5t-7 2.5zM868 21h7q10 0 11 -2l-2 -3q-2 1 -7.5 1t-8.5 4zM842 173q3 4 6 4.5t7.5 -1.5t8.5 -1q-4 -2 -10.5 -1.5t-11.5 -0.5zM856 1009q-1 -5 -6.5 -4t-7.5 0q-1 4 1 5t7 0zM788 17q1 1 14 -2q-14 -5 -15 0q0 1 1 2zM822 1001q4 7 11 3q-2 0 -5.5 -1
t-5.5 -2zM896 16q2 4 6 1q2 -1 3 -2q-5 -2 -9 1zM778 805q-8 -3 -9 -2q4 5 9 2zM932 1045q6 2 8 -1q-3 -3 -8 1zM893 179q-2 2 -11 -3q-1 0 -1 0.5t1 2.5q10 3 11 0zM952 216q7 2 10 -2q-4 -2 -10 2zM787 55q1 2 10 2q-5 -3 -10 -2zM832 170q0 3 4 2q4 -2 4 -3h-6zM776 411
q4 4 10 2q-6 -4 -10 -2zM731 759q-1 6 3 4q3 -1 4 -1q0 -1 -7 -3zM1438 1192q-1 -6 -6 -4q0 2 2 4q-4 -1 -19 -5t-25 -6t-22.5 -3t-20 2.5t-9.5 11.5q-18 4 -1 10q2 0 6 2q12 3 15 5q10 -7 89 -6q41 0 40 -6q0 -2 -2 -4q3 -1 7.5 0.5t7.5 1t4 -5.5q-6 1 -15.5 -1.5
t-11.5 -2.5q-3 1 -5 2t-2.5 1.5t-3 0t-8.5 -3.5q-5 8 -11.5 4.5t-8.5 2.5zM1484 1197q0 1 -5 -1q0 -1 5 1zM1452 1199q-4 0 -6 -4zM1341 1195q-1 -3 1 -3.5t4 1.5q-1 0 -2.5 1t-2.5 1zM1412 1187h1l2 3q-3 -1 -3 -3zM1410 1196q1 -2 3.5 -1.5t3.5 3.5q-6 -2 -7 -2zM992 173
q1 0 3 1t3 0.5t1 -4.5q-1 0 -3 1q-3 1 -4 2zM977 1004q1 -4 -1.5 -4.5t-4.5 2.5q1 0 3 1t3 1zM750 15l6 -3q-7 -2 -6 3zM810 1000q10 5 10 -3q-6 2 -10 3zM891 16q-3 -4 -7 0h7zM877 1183q6 5 10 3q-2 0 -5.5 -1t-4.5 -2zM907 10q1 0 3.5 1t3.5 1.5t2 -1.5q-1 0 -3.5 -1
t-3.5 -1.5t-2 1.5zM1506 769h-1q-2 0 -2 0.5v2.5q1 1 3 0q4 -1 2 -2q0 -1 -2 -1zM834 369q1 0 2 1q4 2 4 -1h-6zM740 371q2 -1 6 -1q-5 -5 -6 1zM874 764q-6 -4 -8 0h8zM904 171q-1 0 -3 1q-3 1 -3 2q1 0 3 -1q3 -1 3 -2zM932 17q-1 -6 -5 -3q1 0 3 2q2 0 2 1zM859 22
q4 2 5 -3q-1 1 -2.5 2t-2.5 1zM680 759h4q-1 0 -2 -1zM842 1006q-1 -6 -4 -2l2 1zM801 1003q-4 -4 -7 1q5 0 7 -1zM917 370q4 2 6 1q-5 -5 -6 -1zM1515 377q0 1 -5 1h1q1 1 2 1q5 2 2 -2zM206 1385q-4 0 -3 0q0 1 1 3q-10 2 5 5q52 12 117 8q47 -3 42 -19q-60 -11 -151 4h4
q-2 4 -6 0q-2 0 -4.5 0.5t-3.5 0.5q0 -1 -1 -2zM358 1390q-2 4 -6 0q4 -2 6 0zM286 1397q-3 -3 -4 -6q4 1 4 6zM289 1387q0 2 -4 1h-1.5h-1.5q0 -2 4 -1h1.5h1.5zM254 1388q-1 0 -3.5 -1t-4.5 -1q3 -3 8 2zM833 1194q-3 3 -3 4q3 -3 3 -4zM1490 1197l1 1h2q5 2 2 -2
q-4 1 -5 1zM846 767h4q0 -2 -4 0zM216 560q3 -2 -2 -4q-1 1 0 2zM1047 170h-4h4zM429 0h4h-4zM399 1174l2 1q2 1 3 0l-2 -1q-3 -1 -3 0zM1019 170h3h-3zM862 1006h-4h4zM882 1001q-4 0 -4 1q4 0 4 -1zM814 1188q5 0 5 -1h-2h-2t-1 1zM1316 159q3 0 3 -1q-3 0 -3 1zM1513 771
q0 -1 -5 -1h2q2 1 3 1zM827 762h2h2t1 -1q-5 0 -5 1z" />
    </font>
</defs>
</svg>
